  0
SECTION
  2
HEADER
  9
$ACADVER
  1
AC1014
  9
$HANDSEED
  5
FFFF
  9
$MEASUREMENT
 70
     1
  0
ENDSEC
  0
SECTION
  2
TABLES
  0
TABLE
  2
VPORT
  5
8
330
0
100
AcDbSymbolTable
 70
     4
  0
VPORT
  5
2E
330
8
100
AcDbSymbolTableRecord
100
AcDbViewportTableRecord
  2
*ACTIVE
 70
     0
 10
0.0
 20
0.0
 11
1.0
 21
1.0
 12
210.0
 22
148.5
 13
0.0
 23
0.0
 14
10.0
 24
10.0
 15
10.0
 25
10.0
 16
0.0
 26
0.0
 36
1.0
 17
0.0
 27
0.0
 37
0.0
 40
341.0
 41
1.24
 42
50.0
 43
0.0
 44
0.0
 50
0.0
 51
0.0
 71
     0
 72
   100
 73
     1
 74
     3
 75
     0
 76
     0
 77
     0
 78
     0
  0
ENDTAB
  0
TABLE
  2
LTYPE
  5
5
330
0
100
AcDbSymbolTable
 70
     1
  0
LTYPE
  5
14
330
5
100
AcDbSymbolTableRecord
100
AcDbLinetypeTableRecord
  2
BYBLOCK
 70
     0
  3

 72
    65
 73
     0
 40
0.0
  0
LTYPE
  5
15
330
5
100
AcDbSymbolTableRecord
100
AcDbLinetypeTableRecord
  2
BYLAYER
 70
     0
  3

 72
    65
 73
     0
 40
0.0
  0
LTYPE
  5
16
330
5
100
AcDbSymbolTableRecord
100
AcDbLinetypeTableRecord
  2
CONTINUOUS
 70
     0
  3
Solid line
 72
    65
 73
     0
 40
0.0
  0
ENDTAB
  0
TABLE
  2
LAYER
  5
2
100
AcDbSymbolTable
 70
2
  0
LAYER
  5
50
100
AcDbSymbolTableRecord
100
AcDbLayerTableRecord
  2
0
 70
0
  6
CONTINUOUS
  0
LAYER
  5
51
100
AcDbSymbolTableRecord
100
AcDbLayerTableRecord
  2
Layer_1
 70
0
  6
CONTINUOUS
  0
ENDTAB
  0
TABLE
  2
STYLE
  5
3
330
0
100
AcDbSymbolTable
 70
     1
  0
STYLE
  5
11
330
3
100
AcDbSymbolTableRecord
100
AcDbTextStyleTableRecord
  2
STANDARD
 70
     0
 40
0.0
 41
1.0
 50
0.0
 71
     0
 42
2.5
  3
txt
  4

  0
ENDTAB
  0
TABLE
  2
VIEW
  5
6
330
0
100
AcDbSymbolTable
 70
     0
  0
ENDTAB
  0
TABLE
  2
UCS
  5
7
330
0
100
AcDbSymbolTable
 70
     0
  0
ENDTAB
  0
TABLE
  2
APPID
  5
9
330
0
100
AcDbSymbolTable
 70
     2
  0
APPID
  5
12
330
9
100
AcDbSymbolTableRecord
100
AcDbRegAppTableRecord
  2
ACAD
 70
     0
  0
ENDTAB
  0
TABLE
  2
DIMSTYLE
  5
A
330
0
100
AcDbSymbolTable
 70
     1
  0
DIMSTYLE
105
27
330
A
100
AcDbSymbolTableRecord
100
AcDbDimStyleTableRecord
  2
ISO-25
 70
     0
  3

  4

  5

  6

  7

 40
1.0
 41
2.5
 42
0.625
 43
3.75
 44
1.25
 45
0.0
 46
0.0
 47
0.0
 48
0.0
140
2.5
141
2.5
142
0.0
143
0.03937007874016
144
1.0
145
0.0
146
1.0
147
0.625
 71
     0
 72
     0
 73
     0
 74
     0
 75
     0
 76
     0
 77
     1
 78
     8
170
     0
171
     3
172
     1
173
     0
174
     0
175
     0
176
     0
177
     0
178
     0
270
     2
271
     2
272
     2
273
     2
274
     3
340
11
275
     0
280
     0
281
     0
282
     0
283
     0
284
     8
285
     0
286
     0
287
     3
288
     0
  0
ENDTAB
  0
TABLE
  2
BLOCK_RECORD
  5
1
330
0
100
AcDbSymbolTable
 70
     1
  0
BLOCK_RECORD
  5
1F
330
1
100
AcDbSymbolTableRecord
100
AcDbBlockTableRecord
  2
*MODEL_SPACE
  0
BLOCK_RECORD
  5
1B
330
1
100
AcDbSymbolTableRecord
100
AcDbBlockTableRecord
  2
*PAPER_SPACE
  0
ENDTAB
  0
ENDSEC
  0
SECTION
  2
BLOCKS
  0
BLOCK
  5
20
330
1F
100
AcDbEntity
  8
0
100
AcDbBlockBegin
  2
*MODEL_SPACE
 70
     0
 10
0.0
 20
0.0
 30
0.0
  3
*MODEL_SPACE
  1

  0
ENDBLK
  5
21
330
1F
100
AcDbEntity
  8
0
100
AcDbBlockEnd
  0
BLOCK
  5
1C
330
1B
100
AcDbEntity
 67
     1
  8
0
100
AcDbBlockBegin
  2
*PAPER_SPACE
  1

  0
ENDBLK
  5
1D
330
1B
100
AcDbEntity
 67
     1
  8
0
100
AcDbBlockEnd
  0
ENDSEC
  0
SECTION
  2
ENTITIES
  0
LWPOLYLINE
  5
100
100
AcDbEntity
  8
Layer_1
 62
3
100
AcDbPolyline
 90
7
 70
1
 10
105.289957
 20
291.152443
 30
0.0
 10
202.279264
 20
291.152443
 30
0.0
 10
202.279264
 20
194.163144
 30
0.0
 10
105.289957
 20
194.163144
 30
0.0
 10
105.289957
 20
291.152443
 30
0.0
 10
105.289957
 20
291.152443
 30
0.0
 10
105.289957
 20
291.152443
 30
0.0
  0
SPLINE
  5
101
100
AcDbEntity
  8
Layer_1
 62
7
100
AcDbSpline
 70
8
 71
3
 72
8
 73
4
 74
0
 40
0
 40
0
 40
0
 40
0
 40
1
 40
1
 40
1
 40
1
 10
119.388124
 20
14.238475
 30
0.0
 10
119.388357
 20
14.774528
 30
0.0
 10
119.102509
 20
15.269961
 30
0.0
 10
118.638312
 20
15.538055
 30
0.0
  0
SPLINE
  5
102
100
AcDbEntity
  8
Layer_1
 62
7
100
AcDbSpline
 70
8
 71
3
 72
8
 73
4
 74
0
 40
0
 40
0
 40
0
 40
0
 40
1
 40
1
 40
1
 40
1
 10
118.638312
 20
15.538055
 30
0.0
 10
118.174115
 20
15.806149
 30
0.0
 10
117.602133
 20
15.806149
 30
0.0
 10
117.137936
 20
15.538055
 30
0.0
  0
SPLINE
  5
103
100
AcDbEntity
  8
Layer_1
 62
7
100
AcDbSpline
 70
8
 71
3
 72
8
 73
4
 74
0
 40
0
 40
0
 40
0
 40
0
 40
1
 40
1
 40
1
 40
1
 10
117.137936
 20
15.538055
 30
0.0
 10
116.673739
 20
15.269961
 30
0.0
 10
116.387892
 20
14.774528
 30
0.0
 10
116.388124
 20
14.238475
 30
0.0
  0
SPLINE
  5
104
100
AcDbEntity
  8
Layer_1
 62
7
100
AcDbSpline
 70
8
 71
3
 72
8
 73
4
 74
0
 40
0
 40
0
 40
0
 40
0
 40
1
 40
1
 40
1
 40
1
 10
116.388124
 20
14.238475
 30
0.0
 10
116.387892
 20
13.702421
 30
0.0
 10
116.673739
 20
13.206988
 30
0.0
 10
117.137936
 20
12.938894
 30
0.0
  0
SPLINE
  5
105
100
AcDbEntity
  8
Layer_1
 62
7
100
AcDbSpline
 70
8
 71
3
 72
8
 73
4
 74
0
 40
0
 40
0
 40
0
 40
0
 40
1
 40
1
 40
1
 40
1
 10
117.137936
 20
12.938894
 30
0.0
 10
117.602133
 20
12.670800
 30
0.0
 10
118.174115
 20
12.670800
 30
0.0
 10
118.638312
 20
12.938894
 30
0.0
  0
SPLINE
  5
106
100
AcDbEntity
  8
Layer_1
 62
7
100
AcDbSpline
 70
8
 71
3
 72
8
 73
4
 74
0
 40
0
 40
0
 40
0
 40
0
 40
1
 40
1
 40
1
 40
1
 10
118.638312
 20
12.938894
 30
0.0
 10
119.102509
 20
13.206988
 30
0.0
 10
119.388357
 20
13.702421
 30
0.0
 10
119.388124
 20
14.238475
 30
0.0
  0
LWPOLYLINE
  5
107
100
AcDbEntity
  8
Layer_1
 62
7
100
AcDbPolyline
 90
6
 70
1
 10
198.708123
 20
11.238481
 30
0.0
 10
114.888124
 20
11.238481
 30
0.0
 10
114.888124
 20
76.568469
 30
0.0
 10
198.708123
 20
76.568469
 30
0.0
 10
198.708123
 20
11.238481
 30
0.0
 10
198.708123
 20
11.238481
 30
0.0
  0
SPLINE
  5
108
100
AcDbEntity
  8
Layer_1
 62
7
100
AcDbSpline
 70
8
 71
3
 72
8
 73
4
 74
0
 40
0
 40
0
 40
0
 40
0
 40
1
 40
1
 40
1
 40
1
 10
197.208123
 20
73.568469
 30
0.0
 10
197.208452
 20
74.104587
 30
0.0
 10
196.922626
 20
74.600120
 30
0.0
 10
196.458389
 20
74.868274
 30
0.0
  0
SPLINE
  5
109
100
AcDbEntity
  8
Layer_1
 62
7
100
AcDbSpline
 70
8
 71
3
 72
8
 73
4
 74
0
 40
0
 40
0
 40
0
 40
0
 40
1
 40
1
 40
1
 40
1
 10
196.458389
 20
74.868274
 30
0.0
 10
195.994152
 20
75.136428
 30
0.0
 10
195.422094
 20
75.136428
 30
0.0
 10
194.957858
 20
74.868274
 30
0.0
  0
SPLINE
  5
10a
100
AcDbEntity
  8
Layer_1
 62
7
100
AcDbSpline
 70
8
 71
3
 72
8
 73
4
 74
0
 40
0
 40
0
 40
0
 40
0
 40
1
 40
1
 40
1
 40
1
 10
194.957858
 20
74.868274
 30
0.0
 10
194.493621
 20
74.600120
 30
0.0
 10
194.207795
 20
74.104587
 30
0.0
 10
194.208123
 20
73.568469
 30
0.0
  0
SPLINE
  5
10b
100
AcDbEntity
  8
Layer_1
 62
7
100
AcDbSpline
 70
8
 71
3
 72
8
 73
4
 74
0
 40
0
 40
0
 40
0
 40
0
 40
1
 40
1
 40
1
 40
1
 10
194.208123
 20
73.568469
 30
0.0
 10
194.207795
 20
73.032352
 30
0.0
 10
194.493621
 20
72.536818
 30
0.0
 10
194.957858
 20
72.268664
 30
0.0
  0
SPLINE
  5
10c
100
AcDbEntity
  8
Layer_1
 62
7
100
AcDbSpline
 70
8
 71
3
 72
8
 73
4
 74
0
 40
0
 40
0
 40
0
 40
0
 40
1
 40
1
 40
1
 40
1
 10
194.957858
 20
72.268664
 30
0.0
 10
195.422094
 20
72.000510
 30
0.0
 10
195.994152
 20
72.000510
 30
0.0
 10
196.458389
 20
72.268664
 30
0.0
  0
SPLINE
  5
10d
100
AcDbEntity
  8
Layer_1
 62
7
100
AcDbSpline
 70
8
 71
3
 72
8
 73
4
 74
0
 40
0
 40
0
 40
0
 40
0
 40
1
 40
1
 40
1
 40
1
 10
196.458389
 20
72.268664
 30
0.0
 10
196.922626
 20
72.536818
 30
0.0
 10
197.208452
 20
73.032352
 30
0.0
 10
197.208123
 20
73.568469
 30
0.0
  0
LWPOLYLINE
  5
10e
100
AcDbEntity
  8
Layer_1
 62
7
100
AcDbPolyline
 90
2
 70
1
 10
119.388124
 20
14.238475
 30
0.0
 10
119.388124
 20
14.238475
 30
0.0
  0
LWPOLYLINE
  5
10f
100
AcDbEntity
  8
Layer_1
 62
7
100
AcDbPolyline
 90
2
 70
1
 10
197.208123
 20
73.568469
 30
0.0
 10
197.208123
 20
73.568469
 30
0.0
  0
LWPOLYLINE
  5
110
100
AcDbEntity
  8
Layer_1
 62
7
100
AcDbPolyline
 90
6
 70
1
 10
108.620474
 20
81.370002
 30
0.0
 10
24.800474
 20
81.370002
 30
0.0
 10
24.800474
 20
146.699993
 30
0.0
 10
108.620474
 20
146.699993
 30
0.0
 10
108.620474
 20
81.370002
 30
0.0
 10
108.620474
 20
81.370002
 30
0.0
  0
LWPOLYLINE
  5
111
100
AcDbEntity
  8
Layer_1
 62
7
100
AcDbPolyline
 90
6
 70
1
 10
67.420474
 20
84.686706
 30
0.0
 10
30.800473
 20
84.686706
 30
0.0
 10
30.800473
 20
136.869993
 30
0.0
 10
67.420474
 20
136.869993
 30
0.0
 10
67.420474
 20
84.686706
 30
0.0
 10
67.420474
 20
84.686706
 30
0.0
  0
SPLINE
  5
112
100
AcDbEntity
  8
Layer_1
 62
7
100
AcDbSpline
 70
8
 71
3
 72
8
 73
4
 74
0
 40
0
 40
0
 40
0
 40
0
 40
1
 40
1
 40
1
 40
1
 10
107.120474
 20
143.699993
 30
0.0
 10
107.120803
 20
144.236111
 30
0.0
 10
106.834977
 20
144.731645
 30
0.0
 10
106.370740
 20
144.999798
 30
0.0
  0
SPLINE
  5
113
100
AcDbEntity
  8
Layer_1
 62
7
100
AcDbSpline
 70
8
 71
3
 72
8
 73
4
 74
0
 40
0
 40
0
 40
0
 40
0
 40
1
 40
1
 40
1
 40
1
 10
106.370740
 20
144.999798
 30
0.0
 10
105.906503
 20
145.267952
 30
0.0
 10
105.334445
 20
145.267952
 30
0.0
 10
104.870209
 20
144.999798
 30
0.0
  0
SPLINE
  5
114
100
AcDbEntity
  8
Layer_1
 62
7
100
AcDbSpline
 70
8
 71
3
 72
8
 73
4
 74
0
 40
0
 40
0
 40
0
 40
0
 40
1
 40
1
 40
1
 40
1
 10
104.870209
 20
144.999798
 30
0.0
 10
104.405972
 20
144.731645
 30
0.0
 10
104.120146
 20
144.236111
 30
0.0
 10
104.120474
 20
143.699993
 30
0.0
  0
SPLINE
  5
115
100
AcDbEntity
  8
Layer_1
 62
7
100
AcDbSpline
 70
8
 71
3
 72
8
 73
4
 74
0
 40
0
 40
0
 40
0
 40
0
 40
1
 40
1
 40
1
 40
1
 10
104.120474
 20
143.699993
 30
0.0
 10
104.120146
 20
143.163876
 30
0.0
 10
104.405972
 20
142.668342
 30
0.0
 10
104.870209
 20
142.400188
 30
0.0
  0
SPLINE
  5
116
100
AcDbEntity
  8
Layer_1
 62
7
100
AcDbSpline
 70
8
 71
3
 72
8
 73
4
 74
0
 40
0
 40
0
 40
0
 40
0
 40
1
 40
1
 40
1
 40
1
 10
104.870209
 20
142.400188
 30
0.0
 10
105.334445
 20
142.132035
 30
0.0
 10
105.906503
 20
142.132035
 30
0.0
 10
106.370740
 20
142.400188
 30
0.0
  0
SPLINE
  5
117
100
AcDbEntity
  8
Layer_1
 62
7
100
AcDbSpline
 70
8
 71
3
 72
8
 73
4
 74
0
 40
0
 40
0
 40
0
 40
0
 40
1
 40
1
 40
1
 40
1
 10
106.370740
 20
142.400188
 30
0.0
 10
106.834977
 20
142.668342
 30
0.0
 10
107.120803
 20
143.163876
 30
0.0
 10
107.120474
 20
143.699993
 30
0.0
  0
LWPOLYLINE
  5
118
100
AcDbEntity
  8
Layer_1
 62
7
100
AcDbPolyline
 90
6
 70
1
 10
102.620475
 20
86.029068
 30
0.0
 10
71.370474
 20
86.029068
 30
0.0
 10
71.370474
 20
138.699992
 30
0.0
 10
102.620475
 20
138.699992
 30
0.0
 10
102.620475
 20
86.029068
 30
0.0
 10
102.620475
 20
86.029068
 30
0.0
  0
SPLINE
  5
119
100
AcDbEntity
  8
Layer_1
 62
7
100
AcDbSpline
 70
8
 71
3
 72
8
 73
4
 74
0
 40
0
 40
0
 40
0
 40
0
 40
1
 40
1
 40
1
 40
1
 10
107.120474
 20
143.699993
 30
0.0
 10
107.120803
 20
144.236111
 30
0.0
 10
106.834977
 20
144.731645
 30
0.0
 10
106.370740
 20
144.999798
 30
0.0
  0
SPLINE
  5
11a
100
AcDbEntity
  8
Layer_1
 62
7
100
AcDbSpline
 70
8
 71
3
 72
8
 73
4
 74
0
 40
0
 40
0
 40
0
 40
0
 40
1
 40
1
 40
1
 40
1
 10
106.370740
 20
144.999798
 30
0.0
 10
105.906503
 20
145.267952
 30
0.0
 10
105.334445
 20
145.267952
 30
0.0
 10
104.870209
 20
144.999798
 30
0.0
  0
SPLINE
  5
11b
100
AcDbEntity
  8
Layer_1
 62
7
100
AcDbSpline
 70
8
 71
3
 72
8
 73
4
 74
0
 40
0
 40
0
 40
0
 40
0
 40
1
 40
1
 40
1
 40
1
 10
104.870209
 20
144.999798
 30
0.0
 10
104.405972
 20
144.731645
 30
0.0
 10
104.120146
 20
144.236111
 30
0.0
 10
104.120474
 20
143.699993
 30
0.0
  0
SPLINE
  5
11c
100
AcDbEntity
  8
Layer_1
 62
7
100
AcDbSpline
 70
8
 71
3
 72
8
 73
4
 74
0
 40
0
 40
0
 40
0
 40
0
 40
1
 40
1
 40
1
 40
1
 10
104.120474
 20
143.699993
 30
0.0
 10
104.120146
 20
143.163876
 30
0.0
 10
104.405972
 20
142.668342
 30
0.0
 10
104.870209
 20
142.400188
 30
0.0
  0
SPLINE
  5
11d
100
AcDbEntity
  8
Layer_1
 62
7
100
AcDbSpline
 70
8
 71
3
 72
8
 73
4
 74
0
 40
0
 40
0
 40
0
 40
0
 40
1
 40
1
 40
1
 40
1
 10
104.870209
 20
142.400188
 30
0.0
 10
105.334445
 20
142.132035
 30
0.0
 10
105.906503
 20
142.132035
 30
0.0
 10
106.370740
 20
142.400188
 30
0.0
  0
SPLINE
  5
11e
100
AcDbEntity
  8
Layer_1
 62
7
100
AcDbSpline
 70
8
 71
3
 72
8
 73
4
 74
0
 40
0
 40
0
 40
0
 40
0
 40
1
 40
1
 40
1
 40
1
 10
106.370740
 20
142.400188
 30
0.0
 10
106.834977
 20
142.668342
 30
0.0
 10
107.120803
 20
143.163876
 30
0.0
 10
107.120474
 20
143.699993
 30
0.0
  0
SPLINE
  5
11f
100
AcDbEntity
  8
Layer_1
 62
7
100
AcDbSpline
 70
8
 71
3
 72
8
 73
4
 74
0
 40
0
 40
0
 40
0
 40
0
 40
1
 40
1
 40
1
 40
1
 10
29.300473
 20
84.369996
 30
0.0
 10
29.300802
 20
84.906113
 30
0.0
 10
29.014976
 20
85.401647
 30
0.0
 10
28.550739
 20
85.669801
 30
0.0
  0
SPLINE
  5
120
100
AcDbEntity
  8
Layer_1
 62
7
100
AcDbSpline
 70
8
 71
3
 72
8
 73
4
 74
0
 40
0
 40
0
 40
0
 40
0
 40
1
 40
1
 40
1
 40
1
 10
28.550739
 20
85.669801
 30
0.0
 10
28.086503
 20
85.937955
 30
0.0
 10
27.514445
 20
85.937955
 30
0.0
 10
27.050208
 20
85.669801
 30
0.0
  0
SPLINE
  5
121
100
AcDbEntity
  8
Layer_1
 62
7
100
AcDbSpline
 70
8
 71
3
 72
8
 73
4
 74
0
 40
0
 40
0
 40
0
 40
0
 40
1
 40
1
 40
1
 40
1
 10
27.050208
 20
85.669801
 30
0.0
 10
26.585971
 20
85.401647
 30
0.0
 10
26.300145
 20
84.906113
 30
0.0
 10
26.300474
 20
84.369996
 30
0.0
  0
SPLINE
  5
122
100
AcDbEntity
  8
Layer_1
 62
7
100
AcDbSpline
 70
8
 71
3
 72
8
 73
4
 74
0
 40
0
 40
0
 40
0
 40
0
 40
1
 40
1
 40
1
 40
1
 10
26.300474
 20
84.369996
 30
0.0
 10
26.300145
 20
83.833879
 30
0.0
 10
26.585971
 20
83.338345
 30
0.0
 10
27.050208
 20
83.070191
 30
0.0
  0
SPLINE
  5
123
100
AcDbEntity
  8
Layer_1
 62
7
100
AcDbSpline
 70
8
 71
3
 72
8
 73
4
 74
0
 40
0
 40
0
 40
0
 40
0
 40
1
 40
1
 40
1
 40
1
 10
27.050208
 20
83.070191
 30
0.0
 10
27.514445
 20
82.802037
 30
0.0
 10
28.086503
 20
82.802037
 30
0.0
 10
28.550739
 20
83.070191
 30
0.0
  0
SPLINE
  5
124
100
AcDbEntity
  8
Layer_1
 62
7
100
AcDbSpline
 70
8
 71
3
 72
8
 73
4
 74
0
 40
0
 40
0
 40
0
 40
0
 40
1
 40
1
 40
1
 40
1
 10
28.550739
 20
83.070191
 30
0.0
 10
29.014976
 20
83.338345
 30
0.0
 10
29.300802
 20
83.833879
 30
0.0
 10
29.300473
 20
84.369996
 30
0.0
  0
LWPOLYLINE
  5
125
100
AcDbEntity
  8
Layer_1
 62
7
100
AcDbPolyline
 90
3
 70
1
 10
107.120474
 20
143.699993
 30
0.0
 10
107.120474
 20
143.699993
 30
0.0
 10
107.120474
 20
143.699993
 30
0.0
  0
SPLINE
  5
126
100
AcDbEntity
  8
Layer_1
 62
7
100
AcDbSpline
 70
8
 71
3
 72
8
 73
4
 74
0
 40
0
 40
0
 40
0
 40
0
 40
1
 40
1
 40
1
 40
1
 10
29.300473
 20
84.369996
 30
0.0
 10
29.300802
 20
84.906113
 30
0.0
 10
29.014976
 20
85.401647
 30
0.0
 10
28.550739
 20
85.669801
 30
0.0
  0
SPLINE
  5
127
100
AcDbEntity
  8
Layer_1
 62
7
100
AcDbSpline
 70
8
 71
3
 72
8
 73
4
 74
0
 40
0
 40
0
 40
0
 40
0
 40
1
 40
1
 40
1
 40
1
 10
28.550739
 20
85.669801
 30
0.0
 10
28.086503
 20
85.937955
 30
0.0
 10
27.514445
 20
85.937955
 30
0.0
 10
27.050208
 20
85.669801
 30
0.0
  0
SPLINE
  5
128
100
AcDbEntity
  8
Layer_1
 62
7
100
AcDbSpline
 70
8
 71
3
 72
8
 73
4
 74
0
 40
0
 40
0
 40
0
 40
0
 40
1
 40
1
 40
1
 40
1
 10
27.050208
 20
85.669801
 30
0.0
 10
26.585971
 20
85.401647
 30
0.0
 10
26.300145
 20
84.906113
 30
0.0
 10
26.300474
 20
84.369996
 30
0.0
  0
SPLINE
  5
129
100
AcDbEntity
  8
Layer_1
 62
7
100
AcDbSpline
 70
8
 71
3
 72
8
 73
4
 74
0
 40
0
 40
0
 40
0
 40
0
 40
1
 40
1
 40
1
 40
1
 10
26.300474
 20
84.369996
 30
0.0
 10
26.300145
 20
83.833879
 30
0.0
 10
26.585971
 20
83.338345
 30
0.0
 10
27.050208
 20
83.070191
 30
0.0
  0
SPLINE
  5
12a
100
AcDbEntity
  8
Layer_1
 62
7
100
AcDbSpline
 70
8
 71
3
 72
8
 73
4
 74
0
 40
0
 40
0
 40
0
 40
0
 40
1
 40
1
 40
1
 40
1
 10
27.050208
 20
83.070191
 30
0.0
 10
27.514445
 20
82.802037
 30
0.0
 10
28.086503
 20
82.802037
 30
0.0
 10
28.550739
 20
83.070191
 30
0.0
  0
SPLINE
  5
12b
100
AcDbEntity
  8
Layer_1
 62
7
100
AcDbSpline
 70
8
 71
3
 72
8
 73
4
 74
0
 40
0
 40
0
 40
0
 40
0
 40
1
 40
1
 40
1
 40
1
 10
28.550739
 20
83.070191
 30
0.0
 10
29.014976
 20
83.338345
 30
0.0
 10
29.300802
 20
83.833879
 30
0.0
 10
29.300473
 20
84.369996
 30
0.0
  0
LWPOLYLINE
  5
12c
100
AcDbEntity
  8
Layer_1
 62
7
100
AcDbPolyline
 90
3
 70
1
 10
29.300473
 20
84.369996
 30
0.0
 10
29.300473
 20
84.369996
 30
0.0
 10
29.300473
 20
84.369996
 30
0.0
  0
SPLINE
  5
12d
100
AcDbEntity
  8
Layer_1
 62
7
100
AcDbSpline
 70
8
 71
3
 72
8
 73
4
 74
0
 40
0
 40
0
 40
0
 40
0
 40
1
 40
1
 40
1
 40
1
 10
28.730298
 20
13.953387
 30
0.0
 10
28.730627
 20
14.489504
 30
0.0
 10
28.444801
 20
14.985038
 30
0.0
 10
27.980564
 20
15.253192
 30
0.0
  0
SPLINE
  5
12e
100
AcDbEntity
  8
Layer_1
 62
7
100
AcDbSpline
 70
8
 71
3
 72
8
 73
4
 74
0
 40
0
 40
0
 40
0
 40
0
 40
1
 40
1
 40
1
 40
1
 10
27.980564
 20
15.253192
 30
0.0
 10
27.516328
 20
15.521346
 30
0.0
 10
26.944270
 20
15.521346
 30
0.0
 10
26.480033
 20
15.253192
 30
0.0
  0
SPLINE
  5
12f
100
AcDbEntity
  8
Layer_1
 62
7
100
AcDbSpline
 70
8
 71
3
 72
8
 73
4
 74
0
 40
0
 40
0
 40
0
 40
0
 40
1
 40
1
 40
1
 40
1
 10
26.480033
 20
15.253192
 30
0.0
 10
26.015796
 20
14.985038
 30
0.0
 10
25.729970
 20
14.489504
 30
0.0
 10
25.730299
 20
13.953387
 30
0.0
  0
SPLINE
  5
130
100
AcDbEntity
  8
Layer_1
 62
7
100
AcDbSpline
 70
8
 71
3
 72
8
 73
4
 74
0
 40
0
 40
0
 40
0
 40
0
 40
1
 40
1
 40
1
 40
1
 10
25.730299
 20
13.953387
 30
0.0
 10
25.729970
 20
13.417269
 30
0.0
 10
26.015796
 20
12.921736
 30
0.0
 10
26.480033
 20
12.653582
 30
0.0
  0
SPLINE
  5
131
100
AcDbEntity
  8
Layer_1
 62
7
100
AcDbSpline
 70
8
 71
3
 72
8
 73
4
 74
0
 40
0
 40
0
 40
0
 40
0
 40
1
 40
1
 40
1
 40
1
 10
26.480033
 20
12.653582
 30
0.0
 10
26.944270
 20
12.385428
 30
0.0
 10
27.516328
 20
12.385428
 30
0.0
 10
27.980564
 20
12.653582
 30
0.0
  0
SPLINE
  5
132
100
AcDbEntity
  8
Layer_1
 62
7
100
AcDbSpline
 70
8
 71
3
 72
8
 73
4
 74
0
 40
0
 40
0
 40
0
 40
0
 40
1
 40
1
 40
1
 40
1
 10
27.980564
 20
12.653582
 30
0.0
 10
28.444801
 20
12.921736
 30
0.0
 10
28.730627
 20
13.417269
 30
0.0
 10
28.730298
 20
13.953387
 30
0.0
  0
LWPOLYLINE
  5
133
100
AcDbEntity
  8
Layer_1
 62
7
100
AcDbPolyline
 90
10
 70
1
 10
108.050298
 20
76.283378
 30
0.0
 10
108.050298
 20
10.953393
 30
0.0
 10
24.230299
 20
10.953393
 30
0.0
 10
24.230299
 20
76.283378
 30
0.0
 10
108.050298
 20
76.283378
 30
0.0
 10
108.050298
 20
76.283378
 30
0.0
 10
24.230299
 20
76.283378
 30
0.0
 10
24.230299
 20
10.953393
 30
0.0
 10
108.050298
 20
10.953393
 30
0.0
 10
108.050298
 20
76.283378
 30
0.0
  0
SPLINE
  5
134
100
AcDbEntity
  8
Layer_1
 62
7
100
AcDbSpline
 70
8
 71
3
 72
8
 73
4
 74
0
 40
0
 40
0
 40
0
 40
0
 40
1
 40
1
 40
1
 40
1
 10
106.550298
 20
73.283384
 30
0.0
 10
106.550530
 20
73.819438
 30
0.0
 10
106.264683
 20
74.314871
 30
0.0
 10
105.800486
 20
74.582965
 30
0.0
  0
SPLINE
  5
135
100
AcDbEntity
  8
Layer_1
 62
7
100
AcDbSpline
 70
8
 71
3
 72
8
 73
4
 74
0
 40
0
 40
0
 40
0
 40
0
 40
1
 40
1
 40
1
 40
1
 10
105.800486
 20
74.582965
 30
0.0
 10
105.336289
 20
74.851058
 30
0.0
 10
104.764307
 20
74.851058
 30
0.0
 10
104.300110
 20
74.582965
 30
0.0
  0
SPLINE
  5
136
100
AcDbEntity
  8
Layer_1
 62
7
100
AcDbSpline
 70
8
 71
3
 72
8
 73
4
 74
0
 40
0
 40
0
 40
0
 40
0
 40
1
 40
1
 40
1
 40
1
 10
104.300110
 20
74.582965
 30
0.0
 10
103.835913
 20
74.314871
 30
0.0
 10
103.550065
 20
73.819438
 30
0.0
 10
103.550298
 20
73.283384
 30
0.0
  0
SPLINE
  5
137
100
AcDbEntity
  8
Layer_1
 62
7
100
AcDbSpline
 70
8
 71
3
 72
8
 73
4
 74
0
 40
0
 40
0
 40
0
 40
0
 40
1
 40
1
 40
1
 40
1
 10
103.550298
 20
73.283384
 30
0.0
 10
103.550065
 20
72.747331
 30
0.0
 10
103.835913
 20
72.251898
 30
0.0
 10
104.300110
 20
71.983804
 30
0.0
  0
SPLINE
  5
138
100
AcDbEntity
  8
Layer_1
 62
7
100
AcDbSpline
 70
8
 71
3
 72
8
 73
4
 74
0
 40
0
 40
0
 40
0
 40
0
 40
1
 40
1
 40
1
 40
1
 10
104.300110
 20
71.983804
 30
0.0
 10
104.764307
 20
71.715710
 30
0.0
 10
105.336289
 20
71.715710
 30
0.0
 10
105.800486
 20
71.983804
 30
0.0
  0
SPLINE
  5
139
100
AcDbEntity
  8
Layer_1
 62
7
100
AcDbSpline
 70
8
 71
3
 72
8
 73
4
 74
0
 40
0
 40
0
 40
0
 40
0
 40
1
 40
1
 40
1
 40
1
 10
105.800486
 20
71.983804
 30
0.0
 10
106.264683
 20
72.251898
 30
0.0
 10
106.550530
 20
72.747331
 30
0.0
 10
106.550298
 20
73.283384
 30
0.0
  0
LWPOLYLINE
  5
13a
100
AcDbEntity
  8
Layer_1
 62
7
100
AcDbPolyline
 90
2
 70
1
 10
28.730298
 20
13.953387
 30
0.0
 10
28.730298
 20
13.953387
 30
0.0
  0
SPLINE
  5
13b
100
AcDbEntity
  8
Layer_1
 62
7
100
AcDbSpline
 70
8
 71
3
 72
8
 73
4
 74
0
 40
0
 40
0
 40
0
 40
0
 40
1
 40
1
 40
1
 40
1
 10
106.550298
 20
73.283384
 30
0.0
 10
106.550530
 20
73.819438
 30
0.0
 10
106.264683
 20
74.314871
 30
0.0
 10
105.800486
 20
74.582965
 30
0.0
  0
SPLINE
  5
13c
100
AcDbEntity
  8
Layer_1
 62
7
100
AcDbSpline
 70
8
 71
3
 72
8
 73
4
 74
0
 40
0
 40
0
 40
0
 40
0
 40
1
 40
1
 40
1
 40
1
 10
105.800486
 20
74.582965
 30
0.0
 10
105.336289
 20
74.851058
 30
0.0
 10
104.764307
 20
74.851058
 30
0.0
 10
104.300110
 20
74.582965
 30
0.0
  0
SPLINE
  5
13d
100
AcDbEntity
  8
Layer_1
 62
7
100
AcDbSpline
 70
8
 71
3
 72
8
 73
4
 74
0
 40
0
 40
0
 40
0
 40
0
 40
1
 40
1
 40
1
 40
1
 10
104.300110
 20
74.582965
 30
0.0
 10
103.835913
 20
74.314871
 30
0.0
 10
103.550065
 20
73.819438
 30
0.0
 10
103.550298
 20
73.283384
 30
0.0
  0
SPLINE
  5
13e
100
AcDbEntity
  8
Layer_1
 62
7
100
AcDbSpline
 70
8
 71
3
 72
8
 73
4
 74
0
 40
0
 40
0
 40
0
 40
0
 40
1
 40
1
 40
1
 40
1
 10
103.550298
 20
73.283384
 30
0.0
 10
103.550065
 20
72.747331
 30
0.0
 10
103.835913
 20
72.251898
 30
0.0
 10
104.300110
 20
71.983804
 30
0.0
  0
SPLINE
  5
13f
100
AcDbEntity
  8
Layer_1
 62
7
100
AcDbSpline
 70
8
 71
3
 72
8
 73
4
 74
0
 40
0
 40
0
 40
0
 40
0
 40
1
 40
1
 40
1
 40
1
 10
104.300110
 20
71.983804
 30
0.0
 10
104.764307
 20
71.715710
 30
0.0
 10
105.336289
 20
71.715710
 30
0.0
 10
105.800486
 20
71.983804
 30
0.0
  0
SPLINE
  5
140
100
AcDbEntity
  8
Layer_1
 62
7
100
AcDbSpline
 70
8
 71
3
 72
8
 73
4
 74
0
 40
0
 40
0
 40
0
 40
0
 40
1
 40
1
 40
1
 40
1
 10
105.800486
 20
71.983804
 30
0.0
 10
106.264683
 20
72.251898
 30
0.0
 10
106.550530
 20
72.747331
 30
0.0
 10
106.550298
 20
73.283384
 30
0.0
  0
SPLINE
  5
141
100
AcDbEntity
  8
Layer_1
 62
7
100
AcDbSpline
 70
8
 71
3
 72
8
 73
4
 74
0
 40
0
 40
0
 40
0
 40
0
 40
1
 40
1
 40
1
 40
1
 10
28.730298
 20
13.953387
 30
0.0
 10
28.730627
 20
14.489504
 30
0.0
 10
28.444801
 20
14.985038
 30
0.0
 10
27.980564
 20
15.253192
 30
0.0
  0
SPLINE
  5
142
100
AcDbEntity
  8
Layer_1
 62
7
100
AcDbSpline
 70
8
 71
3
 72
8
 73
4
 74
0
 40
0
 40
0
 40
0
 40
0
 40
1
 40
1
 40
1
 40
1
 10
27.980564
 20
15.253192
 30
0.0
 10
27.516328
 20
15.521346
 30
0.0
 10
26.944270
 20
15.521346
 30
0.0
 10
26.480033
 20
15.253192
 30
0.0
  0
SPLINE
  5
143
100
AcDbEntity
  8
Layer_1
 62
7
100
AcDbSpline
 70
8
 71
3
 72
8
 73
4
 74
0
 40
0
 40
0
 40
0
 40
0
 40
1
 40
1
 40
1
 40
1
 10
26.480033
 20
15.253192
 30
0.0
 10
26.015796
 20
14.985038
 30
0.0
 10
25.729970
 20
14.489504
 30
0.0
 10
25.730299
 20
13.953387
 30
0.0
  0
SPLINE
  5
144
100
AcDbEntity
  8
Layer_1
 62
7
100
AcDbSpline
 70
8
 71
3
 72
8
 73
4
 74
0
 40
0
 40
0
 40
0
 40
0
 40
1
 40
1
 40
1
 40
1
 10
25.730299
 20
13.953387
 30
0.0
 10
25.729970
 20
13.417269
 30
0.0
 10
26.015796
 20
12.921736
 30
0.0
 10
26.480033
 20
12.653582
 30
0.0
  0
SPLINE
  5
145
100
AcDbEntity
  8
Layer_1
 62
7
100
AcDbSpline
 70
8
 71
3
 72
8
 73
4
 74
0
 40
0
 40
0
 40
0
 40
0
 40
1
 40
1
 40
1
 40
1
 10
26.480033
 20
12.653582
 30
0.0
 10
26.944270
 20
12.385428
 30
0.0
 10
27.516328
 20
12.385428
 30
0.0
 10
27.980564
 20
12.653582
 30
0.0
  0
SPLINE
  5
146
100
AcDbEntity
  8
Layer_1
 62
7
100
AcDbSpline
 70
8
 71
3
 72
8
 73
4
 74
0
 40
0
 40
0
 40
0
 40
0
 40
1
 40
1
 40
1
 40
1
 10
27.980564
 20
12.653582
 30
0.0
 10
28.444801
 20
12.921736
 30
0.0
 10
28.730627
 20
13.417269
 30
0.0
 10
28.730298
 20
13.953387
 30
0.0
  0
LWPOLYLINE
  5
147
100
AcDbEntity
  8
Layer_1
 62
7
100
AcDbPolyline
 90
3
 70
1
 10
106.550298
 20
73.283384
 30
0.0
 10
106.550298
 20
73.283384
 30
0.0
 10
106.550298
 20
73.283384
 30
0.0
  0
LWPOLYLINE
  5
148
100
AcDbEntity
  8
Layer_1
 62
7
100
AcDbPolyline
 90
2
 70
1
 10
28.730298
 20
13.953387
 30
0.0
 10
28.730298
 20
13.953387
 30
0.0
  0
LWPOLYLINE
  5
149
100
AcDbEntity
  8
Layer_1
 62
7
100
AcDbPolyline
 90
2
 70
0
 10
24.230299
 20
10.953393
 30
0.0
 10
108.050298
 20
10.953393
 30
0.0
  0
LWPOLYLINE
  5
14a
100
AcDbEntity
  8
Layer_1
 62
7
100
AcDbPolyline
 90
6
 70
1
 10
29.050296
 20
71.283388
 30
0.0
 10
103.050298
 20
71.283388
 30
0.0
 10
103.050298
 20
19.953375
 30
0.0
 10
29.050296
 20
19.953375
 30
0.0
 10
29.050296
 20
71.283388
 30
0.0
 10
29.050296
 20
71.283388
 30
0.0
  0
ENDSEC
  0
SECTION
  2
OBJECTS
  0
DICTIONARY
  5
C
330
0
100
AcDbDictionary
  3
ACAD_GROUP
350
D
  3
ACAD_MLINESTYLE
350
17
  0
DICTIONARY
  5
D
330
C
100
AcDbDictionary
  0
DICTIONARY
  5
1A
330
C
100
AcDbDictionary
  0
DICTIONARY
  5
17
330
C
100
AcDbDictionary
  3
STANDARD
350
18
  0
DICTIONARY
  5
19
330
C
100
AcDbDictionary
  0
ENDSEC
  0
EOF
