  0
SECTION
  2
HEADER
  9
$ACADVER
  1
AC1014
  9
$HANDSEED
  5
FFFF
  9
$MEASUREMENT
 70
     1
  0
ENDSEC
  0
SECTION
  2
TABLES
  0
TABLE
  2
VPORT
  5
8
330
0
100
AcDbSymbolTable
 70
     4
  0
VPORT
  5
2E
330
8
100
AcDbSymbolTableRecord
100
AcDbViewportTableRecord
  2
*ACTIVE
 70
     0
 10
0.0
 20
0.0
 11
1.0
 21
1.0
 12
210.0
 22
148.5
 13
0.0
 23
0.0
 14
10.0
 24
10.0
 15
10.0
 25
10.0
 16
0.0
 26
0.0
 36
1.0
 17
0.0
 27
0.0
 37
0.0
 40
341.0
 41
1.24
 42
50.0
 43
0.0
 44
0.0
 50
0.0
 51
0.0
 71
     0
 72
   100
 73
     1
 74
     3
 75
     0
 76
     0
 77
     0
 78
     0
  0
ENDTAB
  0
TABLE
  2
LTYPE
  5
5
330
0
100
AcDbSymbolTable
 70
     1
  0
LTYPE
  5
14
330
5
100
AcDbSymbolTableRecord
100
AcDbLinetypeTableRecord
  2
BYBLOCK
 70
     0
  3

 72
    65
 73
     0
 40
0.0
  0
LTYPE
  5
15
330
5
100
AcDbSymbolTableRecord
100
AcDbLinetypeTableRecord
  2
BYLAYER
 70
     0
  3

 72
    65
 73
     0
 40
0.0
  0
LTYPE
  5
16
330
5
100
AcDbSymbolTableRecord
100
AcDbLinetypeTableRecord
  2
CONTINUOUS
 70
     0
  3
Solid line
 72
    65
 73
     0
 40
0.0
  0
ENDTAB
  0
TABLE
  2
LAYER
  5
2
100
AcDbSymbolTable
 70
2
  0
LAYER
  5
50
100
AcDbSymbolTableRecord
100
AcDbLayerTableRecord
  2
0
 70
0
  6
CONTINUOUS
  0
LAYER
  5
51
100
AcDbSymbolTableRecord
100
AcDbLayerTableRecord
  2
Layer_1
 70
0
  6
CONTINUOUS
  0
ENDTAB
  0
TABLE
  2
STYLE
  5
3
330
0
100
AcDbSymbolTable
 70
     1
  0
STYLE
  5
11
330
3
100
AcDbSymbolTableRecord
100
AcDbTextStyleTableRecord
  2
STANDARD
 70
     0
 40
0.0
 41
1.0
 50
0.0
 71
     0
 42
2.5
  3
txt
  4

  0
ENDTAB
  0
TABLE
  2
VIEW
  5
6
330
0
100
AcDbSymbolTable
 70
     0
  0
ENDTAB
  0
TABLE
  2
UCS
  5
7
330
0
100
AcDbSymbolTable
 70
     0
  0
ENDTAB
  0
TABLE
  2
APPID
  5
9
330
0
100
AcDbSymbolTable
 70
     2
  0
APPID
  5
12
330
9
100
AcDbSymbolTableRecord
100
AcDbRegAppTableRecord
  2
ACAD
 70
     0
  0
ENDTAB
  0
TABLE
  2
DIMSTYLE
  5
A
330
0
100
AcDbSymbolTable
 70
     1
  0
DIMSTYLE
105
27
330
A
100
AcDbSymbolTableRecord
100
AcDbDimStyleTableRecord
  2
ISO-25
 70
     0
  3

  4

  5

  6

  7

 40
1.0
 41
2.5
 42
0.625
 43
3.75
 44
1.25
 45
0.0
 46
0.0
 47
0.0
 48
0.0
140
2.5
141
2.5
142
0.0
143
0.03937007874016
144
1.0
145
0.0
146
1.0
147
0.625
 71
     0
 72
     0
 73
     0
 74
     0
 75
     0
 76
     0
 77
     1
 78
     8
170
     0
171
     3
172
     1
173
     0
174
     0
175
     0
176
     0
177
     0
178
     0
270
     2
271
     2
272
     2
273
     2
274
     3
340
11
275
     0
280
     0
281
     0
282
     0
283
     0
284
     8
285
     0
286
     0
287
     3
288
     0
  0
ENDTAB
  0
TABLE
  2
BLOCK_RECORD
  5
1
330
0
100
AcDbSymbolTable
 70
     1
  0
BLOCK_RECORD
  5
1F
330
1
100
AcDbSymbolTableRecord
100
AcDbBlockTableRecord
  2
*MODEL_SPACE
  0
BLOCK_RECORD
  5
1B
330
1
100
AcDbSymbolTableRecord
100
AcDbBlockTableRecord
  2
*PAPER_SPACE
  0
ENDTAB
  0
ENDSEC
  0
SECTION
  2
BLOCKS
  0
BLOCK
  5
20
330
1F
100
AcDbEntity
  8
0
100
AcDbBlockBegin
  2
*MODEL_SPACE
 70
     0
 10
0.0
 20
0.0
 30
0.0
  3
*MODEL_SPACE
  1

  0
ENDBLK
  5
21
330
1F
100
AcDbEntity
  8
0
100
AcDbBlockEnd
  0
BLOCK
  5
1C
330
1B
100
AcDbEntity
 67
     1
  8
0
100
AcDbBlockBegin
  2
*PAPER_SPACE
  1

  0
ENDBLK
  5
1D
330
1B
100
AcDbEntity
 67
     1
  8
0
100
AcDbBlockEnd
  0
ENDSEC
  0
SECTION
  2
ENTITIES
  0
LWPOLYLINE
  5
100
100
AcDbEntity
  8
Layer_1
 62
3
100
AcDbPolyline
 90
7
 70
1
 10
186.731227
 20
403.234984
 30
0.0
 10
283.720534
 20
403.234984
 30
0.0
 10
283.720534
 20
306.245685
 30
0.0
 10
186.731227
 20
306.245685
 30
0.0
 10
186.731227
 20
403.234984
 30
0.0
 10
186.731227
 20
403.234984
 30
0.0
 10
186.731227
 20
403.234984
 30
0.0
  0
SPLINE
  5
101
100
AcDbEntity
  8
Layer_1
 62
7
100
AcDbSpline
 70
8
 71
3
 72
8
 73
4
 74
0
 40
0
 40
0
 40
0
 40
0
 40
1
 40
1
 40
1
 40
1
 10
116.614097
 20
68.438543
 30
0.0
 10
116.614329
 20
68.974596
 30
0.0
 10
116.328482
 20
69.470030
 30
0.0
 10
115.864285
 20
69.738123
 30
0.0
  0
SPLINE
  5
102
100
AcDbEntity
  8
Layer_1
 62
7
100
AcDbSpline
 70
8
 71
3
 72
8
 73
4
 74
0
 40
0
 40
0
 40
0
 40
0
 40
1
 40
1
 40
1
 40
1
 10
115.864285
 20
69.738123
 30
0.0
 10
115.400088
 20
70.006217
 30
0.0
 10
114.828106
 20
70.006217
 30
0.0
 10
114.363909
 20
69.738123
 30
0.0
  0
SPLINE
  5
103
100
AcDbEntity
  8
Layer_1
 62
7
100
AcDbSpline
 70
8
 71
3
 72
8
 73
4
 74
0
 40
0
 40
0
 40
0
 40
0
 40
1
 40
1
 40
1
 40
1
 10
114.363909
 20
69.738123
 30
0.0
 10
113.899712
 20
69.470030
 30
0.0
 10
113.613864
 20
68.974596
 30
0.0
 10
113.614097
 20
68.438543
 30
0.0
  0
SPLINE
  5
104
100
AcDbEntity
  8
Layer_1
 62
7
100
AcDbSpline
 70
8
 71
3
 72
8
 73
4
 74
0
 40
0
 40
0
 40
0
 40
0
 40
1
 40
1
 40
1
 40
1
 10
113.614097
 20
68.438543
 30
0.0
 10
113.613864
 20
67.902490
 30
0.0
 10
113.899712
 20
67.407057
 30
0.0
 10
114.363909
 20
67.138963
 30
0.0
  0
SPLINE
  5
105
100
AcDbEntity
  8
Layer_1
 62
7
100
AcDbSpline
 70
8
 71
3
 72
8
 73
4
 74
0
 40
0
 40
0
 40
0
 40
0
 40
1
 40
1
 40
1
 40
1
 10
114.363909
 20
67.138963
 30
0.0
 10
114.828106
 20
66.870869
 30
0.0
 10
115.400088
 20
66.870869
 30
0.0
 10
115.864285
 20
67.138963
 30
0.0
  0
SPLINE
  5
106
100
AcDbEntity
  8
Layer_1
 62
7
100
AcDbSpline
 70
8
 71
3
 72
8
 73
4
 74
0
 40
0
 40
0
 40
0
 40
0
 40
1
 40
1
 40
1
 40
1
 10
115.864285
 20
67.138963
 30
0.0
 10
116.328482
 20
67.407057
 30
0.0
 10
116.614329
 20
67.902490
 30
0.0
 10
116.614097
 20
68.438543
 30
0.0
  0
LWPOLYLINE
  5
107
100
AcDbEntity
  8
Layer_1
 62
7
100
AcDbPolyline
 90
6
 70
1
 10
195.934096
 20
65.438549
 30
0.0
 10
112.114097
 20
65.438549
 30
0.0
 10
112.114097
 20
130.768537
 30
0.0
 10
195.934096
 20
130.768537
 30
0.0
 10
195.934096
 20
65.438549
 30
0.0
 10
195.934096
 20
65.438549
 30
0.0
  0
SPLINE
  5
108
100
AcDbEntity
  8
Layer_1
 62
7
100
AcDbSpline
 70
8
 71
3
 72
8
 73
4
 74
0
 40
0
 40
0
 40
0
 40
0
 40
1
 40
1
 40
1
 40
1
 10
194.434096
 20
127.768538
 30
0.0
 10
194.434425
 20
128.304655
 30
0.0
 10
194.148598
 20
128.800189
 30
0.0
 10
193.684362
 20
129.068343
 30
0.0
  0
SPLINE
  5
109
100
AcDbEntity
  8
Layer_1
 62
7
100
AcDbSpline
 70
8
 71
3
 72
8
 73
4
 74
0
 40
0
 40
0
 40
0
 40
0
 40
1
 40
1
 40
1
 40
1
 10
193.684362
 20
129.068343
 30
0.0
 10
193.220125
 20
129.336496
 30
0.0
 10
192.648067
 20
129.336496
 30
0.0
 10
192.183830
 20
129.068343
 30
0.0
  0
SPLINE
  5
10a
100
AcDbEntity
  8
Layer_1
 62
7
100
AcDbSpline
 70
8
 71
3
 72
8
 73
4
 74
0
 40
0
 40
0
 40
0
 40
0
 40
1
 40
1
 40
1
 40
1
 10
192.183830
 20
129.068343
 30
0.0
 10
191.719594
 20
128.800189
 30
0.0
 10
191.433767
 20
128.304655
 30
0.0
 10
191.434096
 20
127.768538
 30
0.0
  0
SPLINE
  5
10b
100
AcDbEntity
  8
Layer_1
 62
7
100
AcDbSpline
 70
8
 71
3
 72
8
 73
4
 74
0
 40
0
 40
0
 40
0
 40
0
 40
1
 40
1
 40
1
 40
1
 10
191.434096
 20
127.768538
 30
0.0
 10
191.433767
 20
127.232420
 30
0.0
 10
191.719594
 20
126.736886
 30
0.0
 10
192.183830
 20
126.468733
 30
0.0
  0
SPLINE
  5
10c
100
AcDbEntity
  8
Layer_1
 62
7
100
AcDbSpline
 70
8
 71
3
 72
8
 73
4
 74
0
 40
0
 40
0
 40
0
 40
0
 40
1
 40
1
 40
1
 40
1
 10
192.183830
 20
126.468733
 30
0.0
 10
192.648067
 20
126.200579
 30
0.0
 10
193.220125
 20
126.200579
 30
0.0
 10
193.684362
 20
126.468733
 30
0.0
  0
SPLINE
  5
10d
100
AcDbEntity
  8
Layer_1
 62
7
100
AcDbSpline
 70
8
 71
3
 72
8
 73
4
 74
0
 40
0
 40
0
 40
0
 40
0
 40
1
 40
1
 40
1
 40
1
 10
193.684362
 20
126.468733
 30
0.0
 10
194.148598
 20
126.736886
 30
0.0
 10
194.434425
 20
127.232420
 30
0.0
 10
194.434096
 20
127.768538
 30
0.0
  0
LWPOLYLINE
  5
10e
100
AcDbEntity
  8
Layer_1
 62
7
100
AcDbPolyline
 90
2
 70
1
 10
116.614097
 20
68.438543
 30
0.0
 10
116.614097
 20
68.438543
 30
0.0
  0
LWPOLYLINE
  5
10f
100
AcDbEntity
  8
Layer_1
 62
7
100
AcDbPolyline
 90
2
 70
1
 10
194.434096
 20
127.768538
 30
0.0
 10
194.434096
 20
127.768538
 30
0.0
  0
SPLINE
  5
110
100
AcDbEntity
  8
Layer_1
 62
7
100
AcDbSpline
 70
8
 71
3
 72
8
 73
4
 74
0
 40
0
 40
0
 40
0
 40
0
 40
1
 40
1
 40
1
 40
1
 10
28.736533
 20
68.438546
 30
0.0
 10
28.736862
 20
68.974663
 30
0.0
 10
28.451035
 20
69.470197
 30
0.0
 10
27.986799
 20
69.738351
 30
0.0
  0
SPLINE
  5
111
100
AcDbEntity
  8
Layer_1
 62
7
100
AcDbSpline
 70
8
 71
3
 72
8
 73
4
 74
0
 40
0
 40
0
 40
0
 40
0
 40
1
 40
1
 40
1
 40
1
 10
27.986799
 20
69.738351
 30
0.0
 10
27.522562
 20
70.006504
 30
0.0
 10
26.950504
 20
70.006504
 30
0.0
 10
26.486267
 20
69.738351
 30
0.0
  0
SPLINE
  5
112
100
AcDbEntity
  8
Layer_1
 62
7
100
AcDbSpline
 70
8
 71
3
 72
8
 73
4
 74
0
 40
0
 40
0
 40
0
 40
0
 40
1
 40
1
 40
1
 40
1
 10
26.486267
 20
69.738351
 30
0.0
 10
26.022031
 20
69.470197
 30
0.0
 10
25.736204
 20
68.974663
 30
0.0
 10
25.736533
 20
68.438546
 30
0.0
  0
SPLINE
  5
113
100
AcDbEntity
  8
Layer_1
 62
7
100
AcDbSpline
 70
8
 71
3
 72
8
 73
4
 74
0
 40
0
 40
0
 40
0
 40
0
 40
1
 40
1
 40
1
 40
1
 10
25.736533
 20
68.438546
 30
0.0
 10
25.736204
 20
67.902428
 30
0.0
 10
26.022031
 20
67.406894
 30
0.0
 10
26.486267
 20
67.138741
 30
0.0
  0
SPLINE
  5
114
100
AcDbEntity
  8
Layer_1
 62
7
100
AcDbSpline
 70
8
 71
3
 72
8
 73
4
 74
0
 40
0
 40
0
 40
0
 40
0
 40
1
 40
1
 40
1
 40
1
 10
26.486267
 20
67.138741
 30
0.0
 10
26.950504
 20
66.870587
 30
0.0
 10
27.522562
 20
66.870587
 30
0.0
 10
27.986799
 20
67.138741
 30
0.0
  0
SPLINE
  5
115
100
AcDbEntity
  8
Layer_1
 62
7
100
AcDbSpline
 70
8
 71
3
 72
8
 73
4
 74
0
 40
0
 40
0
 40
0
 40
0
 40
1
 40
1
 40
1
 40
1
 10
27.986799
 20
67.138741
 30
0.0
 10
28.451035
 20
67.406894
 30
0.0
 10
28.736862
 20
67.902428
 30
0.0
 10
28.736533
 20
68.438546
 30
0.0
  0
LWPOLYLINE
  5
116
100
AcDbEntity
  8
Layer_1
 62
7
100
AcDbPolyline
 90
10
 70
1
 10
108.056532
 20
130.768537
 30
0.0
 10
108.056532
 20
65.438552
 30
0.0
 10
24.236533
 20
65.438552
 30
0.0
 10
24.236533
 20
130.768537
 30
0.0
 10
108.056532
 20
130.768537
 30
0.0
 10
108.056532
 20
130.768537
 30
0.0
 10
24.236533
 20
130.768537
 30
0.0
 10
24.236533
 20
65.438552
 30
0.0
 10
108.056532
 20
65.438552
 30
0.0
 10
108.056532
 20
130.768537
 30
0.0
  0
SPLINE
  5
117
100
AcDbEntity
  8
Layer_1
 62
7
100
AcDbSpline
 70
8
 71
3
 72
8
 73
4
 74
0
 40
0
 40
0
 40
0
 40
0
 40
1
 40
1
 40
1
 40
1
 10
106.556532
 20
127.768543
 30
0.0
 10
106.556765
 20
128.304596
 30
0.0
 10
106.270917
 20
128.800030
 30
0.0
 10
105.806720
 20
129.068123
 30
0.0
  0
SPLINE
  5
118
100
AcDbEntity
  8
Layer_1
 62
7
100
AcDbSpline
 70
8
 71
3
 72
8
 73
4
 74
0
 40
0
 40
0
 40
0
 40
0
 40
1
 40
1
 40
1
 40
1
 10
105.806720
 20
129.068123
 30
0.0
 10
105.342523
 20
129.336217
 30
0.0
 10
104.770541
 20
129.336217
 30
0.0
 10
104.306344
 20
129.068123
 30
0.0
  0
SPLINE
  5
119
100
AcDbEntity
  8
Layer_1
 62
7
100
AcDbSpline
 70
8
 71
3
 72
8
 73
4
 74
0
 40
0
 40
0
 40
0
 40
0
 40
1
 40
1
 40
1
 40
1
 10
104.306344
 20
129.068123
 30
0.0
 10
103.842147
 20
128.800030
 30
0.0
 10
103.556300
 20
128.304596
 30
0.0
 10
103.556532
 20
127.768543
 30
0.0
  0
SPLINE
  5
11a
100
AcDbEntity
  8
Layer_1
 62
7
100
AcDbSpline
 70
8
 71
3
 72
8
 73
4
 74
0
 40
0
 40
0
 40
0
 40
0
 40
1
 40
1
 40
1
 40
1
 10
103.556532
 20
127.768543
 30
0.0
 10
103.556300
 20
127.232490
 30
0.0
 10
103.842147
 20
126.737056
 30
0.0
 10
104.306344
 20
126.468963
 30
0.0
  0
SPLINE
  5
11b
100
AcDbEntity
  8
Layer_1
 62
7
100
AcDbSpline
 70
8
 71
3
 72
8
 73
4
 74
0
 40
0
 40
0
 40
0
 40
0
 40
1
 40
1
 40
1
 40
1
 10
104.306344
 20
126.468963
 30
0.0
 10
104.770541
 20
126.200869
 30
0.0
 10
105.342523
 20
126.200869
 30
0.0
 10
105.806720
 20
126.468963
 30
0.0
  0
SPLINE
  5
11c
100
AcDbEntity
  8
Layer_1
 62
7
100
AcDbSpline
 70
8
 71
3
 72
8
 73
4
 74
0
 40
0
 40
0
 40
0
 40
0
 40
1
 40
1
 40
1
 40
1
 10
105.806720
 20
126.468963
 30
0.0
 10
106.270917
 20
126.737056
 30
0.0
 10
106.556765
 20
127.232490
 30
0.0
 10
106.556532
 20
127.768543
 30
0.0
  0
LWPOLYLINE
  5
11d
100
AcDbEntity
  8
Layer_1
 62
7
100
AcDbPolyline
 90
2
 70
1
 10
28.736533
 20
68.438546
 30
0.0
 10
28.736533
 20
68.438546
 30
0.0
  0
SPLINE
  5
11e
100
AcDbEntity
  8
Layer_1
 62
7
100
AcDbSpline
 70
8
 71
3
 72
8
 73
4
 74
0
 40
0
 40
0
 40
0
 40
0
 40
1
 40
1
 40
1
 40
1
 10
106.556532
 20
127.768543
 30
0.0
 10
106.556765
 20
128.304596
 30
0.0
 10
106.270917
 20
128.800030
 30
0.0
 10
105.806720
 20
129.068123
 30
0.0
  0
SPLINE
  5
11f
100
AcDbEntity
  8
Layer_1
 62
7
100
AcDbSpline
 70
8
 71
3
 72
8
 73
4
 74
0
 40
0
 40
0
 40
0
 40
0
 40
1
 40
1
 40
1
 40
1
 10
105.806720
 20
129.068123
 30
0.0
 10
105.342523
 20
129.336217
 30
0.0
 10
104.770541
 20
129.336217
 30
0.0
 10
104.306344
 20
129.068123
 30
0.0
  0
SPLINE
  5
120
100
AcDbEntity
  8
Layer_1
 62
7
100
AcDbSpline
 70
8
 71
3
 72
8
 73
4
 74
0
 40
0
 40
0
 40
0
 40
0
 40
1
 40
1
 40
1
 40
1
 10
104.306344
 20
129.068123
 30
0.0
 10
103.842147
 20
128.800030
 30
0.0
 10
103.556300
 20
128.304596
 30
0.0
 10
103.556532
 20
127.768543
 30
0.0
  0
SPLINE
  5
121
100
AcDbEntity
  8
Layer_1
 62
7
100
AcDbSpline
 70
8
 71
3
 72
8
 73
4
 74
0
 40
0
 40
0
 40
0
 40
0
 40
1
 40
1
 40
1
 40
1
 10
103.556532
 20
127.768543
 30
0.0
 10
103.556300
 20
127.232490
 30
0.0
 10
103.842147
 20
126.737056
 30
0.0
 10
104.306344
 20
126.468963
 30
0.0
  0
SPLINE
  5
122
100
AcDbEntity
  8
Layer_1
 62
7
100
AcDbSpline
 70
8
 71
3
 72
8
 73
4
 74
0
 40
0
 40
0
 40
0
 40
0
 40
1
 40
1
 40
1
 40
1
 10
104.306344
 20
126.468963
 30
0.0
 10
104.770541
 20
126.200869
 30
0.0
 10
105.342523
 20
126.200869
 30
0.0
 10
105.806720
 20
126.468963
 30
0.0
  0
SPLINE
  5
123
100
AcDbEntity
  8
Layer_1
 62
7
100
AcDbSpline
 70
8
 71
3
 72
8
 73
4
 74
0
 40
0
 40
0
 40
0
 40
0
 40
1
 40
1
 40
1
 40
1
 10
105.806720
 20
126.468963
 30
0.0
 10
106.270917
 20
126.737056
 30
0.0
 10
106.556765
 20
127.232490
 30
0.0
 10
106.556532
 20
127.768543
 30
0.0
  0
SPLINE
  5
124
100
AcDbEntity
  8
Layer_1
 62
7
100
AcDbSpline
 70
8
 71
3
 72
8
 73
4
 74
0
 40
0
 40
0
 40
0
 40
0
 40
1
 40
1
 40
1
 40
1
 10
28.736533
 20
68.438546
 30
0.0
 10
28.736862
 20
68.974663
 30
0.0
 10
28.451035
 20
69.470197
 30
0.0
 10
27.986799
 20
69.738351
 30
0.0
  0
SPLINE
  5
125
100
AcDbEntity
  8
Layer_1
 62
7
100
AcDbSpline
 70
8
 71
3
 72
8
 73
4
 74
0
 40
0
 40
0
 40
0
 40
0
 40
1
 40
1
 40
1
 40
1
 10
27.986799
 20
69.738351
 30
0.0
 10
27.522562
 20
70.006504
 30
0.0
 10
26.950504
 20
70.006504
 30
0.0
 10
26.486267
 20
69.738351
 30
0.0
  0
SPLINE
  5
126
100
AcDbEntity
  8
Layer_1
 62
7
100
AcDbSpline
 70
8
 71
3
 72
8
 73
4
 74
0
 40
0
 40
0
 40
0
 40
0
 40
1
 40
1
 40
1
 40
1
 10
26.486267
 20
69.738351
 30
0.0
 10
26.022031
 20
69.470197
 30
0.0
 10
25.736204
 20
68.974663
 30
0.0
 10
25.736533
 20
68.438546
 30
0.0
  0
SPLINE
  5
127
100
AcDbEntity
  8
Layer_1
 62
7
100
AcDbSpline
 70
8
 71
3
 72
8
 73
4
 74
0
 40
0
 40
0
 40
0
 40
0
 40
1
 40
1
 40
1
 40
1
 10
25.736533
 20
68.438546
 30
0.0
 10
25.736204
 20
67.902428
 30
0.0
 10
26.022031
 20
67.406894
 30
0.0
 10
26.486267
 20
67.138741
 30
0.0
  0
SPLINE
  5
128
100
AcDbEntity
  8
Layer_1
 62
7
100
AcDbSpline
 70
8
 71
3
 72
8
 73
4
 74
0
 40
0
 40
0
 40
0
 40
0
 40
1
 40
1
 40
1
 40
1
 10
26.486267
 20
67.138741
 30
0.0
 10
26.950504
 20
66.870587
 30
0.0
 10
27.522562
 20
66.870587
 30
0.0
 10
27.986799
 20
67.138741
 30
0.0
  0
SPLINE
  5
129
100
AcDbEntity
  8
Layer_1
 62
7
100
AcDbSpline
 70
8
 71
3
 72
8
 73
4
 74
0
 40
0
 40
0
 40
0
 40
0
 40
1
 40
1
 40
1
 40
1
 10
27.986799
 20
67.138741
 30
0.0
 10
28.451035
 20
67.406894
 30
0.0
 10
28.736862
 20
67.902428
 30
0.0
 10
28.736533
 20
68.438546
 30
0.0
  0
LWPOLYLINE
  5
12a
100
AcDbEntity
  8
Layer_1
 62
7
100
AcDbPolyline
 90
3
 70
1
 10
106.556532
 20
127.768543
 30
0.0
 10
106.556532
 20
127.768543
 30
0.0
 10
106.556532
 20
127.768543
 30
0.0
  0
LWPOLYLINE
  5
12b
100
AcDbEntity
  8
Layer_1
 62
7
100
AcDbPolyline
 90
2
 70
1
 10
28.736533
 20
68.438546
 30
0.0
 10
28.736533
 20
68.438546
 30
0.0
  0
LWPOLYLINE
  5
12c
100
AcDbEntity
  8
Layer_1
 62
7
100
AcDbPolyline
 90
2
 70
0
 10
24.236533
 20
65.438552
 30
0.0
 10
108.056532
 20
65.438552
 30
0.0
  0
LWPOLYLINE
  5
12d
100
AcDbEntity
  8
Layer_1
 62
7
100
AcDbPolyline
 90
6
 70
1
 10
29.056530
 20
125.768547
 30
0.0
 10
103.056532
 20
125.768547
 30
0.0
 10
103.056532
 20
74.438534
 30
0.0
 10
29.056530
 20
74.438534
 30
0.0
 10
29.056530
 20
125.768547
 30
0.0
 10
29.056530
 20
125.768547
 30
0.0
  0
SPLINE
  5
12e
100
AcDbEntity
  8
Layer_1
 62
7
100
AcDbSpline
 70
8
 71
3
 72
8
 73
4
 74
0
 40
0
 40
0
 40
0
 40
0
 40
1
 40
1
 40
1
 40
1
 10
106.556532
 20
197.158625
 30
0.0
 10
106.556861
 20
197.694743
 30
0.0
 10
106.271035
 20
198.190277
 30
0.0
 10
105.806798
 20
198.458430
 30
0.0
  0
SPLINE
  5
12f
100
AcDbEntity
  8
Layer_1
 62
7
100
AcDbSpline
 70
8
 71
3
 72
8
 73
4
 74
0
 40
0
 40
0
 40
0
 40
0
 40
1
 40
1
 40
1
 40
1
 10
105.806798
 20
198.458430
 30
0.0
 10
105.342562
 20
198.726584
 30
0.0
 10
104.770503
 20
198.726584
 30
0.0
 10
104.306267
 20
198.458430
 30
0.0
  0
SPLINE
  5
130
100
AcDbEntity
  8
Layer_1
 62
7
100
AcDbSpline
 70
8
 71
3
 72
8
 73
4
 74
0
 40
0
 40
0
 40
0
 40
0
 40
1
 40
1
 40
1
 40
1
 10
104.306267
 20
198.458430
 30
0.0
 10
103.842030
 20
198.190277
 30
0.0
 10
103.556204
 20
197.694743
 30
0.0
 10
103.556533
 20
197.158625
 30
0.0
  0
SPLINE
  5
131
100
AcDbEntity
  8
Layer_1
 62
7
100
AcDbSpline
 70
8
 71
3
 72
8
 73
4
 74
0
 40
0
 40
0
 40
0
 40
0
 40
1
 40
1
 40
1
 40
1
 10
103.556533
 20
197.158625
 30
0.0
 10
103.556204
 20
196.622508
 30
0.0
 10
103.842030
 20
196.126974
 30
0.0
 10
104.306267
 20
195.858820
 30
0.0
  0
SPLINE
  5
132
100
AcDbEntity
  8
Layer_1
 62
7
100
AcDbSpline
 70
8
 71
3
 72
8
 73
4
 74
0
 40
0
 40
0
 40
0
 40
0
 40
1
 40
1
 40
1
 40
1
 10
104.306267
 20
195.858820
 30
0.0
 10
104.770503
 20
195.590667
 30
0.0
 10
105.342562
 20
195.590667
 30
0.0
 10
105.806798
 20
195.858820
 30
0.0
  0
SPLINE
  5
133
100
AcDbEntity
  8
Layer_1
 62
7
100
AcDbSpline
 70
8
 71
3
 72
8
 73
4
 74
0
 40
0
 40
0
 40
0
 40
0
 40
1
 40
1
 40
1
 40
1
 10
105.806798
 20
195.858820
 30
0.0
 10
106.271035
 20
196.126974
 30
0.0
 10
106.556861
 20
196.622508
 30
0.0
 10
106.556532
 20
197.158625
 30
0.0
  0
LWPOLYLINE
  5
134
100
AcDbEntity
  8
Layer_1
 62
7
100
AcDbPolyline
 90
6
 70
1
 10
108.056532
 20
134.828634
 30
0.0
 10
24.236532
 20
134.828634
 30
0.0
 10
24.236532
 20
200.158625
 30
0.0
 10
108.056532
 20
200.158625
 30
0.0
 10
108.056532
 20
134.828634
 30
0.0
 10
108.056532
 20
134.828634
 30
0.0
  0
SPLINE
  5
135
100
AcDbEntity
  8
Layer_1
 62
7
100
AcDbSpline
 70
8
 71
3
 72
8
 73
4
 74
0
 40
0
 40
0
 40
0
 40
0
 40
1
 40
1
 40
1
 40
1
 10
106.556532
 20
197.158625
 30
0.0
 10
106.556861
 20
197.694743
 30
0.0
 10
106.271035
 20
198.190277
 30
0.0
 10
105.806798
 20
198.458430
 30
0.0
  0
SPLINE
  5
136
100
AcDbEntity
  8
Layer_1
 62
7
100
AcDbSpline
 70
8
 71
3
 72
8
 73
4
 74
0
 40
0
 40
0
 40
0
 40
0
 40
1
 40
1
 40
1
 40
1
 10
105.806798
 20
198.458430
 30
0.0
 10
105.342562
 20
198.726584
 30
0.0
 10
104.770503
 20
198.726584
 30
0.0
 10
104.306267
 20
198.458430
 30
0.0
  0
SPLINE
  5
137
100
AcDbEntity
  8
Layer_1
 62
7
100
AcDbSpline
 70
8
 71
3
 72
8
 73
4
 74
0
 40
0
 40
0
 40
0
 40
0
 40
1
 40
1
 40
1
 40
1
 10
104.306267
 20
198.458430
 30
0.0
 10
103.842030
 20
198.190277
 30
0.0
 10
103.556204
 20
197.694743
 30
0.0
 10
103.556533
 20
197.158625
 30
0.0
  0
SPLINE
  5
138
100
AcDbEntity
  8
Layer_1
 62
7
100
AcDbSpline
 70
8
 71
3
 72
8
 73
4
 74
0
 40
0
 40
0
 40
0
 40
0
 40
1
 40
1
 40
1
 40
1
 10
103.556533
 20
197.158625
 30
0.0
 10
103.556204
 20
196.622508
 30
0.0
 10
103.842030
 20
196.126974
 30
0.0
 10
104.306267
 20
195.858820
 30
0.0
  0
SPLINE
  5
139
100
AcDbEntity
  8
Layer_1
 62
7
100
AcDbSpline
 70
8
 71
3
 72
8
 73
4
 74
0
 40
0
 40
0
 40
0
 40
0
 40
1
 40
1
 40
1
 40
1
 10
104.306267
 20
195.858820
 30
0.0
 10
104.770503
 20
195.590667
 30
0.0
 10
105.342562
 20
195.590667
 30
0.0
 10
105.806798
 20
195.858820
 30
0.0
  0
SPLINE
  5
13a
100
AcDbEntity
  8
Layer_1
 62
7
100
AcDbSpline
 70
8
 71
3
 72
8
 73
4
 74
0
 40
0
 40
0
 40
0
 40
0
 40
1
 40
1
 40
1
 40
1
 10
105.806798
 20
195.858820
 30
0.0
 10
106.271035
 20
196.126974
 30
0.0
 10
106.556861
 20
196.622508
 30
0.0
 10
106.556532
 20
197.158625
 30
0.0
  0
SPLINE
  5
13b
100
AcDbEntity
  8
Layer_1
 62
7
100
AcDbSpline
 70
8
 71
3
 72
8
 73
4
 74
0
 40
0
 40
0
 40
0
 40
0
 40
1
 40
1
 40
1
 40
1
 10
28.736532
 20
137.828628
 30
0.0
 10
28.736860
 20
138.364746
 30
0.0
 10
28.451034
 20
138.860279
 30
0.0
 10
27.986797
 20
139.128433
 30
0.0
  0
SPLINE
  5
13c
100
AcDbEntity
  8
Layer_1
 62
7
100
AcDbSpline
 70
8
 71
3
 72
8
 73
4
 74
0
 40
0
 40
0
 40
0
 40
0
 40
1
 40
1
 40
1
 40
1
 10
27.986797
 20
139.128433
 30
0.0
 10
27.522561
 20
139.396587
 30
0.0
 10
26.950503
 20
139.396587
 30
0.0
 10
26.486266
 20
139.128433
 30
0.0
  0
SPLINE
  5
13d
100
AcDbEntity
  8
Layer_1
 62
7
100
AcDbSpline
 70
8
 71
3
 72
8
 73
4
 74
0
 40
0
 40
0
 40
0
 40
0
 40
1
 40
1
 40
1
 40
1
 10
26.486266
 20
139.128433
 30
0.0
 10
26.022029
 20
138.860279
 30
0.0
 10
25.736203
 20
138.364746
 30
0.0
 10
25.736532
 20
137.828628
 30
0.0
  0
SPLINE
  5
13e
100
AcDbEntity
  8
Layer_1
 62
7
100
AcDbSpline
 70
8
 71
3
 72
8
 73
4
 74
0
 40
0
 40
0
 40
0
 40
0
 40
1
 40
1
 40
1
 40
1
 10
25.736532
 20
137.828628
 30
0.0
 10
25.736203
 20
137.292511
 30
0.0
 10
26.022029
 20
136.796977
 30
0.0
 10
26.486266
 20
136.528823
 30
0.0
  0
SPLINE
  5
13f
100
AcDbEntity
  8
Layer_1
 62
7
100
AcDbSpline
 70
8
 71
3
 72
8
 73
4
 74
0
 40
0
 40
0
 40
0
 40
0
 40
1
 40
1
 40
1
 40
1
 10
26.486266
 20
136.528823
 30
0.0
 10
26.950503
 20
136.260669
 30
0.0
 10
27.522561
 20
136.260669
 30
0.0
 10
27.986797
 20
136.528823
 30
0.0
  0
SPLINE
  5
140
100
AcDbEntity
  8
Layer_1
 62
7
100
AcDbSpline
 70
8
 71
3
 72
8
 73
4
 74
0
 40
0
 40
0
 40
0
 40
0
 40
1
 40
1
 40
1
 40
1
 10
27.986797
 20
136.528823
 30
0.0
 10
28.451034
 20
136.796977
 30
0.0
 10
28.736860
 20
137.292511
 30
0.0
 10
28.736532
 20
137.828628
 30
0.0
  0
LWPOLYLINE
  5
141
100
AcDbEntity
  8
Layer_1
 62
7
100
AcDbPolyline
 90
3
 70
1
 10
106.556532
 20
197.158625
 30
0.0
 10
106.556532
 20
197.158625
 30
0.0
 10
106.556532
 20
197.158625
 30
0.0
  0
SPLINE
  5
142
100
AcDbEntity
  8
Layer_1
 62
7
100
AcDbSpline
 70
8
 71
3
 72
8
 73
4
 74
0
 40
0
 40
0
 40
0
 40
0
 40
1
 40
1
 40
1
 40
1
 10
28.736532
 20
137.828628
 30
0.0
 10
28.736860
 20
138.364746
 30
0.0
 10
28.451034
 20
138.860279
 30
0.0
 10
27.986797
 20
139.128433
 30
0.0
  0
SPLINE
  5
143
100
AcDbEntity
  8
Layer_1
 62
7
100
AcDbSpline
 70
8
 71
3
 72
8
 73
4
 74
0
 40
0
 40
0
 40
0
 40
0
 40
1
 40
1
 40
1
 40
1
 10
27.986797
 20
139.128433
 30
0.0
 10
27.522561
 20
139.396587
 30
0.0
 10
26.950503
 20
139.396587
 30
0.0
 10
26.486266
 20
139.128433
 30
0.0
  0
SPLINE
  5
144
100
AcDbEntity
  8
Layer_1
 62
7
100
AcDbSpline
 70
8
 71
3
 72
8
 73
4
 74
0
 40
0
 40
0
 40
0
 40
0
 40
1
 40
1
 40
1
 40
1
 10
26.486266
 20
139.128433
 30
0.0
 10
26.022029
 20
138.860279
 30
0.0
 10
25.736203
 20
138.364746
 30
0.0
 10
25.736532
 20
137.828628
 30
0.0
  0
SPLINE
  5
145
100
AcDbEntity
  8
Layer_1
 62
7
100
AcDbSpline
 70
8
 71
3
 72
8
 73
4
 74
0
 40
0
 40
0
 40
0
 40
0
 40
1
 40
1
 40
1
 40
1
 10
25.736532
 20
137.828628
 30
0.0
 10
25.736203
 20
137.292511
 30
0.0
 10
26.022029
 20
136.796977
 30
0.0
 10
26.486266
 20
136.528823
 30
0.0
  0
SPLINE
  5
146
100
AcDbEntity
  8
Layer_1
 62
7
100
AcDbSpline
 70
8
 71
3
 72
8
 73
4
 74
0
 40
0
 40
0
 40
0
 40
0
 40
1
 40
1
 40
1
 40
1
 10
26.486266
 20
136.528823
 30
0.0
 10
26.950503
 20
136.260669
 30
0.0
 10
27.522561
 20
136.260669
 30
0.0
 10
27.986797
 20
136.528823
 30
0.0
  0
SPLINE
  5
147
100
AcDbEntity
  8
Layer_1
 62
7
100
AcDbSpline
 70
8
 71
3
 72
8
 73
4
 74
0
 40
0
 40
0
 40
0
 40
0
 40
1
 40
1
 40
1
 40
1
 10
27.986797
 20
136.528823
 30
0.0
 10
28.451034
 20
136.796977
 30
0.0
 10
28.736860
 20
137.292511
 30
0.0
 10
28.736532
 20
137.828628
 30
0.0
  0
LWPOLYLINE
  5
148
100
AcDbEntity
  8
Layer_1
 62
7
100
AcDbPolyline
 90
3
 70
1
 10
28.736532
 20
137.828628
 30
0.0
 10
28.736532
 20
137.828628
 30
0.0
 10
28.736532
 20
137.828628
 30
0.0
  0
LWPOLYLINE
  5
149
100
AcDbEntity
  8
Layer_1
 62
7
100
AcDbPolyline
 90
6
 70
1
 10
63.856532
 20
185.158627
 30
0.0
 10
33.236531
 20
185.158627
 30
0.0
 10
33.236531
 20
140.828622
 30
0.0
 10
63.856532
 20
140.828622
 30
0.0
 10
63.856532
 20
185.158627
 30
0.0
 10
63.856532
 20
185.158627
 30
0.0
  0
LWPOLYLINE
  5
14a
100
AcDbEntity
  8
Layer_1
 62
7
100
AcDbPolyline
 90
6
 70
1
 10
99.056533
 20
192.158624
 30
0.0
 10
73.806532
 20
192.158624
 30
0.0
 10
73.806532
 20
154.828622
 30
0.0
 10
99.056533
 20
154.828622
 30
0.0
 10
99.056533
 20
192.158624
 30
0.0
 10
99.056533
 20
192.158624
 30
0.0
  0
SPLINE
  5
14b
100
AcDbEntity
  8
Layer_1
 62
7
100
AcDbSpline
 70
8
 71
3
 72
8
 73
4
 74
0
 40
0
 40
0
 40
0
 40
0
 40
1
 40
1
 40
1
 40
1
 10
194.434096
 20
197.158625
 30
0.0
 10
194.434425
 20
197.694743
 30
0.0
 10
194.148598
 20
198.190277
 30
0.0
 10
193.684362
 20
198.458430
 30
0.0
  0
SPLINE
  5
14c
100
AcDbEntity
  8
Layer_1
 62
7
100
AcDbSpline
 70
8
 71
3
 72
8
 73
4
 74
0
 40
0
 40
0
 40
0
 40
0
 40
1
 40
1
 40
1
 40
1
 10
193.684362
 20
198.458430
 30
0.0
 10
193.220125
 20
198.726584
 30
0.0
 10
192.648067
 20
198.726584
 30
0.0
 10
192.183830
 20
198.458430
 30
0.0
  0
SPLINE
  5
14d
100
AcDbEntity
  8
Layer_1
 62
7
100
AcDbSpline
 70
8
 71
3
 72
8
 73
4
 74
0
 40
0
 40
0
 40
0
 40
0
 40
1
 40
1
 40
1
 40
1
 10
192.183830
 20
198.458430
 30
0.0
 10
191.719594
 20
198.190277
 30
0.0
 10
191.433767
 20
197.694743
 30
0.0
 10
191.434096
 20
197.158625
 30
0.0
  0
SPLINE
  5
14e
100
AcDbEntity
  8
Layer_1
 62
7
100
AcDbSpline
 70
8
 71
3
 72
8
 73
4
 74
0
 40
0
 40
0
 40
0
 40
0
 40
1
 40
1
 40
1
 40
1
 10
191.434096
 20
197.158625
 30
0.0
 10
191.433767
 20
196.622508
 30
0.0
 10
191.719594
 20
196.126974
 30
0.0
 10
192.183830
 20
195.858820
 30
0.0
  0
SPLINE
  5
14f
100
AcDbEntity
  8
Layer_1
 62
7
100
AcDbSpline
 70
8
 71
3
 72
8
 73
4
 74
0
 40
0
 40
0
 40
0
 40
0
 40
1
 40
1
 40
1
 40
1
 10
192.183830
 20
195.858820
 30
0.0
 10
192.648067
 20
195.590667
 30
0.0
 10
193.220125
 20
195.590667
 30
0.0
 10
193.684362
 20
195.858820
 30
0.0
  0
SPLINE
  5
150
100
AcDbEntity
  8
Layer_1
 62
7
100
AcDbSpline
 70
8
 71
3
 72
8
 73
4
 74
0
 40
0
 40
0
 40
0
 40
0
 40
1
 40
1
 40
1
 40
1
 10
193.684362
 20
195.858820
 30
0.0
 10
194.148598
 20
196.126974
 30
0.0
 10
194.434425
 20
196.622508
 30
0.0
 10
194.434096
 20
197.158625
 30
0.0
  0
LWPOLYLINE
  5
151
100
AcDbEntity
  8
Layer_1
 62
7
100
AcDbPolyline
 90
6
 70
1
 10
195.934096
 20
134.828634
 30
0.0
 10
112.114096
 20
134.828634
 30
0.0
 10
112.114096
 20
200.158625
 30
0.0
 10
195.934096
 20
200.158625
 30
0.0
 10
195.934096
 20
134.828634
 30
0.0
 10
195.934096
 20
134.828634
 30
0.0
  0
SPLINE
  5
152
100
AcDbEntity
  8
Layer_1
 62
7
100
AcDbSpline
 70
8
 71
3
 72
8
 73
4
 74
0
 40
0
 40
0
 40
0
 40
0
 40
1
 40
1
 40
1
 40
1
 10
194.434096
 20
197.158625
 30
0.0
 10
194.434425
 20
197.694743
 30
0.0
 10
194.148598
 20
198.190277
 30
0.0
 10
193.684362
 20
198.458430
 30
0.0
  0
SPLINE
  5
153
100
AcDbEntity
  8
Layer_1
 62
7
100
AcDbSpline
 70
8
 71
3
 72
8
 73
4
 74
0
 40
0
 40
0
 40
0
 40
0
 40
1
 40
1
 40
1
 40
1
 10
193.684362
 20
198.458430
 30
0.0
 10
193.220125
 20
198.726584
 30
0.0
 10
192.648067
 20
198.726584
 30
0.0
 10
192.183830
 20
198.458430
 30
0.0
  0
SPLINE
  5
154
100
AcDbEntity
  8
Layer_1
 62
7
100
AcDbSpline
 70
8
 71
3
 72
8
 73
4
 74
0
 40
0
 40
0
 40
0
 40
0
 40
1
 40
1
 40
1
 40
1
 10
192.183830
 20
198.458430
 30
0.0
 10
191.719594
 20
198.190277
 30
0.0
 10
191.433767
 20
197.694743
 30
0.0
 10
191.434096
 20
197.158625
 30
0.0
  0
SPLINE
  5
155
100
AcDbEntity
  8
Layer_1
 62
7
100
AcDbSpline
 70
8
 71
3
 72
8
 73
4
 74
0
 40
0
 40
0
 40
0
 40
0
 40
1
 40
1
 40
1
 40
1
 10
191.434096
 20
197.158625
 30
0.0
 10
191.433767
 20
196.622508
 30
0.0
 10
191.719594
 20
196.126974
 30
0.0
 10
192.183830
 20
195.858820
 30
0.0
  0
SPLINE
  5
156
100
AcDbEntity
  8
Layer_1
 62
7
100
AcDbSpline
 70
8
 71
3
 72
8
 73
4
 74
0
 40
0
 40
0
 40
0
 40
0
 40
1
 40
1
 40
1
 40
1
 10
192.183830
 20
195.858820
 30
0.0
 10
192.648067
 20
195.590667
 30
0.0
 10
193.220125
 20
195.590667
 30
0.0
 10
193.684362
 20
195.858820
 30
0.0
  0
SPLINE
  5
157
100
AcDbEntity
  8
Layer_1
 62
7
100
AcDbSpline
 70
8
 71
3
 72
8
 73
4
 74
0
 40
0
 40
0
 40
0
 40
0
 40
1
 40
1
 40
1
 40
1
 10
193.684362
 20
195.858820
 30
0.0
 10
194.148598
 20
196.126974
 30
0.0
 10
194.434425
 20
196.622508
 30
0.0
 10
194.434096
 20
197.158625
 30
0.0
  0
SPLINE
  5
158
100
AcDbEntity
  8
Layer_1
 62
7
100
AcDbSpline
 70
8
 71
3
 72
8
 73
4
 74
0
 40
0
 40
0
 40
0
 40
0
 40
1
 40
1
 40
1
 40
1
 10
116.614095
 20
137.828628
 30
0.0
 10
116.614424
 20
138.364746
 30
0.0
 10
116.328598
 20
138.860279
 30
0.0
 10
115.864361
 20
139.128433
 30
0.0
  0
SPLINE
  5
159
100
AcDbEntity
  8
Layer_1
 62
7
100
AcDbSpline
 70
8
 71
3
 72
8
 73
4
 74
0
 40
0
 40
0
 40
0
 40
0
 40
1
 40
1
 40
1
 40
1
 10
115.864361
 20
139.128433
 30
0.0
 10
115.400124
 20
139.396587
 30
0.0
 10
114.828066
 20
139.396587
 30
0.0
 10
114.363830
 20
139.128433
 30
0.0
  0
SPLINE
  5
15a
100
AcDbEntity
  8
Layer_1
 62
7
100
AcDbSpline
 70
8
 71
3
 72
8
 73
4
 74
0
 40
0
 40
0
 40
0
 40
0
 40
1
 40
1
 40
1
 40
1
 10
114.363830
 20
139.128433
 30
0.0
 10
113.899593
 20
138.860279
 30
0.0
 10
113.613767
 20
138.364746
 30
0.0
 10
113.614096
 20
137.828628
 30
0.0
  0
SPLINE
  5
15b
100
AcDbEntity
  8
Layer_1
 62
7
100
AcDbSpline
 70
8
 71
3
 72
8
 73
4
 74
0
 40
0
 40
0
 40
0
 40
0
 40
1
 40
1
 40
1
 40
1
 10
113.614096
 20
137.828628
 30
0.0
 10
113.613767
 20
137.292511
 30
0.0
 10
113.899593
 20
136.796977
 30
0.0
 10
114.363830
 20
136.528823
 30
0.0
  0
SPLINE
  5
15c
100
AcDbEntity
  8
Layer_1
 62
7
100
AcDbSpline
 70
8
 71
3
 72
8
 73
4
 74
0
 40
0
 40
0
 40
0
 40
0
 40
1
 40
1
 40
1
 40
1
 10
114.363830
 20
136.528823
 30
0.0
 10
114.828066
 20
136.260669
 30
0.0
 10
115.400124
 20
136.260669
 30
0.0
 10
115.864361
 20
136.528823
 30
0.0
  0
SPLINE
  5
15d
100
AcDbEntity
  8
Layer_1
 62
7
100
AcDbSpline
 70
8
 71
3
 72
8
 73
4
 74
0
 40
0
 40
0
 40
0
 40
0
 40
1
 40
1
 40
1
 40
1
 10
115.864361
 20
136.528823
 30
0.0
 10
116.328598
 20
136.796977
 30
0.0
 10
116.614424
 20
137.292511
 30
0.0
 10
116.614095
 20
137.828628
 30
0.0
  0
LWPOLYLINE
  5
15e
100
AcDbEntity
  8
Layer_1
 62
7
100
AcDbPolyline
 90
3
 70
1
 10
194.434096
 20
197.158625
 30
0.0
 10
194.434096
 20
197.158625
 30
0.0
 10
194.434096
 20
197.158625
 30
0.0
  0
SPLINE
  5
15f
100
AcDbEntity
  8
Layer_1
 62
7
100
AcDbSpline
 70
8
 71
3
 72
8
 73
4
 74
0
 40
0
 40
0
 40
0
 40
0
 40
1
 40
1
 40
1
 40
1
 10
116.614095
 20
137.828628
 30
0.0
 10
116.614424
 20
138.364746
 30
0.0
 10
116.328598
 20
138.860279
 30
0.0
 10
115.864361
 20
139.128433
 30
0.0
  0
SPLINE
  5
160
100
AcDbEntity
  8
Layer_1
 62
7
100
AcDbSpline
 70
8
 71
3
 72
8
 73
4
 74
0
 40
0
 40
0
 40
0
 40
0
 40
1
 40
1
 40
1
 40
1
 10
115.864361
 20
139.128433
 30
0.0
 10
115.400124
 20
139.396587
 30
0.0
 10
114.828066
 20
139.396587
 30
0.0
 10
114.363830
 20
139.128433
 30
0.0
  0
SPLINE
  5
161
100
AcDbEntity
  8
Layer_1
 62
7
100
AcDbSpline
 70
8
 71
3
 72
8
 73
4
 74
0
 40
0
 40
0
 40
0
 40
0
 40
1
 40
1
 40
1
 40
1
 10
114.363830
 20
139.128433
 30
0.0
 10
113.899593
 20
138.860279
 30
0.0
 10
113.613767
 20
138.364746
 30
0.0
 10
113.614096
 20
137.828628
 30
0.0
  0
SPLINE
  5
162
100
AcDbEntity
  8
Layer_1
 62
7
100
AcDbSpline
 70
8
 71
3
 72
8
 73
4
 74
0
 40
0
 40
0
 40
0
 40
0
 40
1
 40
1
 40
1
 40
1
 10
113.614096
 20
137.828628
 30
0.0
 10
113.613767
 20
137.292511
 30
0.0
 10
113.899593
 20
136.796977
 30
0.0
 10
114.363830
 20
136.528823
 30
0.0
  0
SPLINE
  5
163
100
AcDbEntity
  8
Layer_1
 62
7
100
AcDbSpline
 70
8
 71
3
 72
8
 73
4
 74
0
 40
0
 40
0
 40
0
 40
0
 40
1
 40
1
 40
1
 40
1
 10
114.363830
 20
136.528823
 30
0.0
 10
114.828066
 20
136.260669
 30
0.0
 10
115.400124
 20
136.260669
 30
0.0
 10
115.864361
 20
136.528823
 30
0.0
  0
SPLINE
  5
164
100
AcDbEntity
  8
Layer_1
 62
7
100
AcDbSpline
 70
8
 71
3
 72
8
 73
4
 74
0
 40
0
 40
0
 40
0
 40
0
 40
1
 40
1
 40
1
 40
1
 10
115.864361
 20
136.528823
 30
0.0
 10
116.328598
 20
136.796977
 30
0.0
 10
116.614424
 20
137.292511
 30
0.0
 10
116.614095
 20
137.828628
 30
0.0
  0
LWPOLYLINE
  5
165
100
AcDbEntity
  8
Layer_1
 62
7
100
AcDbPolyline
 90
3
 70
1
 10
116.614095
 20
137.828628
 30
0.0
 10
116.614095
 20
137.828628
 30
0.0
 10
116.614095
 20
137.828628
 30
0.0
  0
LWPOLYLINE
  5
166
100
AcDbEntity
  8
Layer_1
 62
7
100
AcDbPolyline
 90
6
 70
1
 10
151.734096
 20
185.158627
 30
0.0
 10
121.114095
 20
185.158627
 30
0.0
 10
121.114095
 20
140.828622
 30
0.0
 10
151.734096
 20
140.828622
 30
0.0
 10
151.734096
 20
185.158627
 30
0.0
 10
151.734096
 20
185.158627
 30
0.0
  0
LWPOLYLINE
  5
167
100
AcDbEntity
  8
Layer_1
 62
7
100
AcDbPolyline
 90
6
 70
1
 10
186.934097
 20
192.158624
 30
0.0
 10
161.684096
 20
192.158624
 30
0.0
 10
161.684096
 20
154.828622
 30
0.0
 10
186.934097
 20
154.828622
 30
0.0
 10
186.934097
 20
192.158624
 30
0.0
 10
186.934097
 20
192.158624
 30
0.0
  0
SPLINE
  5
168
100
AcDbEntity
  8
Layer_1
 62
7
100
AcDbSpline
 70
8
 71
3
 72
8
 73
4
 74
0
 40
0
 40
0
 40
0
 40
0
 40
1
 40
1
 40
1
 40
1
 10
106.556532
 20
268.344361
 30
0.0
 10
106.556861
 20
268.880478
 30
0.0
 10
106.271035
 20
269.376012
 30
0.0
 10
105.806798
 20
269.644166
 30
0.0
  0
SPLINE
  5
169
100
AcDbEntity
  8
Layer_1
 62
7
100
AcDbSpline
 70
8
 71
3
 72
8
 73
4
 74
0
 40
0
 40
0
 40
0
 40
0
 40
1
 40
1
 40
1
 40
1
 10
105.806798
 20
269.644166
 30
0.0
 10
105.342562
 20
269.912319
 30
0.0
 10
104.770503
 20
269.912319
 30
0.0
 10
104.306267
 20
269.644166
 30
0.0
  0
SPLINE
  5
16a
100
AcDbEntity
  8
Layer_1
 62
7
100
AcDbSpline
 70
8
 71
3
 72
8
 73
4
 74
0
 40
0
 40
0
 40
0
 40
0
 40
1
 40
1
 40
1
 40
1
 10
104.306267
 20
269.644166
 30
0.0
 10
103.842030
 20
269.376012
 30
0.0
 10
103.556204
 20
268.880478
 30
0.0
 10
103.556533
 20
268.344361
 30
0.0
  0
SPLINE
  5
16b
100
AcDbEntity
  8
Layer_1
 62
7
100
AcDbSpline
 70
8
 71
3
 72
8
 73
4
 74
0
 40
0
 40
0
 40
0
 40
0
 40
1
 40
1
 40
1
 40
1
 10
103.556533
 20
268.344361
 30
0.0
 10
103.556204
 20
267.808243
 30
0.0
 10
103.842030
 20
267.312709
 30
0.0
 10
104.306267
 20
267.044556
 30
0.0
  0
SPLINE
  5
16c
100
AcDbEntity
  8
Layer_1
 62
7
100
AcDbSpline
 70
8
 71
3
 72
8
 73
4
 74
0
 40
0
 40
0
 40
0
 40
0
 40
1
 40
1
 40
1
 40
1
 10
104.306267
 20
267.044556
 30
0.0
 10
104.770503
 20
266.776402
 30
0.0
 10
105.342562
 20
266.776402
 30
0.0
 10
105.806798
 20
267.044556
 30
0.0
  0
SPLINE
  5
16d
100
AcDbEntity
  8
Layer_1
 62
7
100
AcDbSpline
 70
8
 71
3
 72
8
 73
4
 74
0
 40
0
 40
0
 40
0
 40
0
 40
1
 40
1
 40
1
 40
1
 10
105.806798
 20
267.044556
 30
0.0
 10
106.271035
 20
267.312709
 30
0.0
 10
106.556861
 20
267.808243
 30
0.0
 10
106.556532
 20
268.344361
 30
0.0
  0
LWPOLYLINE
  5
16e
100
AcDbEntity
  8
Layer_1
 62
7
100
AcDbPolyline
 90
6
 70
1
 10
108.056532
 20
206.014369
 30
0.0
 10
24.236532
 20
206.014369
 30
0.0
 10
24.236532
 20
271.344360
 30
0.0
 10
108.056532
 20
271.344360
 30
0.0
 10
108.056532
 20
206.014369
 30
0.0
 10
108.056532
 20
206.014369
 30
0.0
  0
SPLINE
  5
16f
100
AcDbEntity
  8
Layer_1
 62
7
100
AcDbSpline
 70
8
 71
3
 72
8
 73
4
 74
0
 40
0
 40
0
 40
0
 40
0
 40
1
 40
1
 40
1
 40
1
 10
106.556532
 20
268.344361
 30
0.0
 10
106.556861
 20
268.880478
 30
0.0
 10
106.271035
 20
269.376012
 30
0.0
 10
105.806798
 20
269.644166
 30
0.0
  0
SPLINE
  5
170
100
AcDbEntity
  8
Layer_1
 62
7
100
AcDbSpline
 70
8
 71
3
 72
8
 73
4
 74
0
 40
0
 40
0
 40
0
 40
0
 40
1
 40
1
 40
1
 40
1
 10
105.806798
 20
269.644166
 30
0.0
 10
105.342562
 20
269.912319
 30
0.0
 10
104.770503
 20
269.912319
 30
0.0
 10
104.306267
 20
269.644166
 30
0.0
  0
SPLINE
  5
171
100
AcDbEntity
  8
Layer_1
 62
7
100
AcDbSpline
 70
8
 71
3
 72
8
 73
4
 74
0
 40
0
 40
0
 40
0
 40
0
 40
1
 40
1
 40
1
 40
1
 10
104.306267
 20
269.644166
 30
0.0
 10
103.842030
 20
269.376012
 30
0.0
 10
103.556204
 20
268.880478
 30
0.0
 10
103.556533
 20
268.344361
 30
0.0
  0
SPLINE
  5
172
100
AcDbEntity
  8
Layer_1
 62
7
100
AcDbSpline
 70
8
 71
3
 72
8
 73
4
 74
0
 40
0
 40
0
 40
0
 40
0
 40
1
 40
1
 40
1
 40
1
 10
103.556533
 20
268.344361
 30
0.0
 10
103.556204
 20
267.808243
 30
0.0
 10
103.842030
 20
267.312709
 30
0.0
 10
104.306267
 20
267.044556
 30
0.0
  0
SPLINE
  5
173
100
AcDbEntity
  8
Layer_1
 62
7
100
AcDbSpline
 70
8
 71
3
 72
8
 73
4
 74
0
 40
0
 40
0
 40
0
 40
0
 40
1
 40
1
 40
1
 40
1
 10
104.306267
 20
267.044556
 30
0.0
 10
104.770503
 20
266.776402
 30
0.0
 10
105.342562
 20
266.776402
 30
0.0
 10
105.806798
 20
267.044556
 30
0.0
  0
SPLINE
  5
174
100
AcDbEntity
  8
Layer_1
 62
7
100
AcDbSpline
 70
8
 71
3
 72
8
 73
4
 74
0
 40
0
 40
0
 40
0
 40
0
 40
1
 40
1
 40
1
 40
1
 10
105.806798
 20
267.044556
 30
0.0
 10
106.271035
 20
267.312709
 30
0.0
 10
106.556861
 20
267.808243
 30
0.0
 10
106.556532
 20
268.344361
 30
0.0
  0
SPLINE
  5
175
100
AcDbEntity
  8
Layer_1
 62
7
100
AcDbSpline
 70
8
 71
3
 72
8
 73
4
 74
0
 40
0
 40
0
 40
0
 40
0
 40
1
 40
1
 40
1
 40
1
 10
28.736532
 20
209.014363
 30
0.0
 10
28.736860
 20
209.550481
 30
0.0
 10
28.451034
 20
210.046015
 30
0.0
 10
27.986797
 20
210.314168
 30
0.0
  0
SPLINE
  5
176
100
AcDbEntity
  8
Layer_1
 62
7
100
AcDbSpline
 70
8
 71
3
 72
8
 73
4
 74
0
 40
0
 40
0
 40
0
 40
0
 40
1
 40
1
 40
1
 40
1
 10
27.986797
 20
210.314168
 30
0.0
 10
27.522561
 20
210.582322
 30
0.0
 10
26.950503
 20
210.582322
 30
0.0
 10
26.486266
 20
210.314168
 30
0.0
  0
SPLINE
  5
177
100
AcDbEntity
  8
Layer_1
 62
7
100
AcDbSpline
 70
8
 71
3
 72
8
 73
4
 74
0
 40
0
 40
0
 40
0
 40
0
 40
1
 40
1
 40
1
 40
1
 10
26.486266
 20
210.314168
 30
0.0
 10
26.022029
 20
210.046015
 30
0.0
 10
25.736203
 20
209.550481
 30
0.0
 10
25.736532
 20
209.014363
 30
0.0
  0
SPLINE
  5
178
100
AcDbEntity
  8
Layer_1
 62
7
100
AcDbSpline
 70
8
 71
3
 72
8
 73
4
 74
0
 40
0
 40
0
 40
0
 40
0
 40
1
 40
1
 40
1
 40
1
 10
25.736532
 20
209.014363
 30
0.0
 10
25.736203
 20
208.478246
 30
0.0
 10
26.022029
 20
207.982712
 30
0.0
 10
26.486266
 20
207.714558
 30
0.0
  0
SPLINE
  5
179
100
AcDbEntity
  8
Layer_1
 62
7
100
AcDbSpline
 70
8
 71
3
 72
8
 73
4
 74
0
 40
0
 40
0
 40
0
 40
0
 40
1
 40
1
 40
1
 40
1
 10
26.486266
 20
207.714558
 30
0.0
 10
26.950503
 20
207.446405
 30
0.0
 10
27.522561
 20
207.446405
 30
0.0
 10
27.986797
 20
207.714558
 30
0.0
  0
SPLINE
  5
17a
100
AcDbEntity
  8
Layer_1
 62
7
100
AcDbSpline
 70
8
 71
3
 72
8
 73
4
 74
0
 40
0
 40
0
 40
0
 40
0
 40
1
 40
1
 40
1
 40
1
 10
27.986797
 20
207.714558
 30
0.0
 10
28.451034
 20
207.982712
 30
0.0
 10
28.736860
 20
208.478246
 30
0.0
 10
28.736532
 20
209.014363
 30
0.0
  0
LWPOLYLINE
  5
17b
100
AcDbEntity
  8
Layer_1
 62
7
100
AcDbPolyline
 90
3
 70
1
 10
106.556532
 20
268.344361
 30
0.0
 10
106.556532
 20
268.344361
 30
0.0
 10
106.556532
 20
268.344361
 30
0.0
  0
SPLINE
  5
17c
100
AcDbEntity
  8
Layer_1
 62
7
100
AcDbSpline
 70
8
 71
3
 72
8
 73
4
 74
0
 40
0
 40
0
 40
0
 40
0
 40
1
 40
1
 40
1
 40
1
 10
28.736532
 20
209.014363
 30
0.0
 10
28.736860
 20
209.550481
 30
0.0
 10
28.451034
 20
210.046015
 30
0.0
 10
27.986797
 20
210.314168
 30
0.0
  0
SPLINE
  5
17d
100
AcDbEntity
  8
Layer_1
 62
7
100
AcDbSpline
 70
8
 71
3
 72
8
 73
4
 74
0
 40
0
 40
0
 40
0
 40
0
 40
1
 40
1
 40
1
 40
1
 10
27.986797
 20
210.314168
 30
0.0
 10
27.522561
 20
210.582322
 30
0.0
 10
26.950503
 20
210.582322
 30
0.0
 10
26.486266
 20
210.314168
 30
0.0
  0
SPLINE
  5
17e
100
AcDbEntity
  8
Layer_1
 62
7
100
AcDbSpline
 70
8
 71
3
 72
8
 73
4
 74
0
 40
0
 40
0
 40
0
 40
0
 40
1
 40
1
 40
1
 40
1
 10
26.486266
 20
210.314168
 30
0.0
 10
26.022029
 20
210.046015
 30
0.0
 10
25.736203
 20
209.550481
 30
0.0
 10
25.736532
 20
209.014363
 30
0.0
  0
SPLINE
  5
17f
100
AcDbEntity
  8
Layer_1
 62
7
100
AcDbSpline
 70
8
 71
3
 72
8
 73
4
 74
0
 40
0
 40
0
 40
0
 40
0
 40
1
 40
1
 40
1
 40
1
 10
25.736532
 20
209.014363
 30
0.0
 10
25.736203
 20
208.478246
 30
0.0
 10
26.022029
 20
207.982712
 30
0.0
 10
26.486266
 20
207.714558
 30
0.0
  0
SPLINE
  5
180
100
AcDbEntity
  8
Layer_1
 62
7
100
AcDbSpline
 70
8
 71
3
 72
8
 73
4
 74
0
 40
0
 40
0
 40
0
 40
0
 40
1
 40
1
 40
1
 40
1
 10
26.486266
 20
207.714558
 30
0.0
 10
26.950503
 20
207.446405
 30
0.0
 10
27.522561
 20
207.446405
 30
0.0
 10
27.986797
 20
207.714558
 30
0.0
  0
SPLINE
  5
181
100
AcDbEntity
  8
Layer_1
 62
7
100
AcDbSpline
 70
8
 71
3
 72
8
 73
4
 74
0
 40
0
 40
0
 40
0
 40
0
 40
1
 40
1
 40
1
 40
1
 10
27.986797
 20
207.714558
 30
0.0
 10
28.451034
 20
207.982712
 30
0.0
 10
28.736860
 20
208.478246
 30
0.0
 10
28.736532
 20
209.014363
 30
0.0
  0
LWPOLYLINE
  5
182
100
AcDbEntity
  8
Layer_1
 62
7
100
AcDbPolyline
 90
3
 70
1
 10
28.736532
 20
209.014363
 30
0.0
 10
28.736532
 20
209.014363
 30
0.0
 10
28.736532
 20
209.014363
 30
0.0
  0
LWPOLYLINE
  5
183
100
AcDbEntity
  8
Layer_1
 62
7
100
AcDbPolyline
 90
6
 70
1
 10
63.856532
 20
256.344362
 30
0.0
 10
33.236531
 20
256.344362
 30
0.0
 10
33.236531
 20
212.014357
 30
0.0
 10
63.856532
 20
212.014357
 30
0.0
 10
63.856532
 20
256.344362
 30
0.0
 10
63.856532
 20
256.344362
 30
0.0
  0
LWPOLYLINE
  5
184
100
AcDbEntity
  8
Layer_1
 62
7
100
AcDbPolyline
 90
6
 70
1
 10
99.056533
 20
263.344359
 30
0.0
 10
73.806532
 20
263.344359
 30
0.0
 10
73.806532
 20
226.014358
 30
0.0
 10
99.056533
 20
226.014358
 30
0.0
 10
99.056533
 20
263.344359
 30
0.0
 10
99.056533
 20
263.344359
 30
0.0
  0
LWPOLYLINE
  5
185
100
AcDbEntity
  8
Layer_1
 62
7
100
AcDbPolyline
 90
2
 70
0
 10
112.114097
 20
271.344372
 30
0.0
 10
112.114097
 20
206.014386
 30
0.0
  0
LWPOLYLINE
  5
186
100
AcDbEntity
  8
Layer_1
 62
7
100
AcDbPolyline
 90
4
 70
0
 10
195.934096
 20
206.014386
 30
0.0
 10
195.934096
 20
271.344372
 30
0.0
 10
112.114097
 20
271.344372
 30
0.0
 10
112.114097
 20
206.014386
 30
0.0
  0
LWPOLYLINE
  5
187
100
AcDbEntity
  8
Layer_1
 62
7
100
AcDbPolyline
 90
4
 70
0
 10
119.114097
 20
206.014386
 30
0.0
 10
119.114097
 20
258.344369
 30
0.0
 10
153.734098
 20
258.344369
 30
0.0
 10
153.734098
 20
206.014386
 30
0.0
  0
SPLINE
  5
188
100
AcDbEntity
  8
Layer_1
 62
7
100
AcDbSpline
 70
8
 71
3
 72
8
 73
4
 74
0
 40
0
 40
0
 40
0
 40
0
 40
1
 40
1
 40
1
 40
1
 10
113.614097
 20
209.014380
 30
0.0
 10
113.613864
 20
208.478327
 30
0.0
 10
113.899712
 20
207.982894
 30
0.0
 10
114.363909
 20
207.714800
 30
0.0
  0
SPLINE
  5
189
100
AcDbEntity
  8
Layer_1
 62
7
100
AcDbSpline
 70
8
 71
3
 72
8
 73
4
 74
0
 40
0
 40
0
 40
0
 40
0
 40
1
 40
1
 40
1
 40
1
 10
114.363909
 20
207.714800
 30
0.0
 10
114.828106
 20
207.446706
 30
0.0
 10
115.400088
 20
207.446706
 30
0.0
 10
115.864285
 20
207.714800
 30
0.0
  0
SPLINE
  5
18a
100
AcDbEntity
  8
Layer_1
 62
7
100
AcDbSpline
 70
8
 71
3
 72
8
 73
4
 74
0
 40
0
 40
0
 40
0
 40
0
 40
1
 40
1
 40
1
 40
1
 10
115.864285
 20
207.714800
 30
0.0
 10
116.328482
 20
207.982894
 30
0.0
 10
116.614329
 20
208.478327
 30
0.0
 10
116.614097
 20
209.014380
 30
0.0
  0
SPLINE
  5
18b
100
AcDbEntity
  8
Layer_1
 62
7
100
AcDbSpline
 70
8
 71
3
 72
8
 73
4
 74
0
 40
0
 40
0
 40
0
 40
0
 40
1
 40
1
 40
1
 40
1
 10
116.614097
 20
209.014380
 30
0.0
 10
116.614329
 20
209.550434
 30
0.0
 10
116.328482
 20
210.045867
 30
0.0
 10
115.864285
 20
210.313961
 30
0.0
  0
SPLINE
  5
18c
100
AcDbEntity
  8
Layer_1
 62
7
100
AcDbSpline
 70
8
 71
3
 72
8
 73
4
 74
0
 40
0
 40
0
 40
0
 40
0
 40
1
 40
1
 40
1
 40
1
 10
115.864285
 20
210.313961
 30
0.0
 10
115.400088
 20
210.582054
 30
0.0
 10
114.828106
 20
210.582054
 30
0.0
 10
114.363909
 20
210.313961
 30
0.0
  0
SPLINE
  5
18d
100
AcDbEntity
  8
Layer_1
 62
7
100
AcDbSpline
 70
8
 71
3
 72
8
 73
4
 74
0
 40
0
 40
0
 40
0
 40
0
 40
1
 40
1
 40
1
 40
1
 10
114.363909
 20
210.313961
 30
0.0
 10
113.899712
 20
210.045867
 30
0.0
 10
113.613864
 20
209.550434
 30
0.0
 10
113.614097
 20
209.014380
 30
0.0
  0
LWPOLYLINE
  5
18e
100
AcDbEntity
  8
Layer_1
 62
7
100
AcDbPolyline
 90
6
 70
1
 10
188.934096
 20
209.014380
 30
0.0
 10
188.934096
 20
265.344384
 30
0.0
 10
159.684096
 20
265.344384
 30
0.0
 10
159.684096
 20
209.014380
 30
0.0
 10
188.934096
 20
209.014380
 30
0.0
 10
188.934096
 20
209.014380
 30
0.0
  0
SPLINE
  5
18f
100
AcDbEntity
  8
Layer_1
 62
7
100
AcDbSpline
 70
8
 71
3
 72
8
 73
4
 74
0
 40
0
 40
0
 40
0
 40
0
 40
1
 40
1
 40
1
 40
1
 10
113.614097
 20
209.014380
 30
0.0
 10
113.613864
 20
208.478327
 30
0.0
 10
113.899712
 20
207.982894
 30
0.0
 10
114.363909
 20
207.714800
 30
0.0
  0
SPLINE
  5
190
100
AcDbEntity
  8
Layer_1
 62
7
100
AcDbSpline
 70
8
 71
3
 72
8
 73
4
 74
0
 40
0
 40
0
 40
0
 40
0
 40
1
 40
1
 40
1
 40
1
 10
114.363909
 20
207.714800
 30
0.0
 10
114.828106
 20
207.446706
 30
0.0
 10
115.400088
 20
207.446706
 30
0.0
 10
115.864285
 20
207.714800
 30
0.0
  0
SPLINE
  5
191
100
AcDbEntity
  8
Layer_1
 62
7
100
AcDbSpline
 70
8
 71
3
 72
8
 73
4
 74
0
 40
0
 40
0
 40
0
 40
0
 40
1
 40
1
 40
1
 40
1
 10
115.864285
 20
207.714800
 30
0.0
 10
116.328482
 20
207.982894
 30
0.0
 10
116.614329
 20
208.478327
 30
0.0
 10
116.614097
 20
209.014380
 30
0.0
  0
SPLINE
  5
192
100
AcDbEntity
  8
Layer_1
 62
7
100
AcDbSpline
 70
8
 71
3
 72
8
 73
4
 74
0
 40
0
 40
0
 40
0
 40
0
 40
1
 40
1
 40
1
 40
1
 10
116.614097
 20
209.014380
 30
0.0
 10
116.614329
 20
209.550434
 30
0.0
 10
116.328482
 20
210.045867
 30
0.0
 10
115.864285
 20
210.313961
 30
0.0
  0
SPLINE
  5
193
100
AcDbEntity
  8
Layer_1
 62
7
100
AcDbSpline
 70
8
 71
3
 72
8
 73
4
 74
0
 40
0
 40
0
 40
0
 40
0
 40
1
 40
1
 40
1
 40
1
 10
115.864285
 20
210.313961
 30
0.0
 10
115.400088
 20
210.582054
 30
0.0
 10
114.828106
 20
210.582054
 30
0.0
 10
114.363909
 20
210.313961
 30
0.0
  0
SPLINE
  5
194
100
AcDbEntity
  8
Layer_1
 62
7
100
AcDbSpline
 70
8
 71
3
 72
8
 73
4
 74
0
 40
0
 40
0
 40
0
 40
0
 40
1
 40
1
 40
1
 40
1
 10
114.363909
 20
210.313961
 30
0.0
 10
113.899712
 20
210.045867
 30
0.0
 10
113.613864
 20
209.550434
 30
0.0
 10
113.614097
 20
209.014380
 30
0.0
  0
SPLINE
  5
195
100
AcDbEntity
  8
Layer_1
 62
7
100
AcDbSpline
 70
8
 71
3
 72
8
 73
4
 74
0
 40
0
 40
0
 40
0
 40
0
 40
1
 40
1
 40
1
 40
1
 10
191.434096
 20
268.344378
 30
0.0
 10
191.433767
 20
267.808260
 30
0.0
 10
191.719594
 20
267.312726
 30
0.0
 10
192.183830
 20
267.044573
 30
0.0
  0
SPLINE
  5
196
100
AcDbEntity
  8
Layer_1
 62
7
100
AcDbSpline
 70
8
 71
3
 72
8
 73
4
 74
0
 40
0
 40
0
 40
0
 40
0
 40
1
 40
1
 40
1
 40
1
 10
192.183830
 20
267.044573
 30
0.0
 10
192.648067
 20
266.776419
 30
0.0
 10
193.220125
 20
266.776419
 30
0.0
 10
193.684362
 20
267.044573
 30
0.0
  0
SPLINE
  5
197
100
AcDbEntity
  8
Layer_1
 62
7
100
AcDbSpline
 70
8
 71
3
 72
8
 73
4
 74
0
 40
0
 40
0
 40
0
 40
0
 40
1
 40
1
 40
1
 40
1
 10
193.684362
 20
267.044573
 30
0.0
 10
194.148598
 20
267.312726
 30
0.0
 10
194.434425
 20
267.808260
 30
0.0
 10
194.434096
 20
268.344378
 30
0.0
  0
SPLINE
  5
198
100
AcDbEntity
  8
Layer_1
 62
7
100
AcDbSpline
 70
8
 71
3
 72
8
 73
4
 74
0
 40
0
 40
0
 40
0
 40
0
 40
1
 40
1
 40
1
 40
1
 10
194.434096
 20
268.344378
 30
0.0
 10
194.434425
 20
268.880495
 30
0.0
 10
194.148598
 20
269.376029
 30
0.0
 10
193.684362
 20
269.644183
 30
0.0
  0
SPLINE
  5
199
100
AcDbEntity
  8
Layer_1
 62
7
100
AcDbSpline
 70
8
 71
3
 72
8
 73
4
 74
0
 40
0
 40
0
 40
0
 40
0
 40
1
 40
1
 40
1
 40
1
 10
193.684362
 20
269.644183
 30
0.0
 10
193.220125
 20
269.912336
 30
0.0
 10
192.648067
 20
269.912336
 30
0.0
 10
192.183830
 20
269.644183
 30
0.0
  0
SPLINE
  5
19a
100
AcDbEntity
  8
Layer_1
 62
7
100
AcDbSpline
 70
8
 71
3
 72
8
 73
4
 74
0
 40
0
 40
0
 40
0
 40
0
 40
1
 40
1
 40
1
 40
1
 10
192.183830
 20
269.644183
 30
0.0
 10
191.719594
 20
269.376029
 30
0.0
 10
191.433767
 20
268.880495
 30
0.0
 10
191.434096
 20
268.344378
 30
0.0
  0
LWPOLYLINE
  5
19b
100
AcDbEntity
  8
Layer_1
 62
7
100
AcDbPolyline
 90
3
 70
1
 10
113.614097
 20
209.014380
 30
0.0
 10
113.614097
 20
209.014380
 30
0.0
 10
113.614097
 20
209.014380
 30
0.0
  0
SPLINE
  5
19c
100
AcDbEntity
  8
Layer_1
 62
7
100
AcDbSpline
 70
8
 71
3
 72
8
 73
4
 74
0
 40
0
 40
0
 40
0
 40
0
 40
1
 40
1
 40
1
 40
1
 10
191.434096
 20
268.344378
 30
0.0
 10
191.433767
 20
267.808260
 30
0.0
 10
191.719594
 20
267.312726
 30
0.0
 10
192.183830
 20
267.044573
 30
0.0
  0
SPLINE
  5
19d
100
AcDbEntity
  8
Layer_1
 62
7
100
AcDbSpline
 70
8
 71
3
 72
8
 73
4
 74
0
 40
0
 40
0
 40
0
 40
0
 40
1
 40
1
 40
1
 40
1
 10
192.183830
 20
267.044573
 30
0.0
 10
192.648067
 20
266.776419
 30
0.0
 10
193.220125
 20
266.776419
 30
0.0
 10
193.684362
 20
267.044573
 30
0.0
  0
SPLINE
  5
19e
100
AcDbEntity
  8
Layer_1
 62
7
100
AcDbSpline
 70
8
 71
3
 72
8
 73
4
 74
0
 40
0
 40
0
 40
0
 40
0
 40
1
 40
1
 40
1
 40
1
 10
193.684362
 20
267.044573
 30
0.0
 10
194.148598
 20
267.312726
 30
0.0
 10
194.434425
 20
267.808260
 30
0.0
 10
194.434096
 20
268.344378
 30
0.0
  0
SPLINE
  5
19f
100
AcDbEntity
  8
Layer_1
 62
7
100
AcDbSpline
 70
8
 71
3
 72
8
 73
4
 74
0
 40
0
 40
0
 40
0
 40
0
 40
1
 40
1
 40
1
 40
1
 10
194.434096
 20
268.344378
 30
0.0
 10
194.434425
 20
268.880495
 30
0.0
 10
194.148598
 20
269.376029
 30
0.0
 10
193.684362
 20
269.644183
 30
0.0
  0
SPLINE
  5
1a0
100
AcDbEntity
  8
Layer_1
 62
7
100
AcDbSpline
 70
8
 71
3
 72
8
 73
4
 74
0
 40
0
 40
0
 40
0
 40
0
 40
1
 40
1
 40
1
 40
1
 10
193.684362
 20
269.644183
 30
0.0
 10
193.220125
 20
269.912336
 30
0.0
 10
192.648067
 20
269.912336
 30
0.0
 10
192.183830
 20
269.644183
 30
0.0
  0
SPLINE
  5
1a1
100
AcDbEntity
  8
Layer_1
 62
7
100
AcDbSpline
 70
8
 71
3
 72
8
 73
4
 74
0
 40
0
 40
0
 40
0
 40
0
 40
1
 40
1
 40
1
 40
1
 10
192.183830
 20
269.644183
 30
0.0
 10
191.719594
 20
269.376029
 30
0.0
 10
191.433767
 20
268.880495
 30
0.0
 10
191.434096
 20
268.344378
 30
0.0
  0
SPLINE
  5
1a2
100
AcDbEntity
  8
Layer_1
 62
7
100
AcDbSpline
 70
8
 71
3
 72
8
 73
4
 74
0
 40
0
 40
0
 40
0
 40
0
 40
1
 40
1
 40
1
 40
1
 10
113.614097
 20
268.344378
 30
0.0
 10
113.613864
 20
267.808324
 30
0.0
 10
113.899712
 20
267.312891
 30
0.0
 10
114.363909
 20
267.044797
 30
0.0
  0
SPLINE
  5
1a3
100
AcDbEntity
  8
Layer_1
 62
7
100
AcDbSpline
 70
8
 71
3
 72
8
 73
4
 74
0
 40
0
 40
0
 40
0
 40
0
 40
1
 40
1
 40
1
 40
1
 10
114.363909
 20
267.044797
 30
0.0
 10
114.828106
 20
266.776703
 30
0.0
 10
115.400088
 20
266.776703
 30
0.0
 10
115.864285
 20
267.044797
 30
0.0
  0
SPLINE
  5
1a4
100
AcDbEntity
  8
Layer_1
 62
7
100
AcDbSpline
 70
8
 71
3
 72
8
 73
4
 74
0
 40
0
 40
0
 40
0
 40
0
 40
1
 40
1
 40
1
 40
1
 10
115.864285
 20
267.044797
 30
0.0
 10
116.328482
 20
267.312891
 30
0.0
 10
116.614329
 20
267.808324
 30
0.0
 10
116.614097
 20
268.344378
 30
0.0
  0
SPLINE
  5
1a5
100
AcDbEntity
  8
Layer_1
 62
7
100
AcDbSpline
 70
8
 71
3
 72
8
 73
4
 74
0
 40
0
 40
0
 40
0
 40
0
 40
1
 40
1
 40
1
 40
1
 10
116.614097
 20
268.344378
 30
0.0
 10
116.614329
 20
268.880431
 30
0.0
 10
116.328482
 20
269.375864
 30
0.0
 10
115.864285
 20
269.643958
 30
0.0
  0
SPLINE
  5
1a6
100
AcDbEntity
  8
Layer_1
 62
7
100
AcDbSpline
 70
8
 71
3
 72
8
 73
4
 74
0
 40
0
 40
0
 40
0
 40
0
 40
1
 40
1
 40
1
 40
1
 10
115.864285
 20
269.643958
 30
0.0
 10
115.400088
 20
269.912052
 30
0.0
 10
114.828106
 20
269.912052
 30
0.0
 10
114.363909
 20
269.643958
 30
0.0
  0
SPLINE
  5
1a7
100
AcDbEntity
  8
Layer_1
 62
7
100
AcDbSpline
 70
8
 71
3
 72
8
 73
4
 74
0
 40
0
 40
0
 40
0
 40
0
 40
1
 40
1
 40
1
 40
1
 10
114.363909
 20
269.643958
 30
0.0
 10
113.899712
 20
269.375864
 30
0.0
 10
113.613864
 20
268.880431
 30
0.0
 10
113.614097
 20
268.344378
 30
0.0
  0
LWPOLYLINE
  5
1a8
100
AcDbEntity
  8
Layer_1
 62
7
100
AcDbPolyline
 90
3
 70
1
 10
191.434096
 20
268.344378
 30
0.0
 10
191.434096
 20
268.344378
 30
0.0
 10
191.434096
 20
268.344378
 30
0.0
  0
SPLINE
  5
1a9
100
AcDbEntity
  8
Layer_1
 62
7
100
AcDbSpline
 70
8
 71
3
 72
8
 73
4
 74
0
 40
0
 40
0
 40
0
 40
0
 40
1
 40
1
 40
1
 40
1
 10
191.434096
 20
209.014380
 30
0.0
 10
191.433767
 20
208.478263
 30
0.0
 10
191.719594
 20
207.982729
 30
0.0
 10
192.183830
 20
207.714575
 30
0.0
  0
SPLINE
  5
1aa
100
AcDbEntity
  8
Layer_1
 62
7
100
AcDbSpline
 70
8
 71
3
 72
8
 73
4
 74
0
 40
0
 40
0
 40
0
 40
0
 40
1
 40
1
 40
1
 40
1
 10
192.183830
 20
207.714575
 30
0.0
 10
192.648067
 20
207.446422
 30
0.0
 10
193.220125
 20
207.446422
 30
0.0
 10
193.684362
 20
207.714575
 30
0.0
  0
SPLINE
  5
1ab
100
AcDbEntity
  8
Layer_1
 62
7
100
AcDbSpline
 70
8
 71
3
 72
8
 73
4
 74
0
 40
0
 40
0
 40
0
 40
0
 40
1
 40
1
 40
1
 40
1
 10
193.684362
 20
207.714575
 30
0.0
 10
194.148598
 20
207.982729
 30
0.0
 10
194.434425
 20
208.478263
 30
0.0
 10
194.434096
 20
209.014380
 30
0.0
  0
SPLINE
  5
1ac
100
AcDbEntity
  8
Layer_1
 62
7
100
AcDbSpline
 70
8
 71
3
 72
8
 73
4
 74
0
 40
0
 40
0
 40
0
 40
0
 40
1
 40
1
 40
1
 40
1
 10
194.434096
 20
209.014380
 30
0.0
 10
194.434425
 20
209.550498
 30
0.0
 10
194.148598
 20
210.046031
 30
0.0
 10
193.684362
 20
210.314185
 30
0.0
  0
SPLINE
  5
1ad
100
AcDbEntity
  8
Layer_1
 62
7
100
AcDbSpline
 70
8
 71
3
 72
8
 73
4
 74
0
 40
0
 40
0
 40
0
 40
0
 40
1
 40
1
 40
1
 40
1
 10
193.684362
 20
210.314185
 30
0.0
 10
193.220125
 20
210.582339
 30
0.0
 10
192.648067
 20
210.582339
 30
0.0
 10
192.183830
 20
210.314185
 30
0.0
  0
SPLINE
  5
1ae
100
AcDbEntity
  8
Layer_1
 62
7
100
AcDbSpline
 70
8
 71
3
 72
8
 73
4
 74
0
 40
0
 40
0
 40
0
 40
0
 40
1
 40
1
 40
1
 40
1
 10
192.183830
 20
210.314185
 30
0.0
 10
191.719594
 20
210.046031
 30
0.0
 10
191.433767
 20
209.550498
 30
0.0
 10
191.434096
 20
209.014380
 30
0.0
  0
LWPOLYLINE
  5
1af
100
AcDbEntity
  8
Layer_1
 62
7
100
AcDbPolyline
 90
2
 70
1
 10
113.614097
 20
268.344378
 30
0.0
 10
113.614097
 20
268.344378
 30
0.0
  0
LWPOLYLINE
  5
1b0
100
AcDbEntity
  8
Layer_1
 62
7
100
AcDbPolyline
 90
2
 70
1
 10
191.434096
 20
209.014380
 30
0.0
 10
191.434096
 20
209.014380
 30
0.0
  0
LWPOLYLINE
  5
1b1
100
AcDbEntity
  8
Layer_1
 62
7
100
AcDbPolyline
 90
2
 70
0
 10
112.114097
 20
206.014386
 30
0.0
 10
119.114097
 20
206.014386
 30
0.0
  0
LWPOLYLINE
  5
1b2
100
AcDbEntity
  8
Layer_1
 62
7
100
AcDbPolyline
 90
2
 70
0
 10
153.734098
 20
206.014386
 30
0.0
 10
195.934096
 20
206.014386
 30
0.0
  0
ENDSEC
  0
SECTION
  2
OBJECTS
  0
DICTIONARY
  5
C
330
0
100
AcDbDictionary
  3
ACAD_GROUP
350
D
  3
ACAD_MLINESTYLE
350
17
  0
DICTIONARY
  5
D
330
C
100
AcDbDictionary
  0
DICTIONARY
  5
1A
330
C
100
AcDbDictionary
  0
DICTIONARY
  5
17
330
C
100
AcDbDictionary
  3
STANDARD
350
18
  0
DICTIONARY
  5
19
330
C
100
AcDbDictionary
  0
ENDSEC
  0
EOF
