  0
SECTION
  2
HEADER
  9
$ACADVER
  1
AC1014
  9
$HANDSEED
  5
FFFF
  9
$MEASUREMENT
 70
     1
  0
ENDSEC
  0
SECTION
  2
TABLES
  0
TABLE
  2
VPORT
  5
8
330
0
100
AcDbSymbolTable
 70
     4
  0
VPORT
  5
2E
330
8
100
AcDbSymbolTableRecord
100
AcDbViewportTableRecord
  2
*ACTIVE
 70
     0
 10
0.0
 20
0.0
 11
1.0
 21
1.0
 12
210.0
 22
148.5
 13
0.0
 23
0.0
 14
10.0
 24
10.0
 15
10.0
 25
10.0
 16
0.0
 26
0.0
 36
1.0
 17
0.0
 27
0.0
 37
0.0
 40
341.0
 41
1.24
 42
50.0
 43
0.0
 44
0.0
 50
0.0
 51
0.0
 71
     0
 72
   100
 73
     1
 74
     3
 75
     0
 76
     0
 77
     0
 78
     0
  0
ENDTAB
  0
TABLE
  2
LTYPE
  5
5
330
0
100
AcDbSymbolTable
 70
     1
  0
LTYPE
  5
14
330
5
100
AcDbSymbolTableRecord
100
AcDbLinetypeTableRecord
  2
BYBLOCK
 70
     0
  3

 72
    65
 73
     0
 40
0.0
  0
LTYPE
  5
15
330
5
100
AcDbSymbolTableRecord
100
AcDbLinetypeTableRecord
  2
BYLAYER
 70
     0
  3

 72
    65
 73
     0
 40
0.0
  0
LTYPE
  5
16
330
5
100
AcDbSymbolTableRecord
100
AcDbLinetypeTableRecord
  2
CONTINUOUS
 70
     0
  3
Solid line
 72
    65
 73
     0
 40
0.0
  0
ENDTAB
  0
TABLE
  2
LAYER
  5
2
100
AcDbSymbolTable
 70
2
  0
LAYER
  5
50
100
AcDbSymbolTableRecord
100
AcDbLayerTableRecord
  2
0
 70
0
  6
CONTINUOUS
  0
LAYER
  5
51
100
AcDbSymbolTableRecord
100
AcDbLayerTableRecord
  2
Layer_1
 70
0
  6
CONTINUOUS
  0
ENDTAB
  0
TABLE
  2
STYLE
  5
3
330
0
100
AcDbSymbolTable
 70
     1
  0
STYLE
  5
11
330
3
100
AcDbSymbolTableRecord
100
AcDbTextStyleTableRecord
  2
STANDARD
 70
     0
 40
0.0
 41
1.0
 50
0.0
 71
     0
 42
2.5
  3
txt
  4

  0
ENDTAB
  0
TABLE
  2
VIEW
  5
6
330
0
100
AcDbSymbolTable
 70
     0
  0
ENDTAB
  0
TABLE
  2
UCS
  5
7
330
0
100
AcDbSymbolTable
 70
     0
  0
ENDTAB
  0
TABLE
  2
APPID
  5
9
330
0
100
AcDbSymbolTable
 70
     2
  0
APPID
  5
12
330
9
100
AcDbSymbolTableRecord
100
AcDbRegAppTableRecord
  2
ACAD
 70
     0
  0
ENDTAB
  0
TABLE
  2
DIMSTYLE
  5
A
330
0
100
AcDbSymbolTable
 70
     1
  0
DIMSTYLE
105
27
330
A
100
AcDbSymbolTableRecord
100
AcDbDimStyleTableRecord
  2
ISO-25
 70
     0
  3

  4

  5

  6

  7

 40
1.0
 41
2.5
 42
0.625
 43
3.75
 44
1.25
 45
0.0
 46
0.0
 47
0.0
 48
0.0
140
2.5
141
2.5
142
0.0
143
0.03937007874016
144
1.0
145
0.0
146
1.0
147
0.625
 71
     0
 72
     0
 73
     0
 74
     0
 75
     0
 76
     0
 77
     1
 78
     8
170
     0
171
     3
172
     1
173
     0
174
     0
175
     0
176
     0
177
     0
178
     0
270
     2
271
     2
272
     2
273
     2
274
     3
340
11
275
     0
280
     0
281
     0
282
     0
283
     0
284
     8
285
     0
286
     0
287
     3
288
     0
  0
ENDTAB
  0
TABLE
  2
BLOCK_RECORD
  5
1
330
0
100
AcDbSymbolTable
 70
     1
  0
BLOCK_RECORD
  5
1F
330
1
100
AcDbSymbolTableRecord
100
AcDbBlockTableRecord
  2
*MODEL_SPACE
  0
BLOCK_RECORD
  5
1B
330
1
100
AcDbSymbolTableRecord
100
AcDbBlockTableRecord
  2
*PAPER_SPACE
  0
ENDTAB
  0
ENDSEC
  0
SECTION
  2
BLOCKS
  0
BLOCK
  5
20
330
1F
100
AcDbEntity
  8
0
100
AcDbBlockBegin
  2
*MODEL_SPACE
 70
     0
 10
0.0
 20
0.0
 30
0.0
  3
*MODEL_SPACE
  1

  0
ENDBLK
  5
21
330
1F
100
AcDbEntity
  8
0
100
AcDbBlockEnd
  0
BLOCK
  5
1C
330
1B
100
AcDbEntity
 67
     1
  8
0
100
AcDbBlockBegin
  2
*PAPER_SPACE
  1

  0
ENDBLK
  5
1D
330
1B
100
AcDbEntity
 67
     1
  8
0
100
AcDbBlockEnd
  0
ENDSEC
  0
SECTION
  2
ENTITIES
  0
LWPOLYLINE
  5
100
100
AcDbEntity
  8
Layer_1
 62
3
100
AcDbPolyline
 90
7
 70
1
 10
105.289957
 20
291.152443
 30
0.0
 10
202.279264
 20
291.152443
 30
0.0
 10
202.279264
 20
194.163144
 30
0.0
 10
105.289957
 20
194.163144
 30
0.0
 10
105.289957
 20
291.152443
 30
0.0
 10
105.289957
 20
291.152443
 30
0.0
 10
105.289957
 20
291.152443
 30
0.0
  0
SPLINE
  5
101
100
AcDbEntity
  8
Layer_1
 62
7
100
AcDbSpline
 70
8
 71
3
 72
8
 73
4
 74
0
 40
0
 40
0
 40
0
 40
0
 40
1
 40
1
 40
1
 40
1
 10
105.703925
 20
5.685851
 30
0.0
 10
105.704157
 20
6.221904
 30
0.0
 10
105.418310
 20
6.717337
 30
0.0
 10
104.954113
 20
6.985431
 30
0.0
  0
SPLINE
  5
102
100
AcDbEntity
  8
Layer_1
 62
7
100
AcDbSpline
 70
8
 71
3
 72
8
 73
4
 74
0
 40
0
 40
0
 40
0
 40
0
 40
1
 40
1
 40
1
 40
1
 10
104.954113
 20
6.985431
 30
0.0
 10
104.489916
 20
7.253525
 30
0.0
 10
103.917934
 20
7.253525
 30
0.0
 10
103.453737
 20
6.985431
 30
0.0
  0
SPLINE
  5
103
100
AcDbEntity
  8
Layer_1
 62
7
100
AcDbSpline
 70
8
 71
3
 72
8
 73
4
 74
0
 40
0
 40
0
 40
0
 40
0
 40
1
 40
1
 40
1
 40
1
 10
103.453737
 20
6.985431
 30
0.0
 10
102.989540
 20
6.717337
 30
0.0
 10
102.703692
 20
6.221904
 30
0.0
 10
102.703925
 20
5.685851
 30
0.0
  0
SPLINE
  5
104
100
AcDbEntity
  8
Layer_1
 62
7
100
AcDbSpline
 70
8
 71
3
 72
8
 73
4
 74
0
 40
0
 40
0
 40
0
 40
0
 40
1
 40
1
 40
1
 40
1
 10
102.703925
 20
5.685851
 30
0.0
 10
102.703692
 20
5.149797
 30
0.0
 10
102.989540
 20
4.654364
 30
0.0
 10
103.453737
 20
4.386270
 30
0.0
  0
SPLINE
  5
105
100
AcDbEntity
  8
Layer_1
 62
7
100
AcDbSpline
 70
8
 71
3
 72
8
 73
4
 74
0
 40
0
 40
0
 40
0
 40
0
 40
1
 40
1
 40
1
 40
1
 10
103.453737
 20
4.386270
 30
0.0
 10
103.917934
 20
4.118176
 30
0.0
 10
104.489916
 20
4.118176
 30
0.0
 10
104.954113
 20
4.386270
 30
0.0
  0
SPLINE
  5
106
100
AcDbEntity
  8
Layer_1
 62
7
100
AcDbSpline
 70
8
 71
3
 72
8
 73
4
 74
0
 40
0
 40
0
 40
0
 40
0
 40
1
 40
1
 40
1
 40
1
 10
104.954113
 20
4.386270
 30
0.0
 10
105.418310
 20
4.654364
 30
0.0
 10
105.704157
 20
5.149797
 30
0.0
 10
105.703925
 20
5.685851
 30
0.0
  0
LWPOLYLINE
  5
107
100
AcDbEntity
  8
Layer_1
 62
7
100
AcDbPolyline
 90
6
 70
1
 10
185.023924
 20
2.685857
 30
0.0
 10
101.203925
 20
2.685857
 30
0.0
 10
101.203925
 20
68.015845
 30
0.0
 10
185.023924
 20
68.015845
 30
0.0
 10
185.023924
 20
2.685857
 30
0.0
 10
185.023924
 20
2.685857
 30
0.0
  0
SPLINE
  5
108
100
AcDbEntity
  8
Layer_1
 62
7
100
AcDbSpline
 70
8
 71
3
 72
8
 73
4
 74
0
 40
0
 40
0
 40
0
 40
0
 40
1
 40
1
 40
1
 40
1
 10
183.523924
 20
65.015845
 30
0.0
 10
183.524253
 20
65.551963
 30
0.0
 10
183.238426
 20
66.047496
 30
0.0
 10
182.774190
 20
66.315650
 30
0.0
  0
SPLINE
  5
109
100
AcDbEntity
  8
Layer_1
 62
7
100
AcDbSpline
 70
8
 71
3
 72
8
 73
4
 74
0
 40
0
 40
0
 40
0
 40
0
 40
1
 40
1
 40
1
 40
1
 10
182.774190
 20
66.315650
 30
0.0
 10
182.309953
 20
66.583804
 30
0.0
 10
181.737895
 20
66.583804
 30
0.0
 10
181.273658
 20
66.315650
 30
0.0
  0
SPLINE
  5
10a
100
AcDbEntity
  8
Layer_1
 62
7
100
AcDbSpline
 70
8
 71
3
 72
8
 73
4
 74
0
 40
0
 40
0
 40
0
 40
0
 40
1
 40
1
 40
1
 40
1
 10
181.273658
 20
66.315650
 30
0.0
 10
180.809422
 20
66.047496
 30
0.0
 10
180.523595
 20
65.551963
 30
0.0
 10
180.523924
 20
65.015845
 30
0.0
  0
SPLINE
  5
10b
100
AcDbEntity
  8
Layer_1
 62
7
100
AcDbSpline
 70
8
 71
3
 72
8
 73
4
 74
0
 40
0
 40
0
 40
0
 40
0
 40
1
 40
1
 40
1
 40
1
 10
180.523924
 20
65.015845
 30
0.0
 10
180.523595
 20
64.479728
 30
0.0
 10
180.809422
 20
63.984194
 30
0.0
 10
181.273658
 20
63.716040
 30
0.0
  0
SPLINE
  5
10c
100
AcDbEntity
  8
Layer_1
 62
7
100
AcDbSpline
 70
8
 71
3
 72
8
 73
4
 74
0
 40
0
 40
0
 40
0
 40
0
 40
1
 40
1
 40
1
 40
1
 10
181.273658
 20
63.716040
 30
0.0
 10
181.737895
 20
63.447886
 30
0.0
 10
182.309953
 20
63.447886
 30
0.0
 10
182.774190
 20
63.716040
 30
0.0
  0
SPLINE
  5
10d
100
AcDbEntity
  8
Layer_1
 62
7
100
AcDbSpline
 70
8
 71
3
 72
8
 73
4
 74
0
 40
0
 40
0
 40
0
 40
0
 40
1
 40
1
 40
1
 40
1
 10
182.774190
 20
63.716040
 30
0.0
 10
183.238426
 20
63.984194
 30
0.0
 10
183.524253
 20
64.479728
 30
0.0
 10
183.523924
 20
65.015845
 30
0.0
  0
LWPOLYLINE
  5
10e
100
AcDbEntity
  8
Layer_1
 62
7
100
AcDbPolyline
 90
2
 70
1
 10
105.703925
 20
5.685851
 30
0.0
 10
105.703925
 20
5.685851
 30
0.0
  0
LWPOLYLINE
  5
10f
100
AcDbEntity
  8
Layer_1
 62
7
100
AcDbPolyline
 90
2
 70
1
 10
183.523924
 20
65.015845
 30
0.0
 10
183.523924
 20
65.015845
 30
0.0
  0
SPLINE
  5
110
100
AcDbEntity
  8
Layer_1
 62
7
100
AcDbSpline
 70
8
 71
3
 72
8
 73
4
 74
0
 40
0
 40
0
 40
0
 40
0
 40
1
 40
1
 40
1
 40
1
 10
19.607499
 20
5.400763
 30
0.0
 10
19.607828
 20
5.936881
 30
0.0
 10
19.322001
 20
6.432414
 30
0.0
 10
18.857765
 20
6.700568
 30
0.0
  0
SPLINE
  5
111
100
AcDbEntity
  8
Layer_1
 62
7
100
AcDbSpline
 70
8
 71
3
 72
8
 73
4
 74
0
 40
0
 40
0
 40
0
 40
0
 40
1
 40
1
 40
1
 40
1
 10
18.857765
 20
6.700568
 30
0.0
 10
18.393528
 20
6.968722
 30
0.0
 10
17.821470
 20
6.968722
 30
0.0
 10
17.357233
 20
6.700568
 30
0.0
  0
SPLINE
  5
112
100
AcDbEntity
  8
Layer_1
 62
7
100
AcDbSpline
 70
8
 71
3
 72
8
 73
4
 74
0
 40
0
 40
0
 40
0
 40
0
 40
1
 40
1
 40
1
 40
1
 10
17.357233
 20
6.700568
 30
0.0
 10
16.892997
 20
6.432414
 30
0.0
 10
16.607170
 20
5.936881
 30
0.0
 10
16.607499
 20
5.400763
 30
0.0
  0
SPLINE
  5
113
100
AcDbEntity
  8
Layer_1
 62
7
100
AcDbSpline
 70
8
 71
3
 72
8
 73
4
 74
0
 40
0
 40
0
 40
0
 40
0
 40
1
 40
1
 40
1
 40
1
 10
16.607499
 20
5.400763
 30
0.0
 10
16.607170
 20
4.864646
 30
0.0
 10
16.892997
 20
4.369112
 30
0.0
 10
17.357233
 20
4.100958
 30
0.0
  0
SPLINE
  5
114
100
AcDbEntity
  8
Layer_1
 62
7
100
AcDbSpline
 70
8
 71
3
 72
8
 73
4
 74
0
 40
0
 40
0
 40
0
 40
0
 40
1
 40
1
 40
1
 40
1
 10
17.357233
 20
4.100958
 30
0.0
 10
17.821470
 20
3.832805
 30
0.0
 10
18.393528
 20
3.832805
 30
0.0
 10
18.857765
 20
4.100958
 30
0.0
  0
SPLINE
  5
115
100
AcDbEntity
  8
Layer_1
 62
7
100
AcDbSpline
 70
8
 71
3
 72
8
 73
4
 74
0
 40
0
 40
0
 40
0
 40
0
 40
1
 40
1
 40
1
 40
1
 10
18.857765
 20
4.100958
 30
0.0
 10
19.322001
 20
4.369112
 30
0.0
 10
19.607828
 20
4.864646
 30
0.0
 10
19.607499
 20
5.400763
 30
0.0
  0
LWPOLYLINE
  5
116
100
AcDbEntity
  8
Layer_1
 62
7
100
AcDbPolyline
 90
10
 70
1
 10
98.927498
 20
67.730755
 30
0.0
 10
98.927498
 20
2.400769
 30
0.0
 10
15.107499
 20
2.400769
 30
0.0
 10
15.107499
 20
67.730755
 30
0.0
 10
98.927498
 20
67.730755
 30
0.0
 10
98.927498
 20
67.730755
 30
0.0
 10
15.107499
 20
67.730755
 30
0.0
 10
15.107499
 20
2.400769
 30
0.0
 10
98.927498
 20
2.400769
 30
0.0
 10
98.927498
 20
67.730755
 30
0.0
  0
SPLINE
  5
117
100
AcDbEntity
  8
Layer_1
 62
7
100
AcDbSpline
 70
8
 71
3
 72
8
 73
4
 74
0
 40
0
 40
0
 40
0
 40
0
 40
1
 40
1
 40
1
 40
1
 10
97.427498
 20
64.730761
 30
0.0
 10
97.427731
 20
65.266814
 30
0.0
 10
97.141883
 20
65.762247
 30
0.0
 10
96.677686
 20
66.030341
 30
0.0
  0
SPLINE
  5
118
100
AcDbEntity
  8
Layer_1
 62
7
100
AcDbSpline
 70
8
 71
3
 72
8
 73
4
 74
0
 40
0
 40
0
 40
0
 40
0
 40
1
 40
1
 40
1
 40
1
 10
96.677686
 20
66.030341
 30
0.0
 10
96.213489
 20
66.298435
 30
0.0
 10
95.641508
 20
66.298435
 30
0.0
 10
95.177310
 20
66.030341
 30
0.0
  0
SPLINE
  5
119
100
AcDbEntity
  8
Layer_1
 62
7
100
AcDbSpline
 70
8
 71
3
 72
8
 73
4
 74
0
 40
0
 40
0
 40
0
 40
0
 40
1
 40
1
 40
1
 40
1
 10
95.177310
 20
66.030341
 30
0.0
 10
94.713113
 20
65.762247
 30
0.0
 10
94.427266
 20
65.266814
 30
0.0
 10
94.427498
 20
64.730761
 30
0.0
  0
SPLINE
  5
11a
100
AcDbEntity
  8
Layer_1
 62
7
100
AcDbSpline
 70
8
 71
3
 72
8
 73
4
 74
0
 40
0
 40
0
 40
0
 40
0
 40
1
 40
1
 40
1
 40
1
 10
94.427498
 20
64.730761
 30
0.0
 10
94.427266
 20
64.194707
 30
0.0
 10
94.713113
 20
63.699274
 30
0.0
 10
95.177310
 20
63.431180
 30
0.0
  0
SPLINE
  5
11b
100
AcDbEntity
  8
Layer_1
 62
7
100
AcDbSpline
 70
8
 71
3
 72
8
 73
4
 74
0
 40
0
 40
0
 40
0
 40
0
 40
1
 40
1
 40
1
 40
1
 10
95.177310
 20
63.431180
 30
0.0
 10
95.641508
 20
63.163086
 30
0.0
 10
96.213489
 20
63.163086
 30
0.0
 10
96.677686
 20
63.431180
 30
0.0
  0
SPLINE
  5
11c
100
AcDbEntity
  8
Layer_1
 62
7
100
AcDbSpline
 70
8
 71
3
 72
8
 73
4
 74
0
 40
0
 40
0
 40
0
 40
0
 40
1
 40
1
 40
1
 40
1
 10
96.677686
 20
63.431180
 30
0.0
 10
97.141883
 20
63.699274
 30
0.0
 10
97.427731
 20
64.194707
 30
0.0
 10
97.427498
 20
64.730761
 30
0.0
  0
LWPOLYLINE
  5
11d
100
AcDbEntity
  8
Layer_1
 62
7
100
AcDbPolyline
 90
2
 70
1
 10
19.607499
 20
5.400763
 30
0.0
 10
19.607499
 20
5.400763
 30
0.0
  0
SPLINE
  5
11e
100
AcDbEntity
  8
Layer_1
 62
7
100
AcDbSpline
 70
8
 71
3
 72
8
 73
4
 74
0
 40
0
 40
0
 40
0
 40
0
 40
1
 40
1
 40
1
 40
1
 10
97.427498
 20
64.730761
 30
0.0
 10
97.427731
 20
65.266814
 30
0.0
 10
97.141883
 20
65.762247
 30
0.0
 10
96.677686
 20
66.030341
 30
0.0
  0
SPLINE
  5
11f
100
AcDbEntity
  8
Layer_1
 62
7
100
AcDbSpline
 70
8
 71
3
 72
8
 73
4
 74
0
 40
0
 40
0
 40
0
 40
0
 40
1
 40
1
 40
1
 40
1
 10
96.677686
 20
66.030341
 30
0.0
 10
96.213489
 20
66.298435
 30
0.0
 10
95.641508
 20
66.298435
 30
0.0
 10
95.177310
 20
66.030341
 30
0.0
  0
SPLINE
  5
120
100
AcDbEntity
  8
Layer_1
 62
7
100
AcDbSpline
 70
8
 71
3
 72
8
 73
4
 74
0
 40
0
 40
0
 40
0
 40
0
 40
1
 40
1
 40
1
 40
1
 10
95.177310
 20
66.030341
 30
0.0
 10
94.713113
 20
65.762247
 30
0.0
 10
94.427266
 20
65.266814
 30
0.0
 10
94.427498
 20
64.730761
 30
0.0
  0
SPLINE
  5
121
100
AcDbEntity
  8
Layer_1
 62
7
100
AcDbSpline
 70
8
 71
3
 72
8
 73
4
 74
0
 40
0
 40
0
 40
0
 40
0
 40
1
 40
1
 40
1
 40
1
 10
94.427498
 20
64.730761
 30
0.0
 10
94.427266
 20
64.194707
 30
0.0
 10
94.713113
 20
63.699274
 30
0.0
 10
95.177310
 20
63.431180
 30
0.0
  0
SPLINE
  5
122
100
AcDbEntity
  8
Layer_1
 62
7
100
AcDbSpline
 70
8
 71
3
 72
8
 73
4
 74
0
 40
0
 40
0
 40
0
 40
0
 40
1
 40
1
 40
1
 40
1
 10
95.177310
 20
63.431180
 30
0.0
 10
95.641508
 20
63.163086
 30
0.0
 10
96.213489
 20
63.163086
 30
0.0
 10
96.677686
 20
63.431180
 30
0.0
  0
SPLINE
  5
123
100
AcDbEntity
  8
Layer_1
 62
7
100
AcDbSpline
 70
8
 71
3
 72
8
 73
4
 74
0
 40
0
 40
0
 40
0
 40
0
 40
1
 40
1
 40
1
 40
1
 10
96.677686
 20
63.431180
 30
0.0
 10
97.141883
 20
63.699274
 30
0.0
 10
97.427731
 20
64.194707
 30
0.0
 10
97.427498
 20
64.730761
 30
0.0
  0
SPLINE
  5
124
100
AcDbEntity
  8
Layer_1
 62
7
100
AcDbSpline
 70
8
 71
3
 72
8
 73
4
 74
0
 40
0
 40
0
 40
0
 40
0
 40
1
 40
1
 40
1
 40
1
 10
19.607499
 20
5.400763
 30
0.0
 10
19.607828
 20
5.936881
 30
0.0
 10
19.322001
 20
6.432414
 30
0.0
 10
18.857765
 20
6.700568
 30
0.0
  0
SPLINE
  5
125
100
AcDbEntity
  8
Layer_1
 62
7
100
AcDbSpline
 70
8
 71
3
 72
8
 73
4
 74
0
 40
0
 40
0
 40
0
 40
0
 40
1
 40
1
 40
1
 40
1
 10
18.857765
 20
6.700568
 30
0.0
 10
18.393528
 20
6.968722
 30
0.0
 10
17.821470
 20
6.968722
 30
0.0
 10
17.357233
 20
6.700568
 30
0.0
  0
SPLINE
  5
126
100
AcDbEntity
  8
Layer_1
 62
7
100
AcDbSpline
 70
8
 71
3
 72
8
 73
4
 74
0
 40
0
 40
0
 40
0
 40
0
 40
1
 40
1
 40
1
 40
1
 10
17.357233
 20
6.700568
 30
0.0
 10
16.892997
 20
6.432414
 30
0.0
 10
16.607170
 20
5.936881
 30
0.0
 10
16.607499
 20
5.400763
 30
0.0
  0
SPLINE
  5
127
100
AcDbEntity
  8
Layer_1
 62
7
100
AcDbSpline
 70
8
 71
3
 72
8
 73
4
 74
0
 40
0
 40
0
 40
0
 40
0
 40
1
 40
1
 40
1
 40
1
 10
16.607499
 20
5.400763
 30
0.0
 10
16.607170
 20
4.864646
 30
0.0
 10
16.892997
 20
4.369112
 30
0.0
 10
17.357233
 20
4.100958
 30
0.0
  0
SPLINE
  5
128
100
AcDbEntity
  8
Layer_1
 62
7
100
AcDbSpline
 70
8
 71
3
 72
8
 73
4
 74
0
 40
0
 40
0
 40
0
 40
0
 40
1
 40
1
 40
1
 40
1
 10
17.357233
 20
4.100958
 30
0.0
 10
17.821470
 20
3.832805
 30
0.0
 10
18.393528
 20
3.832805
 30
0.0
 10
18.857765
 20
4.100958
 30
0.0
  0
SPLINE
  5
129
100
AcDbEntity
  8
Layer_1
 62
7
100
AcDbSpline
 70
8
 71
3
 72
8
 73
4
 74
0
 40
0
 40
0
 40
0
 40
0
 40
1
 40
1
 40
1
 40
1
 10
18.857765
 20
4.100958
 30
0.0
 10
19.322001
 20
4.369112
 30
0.0
 10
19.607828
 20
4.864646
 30
0.0
 10
19.607499
 20
5.400763
 30
0.0
  0
LWPOLYLINE
  5
12a
100
AcDbEntity
  8
Layer_1
 62
7
100
AcDbPolyline
 90
3
 70
1
 10
97.427498
 20
64.730761
 30
0.0
 10
97.427498
 20
64.730761
 30
0.0
 10
97.427498
 20
64.730761
 30
0.0
  0
LWPOLYLINE
  5
12b
100
AcDbEntity
  8
Layer_1
 62
7
100
AcDbPolyline
 90
2
 70
1
 10
19.607499
 20
5.400763
 30
0.0
 10
19.607499
 20
5.400763
 30
0.0
  0
LWPOLYLINE
  5
12c
100
AcDbEntity
  8
Layer_1
 62
7
100
AcDbPolyline
 90
2
 70
0
 10
15.107499
 20
2.400769
 30
0.0
 10
98.927498
 20
2.400769
 30
0.0
  0
LWPOLYLINE
  5
12d
100
AcDbEntity
  8
Layer_1
 62
7
100
AcDbPolyline
 90
6
 70
1
 10
19.927497
 20
62.730765
 30
0.0
 10
93.927498
 20
62.730765
 30
0.0
 10
93.927498
 20
11.400751
 30
0.0
 10
19.927497
 20
11.400751
 30
0.0
 10
19.927497
 20
62.730765
 30
0.0
 10
19.927497
 20
62.730765
 30
0.0
  0
SPLINE
  5
12e
100
AcDbEntity
  8
Layer_1
 62
7
100
AcDbSpline
 70
8
 71
3
 72
8
 73
4
 74
0
 40
0
 40
0
 40
0
 40
0
 40
1
 40
1
 40
1
 40
1
 10
97.712587
 20
132.296497
 30
0.0
 10
97.712916
 20
132.832614
 30
0.0
 10
97.427090
 20
133.328148
 30
0.0
 10
96.962853
 20
133.596302
 30
0.0
  0
SPLINE
  5
12f
100
AcDbEntity
  8
Layer_1
 62
7
100
AcDbSpline
 70
8
 71
3
 72
8
 73
4
 74
0
 40
0
 40
0
 40
0
 40
0
 40
1
 40
1
 40
1
 40
1
 10
96.962853
 20
133.596302
 30
0.0
 10
96.498617
 20
133.864456
 30
0.0
 10
95.926558
 20
133.864456
 30
0.0
 10
95.462322
 20
133.596302
 30
0.0
  0
SPLINE
  5
130
100
AcDbEntity
  8
Layer_1
 62
7
100
AcDbSpline
 70
8
 71
3
 72
8
 73
4
 74
0
 40
0
 40
0
 40
0
 40
0
 40
1
 40
1
 40
1
 40
1
 10
95.462322
 20
133.596302
 30
0.0
 10
94.998085
 20
133.328148
 30
0.0
 10
94.712259
 20
132.832614
 30
0.0
 10
94.712588
 20
132.296497
 30
0.0
  0
SPLINE
  5
131
100
AcDbEntity
  8
Layer_1
 62
7
100
AcDbSpline
 70
8
 71
3
 72
8
 73
4
 74
0
 40
0
 40
0
 40
0
 40
0
 40
1
 40
1
 40
1
 40
1
 10
94.712588
 20
132.296497
 30
0.0
 10
94.712259
 20
131.760379
 30
0.0
 10
94.998085
 20
131.264846
 30
0.0
 10
95.462322
 20
130.996692
 30
0.0
  0
SPLINE
  5
132
100
AcDbEntity
  8
Layer_1
 62
7
100
AcDbSpline
 70
8
 71
3
 72
8
 73
4
 74
0
 40
0
 40
0
 40
0
 40
0
 40
1
 40
1
 40
1
 40
1
 10
95.462322
 20
130.996692
 30
0.0
 10
95.926558
 20
130.728538
 30
0.0
 10
96.498617
 20
130.728538
 30
0.0
 10
96.962853
 20
130.996692
 30
0.0
  0
SPLINE
  5
133
100
AcDbEntity
  8
Layer_1
 62
7
100
AcDbSpline
 70
8
 71
3
 72
8
 73
4
 74
0
 40
0
 40
0
 40
0
 40
0
 40
1
 40
1
 40
1
 40
1
 10
96.962853
 20
130.996692
 30
0.0
 10
97.427090
 20
131.264846
 30
0.0
 10
97.712916
 20
131.760379
 30
0.0
 10
97.712587
 20
132.296497
 30
0.0
  0
LWPOLYLINE
  5
134
100
AcDbEntity
  8
Layer_1
 62
7
100
AcDbPolyline
 90
6
 70
1
 10
99.212587
 20
69.966505
 30
0.0
 10
15.392587
 20
69.966505
 30
0.0
 10
15.392587
 20
135.296496
 30
0.0
 10
99.212587
 20
135.296496
 30
0.0
 10
99.212587
 20
69.966505
 30
0.0
 10
99.212587
 20
69.966505
 30
0.0
  0
SPLINE
  5
135
100
AcDbEntity
  8
Layer_1
 62
7
100
AcDbSpline
 70
8
 71
3
 72
8
 73
4
 74
0
 40
0
 40
0
 40
0
 40
0
 40
1
 40
1
 40
1
 40
1
 10
97.712587
 20
132.296497
 30
0.0
 10
97.712916
 20
132.832614
 30
0.0
 10
97.427090
 20
133.328148
 30
0.0
 10
96.962853
 20
133.596302
 30
0.0
  0
SPLINE
  5
136
100
AcDbEntity
  8
Layer_1
 62
7
100
AcDbSpline
 70
8
 71
3
 72
8
 73
4
 74
0
 40
0
 40
0
 40
0
 40
0
 40
1
 40
1
 40
1
 40
1
 10
96.962853
 20
133.596302
 30
0.0
 10
96.498617
 20
133.864456
 30
0.0
 10
95.926558
 20
133.864456
 30
0.0
 10
95.462322
 20
133.596302
 30
0.0
  0
SPLINE
  5
137
100
AcDbEntity
  8
Layer_1
 62
7
100
AcDbSpline
 70
8
 71
3
 72
8
 73
4
 74
0
 40
0
 40
0
 40
0
 40
0
 40
1
 40
1
 40
1
 40
1
 10
95.462322
 20
133.596302
 30
0.0
 10
94.998085
 20
133.328148
 30
0.0
 10
94.712259
 20
132.832614
 30
0.0
 10
94.712588
 20
132.296497
 30
0.0
  0
SPLINE
  5
138
100
AcDbEntity
  8
Layer_1
 62
7
100
AcDbSpline
 70
8
 71
3
 72
8
 73
4
 74
0
 40
0
 40
0
 40
0
 40
0
 40
1
 40
1
 40
1
 40
1
 10
94.712588
 20
132.296497
 30
0.0
 10
94.712259
 20
131.760379
 30
0.0
 10
94.998085
 20
131.264846
 30
0.0
 10
95.462322
 20
130.996692
 30
0.0
  0
SPLINE
  5
139
100
AcDbEntity
  8
Layer_1
 62
7
100
AcDbSpline
 70
8
 71
3
 72
8
 73
4
 74
0
 40
0
 40
0
 40
0
 40
0
 40
1
 40
1
 40
1
 40
1
 10
95.462322
 20
130.996692
 30
0.0
 10
95.926558
 20
130.728538
 30
0.0
 10
96.498617
 20
130.728538
 30
0.0
 10
96.962853
 20
130.996692
 30
0.0
  0
SPLINE
  5
13a
100
AcDbEntity
  8
Layer_1
 62
7
100
AcDbSpline
 70
8
 71
3
 72
8
 73
4
 74
0
 40
0
 40
0
 40
0
 40
0
 40
1
 40
1
 40
1
 40
1
 10
96.962853
 20
130.996692
 30
0.0
 10
97.427090
 20
131.264846
 30
0.0
 10
97.712916
 20
131.760379
 30
0.0
 10
97.712587
 20
132.296497
 30
0.0
  0
SPLINE
  5
13b
100
AcDbEntity
  8
Layer_1
 62
7
100
AcDbSpline
 70
8
 71
3
 72
8
 73
4
 74
0
 40
0
 40
0
 40
0
 40
0
 40
1
 40
1
 40
1
 40
1
 10
19.892587
 20
72.966499
 30
0.0
 10
19.892915
 20
73.502617
 30
0.0
 10
19.607089
 20
73.998151
 30
0.0
 10
19.142852
 20
74.266304
 30
0.0
  0
SPLINE
  5
13c
100
AcDbEntity
  8
Layer_1
 62
7
100
AcDbSpline
 70
8
 71
3
 72
8
 73
4
 74
0
 40
0
 40
0
 40
0
 40
0
 40
1
 40
1
 40
1
 40
1
 10
19.142852
 20
74.266304
 30
0.0
 10
18.678616
 20
74.534458
 30
0.0
 10
18.106558
 20
74.534458
 30
0.0
 10
17.642321
 20
74.266304
 30
0.0
  0
SPLINE
  5
13d
100
AcDbEntity
  8
Layer_1
 62
7
100
AcDbSpline
 70
8
 71
3
 72
8
 73
4
 74
0
 40
0
 40
0
 40
0
 40
0
 40
1
 40
1
 40
1
 40
1
 10
17.642321
 20
74.266304
 30
0.0
 10
17.178084
 20
73.998151
 30
0.0
 10
16.892258
 20
73.502617
 30
0.0
 10
16.892587
 20
72.966499
 30
0.0
  0
SPLINE
  5
13e
100
AcDbEntity
  8
Layer_1
 62
7
100
AcDbSpline
 70
8
 71
3
 72
8
 73
4
 74
0
 40
0
 40
0
 40
0
 40
0
 40
1
 40
1
 40
1
 40
1
 10
16.892587
 20
72.966499
 30
0.0
 10
16.892258
 20
72.430382
 30
0.0
 10
17.178084
 20
71.934848
 30
0.0
 10
17.642321
 20
71.666695
 30
0.0
  0
SPLINE
  5
13f
100
AcDbEntity
  8
Layer_1
 62
7
100
AcDbSpline
 70
8
 71
3
 72
8
 73
4
 74
0
 40
0
 40
0
 40
0
 40
0
 40
1
 40
1
 40
1
 40
1
 10
17.642321
 20
71.666695
 30
0.0
 10
18.106558
 20
71.398541
 30
0.0
 10
18.678616
 20
71.398541
 30
0.0
 10
19.142852
 20
71.666695
 30
0.0
  0
SPLINE
  5
140
100
AcDbEntity
  8
Layer_1
 62
7
100
AcDbSpline
 70
8
 71
3
 72
8
 73
4
 74
0
 40
0
 40
0
 40
0
 40
0
 40
1
 40
1
 40
1
 40
1
 10
19.142852
 20
71.666695
 30
0.0
 10
19.607089
 20
71.934848
 30
0.0
 10
19.892915
 20
72.430382
 30
0.0
 10
19.892587
 20
72.966499
 30
0.0
  0
LWPOLYLINE
  5
141
100
AcDbEntity
  8
Layer_1
 62
7
100
AcDbPolyline
 90
3
 70
1
 10
97.712587
 20
132.296497
 30
0.0
 10
97.712587
 20
132.296497
 30
0.0
 10
97.712587
 20
132.296497
 30
0.0
  0
SPLINE
  5
142
100
AcDbEntity
  8
Layer_1
 62
7
100
AcDbSpline
 70
8
 71
3
 72
8
 73
4
 74
0
 40
0
 40
0
 40
0
 40
0
 40
1
 40
1
 40
1
 40
1
 10
19.892587
 20
72.966499
 30
0.0
 10
19.892915
 20
73.502617
 30
0.0
 10
19.607089
 20
73.998151
 30
0.0
 10
19.142852
 20
74.266304
 30
0.0
  0
SPLINE
  5
143
100
AcDbEntity
  8
Layer_1
 62
7
100
AcDbSpline
 70
8
 71
3
 72
8
 73
4
 74
0
 40
0
 40
0
 40
0
 40
0
 40
1
 40
1
 40
1
 40
1
 10
19.142852
 20
74.266304
 30
0.0
 10
18.678616
 20
74.534458
 30
0.0
 10
18.106558
 20
74.534458
 30
0.0
 10
17.642321
 20
74.266304
 30
0.0
  0
SPLINE
  5
144
100
AcDbEntity
  8
Layer_1
 62
7
100
AcDbSpline
 70
8
 71
3
 72
8
 73
4
 74
0
 40
0
 40
0
 40
0
 40
0
 40
1
 40
1
 40
1
 40
1
 10
17.642321
 20
74.266304
 30
0.0
 10
17.178084
 20
73.998151
 30
0.0
 10
16.892258
 20
73.502617
 30
0.0
 10
16.892587
 20
72.966499
 30
0.0
  0
SPLINE
  5
145
100
AcDbEntity
  8
Layer_1
 62
7
100
AcDbSpline
 70
8
 71
3
 72
8
 73
4
 74
0
 40
0
 40
0
 40
0
 40
0
 40
1
 40
1
 40
1
 40
1
 10
16.892587
 20
72.966499
 30
0.0
 10
16.892258
 20
72.430382
 30
0.0
 10
17.178084
 20
71.934848
 30
0.0
 10
17.642321
 20
71.666695
 30
0.0
  0
SPLINE
  5
146
100
AcDbEntity
  8
Layer_1
 62
7
100
AcDbSpline
 70
8
 71
3
 72
8
 73
4
 74
0
 40
0
 40
0
 40
0
 40
0
 40
1
 40
1
 40
1
 40
1
 10
17.642321
 20
71.666695
 30
0.0
 10
18.106558
 20
71.398541
 30
0.0
 10
18.678616
 20
71.398541
 30
0.0
 10
19.142852
 20
71.666695
 30
0.0
  0
SPLINE
  5
147
100
AcDbEntity
  8
Layer_1
 62
7
100
AcDbSpline
 70
8
 71
3
 72
8
 73
4
 74
0
 40
0
 40
0
 40
0
 40
0
 40
1
 40
1
 40
1
 40
1
 10
19.142852
 20
71.666695
 30
0.0
 10
19.607089
 20
71.934848
 30
0.0
 10
19.892915
 20
72.430382
 30
0.0
 10
19.892587
 20
72.966499
 30
0.0
  0
LWPOLYLINE
  5
148
100
AcDbEntity
  8
Layer_1
 62
7
100
AcDbPolyline
 90
3
 70
1
 10
19.892587
 20
72.966499
 30
0.0
 10
19.892587
 20
72.966499
 30
0.0
 10
19.892587
 20
72.966499
 30
0.0
  0
LWPOLYLINE
  5
149
100
AcDbEntity
  8
Layer_1
 62
7
100
AcDbPolyline
 90
6
 70
1
 10
55.012587
 20
120.296498
 30
0.0
 10
24.392586
 20
120.296498
 30
0.0
 10
24.392586
 20
75.966493
 30
0.0
 10
55.012587
 20
75.966493
 30
0.0
 10
55.012587
 20
120.296498
 30
0.0
 10
55.012587
 20
120.296498
 30
0.0
  0
LWPOLYLINE
  5
14a
100
AcDbEntity
  8
Layer_1
 62
7
100
AcDbPolyline
 90
6
 70
1
 10
90.212588
 20
127.296496
 30
0.0
 10
64.962587
 20
127.296496
 30
0.0
 10
64.962587
 20
89.966494
 30
0.0
 10
90.212588
 20
89.966494
 30
0.0
 10
90.212588
 20
127.296496
 30
0.0
 10
90.212588
 20
127.296496
 30
0.0
  0
SPLINE
  5
14b
100
AcDbEntity
  8
Layer_1
 62
7
100
AcDbSpline
 70
8
 71
3
 72
8
 73
4
 74
0
 40
0
 40
0
 40
0
 40
0
 40
1
 40
1
 40
1
 40
1
 10
184.379187
 20
133.436844
 30
0.0
 10
184.379516
 20
133.972961
 30
0.0
 10
184.093689
 20
134.468495
 30
0.0
 10
183.629453
 20
134.736649
 30
0.0
  0
SPLINE
  5
14c
100
AcDbEntity
  8
Layer_1
 62
7
100
AcDbSpline
 70
8
 71
3
 72
8
 73
4
 74
0
 40
0
 40
0
 40
0
 40
0
 40
1
 40
1
 40
1
 40
1
 10
183.629453
 20
134.736649
 30
0.0
 10
183.165216
 20
135.004803
 30
0.0
 10
182.593158
 20
135.004803
 30
0.0
 10
182.128922
 20
134.736649
 30
0.0
  0
SPLINE
  5
14d
100
AcDbEntity
  8
Layer_1
 62
7
100
AcDbSpline
 70
8
 71
3
 72
8
 73
4
 74
0
 40
0
 40
0
 40
0
 40
0
 40
1
 40
1
 40
1
 40
1
 10
182.128922
 20
134.736649
 30
0.0
 10
181.664685
 20
134.468495
 30
0.0
 10
181.378859
 20
133.972961
 30
0.0
 10
181.379187
 20
133.436844
 30
0.0
  0
SPLINE
  5
14e
100
AcDbEntity
  8
Layer_1
 62
7
100
AcDbSpline
 70
8
 71
3
 72
8
 73
4
 74
0
 40
0
 40
0
 40
0
 40
0
 40
1
 40
1
 40
1
 40
1
 10
181.379187
 20
133.436844
 30
0.0
 10
181.378859
 20
132.900726
 30
0.0
 10
181.664685
 20
132.405193
 30
0.0
 10
182.128922
 20
132.137039
 30
0.0
  0
SPLINE
  5
14f
100
AcDbEntity
  8
Layer_1
 62
7
100
AcDbSpline
 70
8
 71
3
 72
8
 73
4
 74
0
 40
0
 40
0
 40
0
 40
0
 40
1
 40
1
 40
1
 40
1
 10
182.128922
 20
132.137039
 30
0.0
 10
182.593158
 20
131.868885
 30
0.0
 10
183.165216
 20
131.868885
 30
0.0
 10
183.629453
 20
132.137039
 30
0.0
  0
SPLINE
  5
150
100
AcDbEntity
  8
Layer_1
 62
7
100
AcDbSpline
 70
8
 71
3
 72
8
 73
4
 74
0
 40
0
 40
0
 40
0
 40
0
 40
1
 40
1
 40
1
 40
1
 10
183.629453
 20
132.137039
 30
0.0
 10
184.093689
 20
132.405193
 30
0.0
 10
184.379516
 20
132.900726
 30
0.0
 10
184.379187
 20
133.436844
 30
0.0
  0
LWPOLYLINE
  5
151
100
AcDbEntity
  8
Layer_1
 62
7
100
AcDbPolyline
 90
6
 70
1
 10
185.879187
 20
71.106853
 30
0.0
 10
102.059187
 20
71.106853
 30
0.0
 10
102.059187
 20
136.436844
 30
0.0
 10
185.879187
 20
136.436844
 30
0.0
 10
185.879187
 20
71.106853
 30
0.0
 10
185.879187
 20
71.106853
 30
0.0
  0
SPLINE
  5
152
100
AcDbEntity
  8
Layer_1
 62
7
100
AcDbSpline
 70
8
 71
3
 72
8
 73
4
 74
0
 40
0
 40
0
 40
0
 40
0
 40
1
 40
1
 40
1
 40
1
 10
184.379187
 20
133.436844
 30
0.0
 10
184.379516
 20
133.972961
 30
0.0
 10
184.093689
 20
134.468495
 30
0.0
 10
183.629453
 20
134.736649
 30
0.0
  0
SPLINE
  5
153
100
AcDbEntity
  8
Layer_1
 62
7
100
AcDbSpline
 70
8
 71
3
 72
8
 73
4
 74
0
 40
0
 40
0
 40
0
 40
0
 40
1
 40
1
 40
1
 40
1
 10
183.629453
 20
134.736649
 30
0.0
 10
183.165216
 20
135.004803
 30
0.0
 10
182.593158
 20
135.004803
 30
0.0
 10
182.128922
 20
134.736649
 30
0.0
  0
SPLINE
  5
154
100
AcDbEntity
  8
Layer_1
 62
7
100
AcDbSpline
 70
8
 71
3
 72
8
 73
4
 74
0
 40
0
 40
0
 40
0
 40
0
 40
1
 40
1
 40
1
 40
1
 10
182.128922
 20
134.736649
 30
0.0
 10
181.664685
 20
134.468495
 30
0.0
 10
181.378859
 20
133.972961
 30
0.0
 10
181.379187
 20
133.436844
 30
0.0
  0
SPLINE
  5
155
100
AcDbEntity
  8
Layer_1
 62
7
100
AcDbSpline
 70
8
 71
3
 72
8
 73
4
 74
0
 40
0
 40
0
 40
0
 40
0
 40
1
 40
1
 40
1
 40
1
 10
181.379187
 20
133.436844
 30
0.0
 10
181.378859
 20
132.900726
 30
0.0
 10
181.664685
 20
132.405193
 30
0.0
 10
182.128922
 20
132.137039
 30
0.0
  0
SPLINE
  5
156
100
AcDbEntity
  8
Layer_1
 62
7
100
AcDbSpline
 70
8
 71
3
 72
8
 73
4
 74
0
 40
0
 40
0
 40
0
 40
0
 40
1
 40
1
 40
1
 40
1
 10
182.128922
 20
132.137039
 30
0.0
 10
182.593158
 20
131.868885
 30
0.0
 10
183.165216
 20
131.868885
 30
0.0
 10
183.629453
 20
132.137039
 30
0.0
  0
SPLINE
  5
157
100
AcDbEntity
  8
Layer_1
 62
7
100
AcDbSpline
 70
8
 71
3
 72
8
 73
4
 74
0
 40
0
 40
0
 40
0
 40
0
 40
1
 40
1
 40
1
 40
1
 10
183.629453
 20
132.137039
 30
0.0
 10
184.093689
 20
132.405193
 30
0.0
 10
184.379516
 20
132.900726
 30
0.0
 10
184.379187
 20
133.436844
 30
0.0
  0
SPLINE
  5
158
100
AcDbEntity
  8
Layer_1
 62
7
100
AcDbSpline
 70
8
 71
3
 72
8
 73
4
 74
0
 40
0
 40
0
 40
0
 40
0
 40
1
 40
1
 40
1
 40
1
 10
106.559186
 20
74.106847
 30
0.0
 10
106.559515
 20
74.642964
 30
0.0
 10
106.273689
 20
75.138498
 30
0.0
 10
105.809452
 20
75.406652
 30
0.0
  0
SPLINE
  5
159
100
AcDbEntity
  8
Layer_1
 62
7
100
AcDbSpline
 70
8
 71
3
 72
8
 73
4
 74
0
 40
0
 40
0
 40
0
 40
0
 40
1
 40
1
 40
1
 40
1
 10
105.809452
 20
75.406652
 30
0.0
 10
105.345216
 20
75.674805
 30
0.0
 10
104.773157
 20
75.674805
 30
0.0
 10
104.308921
 20
75.406652
 30
0.0
  0
SPLINE
  5
15a
100
AcDbEntity
  8
Layer_1
 62
7
100
AcDbSpline
 70
8
 71
3
 72
8
 73
4
 74
0
 40
0
 40
0
 40
0
 40
0
 40
1
 40
1
 40
1
 40
1
 10
104.308921
 20
75.406652
 30
0.0
 10
103.844684
 20
75.138498
 30
0.0
 10
103.558858
 20
74.642964
 30
0.0
 10
103.559187
 20
74.106847
 30
0.0
  0
SPLINE
  5
15b
100
AcDbEntity
  8
Layer_1
 62
7
100
AcDbSpline
 70
8
 71
3
 72
8
 73
4
 74
0
 40
0
 40
0
 40
0
 40
0
 40
1
 40
1
 40
1
 40
1
 10
103.559187
 20
74.106847
 30
0.0
 10
103.558858
 20
73.570729
 30
0.0
 10
103.844684
 20
73.075195
 30
0.0
 10
104.308921
 20
72.807042
 30
0.0
  0
SPLINE
  5
15c
100
AcDbEntity
  8
Layer_1
 62
7
100
AcDbSpline
 70
8
 71
3
 72
8
 73
4
 74
0
 40
0
 40
0
 40
0
 40
0
 40
1
 40
1
 40
1
 40
1
 10
104.308921
 20
72.807042
 30
0.0
 10
104.773157
 20
72.538888
 30
0.0
 10
105.345216
 20
72.538888
 30
0.0
 10
105.809452
 20
72.807042
 30
0.0
  0
SPLINE
  5
15d
100
AcDbEntity
  8
Layer_1
 62
7
100
AcDbSpline
 70
8
 71
3
 72
8
 73
4
 74
0
 40
0
 40
0
 40
0
 40
0
 40
1
 40
1
 40
1
 40
1
 10
105.809452
 20
72.807042
 30
0.0
 10
106.273689
 20
73.075195
 30
0.0
 10
106.559515
 20
73.570729
 30
0.0
 10
106.559186
 20
74.106847
 30
0.0
  0
LWPOLYLINE
  5
15e
100
AcDbEntity
  8
Layer_1
 62
7
100
AcDbPolyline
 90
3
 70
1
 10
184.379187
 20
133.436844
 30
0.0
 10
184.379187
 20
133.436844
 30
0.0
 10
184.379187
 20
133.436844
 30
0.0
  0
SPLINE
  5
15f
100
AcDbEntity
  8
Layer_1
 62
7
100
AcDbSpline
 70
8
 71
3
 72
8
 73
4
 74
0
 40
0
 40
0
 40
0
 40
0
 40
1
 40
1
 40
1
 40
1
 10
106.559186
 20
74.106847
 30
0.0
 10
106.559515
 20
74.642964
 30
0.0
 10
106.273689
 20
75.138498
 30
0.0
 10
105.809452
 20
75.406652
 30
0.0
  0
SPLINE
  5
160
100
AcDbEntity
  8
Layer_1
 62
7
100
AcDbSpline
 70
8
 71
3
 72
8
 73
4
 74
0
 40
0
 40
0
 40
0
 40
0
 40
1
 40
1
 40
1
 40
1
 10
105.809452
 20
75.406652
 30
0.0
 10
105.345216
 20
75.674805
 30
0.0
 10
104.773157
 20
75.674805
 30
0.0
 10
104.308921
 20
75.406652
 30
0.0
  0
SPLINE
  5
161
100
AcDbEntity
  8
Layer_1
 62
7
100
AcDbSpline
 70
8
 71
3
 72
8
 73
4
 74
0
 40
0
 40
0
 40
0
 40
0
 40
1
 40
1
 40
1
 40
1
 10
104.308921
 20
75.406652
 30
0.0
 10
103.844684
 20
75.138498
 30
0.0
 10
103.558858
 20
74.642964
 30
0.0
 10
103.559187
 20
74.106847
 30
0.0
  0
SPLINE
  5
162
100
AcDbEntity
  8
Layer_1
 62
7
100
AcDbSpline
 70
8
 71
3
 72
8
 73
4
 74
0
 40
0
 40
0
 40
0
 40
0
 40
1
 40
1
 40
1
 40
1
 10
103.559187
 20
74.106847
 30
0.0
 10
103.558858
 20
73.570729
 30
0.0
 10
103.844684
 20
73.075195
 30
0.0
 10
104.308921
 20
72.807042
 30
0.0
  0
SPLINE
  5
163
100
AcDbEntity
  8
Layer_1
 62
7
100
AcDbSpline
 70
8
 71
3
 72
8
 73
4
 74
0
 40
0
 40
0
 40
0
 40
0
 40
1
 40
1
 40
1
 40
1
 10
104.308921
 20
72.807042
 30
0.0
 10
104.773157
 20
72.538888
 30
0.0
 10
105.345216
 20
72.538888
 30
0.0
 10
105.809452
 20
72.807042
 30
0.0
  0
SPLINE
  5
164
100
AcDbEntity
  8
Layer_1
 62
7
100
AcDbSpline
 70
8
 71
3
 72
8
 73
4
 74
0
 40
0
 40
0
 40
0
 40
0
 40
1
 40
1
 40
1
 40
1
 10
105.809452
 20
72.807042
 30
0.0
 10
106.273689
 20
73.075195
 30
0.0
 10
106.559515
 20
73.570729
 30
0.0
 10
106.559186
 20
74.106847
 30
0.0
  0
LWPOLYLINE
  5
165
100
AcDbEntity
  8
Layer_1
 62
7
100
AcDbPolyline
 90
3
 70
1
 10
106.559186
 20
74.106847
 30
0.0
 10
106.559186
 20
74.106847
 30
0.0
 10
106.559186
 20
74.106847
 30
0.0
  0
LWPOLYLINE
  5
166
100
AcDbEntity
  8
Layer_1
 62
7
100
AcDbPolyline
 90
6
 70
1
 10
141.679187
 20
121.436845
 30
0.0
 10
111.059186
 20
121.436845
 30
0.0
 10
111.059186
 20
77.106841
 30
0.0
 10
141.679187
 20
77.106841
 30
0.0
 10
141.679187
 20
121.436845
 30
0.0
 10
141.679187
 20
121.436845
 30
0.0
  0
LWPOLYLINE
  5
167
100
AcDbEntity
  8
Layer_1
 62
7
100
AcDbPolyline
 90
6
 70
1
 10
176.879188
 20
128.436843
 30
0.0
 10
151.629187
 20
128.436843
 30
0.0
 10
151.629187
 20
91.106841
 30
0.0
 10
176.879188
 20
91.106841
 30
0.0
 10
176.879188
 20
128.436843
 30
0.0
 10
176.879188
 20
128.436843
 30
0.0
  0
ENDSEC
  0
SECTION
  2
OBJECTS
  0
DICTIONARY
  5
C
330
0
100
AcDbDictionary
  3
ACAD_GROUP
350
D
  3
ACAD_MLINESTYLE
350
17
  0
DICTIONARY
  5
D
330
C
100
AcDbDictionary
  0
DICTIONARY
  5
1A
330
C
100
AcDbDictionary
  0
DICTIONARY
  5
17
330
C
100
AcDbDictionary
  3
STANDARD
350
18
  0
DICTIONARY
  5
19
330
C
100
AcDbDictionary
  0
ENDSEC
  0
EOF
