  0
SECTION
  2
HEADER
  9
$ACADVER
  1
AC1014
  9
$HANDSEED
  5
FFFF
  9
$MEASUREMENT
 70
     1
  0
ENDSEC
  0
SECTION
  2
TABLES
  0
TABLE
  2
VPORT
  5
8
330
0
100
AcDbSymbolTable
 70
     4
  0
VPORT
  5
2E
330
8
100
AcDbSymbolTableRecord
100
AcDbViewportTableRecord
  2
*ACTIVE
 70
     0
 10
0.0
 20
0.0
 11
1.0
 21
1.0
 12
210.0
 22
148.5
 13
0.0
 23
0.0
 14
10.0
 24
10.0
 15
10.0
 25
10.0
 16
0.0
 26
0.0
 36
1.0
 17
0.0
 27
0.0
 37
0.0
 40
341.0
 41
1.24
 42
50.0
 43
0.0
 44
0.0
 50
0.0
 51
0.0
 71
     0
 72
   100
 73
     1
 74
     3
 75
     0
 76
     0
 77
     0
 78
     0
  0
ENDTAB
  0
TABLE
  2
LTYPE
  5
5
330
0
100
AcDbSymbolTable
 70
     1
  0
LTYPE
  5
14
330
5
100
AcDbSymbolTableRecord
100
AcDbLinetypeTableRecord
  2
BYBLOCK
 70
     0
  3

 72
    65
 73
     0
 40
0.0
  0
LTYPE
  5
15
330
5
100
AcDbSymbolTableRecord
100
AcDbLinetypeTableRecord
  2
BYLAYER
 70
     0
  3

 72
    65
 73
     0
 40
0.0
  0
LTYPE
  5
16
330
5
100
AcDbSymbolTableRecord
100
AcDbLinetypeTableRecord
  2
CONTINUOUS
 70
     0
  3
Solid line
 72
    65
 73
     0
 40
0.0
  0
ENDTAB
  0
TABLE
  2
LAYER
  5
2
100
AcDbSymbolTable
 70
2
  0
LAYER
  5
50
100
AcDbSymbolTableRecord
100
AcDbLayerTableRecord
  2
0
 70
0
  6
CONTINUOUS
  0
LAYER
  5
51
100
AcDbSymbolTableRecord
100
AcDbLayerTableRecord
  2
Layer_1
 70
0
  6
CONTINUOUS
  0
ENDTAB
  0
TABLE
  2
STYLE
  5
3
330
0
100
AcDbSymbolTable
 70
     1
  0
STYLE
  5
11
330
3
100
AcDbSymbolTableRecord
100
AcDbTextStyleTableRecord
  2
STANDARD
 70
     0
 40
0.0
 41
1.0
 50
0.0
 71
     0
 42
2.5
  3
txt
  4

  0
ENDTAB
  0
TABLE
  2
VIEW
  5
6
330
0
100
AcDbSymbolTable
 70
     0
  0
ENDTAB
  0
TABLE
  2
UCS
  5
7
330
0
100
AcDbSymbolTable
 70
     0
  0
ENDTAB
  0
TABLE
  2
APPID
  5
9
330
0
100
AcDbSymbolTable
 70
     2
  0
APPID
  5
12
330
9
100
AcDbSymbolTableRecord
100
AcDbRegAppTableRecord
  2
ACAD
 70
     0
  0
ENDTAB
  0
TABLE
  2
DIMSTYLE
  5
A
330
0
100
AcDbSymbolTable
 70
     1
  0
DIMSTYLE
105
27
330
A
100
AcDbSymbolTableRecord
100
AcDbDimStyleTableRecord
  2
ISO-25
 70
     0
  3

  4

  5

  6

  7

 40
1.0
 41
2.5
 42
0.625
 43
3.75
 44
1.25
 45
0.0
 46
0.0
 47
0.0
 48
0.0
140
2.5
141
2.5
142
0.0
143
0.03937007874016
144
1.0
145
0.0
146
1.0
147
0.625
 71
     0
 72
     0
 73
     0
 74
     0
 75
     0
 76
     0
 77
     1
 78
     8
170
     0
171
     3
172
     1
173
     0
174
     0
175
     0
176
     0
177
     0
178
     0
270
     2
271
     2
272
     2
273
     2
274
     3
340
11
275
     0
280
     0
281
     0
282
     0
283
     0
284
     8
285
     0
286
     0
287
     3
288
     0
  0
ENDTAB
  0
TABLE
  2
BLOCK_RECORD
  5
1
330
0
100
AcDbSymbolTable
 70
     1
  0
BLOCK_RECORD
  5
1F
330
1
100
AcDbSymbolTableRecord
100
AcDbBlockTableRecord
  2
*MODEL_SPACE
  0
BLOCK_RECORD
  5
1B
330
1
100
AcDbSymbolTableRecord
100
AcDbBlockTableRecord
  2
*PAPER_SPACE
  0
ENDTAB
  0
ENDSEC
  0
SECTION
  2
BLOCKS
  0
BLOCK
  5
20
330
1F
100
AcDbEntity
  8
0
100
AcDbBlockBegin
  2
*MODEL_SPACE
 70
     0
 10
0.0
 20
0.0
 30
0.0
  3
*MODEL_SPACE
  1

  0
ENDBLK
  5
21
330
1F
100
AcDbEntity
  8
0
100
AcDbBlockEnd
  0
BLOCK
  5
1C
330
1B
100
AcDbEntity
 67
     1
  8
0
100
AcDbBlockBegin
  2
*PAPER_SPACE
  1

  0
ENDBLK
  5
1D
330
1B
100
AcDbEntity
 67
     1
  8
0
100
AcDbBlockEnd
  0
ENDSEC
  0
SECTION
  2
ENTITIES
  0
LWPOLYLINE
  5
100
100
AcDbEntity
  8
Layer_1
 62
3
100
AcDbPolyline
 90
7
 70
1
 10
254.464560
 20
417.346095
 30
0.0
 10
351.453873
 20
417.346095
 30
0.0
 10
351.453873
 20
320.356796
 30
0.0
 10
254.464560
 20
320.356796
 30
0.0
 10
254.464560
 20
417.346095
 30
0.0
 10
254.464560
 20
417.346095
 30
0.0
 10
254.464560
 20
417.346095
 30
0.0
  0
SPLINE
  5
101
100
AcDbEntity
  8
Layer_1
 62
7
100
AcDbSpline
 70
8
 71
3
 72
8
 73
4
 74
0
 40
0
 40
0
 40
0
 40
0
 40
1
 40
1
 40
1
 40
1
 10
116.614097
 20
68.438543
 30
0.0
 10
116.614329
 20
68.974596
 30
0.0
 10
116.328482
 20
69.470030
 30
0.0
 10
115.864285
 20
69.738123
 30
0.0
  0
SPLINE
  5
102
100
AcDbEntity
  8
Layer_1
 62
7
100
AcDbSpline
 70
8
 71
3
 72
8
 73
4
 74
0
 40
0
 40
0
 40
0
 40
0
 40
1
 40
1
 40
1
 40
1
 10
115.864285
 20
69.738123
 30
0.0
 10
115.400088
 20
70.006217
 30
0.0
 10
114.828106
 20
70.006217
 30
0.0
 10
114.363909
 20
69.738123
 30
0.0
  0
SPLINE
  5
103
100
AcDbEntity
  8
Layer_1
 62
7
100
AcDbSpline
 70
8
 71
3
 72
8
 73
4
 74
0
 40
0
 40
0
 40
0
 40
0
 40
1
 40
1
 40
1
 40
1
 10
114.363909
 20
69.738123
 30
0.0
 10
113.899712
 20
69.470030
 30
0.0
 10
113.613864
 20
68.974596
 30
0.0
 10
113.614097
 20
68.438543
 30
0.0
  0
SPLINE
  5
104
100
AcDbEntity
  8
Layer_1
 62
7
100
AcDbSpline
 70
8
 71
3
 72
8
 73
4
 74
0
 40
0
 40
0
 40
0
 40
0
 40
1
 40
1
 40
1
 40
1
 10
113.614097
 20
68.438543
 30
0.0
 10
113.613864
 20
67.902490
 30
0.0
 10
113.899712
 20
67.407057
 30
0.0
 10
114.363909
 20
67.138963
 30
0.0
  0
SPLINE
  5
105
100
AcDbEntity
  8
Layer_1
 62
7
100
AcDbSpline
 70
8
 71
3
 72
8
 73
4
 74
0
 40
0
 40
0
 40
0
 40
0
 40
1
 40
1
 40
1
 40
1
 10
114.363909
 20
67.138963
 30
0.0
 10
114.828106
 20
66.870869
 30
0.0
 10
115.400088
 20
66.870869
 30
0.0
 10
115.864285
 20
67.138963
 30
0.0
  0
SPLINE
  5
106
100
AcDbEntity
  8
Layer_1
 62
7
100
AcDbSpline
 70
8
 71
3
 72
8
 73
4
 74
0
 40
0
 40
0
 40
0
 40
0
 40
1
 40
1
 40
1
 40
1
 10
115.864285
 20
67.138963
 30
0.0
 10
116.328482
 20
67.407057
 30
0.0
 10
116.614329
 20
67.902490
 30
0.0
 10
116.614097
 20
68.438543
 30
0.0
  0
LWPOLYLINE
  5
107
100
AcDbEntity
  8
Layer_1
 62
7
100
AcDbPolyline
 90
6
 70
1
 10
195.934096
 20
65.438549
 30
0.0
 10
112.114097
 20
65.438549
 30
0.0
 10
112.114097
 20
130.768537
 30
0.0
 10
195.934096
 20
130.768537
 30
0.0
 10
195.934096
 20
65.438549
 30
0.0
 10
195.934096
 20
65.438549
 30
0.0
  0
SPLINE
  5
108
100
AcDbEntity
  8
Layer_1
 62
7
100
AcDbSpline
 70
8
 71
3
 72
8
 73
4
 74
0
 40
0
 40
0
 40
0
 40
0
 40
1
 40
1
 40
1
 40
1
 10
194.434096
 20
127.768538
 30
0.0
 10
194.434425
 20
128.304655
 30
0.0
 10
194.148598
 20
128.800189
 30
0.0
 10
193.684362
 20
129.068343
 30
0.0
  0
SPLINE
  5
109
100
AcDbEntity
  8
Layer_1
 62
7
100
AcDbSpline
 70
8
 71
3
 72
8
 73
4
 74
0
 40
0
 40
0
 40
0
 40
0
 40
1
 40
1
 40
1
 40
1
 10
193.684362
 20
129.068343
 30
0.0
 10
193.220125
 20
129.336496
 30
0.0
 10
192.648067
 20
129.336496
 30
0.0
 10
192.183830
 20
129.068343
 30
0.0
  0
SPLINE
  5
10a
100
AcDbEntity
  8
Layer_1
 62
7
100
AcDbSpline
 70
8
 71
3
 72
8
 73
4
 74
0
 40
0
 40
0
 40
0
 40
0
 40
1
 40
1
 40
1
 40
1
 10
192.183830
 20
129.068343
 30
0.0
 10
191.719594
 20
128.800189
 30
0.0
 10
191.433767
 20
128.304655
 30
0.0
 10
191.434096
 20
127.768538
 30
0.0
  0
SPLINE
  5
10b
100
AcDbEntity
  8
Layer_1
 62
7
100
AcDbSpline
 70
8
 71
3
 72
8
 73
4
 74
0
 40
0
 40
0
 40
0
 40
0
 40
1
 40
1
 40
1
 40
1
 10
191.434096
 20
127.768538
 30
0.0
 10
191.433767
 20
127.232420
 30
0.0
 10
191.719594
 20
126.736886
 30
0.0
 10
192.183830
 20
126.468733
 30
0.0
  0
SPLINE
  5
10c
100
AcDbEntity
  8
Layer_1
 62
7
100
AcDbSpline
 70
8
 71
3
 72
8
 73
4
 74
0
 40
0
 40
0
 40
0
 40
0
 40
1
 40
1
 40
1
 40
1
 10
192.183830
 20
126.468733
 30
0.0
 10
192.648067
 20
126.200579
 30
0.0
 10
193.220125
 20
126.200579
 30
0.0
 10
193.684362
 20
126.468733
 30
0.0
  0
SPLINE
  5
10d
100
AcDbEntity
  8
Layer_1
 62
7
100
AcDbSpline
 70
8
 71
3
 72
8
 73
4
 74
0
 40
0
 40
0
 40
0
 40
0
 40
1
 40
1
 40
1
 40
1
 10
193.684362
 20
126.468733
 30
0.0
 10
194.148598
 20
126.736886
 30
0.0
 10
194.434425
 20
127.232420
 30
0.0
 10
194.434096
 20
127.768538
 30
0.0
  0
LWPOLYLINE
  5
10e
100
AcDbEntity
  8
Layer_1
 62
7
100
AcDbPolyline
 90
2
 70
1
 10
116.614097
 20
68.438543
 30
0.0
 10
116.614097
 20
68.438543
 30
0.0
  0
LWPOLYLINE
  5
10f
100
AcDbEntity
  8
Layer_1
 62
7
100
AcDbPolyline
 90
2
 70
1
 10
194.434096
 20
127.768538
 30
0.0
 10
194.434096
 20
127.768538
 30
0.0
  0
SPLINE
  5
110
100
AcDbEntity
  8
Layer_1
 62
7
100
AcDbSpline
 70
8
 71
3
 72
8
 73
4
 74
0
 40
0
 40
0
 40
0
 40
0
 40
1
 40
1
 40
1
 40
1
 10
28.736533
 20
68.438546
 30
0.0
 10
28.736862
 20
68.974663
 30
0.0
 10
28.451035
 20
69.470197
 30
0.0
 10
27.986799
 20
69.738351
 30
0.0
  0
SPLINE
  5
111
100
AcDbEntity
  8
Layer_1
 62
7
100
AcDbSpline
 70
8
 71
3
 72
8
 73
4
 74
0
 40
0
 40
0
 40
0
 40
0
 40
1
 40
1
 40
1
 40
1
 10
27.986799
 20
69.738351
 30
0.0
 10
27.522562
 20
70.006504
 30
0.0
 10
26.950504
 20
70.006504
 30
0.0
 10
26.486267
 20
69.738351
 30
0.0
  0
SPLINE
  5
112
100
AcDbEntity
  8
Layer_1
 62
7
100
AcDbSpline
 70
8
 71
3
 72
8
 73
4
 74
0
 40
0
 40
0
 40
0
 40
0
 40
1
 40
1
 40
1
 40
1
 10
26.486267
 20
69.738351
 30
0.0
 10
26.022031
 20
69.470197
 30
0.0
 10
25.736204
 20
68.974663
 30
0.0
 10
25.736533
 20
68.438546
 30
0.0
  0
SPLINE
  5
113
100
AcDbEntity
  8
Layer_1
 62
7
100
AcDbSpline
 70
8
 71
3
 72
8
 73
4
 74
0
 40
0
 40
0
 40
0
 40
0
 40
1
 40
1
 40
1
 40
1
 10
25.736533
 20
68.438546
 30
0.0
 10
25.736204
 20
67.902428
 30
0.0
 10
26.022031
 20
67.406894
 30
0.0
 10
26.486267
 20
67.138741
 30
0.0
  0
SPLINE
  5
114
100
AcDbEntity
  8
Layer_1
 62
7
100
AcDbSpline
 70
8
 71
3
 72
8
 73
4
 74
0
 40
0
 40
0
 40
0
 40
0
 40
1
 40
1
 40
1
 40
1
 10
26.486267
 20
67.138741
 30
0.0
 10
26.950504
 20
66.870587
 30
0.0
 10
27.522562
 20
66.870587
 30
0.0
 10
27.986799
 20
67.138741
 30
0.0
  0
SPLINE
  5
115
100
AcDbEntity
  8
Layer_1
 62
7
100
AcDbSpline
 70
8
 71
3
 72
8
 73
4
 74
0
 40
0
 40
0
 40
0
 40
0
 40
1
 40
1
 40
1
 40
1
 10
27.986799
 20
67.138741
 30
0.0
 10
28.451035
 20
67.406894
 30
0.0
 10
28.736862
 20
67.902428
 30
0.0
 10
28.736533
 20
68.438546
 30
0.0
  0
LWPOLYLINE
  5
116
100
AcDbEntity
  8
Layer_1
 62
7
100
AcDbPolyline
 90
10
 70
1
 10
108.056532
 20
130.768537
 30
0.0
 10
108.056532
 20
65.438552
 30
0.0
 10
24.236533
 20
65.438552
 30
0.0
 10
24.236533
 20
130.768537
 30
0.0
 10
108.056532
 20
130.768537
 30
0.0
 10
108.056532
 20
130.768537
 30
0.0
 10
24.236533
 20
130.768537
 30
0.0
 10
24.236533
 20
65.438552
 30
0.0
 10
108.056532
 20
65.438552
 30
0.0
 10
108.056532
 20
130.768537
 30
0.0
  0
SPLINE
  5
117
100
AcDbEntity
  8
Layer_1
 62
7
100
AcDbSpline
 70
8
 71
3
 72
8
 73
4
 74
0
 40
0
 40
0
 40
0
 40
0
 40
1
 40
1
 40
1
 40
1
 10
106.556532
 20
127.768543
 30
0.0
 10
106.556765
 20
128.304596
 30
0.0
 10
106.270917
 20
128.800030
 30
0.0
 10
105.806720
 20
129.068123
 30
0.0
  0
SPLINE
  5
118
100
AcDbEntity
  8
Layer_1
 62
7
100
AcDbSpline
 70
8
 71
3
 72
8
 73
4
 74
0
 40
0
 40
0
 40
0
 40
0
 40
1
 40
1
 40
1
 40
1
 10
105.806720
 20
129.068123
 30
0.0
 10
105.342523
 20
129.336217
 30
0.0
 10
104.770541
 20
129.336217
 30
0.0
 10
104.306344
 20
129.068123
 30
0.0
  0
SPLINE
  5
119
100
AcDbEntity
  8
Layer_1
 62
7
100
AcDbSpline
 70
8
 71
3
 72
8
 73
4
 74
0
 40
0
 40
0
 40
0
 40
0
 40
1
 40
1
 40
1
 40
1
 10
104.306344
 20
129.068123
 30
0.0
 10
103.842147
 20
128.800030
 30
0.0
 10
103.556300
 20
128.304596
 30
0.0
 10
103.556532
 20
127.768543
 30
0.0
  0
SPLINE
  5
11a
100
AcDbEntity
  8
Layer_1
 62
7
100
AcDbSpline
 70
8
 71
3
 72
8
 73
4
 74
0
 40
0
 40
0
 40
0
 40
0
 40
1
 40
1
 40
1
 40
1
 10
103.556532
 20
127.768543
 30
0.0
 10
103.556300
 20
127.232490
 30
0.0
 10
103.842147
 20
126.737056
 30
0.0
 10
104.306344
 20
126.468963
 30
0.0
  0
SPLINE
  5
11b
100
AcDbEntity
  8
Layer_1
 62
7
100
AcDbSpline
 70
8
 71
3
 72
8
 73
4
 74
0
 40
0
 40
0
 40
0
 40
0
 40
1
 40
1
 40
1
 40
1
 10
104.306344
 20
126.468963
 30
0.0
 10
104.770541
 20
126.200869
 30
0.0
 10
105.342523
 20
126.200869
 30
0.0
 10
105.806720
 20
126.468963
 30
0.0
  0
SPLINE
  5
11c
100
AcDbEntity
  8
Layer_1
 62
7
100
AcDbSpline
 70
8
 71
3
 72
8
 73
4
 74
0
 40
0
 40
0
 40
0
 40
0
 40
1
 40
1
 40
1
 40
1
 10
105.806720
 20
126.468963
 30
0.0
 10
106.270917
 20
126.737056
 30
0.0
 10
106.556765
 20
127.232490
 30
0.0
 10
106.556532
 20
127.768543
 30
0.0
  0
LWPOLYLINE
  5
11d
100
AcDbEntity
  8
Layer_1
 62
7
100
AcDbPolyline
 90
2
 70
1
 10
28.736533
 20
68.438546
 30
0.0
 10
28.736533
 20
68.438546
 30
0.0
  0
SPLINE
  5
11e
100
AcDbEntity
  8
Layer_1
 62
7
100
AcDbSpline
 70
8
 71
3
 72
8
 73
4
 74
0
 40
0
 40
0
 40
0
 40
0
 40
1
 40
1
 40
1
 40
1
 10
106.556532
 20
127.768543
 30
0.0
 10
106.556765
 20
128.304596
 30
0.0
 10
106.270917
 20
128.800030
 30
0.0
 10
105.806720
 20
129.068123
 30
0.0
  0
SPLINE
  5
11f
100
AcDbEntity
  8
Layer_1
 62
7
100
AcDbSpline
 70
8
 71
3
 72
8
 73
4
 74
0
 40
0
 40
0
 40
0
 40
0
 40
1
 40
1
 40
1
 40
1
 10
105.806720
 20
129.068123
 30
0.0
 10
105.342523
 20
129.336217
 30
0.0
 10
104.770541
 20
129.336217
 30
0.0
 10
104.306344
 20
129.068123
 30
0.0
  0
SPLINE
  5
120
100
AcDbEntity
  8
Layer_1
 62
7
100
AcDbSpline
 70
8
 71
3
 72
8
 73
4
 74
0
 40
0
 40
0
 40
0
 40
0
 40
1
 40
1
 40
1
 40
1
 10
104.306344
 20
129.068123
 30
0.0
 10
103.842147
 20
128.800030
 30
0.0
 10
103.556300
 20
128.304596
 30
0.0
 10
103.556532
 20
127.768543
 30
0.0
  0
SPLINE
  5
121
100
AcDbEntity
  8
Layer_1
 62
7
100
AcDbSpline
 70
8
 71
3
 72
8
 73
4
 74
0
 40
0
 40
0
 40
0
 40
0
 40
1
 40
1
 40
1
 40
1
 10
103.556532
 20
127.768543
 30
0.0
 10
103.556300
 20
127.232490
 30
0.0
 10
103.842147
 20
126.737056
 30
0.0
 10
104.306344
 20
126.468963
 30
0.0
  0
SPLINE
  5
122
100
AcDbEntity
  8
Layer_1
 62
7
100
AcDbSpline
 70
8
 71
3
 72
8
 73
4
 74
0
 40
0
 40
0
 40
0
 40
0
 40
1
 40
1
 40
1
 40
1
 10
104.306344
 20
126.468963
 30
0.0
 10
104.770541
 20
126.200869
 30
0.0
 10
105.342523
 20
126.200869
 30
0.0
 10
105.806720
 20
126.468963
 30
0.0
  0
SPLINE
  5
123
100
AcDbEntity
  8
Layer_1
 62
7
100
AcDbSpline
 70
8
 71
3
 72
8
 73
4
 74
0
 40
0
 40
0
 40
0
 40
0
 40
1
 40
1
 40
1
 40
1
 10
105.806720
 20
126.468963
 30
0.0
 10
106.270917
 20
126.737056
 30
0.0
 10
106.556765
 20
127.232490
 30
0.0
 10
106.556532
 20
127.768543
 30
0.0
  0
SPLINE
  5
124
100
AcDbEntity
  8
Layer_1
 62
7
100
AcDbSpline
 70
8
 71
3
 72
8
 73
4
 74
0
 40
0
 40
0
 40
0
 40
0
 40
1
 40
1
 40
1
 40
1
 10
28.736533
 20
68.438546
 30
0.0
 10
28.736862
 20
68.974663
 30
0.0
 10
28.451035
 20
69.470197
 30
0.0
 10
27.986799
 20
69.738351
 30
0.0
  0
SPLINE
  5
125
100
AcDbEntity
  8
Layer_1
 62
7
100
AcDbSpline
 70
8
 71
3
 72
8
 73
4
 74
0
 40
0
 40
0
 40
0
 40
0
 40
1
 40
1
 40
1
 40
1
 10
27.986799
 20
69.738351
 30
0.0
 10
27.522562
 20
70.006504
 30
0.0
 10
26.950504
 20
70.006504
 30
0.0
 10
26.486267
 20
69.738351
 30
0.0
  0
SPLINE
  5
126
100
AcDbEntity
  8
Layer_1
 62
7
100
AcDbSpline
 70
8
 71
3
 72
8
 73
4
 74
0
 40
0
 40
0
 40
0
 40
0
 40
1
 40
1
 40
1
 40
1
 10
26.486267
 20
69.738351
 30
0.0
 10
26.022031
 20
69.470197
 30
0.0
 10
25.736204
 20
68.974663
 30
0.0
 10
25.736533
 20
68.438546
 30
0.0
  0
SPLINE
  5
127
100
AcDbEntity
  8
Layer_1
 62
7
100
AcDbSpline
 70
8
 71
3
 72
8
 73
4
 74
0
 40
0
 40
0
 40
0
 40
0
 40
1
 40
1
 40
1
 40
1
 10
25.736533
 20
68.438546
 30
0.0
 10
25.736204
 20
67.902428
 30
0.0
 10
26.022031
 20
67.406894
 30
0.0
 10
26.486267
 20
67.138741
 30
0.0
  0
SPLINE
  5
128
100
AcDbEntity
  8
Layer_1
 62
7
100
AcDbSpline
 70
8
 71
3
 72
8
 73
4
 74
0
 40
0
 40
0
 40
0
 40
0
 40
1
 40
1
 40
1
 40
1
 10
26.486267
 20
67.138741
 30
0.0
 10
26.950504
 20
66.870587
 30
0.0
 10
27.522562
 20
66.870587
 30
0.0
 10
27.986799
 20
67.138741
 30
0.0
  0
SPLINE
  5
129
100
AcDbEntity
  8
Layer_1
 62
7
100
AcDbSpline
 70
8
 71
3
 72
8
 73
4
 74
0
 40
0
 40
0
 40
0
 40
0
 40
1
 40
1
 40
1
 40
1
 10
27.986799
 20
67.138741
 30
0.0
 10
28.451035
 20
67.406894
 30
0.0
 10
28.736862
 20
67.902428
 30
0.0
 10
28.736533
 20
68.438546
 30
0.0
  0
LWPOLYLINE
  5
12a
100
AcDbEntity
  8
Layer_1
 62
7
100
AcDbPolyline
 90
3
 70
1
 10
106.556532
 20
127.768543
 30
0.0
 10
106.556532
 20
127.768543
 30
0.0
 10
106.556532
 20
127.768543
 30
0.0
  0
LWPOLYLINE
  5
12b
100
AcDbEntity
  8
Layer_1
 62
7
100
AcDbPolyline
 90
2
 70
1
 10
28.736533
 20
68.438546
 30
0.0
 10
28.736533
 20
68.438546
 30
0.0
  0
LWPOLYLINE
  5
12c
100
AcDbEntity
  8
Layer_1
 62
7
100
AcDbPolyline
 90
2
 70
0
 10
24.236533
 20
65.438552
 30
0.0
 10
108.056532
 20
65.438552
 30
0.0
  0
LWPOLYLINE
  5
12d
100
AcDbEntity
  8
Layer_1
 62
7
100
AcDbPolyline
 90
6
 70
1
 10
29.056530
 20
125.768547
 30
0.0
 10
103.056532
 20
125.768547
 30
0.0
 10
103.056532
 20
74.438534
 30
0.0
 10
29.056530
 20
74.438534
 30
0.0
 10
29.056530
 20
125.768547
 30
0.0
 10
29.056530
 20
125.768547
 30
0.0
  0
SPLINE
  5
12e
100
AcDbEntity
  8
Layer_1
 62
7
100
AcDbSpline
 70
8
 71
3
 72
8
 73
4
 74
0
 40
0
 40
0
 40
0
 40
0
 40
1
 40
1
 40
1
 40
1
 10
106.556532
 20
197.158625
 30
0.0
 10
106.556861
 20
197.694743
 30
0.0
 10
106.271035
 20
198.190277
 30
0.0
 10
105.806798
 20
198.458430
 30
0.0
  0
SPLINE
  5
12f
100
AcDbEntity
  8
Layer_1
 62
7
100
AcDbSpline
 70
8
 71
3
 72
8
 73
4
 74
0
 40
0
 40
0
 40
0
 40
0
 40
1
 40
1
 40
1
 40
1
 10
105.806798
 20
198.458430
 30
0.0
 10
105.342562
 20
198.726584
 30
0.0
 10
104.770503
 20
198.726584
 30
0.0
 10
104.306267
 20
198.458430
 30
0.0
  0
SPLINE
  5
130
100
AcDbEntity
  8
Layer_1
 62
7
100
AcDbSpline
 70
8
 71
3
 72
8
 73
4
 74
0
 40
0
 40
0
 40
0
 40
0
 40
1
 40
1
 40
1
 40
1
 10
104.306267
 20
198.458430
 30
0.0
 10
103.842030
 20
198.190277
 30
0.0
 10
103.556204
 20
197.694743
 30
0.0
 10
103.556533
 20
197.158625
 30
0.0
  0
SPLINE
  5
131
100
AcDbEntity
  8
Layer_1
 62
7
100
AcDbSpline
 70
8
 71
3
 72
8
 73
4
 74
0
 40
0
 40
0
 40
0
 40
0
 40
1
 40
1
 40
1
 40
1
 10
103.556533
 20
197.158625
 30
0.0
 10
103.556204
 20
196.622508
 30
0.0
 10
103.842030
 20
196.126974
 30
0.0
 10
104.306267
 20
195.858820
 30
0.0
  0
SPLINE
  5
132
100
AcDbEntity
  8
Layer_1
 62
7
100
AcDbSpline
 70
8
 71
3
 72
8
 73
4
 74
0
 40
0
 40
0
 40
0
 40
0
 40
1
 40
1
 40
1
 40
1
 10
104.306267
 20
195.858820
 30
0.0
 10
104.770503
 20
195.590667
 30
0.0
 10
105.342562
 20
195.590667
 30
0.0
 10
105.806798
 20
195.858820
 30
0.0
  0
SPLINE
  5
133
100
AcDbEntity
  8
Layer_1
 62
7
100
AcDbSpline
 70
8
 71
3
 72
8
 73
4
 74
0
 40
0
 40
0
 40
0
 40
0
 40
1
 40
1
 40
1
 40
1
 10
105.806798
 20
195.858820
 30
0.0
 10
106.271035
 20
196.126974
 30
0.0
 10
106.556861
 20
196.622508
 30
0.0
 10
106.556532
 20
197.158625
 30
0.0
  0
LWPOLYLINE
  5
134
100
AcDbEntity
  8
Layer_1
 62
7
100
AcDbPolyline
 90
6
 70
1
 10
108.056532
 20
134.828634
 30
0.0
 10
24.236532
 20
134.828634
 30
0.0
 10
24.236532
 20
200.158625
 30
0.0
 10
108.056532
 20
200.158625
 30
0.0
 10
108.056532
 20
134.828634
 30
0.0
 10
108.056532
 20
134.828634
 30
0.0
  0
SPLINE
  5
135
100
AcDbEntity
  8
Layer_1
 62
7
100
AcDbSpline
 70
8
 71
3
 72
8
 73
4
 74
0
 40
0
 40
0
 40
0
 40
0
 40
1
 40
1
 40
1
 40
1
 10
106.556532
 20
197.158625
 30
0.0
 10
106.556861
 20
197.694743
 30
0.0
 10
106.271035
 20
198.190277
 30
0.0
 10
105.806798
 20
198.458430
 30
0.0
  0
SPLINE
  5
136
100
AcDbEntity
  8
Layer_1
 62
7
100
AcDbSpline
 70
8
 71
3
 72
8
 73
4
 74
0
 40
0
 40
0
 40
0
 40
0
 40
1
 40
1
 40
1
 40
1
 10
105.806798
 20
198.458430
 30
0.0
 10
105.342562
 20
198.726584
 30
0.0
 10
104.770503
 20
198.726584
 30
0.0
 10
104.306267
 20
198.458430
 30
0.0
  0
SPLINE
  5
137
100
AcDbEntity
  8
Layer_1
 62
7
100
AcDbSpline
 70
8
 71
3
 72
8
 73
4
 74
0
 40
0
 40
0
 40
0
 40
0
 40
1
 40
1
 40
1
 40
1
 10
104.306267
 20
198.458430
 30
0.0
 10
103.842030
 20
198.190277
 30
0.0
 10
103.556204
 20
197.694743
 30
0.0
 10
103.556533
 20
197.158625
 30
0.0
  0
SPLINE
  5
138
100
AcDbEntity
  8
Layer_1
 62
7
100
AcDbSpline
 70
8
 71
3
 72
8
 73
4
 74
0
 40
0
 40
0
 40
0
 40
0
 40
1
 40
1
 40
1
 40
1
 10
103.556533
 20
197.158625
 30
0.0
 10
103.556204
 20
196.622508
 30
0.0
 10
103.842030
 20
196.126974
 30
0.0
 10
104.306267
 20
195.858820
 30
0.0
  0
SPLINE
  5
139
100
AcDbEntity
  8
Layer_1
 62
7
100
AcDbSpline
 70
8
 71
3
 72
8
 73
4
 74
0
 40
0
 40
0
 40
0
 40
0
 40
1
 40
1
 40
1
 40
1
 10
104.306267
 20
195.858820
 30
0.0
 10
104.770503
 20
195.590667
 30
0.0
 10
105.342562
 20
195.590667
 30
0.0
 10
105.806798
 20
195.858820
 30
0.0
  0
SPLINE
  5
13a
100
AcDbEntity
  8
Layer_1
 62
7
100
AcDbSpline
 70
8
 71
3
 72
8
 73
4
 74
0
 40
0
 40
0
 40
0
 40
0
 40
1
 40
1
 40
1
 40
1
 10
105.806798
 20
195.858820
 30
0.0
 10
106.271035
 20
196.126974
 30
0.0
 10
106.556861
 20
196.622508
 30
0.0
 10
106.556532
 20
197.158625
 30
0.0
  0
SPLINE
  5
13b
100
AcDbEntity
  8
Layer_1
 62
7
100
AcDbSpline
 70
8
 71
3
 72
8
 73
4
 74
0
 40
0
 40
0
 40
0
 40
0
 40
1
 40
1
 40
1
 40
1
 10
28.736532
 20
137.828628
 30
0.0
 10
28.736860
 20
138.364746
 30
0.0
 10
28.451034
 20
138.860279
 30
0.0
 10
27.986797
 20
139.128433
 30
0.0
  0
SPLINE
  5
13c
100
AcDbEntity
  8
Layer_1
 62
7
100
AcDbSpline
 70
8
 71
3
 72
8
 73
4
 74
0
 40
0
 40
0
 40
0
 40
0
 40
1
 40
1
 40
1
 40
1
 10
27.986797
 20
139.128433
 30
0.0
 10
27.522561
 20
139.396587
 30
0.0
 10
26.950503
 20
139.396587
 30
0.0
 10
26.486266
 20
139.128433
 30
0.0
  0
SPLINE
  5
13d
100
AcDbEntity
  8
Layer_1
 62
7
100
AcDbSpline
 70
8
 71
3
 72
8
 73
4
 74
0
 40
0
 40
0
 40
0
 40
0
 40
1
 40
1
 40
1
 40
1
 10
26.486266
 20
139.128433
 30
0.0
 10
26.022029
 20
138.860279
 30
0.0
 10
25.736203
 20
138.364746
 30
0.0
 10
25.736532
 20
137.828628
 30
0.0
  0
SPLINE
  5
13e
100
AcDbEntity
  8
Layer_1
 62
7
100
AcDbSpline
 70
8
 71
3
 72
8
 73
4
 74
0
 40
0
 40
0
 40
0
 40
0
 40
1
 40
1
 40
1
 40
1
 10
25.736532
 20
137.828628
 30
0.0
 10
25.736203
 20
137.292511
 30
0.0
 10
26.022029
 20
136.796977
 30
0.0
 10
26.486266
 20
136.528823
 30
0.0
  0
SPLINE
  5
13f
100
AcDbEntity
  8
Layer_1
 62
7
100
AcDbSpline
 70
8
 71
3
 72
8
 73
4
 74
0
 40
0
 40
0
 40
0
 40
0
 40
1
 40
1
 40
1
 40
1
 10
26.486266
 20
136.528823
 30
0.0
 10
26.950503
 20
136.260669
 30
0.0
 10
27.522561
 20
136.260669
 30
0.0
 10
27.986797
 20
136.528823
 30
0.0
  0
SPLINE
  5
140
100
AcDbEntity
  8
Layer_1
 62
7
100
AcDbSpline
 70
8
 71
3
 72
8
 73
4
 74
0
 40
0
 40
0
 40
0
 40
0
 40
1
 40
1
 40
1
 40
1
 10
27.986797
 20
136.528823
 30
0.0
 10
28.451034
 20
136.796977
 30
0.0
 10
28.736860
 20
137.292511
 30
0.0
 10
28.736532
 20
137.828628
 30
0.0
  0
LWPOLYLINE
  5
141
100
AcDbEntity
  8
Layer_1
 62
7
100
AcDbPolyline
 90
3
 70
1
 10
106.556532
 20
197.158625
 30
0.0
 10
106.556532
 20
197.158625
 30
0.0
 10
106.556532
 20
197.158625
 30
0.0
  0
SPLINE
  5
142
100
AcDbEntity
  8
Layer_1
 62
7
100
AcDbSpline
 70
8
 71
3
 72
8
 73
4
 74
0
 40
0
 40
0
 40
0
 40
0
 40
1
 40
1
 40
1
 40
1
 10
28.736532
 20
137.828628
 30
0.0
 10
28.736860
 20
138.364746
 30
0.0
 10
28.451034
 20
138.860279
 30
0.0
 10
27.986797
 20
139.128433
 30
0.0
  0
SPLINE
  5
143
100
AcDbEntity
  8
Layer_1
 62
7
100
AcDbSpline
 70
8
 71
3
 72
8
 73
4
 74
0
 40
0
 40
0
 40
0
 40
0
 40
1
 40
1
 40
1
 40
1
 10
27.986797
 20
139.128433
 30
0.0
 10
27.522561
 20
139.396587
 30
0.0
 10
26.950503
 20
139.396587
 30
0.0
 10
26.486266
 20
139.128433
 30
0.0
  0
SPLINE
  5
144
100
AcDbEntity
  8
Layer_1
 62
7
100
AcDbSpline
 70
8
 71
3
 72
8
 73
4
 74
0
 40
0
 40
0
 40
0
 40
0
 40
1
 40
1
 40
1
 40
1
 10
26.486266
 20
139.128433
 30
0.0
 10
26.022029
 20
138.860279
 30
0.0
 10
25.736203
 20
138.364746
 30
0.0
 10
25.736532
 20
137.828628
 30
0.0
  0
SPLINE
  5
145
100
AcDbEntity
  8
Layer_1
 62
7
100
AcDbSpline
 70
8
 71
3
 72
8
 73
4
 74
0
 40
0
 40
0
 40
0
 40
0
 40
1
 40
1
 40
1
 40
1
 10
25.736532
 20
137.828628
 30
0.0
 10
25.736203
 20
137.292511
 30
0.0
 10
26.022029
 20
136.796977
 30
0.0
 10
26.486266
 20
136.528823
 30
0.0
  0
SPLINE
  5
146
100
AcDbEntity
  8
Layer_1
 62
7
100
AcDbSpline
 70
8
 71
3
 72
8
 73
4
 74
0
 40
0
 40
0
 40
0
 40
0
 40
1
 40
1
 40
1
 40
1
 10
26.486266
 20
136.528823
 30
0.0
 10
26.950503
 20
136.260669
 30
0.0
 10
27.522561
 20
136.260669
 30
0.0
 10
27.986797
 20
136.528823
 30
0.0
  0
SPLINE
  5
147
100
AcDbEntity
  8
Layer_1
 62
7
100
AcDbSpline
 70
8
 71
3
 72
8
 73
4
 74
0
 40
0
 40
0
 40
0
 40
0
 40
1
 40
1
 40
1
 40
1
 10
27.986797
 20
136.528823
 30
0.0
 10
28.451034
 20
136.796977
 30
0.0
 10
28.736860
 20
137.292511
 30
0.0
 10
28.736532
 20
137.828628
 30
0.0
  0
LWPOLYLINE
  5
148
100
AcDbEntity
  8
Layer_1
 62
7
100
AcDbPolyline
 90
3
 70
1
 10
28.736532
 20
137.828628
 30
0.0
 10
28.736532
 20
137.828628
 30
0.0
 10
28.736532
 20
137.828628
 30
0.0
  0
LWPOLYLINE
  5
149
100
AcDbEntity
  8
Layer_1
 62
7
100
AcDbPolyline
 90
6
 70
1
 10
63.856532
 20
185.158627
 30
0.0
 10
33.236531
 20
185.158627
 30
0.0
 10
33.236531
 20
140.828622
 30
0.0
 10
63.856532
 20
140.828622
 30
0.0
 10
63.856532
 20
185.158627
 30
0.0
 10
63.856532
 20
185.158627
 30
0.0
  0
LWPOLYLINE
  5
14a
100
AcDbEntity
  8
Layer_1
 62
7
100
AcDbPolyline
 90
6
 70
1
 10
99.056533
 20
192.158624
 30
0.0
 10
73.806532
 20
192.158624
 30
0.0
 10
73.806532
 20
154.828622
 30
0.0
 10
99.056533
 20
154.828622
 30
0.0
 10
99.056533
 20
192.158624
 30
0.0
 10
99.056533
 20
192.158624
 30
0.0
  0
SPLINE
  5
14b
100
AcDbEntity
  8
Layer_1
 62
7
100
AcDbSpline
 70
8
 71
3
 72
8
 73
4
 74
0
 40
0
 40
0
 40
0
 40
0
 40
1
 40
1
 40
1
 40
1
 10
194.434096
 20
197.158625
 30
0.0
 10
194.434425
 20
197.694743
 30
0.0
 10
194.148598
 20
198.190277
 30
0.0
 10
193.684362
 20
198.458430
 30
0.0
  0
SPLINE
  5
14c
100
AcDbEntity
  8
Layer_1
 62
7
100
AcDbSpline
 70
8
 71
3
 72
8
 73
4
 74
0
 40
0
 40
0
 40
0
 40
0
 40
1
 40
1
 40
1
 40
1
 10
193.684362
 20
198.458430
 30
0.0
 10
193.220125
 20
198.726584
 30
0.0
 10
192.648067
 20
198.726584
 30
0.0
 10
192.183830
 20
198.458430
 30
0.0
  0
SPLINE
  5
14d
100
AcDbEntity
  8
Layer_1
 62
7
100
AcDbSpline
 70
8
 71
3
 72
8
 73
4
 74
0
 40
0
 40
0
 40
0
 40
0
 40
1
 40
1
 40
1
 40
1
 10
192.183830
 20
198.458430
 30
0.0
 10
191.719594
 20
198.190277
 30
0.0
 10
191.433767
 20
197.694743
 30
0.0
 10
191.434096
 20
197.158625
 30
0.0
  0
SPLINE
  5
14e
100
AcDbEntity
  8
Layer_1
 62
7
100
AcDbSpline
 70
8
 71
3
 72
8
 73
4
 74
0
 40
0
 40
0
 40
0
 40
0
 40
1
 40
1
 40
1
 40
1
 10
191.434096
 20
197.158625
 30
0.0
 10
191.433767
 20
196.622508
 30
0.0
 10
191.719594
 20
196.126974
 30
0.0
 10
192.183830
 20
195.858820
 30
0.0
  0
SPLINE
  5
14f
100
AcDbEntity
  8
Layer_1
 62
7
100
AcDbSpline
 70
8
 71
3
 72
8
 73
4
 74
0
 40
0
 40
0
 40
0
 40
0
 40
1
 40
1
 40
1
 40
1
 10
192.183830
 20
195.858820
 30
0.0
 10
192.648067
 20
195.590667
 30
0.0
 10
193.220125
 20
195.590667
 30
0.0
 10
193.684362
 20
195.858820
 30
0.0
  0
SPLINE
  5
150
100
AcDbEntity
  8
Layer_1
 62
7
100
AcDbSpline
 70
8
 71
3
 72
8
 73
4
 74
0
 40
0
 40
0
 40
0
 40
0
 40
1
 40
1
 40
1
 40
1
 10
193.684362
 20
195.858820
 30
0.0
 10
194.148598
 20
196.126974
 30
0.0
 10
194.434425
 20
196.622508
 30
0.0
 10
194.434096
 20
197.158625
 30
0.0
  0
LWPOLYLINE
  5
151
100
AcDbEntity
  8
Layer_1
 62
7
100
AcDbPolyline
 90
6
 70
1
 10
195.934096
 20
134.828634
 30
0.0
 10
112.114096
 20
134.828634
 30
0.0
 10
112.114096
 20
200.158625
 30
0.0
 10
195.934096
 20
200.158625
 30
0.0
 10
195.934096
 20
134.828634
 30
0.0
 10
195.934096
 20
134.828634
 30
0.0
  0
SPLINE
  5
152
100
AcDbEntity
  8
Layer_1
 62
7
100
AcDbSpline
 70
8
 71
3
 72
8
 73
4
 74
0
 40
0
 40
0
 40
0
 40
0
 40
1
 40
1
 40
1
 40
1
 10
194.434096
 20
197.158625
 30
0.0
 10
194.434425
 20
197.694743
 30
0.0
 10
194.148598
 20
198.190277
 30
0.0
 10
193.684362
 20
198.458430
 30
0.0
  0
SPLINE
  5
153
100
AcDbEntity
  8
Layer_1
 62
7
100
AcDbSpline
 70
8
 71
3
 72
8
 73
4
 74
0
 40
0
 40
0
 40
0
 40
0
 40
1
 40
1
 40
1
 40
1
 10
193.684362
 20
198.458430
 30
0.0
 10
193.220125
 20
198.726584
 30
0.0
 10
192.648067
 20
198.726584
 30
0.0
 10
192.183830
 20
198.458430
 30
0.0
  0
SPLINE
  5
154
100
AcDbEntity
  8
Layer_1
 62
7
100
AcDbSpline
 70
8
 71
3
 72
8
 73
4
 74
0
 40
0
 40
0
 40
0
 40
0
 40
1
 40
1
 40
1
 40
1
 10
192.183830
 20
198.458430
 30
0.0
 10
191.719594
 20
198.190277
 30
0.0
 10
191.433767
 20
197.694743
 30
0.0
 10
191.434096
 20
197.158625
 30
0.0
  0
SPLINE
  5
155
100
AcDbEntity
  8
Layer_1
 62
7
100
AcDbSpline
 70
8
 71
3
 72
8
 73
4
 74
0
 40
0
 40
0
 40
0
 40
0
 40
1
 40
1
 40
1
 40
1
 10
191.434096
 20
197.158625
 30
0.0
 10
191.433767
 20
196.622508
 30
0.0
 10
191.719594
 20
196.126974
 30
0.0
 10
192.183830
 20
195.858820
 30
0.0
  0
SPLINE
  5
156
100
AcDbEntity
  8
Layer_1
 62
7
100
AcDbSpline
 70
8
 71
3
 72
8
 73
4
 74
0
 40
0
 40
0
 40
0
 40
0
 40
1
 40
1
 40
1
 40
1
 10
192.183830
 20
195.858820
 30
0.0
 10
192.648067
 20
195.590667
 30
0.0
 10
193.220125
 20
195.590667
 30
0.0
 10
193.684362
 20
195.858820
 30
0.0
  0
SPLINE
  5
157
100
AcDbEntity
  8
Layer_1
 62
7
100
AcDbSpline
 70
8
 71
3
 72
8
 73
4
 74
0
 40
0
 40
0
 40
0
 40
0
 40
1
 40
1
 40
1
 40
1
 10
193.684362
 20
195.858820
 30
0.0
 10
194.148598
 20
196.126974
 30
0.0
 10
194.434425
 20
196.622508
 30
0.0
 10
194.434096
 20
197.158625
 30
0.0
  0
SPLINE
  5
158
100
AcDbEntity
  8
Layer_1
 62
7
100
AcDbSpline
 70
8
 71
3
 72
8
 73
4
 74
0
 40
0
 40
0
 40
0
 40
0
 40
1
 40
1
 40
1
 40
1
 10
116.614095
 20
137.828628
 30
0.0
 10
116.614424
 20
138.364746
 30
0.0
 10
116.328598
 20
138.860279
 30
0.0
 10
115.864361
 20
139.128433
 30
0.0
  0
SPLINE
  5
159
100
AcDbEntity
  8
Layer_1
 62
7
100
AcDbSpline
 70
8
 71
3
 72
8
 73
4
 74
0
 40
0
 40
0
 40
0
 40
0
 40
1
 40
1
 40
1
 40
1
 10
115.864361
 20
139.128433
 30
0.0
 10
115.400124
 20
139.396587
 30
0.0
 10
114.828066
 20
139.396587
 30
0.0
 10
114.363830
 20
139.128433
 30
0.0
  0
SPLINE
  5
15a
100
AcDbEntity
  8
Layer_1
 62
7
100
AcDbSpline
 70
8
 71
3
 72
8
 73
4
 74
0
 40
0
 40
0
 40
0
 40
0
 40
1
 40
1
 40
1
 40
1
 10
114.363830
 20
139.128433
 30
0.0
 10
113.899593
 20
138.860279
 30
0.0
 10
113.613767
 20
138.364746
 30
0.0
 10
113.614096
 20
137.828628
 30
0.0
  0
SPLINE
  5
15b
100
AcDbEntity
  8
Layer_1
 62
7
100
AcDbSpline
 70
8
 71
3
 72
8
 73
4
 74
0
 40
0
 40
0
 40
0
 40
0
 40
1
 40
1
 40
1
 40
1
 10
113.614096
 20
137.828628
 30
0.0
 10
113.613767
 20
137.292511
 30
0.0
 10
113.899593
 20
136.796977
 30
0.0
 10
114.363830
 20
136.528823
 30
0.0
  0
SPLINE
  5
15c
100
AcDbEntity
  8
Layer_1
 62
7
100
AcDbSpline
 70
8
 71
3
 72
8
 73
4
 74
0
 40
0
 40
0
 40
0
 40
0
 40
1
 40
1
 40
1
 40
1
 10
114.363830
 20
136.528823
 30
0.0
 10
114.828066
 20
136.260669
 30
0.0
 10
115.400124
 20
136.260669
 30
0.0
 10
115.864361
 20
136.528823
 30
0.0
  0
SPLINE
  5
15d
100
AcDbEntity
  8
Layer_1
 62
7
100
AcDbSpline
 70
8
 71
3
 72
8
 73
4
 74
0
 40
0
 40
0
 40
0
 40
0
 40
1
 40
1
 40
1
 40
1
 10
115.864361
 20
136.528823
 30
0.0
 10
116.328598
 20
136.796977
 30
0.0
 10
116.614424
 20
137.292511
 30
0.0
 10
116.614095
 20
137.828628
 30
0.0
  0
LWPOLYLINE
  5
15e
100
AcDbEntity
  8
Layer_1
 62
7
100
AcDbPolyline
 90
3
 70
1
 10
194.434096
 20
197.158625
 30
0.0
 10
194.434096
 20
197.158625
 30
0.0
 10
194.434096
 20
197.158625
 30
0.0
  0
SPLINE
  5
15f
100
AcDbEntity
  8
Layer_1
 62
7
100
AcDbSpline
 70
8
 71
3
 72
8
 73
4
 74
0
 40
0
 40
0
 40
0
 40
0
 40
1
 40
1
 40
1
 40
1
 10
116.614095
 20
137.828628
 30
0.0
 10
116.614424
 20
138.364746
 30
0.0
 10
116.328598
 20
138.860279
 30
0.0
 10
115.864361
 20
139.128433
 30
0.0
  0
SPLINE
  5
160
100
AcDbEntity
  8
Layer_1
 62
7
100
AcDbSpline
 70
8
 71
3
 72
8
 73
4
 74
0
 40
0
 40
0
 40
0
 40
0
 40
1
 40
1
 40
1
 40
1
 10
115.864361
 20
139.128433
 30
0.0
 10
115.400124
 20
139.396587
 30
0.0
 10
114.828066
 20
139.396587
 30
0.0
 10
114.363830
 20
139.128433
 30
0.0
  0
SPLINE
  5
161
100
AcDbEntity
  8
Layer_1
 62
7
100
AcDbSpline
 70
8
 71
3
 72
8
 73
4
 74
0
 40
0
 40
0
 40
0
 40
0
 40
1
 40
1
 40
1
 40
1
 10
114.363830
 20
139.128433
 30
0.0
 10
113.899593
 20
138.860279
 30
0.0
 10
113.613767
 20
138.364746
 30
0.0
 10
113.614096
 20
137.828628
 30
0.0
  0
SPLINE
  5
162
100
AcDbEntity
  8
Layer_1
 62
7
100
AcDbSpline
 70
8
 71
3
 72
8
 73
4
 74
0
 40
0
 40
0
 40
0
 40
0
 40
1
 40
1
 40
1
 40
1
 10
113.614096
 20
137.828628
 30
0.0
 10
113.613767
 20
137.292511
 30
0.0
 10
113.899593
 20
136.796977
 30
0.0
 10
114.363830
 20
136.528823
 30
0.0
  0
SPLINE
  5
163
100
AcDbEntity
  8
Layer_1
 62
7
100
AcDbSpline
 70
8
 71
3
 72
8
 73
4
 74
0
 40
0
 40
0
 40
0
 40
0
 40
1
 40
1
 40
1
 40
1
 10
114.363830
 20
136.528823
 30
0.0
 10
114.828066
 20
136.260669
 30
0.0
 10
115.400124
 20
136.260669
 30
0.0
 10
115.864361
 20
136.528823
 30
0.0
  0
SPLINE
  5
164
100
AcDbEntity
  8
Layer_1
 62
7
100
AcDbSpline
 70
8
 71
3
 72
8
 73
4
 74
0
 40
0
 40
0
 40
0
 40
0
 40
1
 40
1
 40
1
 40
1
 10
115.864361
 20
136.528823
 30
0.0
 10
116.328598
 20
136.796977
 30
0.0
 10
116.614424
 20
137.292511
 30
0.0
 10
116.614095
 20
137.828628
 30
0.0
  0
LWPOLYLINE
  5
165
100
AcDbEntity
  8
Layer_1
 62
7
100
AcDbPolyline
 90
3
 70
1
 10
116.614095
 20
137.828628
 30
0.0
 10
116.614095
 20
137.828628
 30
0.0
 10
116.614095
 20
137.828628
 30
0.0
  0
LWPOLYLINE
  5
166
100
AcDbEntity
  8
Layer_1
 62
7
100
AcDbPolyline
 90
6
 70
1
 10
151.734096
 20
185.158627
 30
0.0
 10
121.114095
 20
185.158627
 30
0.0
 10
121.114095
 20
140.828622
 30
0.0
 10
151.734096
 20
140.828622
 30
0.0
 10
151.734096
 20
185.158627
 30
0.0
 10
151.734096
 20
185.158627
 30
0.0
  0
LWPOLYLINE
  5
167
100
AcDbEntity
  8
Layer_1
 62
7
100
AcDbPolyline
 90
6
 70
1
 10
186.934097
 20
192.158624
 30
0.0
 10
161.684096
 20
192.158624
 30
0.0
 10
161.684096
 20
154.828622
 30
0.0
 10
186.934097
 20
154.828622
 30
0.0
 10
186.934097
 20
192.158624
 30
0.0
 10
186.934097
 20
192.158624
 30
0.0
  0
SPLINE
  5
168
100
AcDbEntity
  8
Layer_1
 62
7
100
AcDbSpline
 70
8
 71
3
 72
8
 73
4
 74
0
 40
0
 40
0
 40
0
 40
0
 40
1
 40
1
 40
1
 40
1
 10
106.556532
 20
268.344361
 30
0.0
 10
106.556861
 20
268.880478
 30
0.0
 10
106.271035
 20
269.376012
 30
0.0
 10
105.806798
 20
269.644166
 30
0.0
  0
SPLINE
  5
169
100
AcDbEntity
  8
Layer_1
 62
7
100
AcDbSpline
 70
8
 71
3
 72
8
 73
4
 74
0
 40
0
 40
0
 40
0
 40
0
 40
1
 40
1
 40
1
 40
1
 10
105.806798
 20
269.644166
 30
0.0
 10
105.342562
 20
269.912319
 30
0.0
 10
104.770503
 20
269.912319
 30
0.0
 10
104.306267
 20
269.644166
 30
0.0
  0
SPLINE
  5
16a
100
AcDbEntity
  8
Layer_1
 62
7
100
AcDbSpline
 70
8
 71
3
 72
8
 73
4
 74
0
 40
0
 40
0
 40
0
 40
0
 40
1
 40
1
 40
1
 40
1
 10
104.306267
 20
269.644166
 30
0.0
 10
103.842030
 20
269.376012
 30
0.0
 10
103.556204
 20
268.880478
 30
0.0
 10
103.556533
 20
268.344361
 30
0.0
  0
SPLINE
  5
16b
100
AcDbEntity
  8
Layer_1
 62
7
100
AcDbSpline
 70
8
 71
3
 72
8
 73
4
 74
0
 40
0
 40
0
 40
0
 40
0
 40
1
 40
1
 40
1
 40
1
 10
103.556533
 20
268.344361
 30
0.0
 10
103.556204
 20
267.808243
 30
0.0
 10
103.842030
 20
267.312709
 30
0.0
 10
104.306267
 20
267.044556
 30
0.0
  0
SPLINE
  5
16c
100
AcDbEntity
  8
Layer_1
 62
7
100
AcDbSpline
 70
8
 71
3
 72
8
 73
4
 74
0
 40
0
 40
0
 40
0
 40
0
 40
1
 40
1
 40
1
 40
1
 10
104.306267
 20
267.044556
 30
0.0
 10
104.770503
 20
266.776402
 30
0.0
 10
105.342562
 20
266.776402
 30
0.0
 10
105.806798
 20
267.044556
 30
0.0
  0
SPLINE
  5
16d
100
AcDbEntity
  8
Layer_1
 62
7
100
AcDbSpline
 70
8
 71
3
 72
8
 73
4
 74
0
 40
0
 40
0
 40
0
 40
0
 40
1
 40
1
 40
1
 40
1
 10
105.806798
 20
267.044556
 30
0.0
 10
106.271035
 20
267.312709
 30
0.0
 10
106.556861
 20
267.808243
 30
0.0
 10
106.556532
 20
268.344361
 30
0.0
  0
LWPOLYLINE
  5
16e
100
AcDbEntity
  8
Layer_1
 62
7
100
AcDbPolyline
 90
6
 70
1
 10
108.056532
 20
206.014369
 30
0.0
 10
24.236532
 20
206.014369
 30
0.0
 10
24.236532
 20
271.344360
 30
0.0
 10
108.056532
 20
271.344360
 30
0.0
 10
108.056532
 20
206.014369
 30
0.0
 10
108.056532
 20
206.014369
 30
0.0
  0
SPLINE
  5
16f
100
AcDbEntity
  8
Layer_1
 62
7
100
AcDbSpline
 70
8
 71
3
 72
8
 73
4
 74
0
 40
0
 40
0
 40
0
 40
0
 40
1
 40
1
 40
1
 40
1
 10
106.556532
 20
268.344361
 30
0.0
 10
106.556861
 20
268.880478
 30
0.0
 10
106.271035
 20
269.376012
 30
0.0
 10
105.806798
 20
269.644166
 30
0.0
  0
SPLINE
  5
170
100
AcDbEntity
  8
Layer_1
 62
7
100
AcDbSpline
 70
8
 71
3
 72
8
 73
4
 74
0
 40
0
 40
0
 40
0
 40
0
 40
1
 40
1
 40
1
 40
1
 10
105.806798
 20
269.644166
 30
0.0
 10
105.342562
 20
269.912319
 30
0.0
 10
104.770503
 20
269.912319
 30
0.0
 10
104.306267
 20
269.644166
 30
0.0
  0
SPLINE
  5
171
100
AcDbEntity
  8
Layer_1
 62
7
100
AcDbSpline
 70
8
 71
3
 72
8
 73
4
 74
0
 40
0
 40
0
 40
0
 40
0
 40
1
 40
1
 40
1
 40
1
 10
104.306267
 20
269.644166
 30
0.0
 10
103.842030
 20
269.376012
 30
0.0
 10
103.556204
 20
268.880478
 30
0.0
 10
103.556533
 20
268.344361
 30
0.0
  0
SPLINE
  5
172
100
AcDbEntity
  8
Layer_1
 62
7
100
AcDbSpline
 70
8
 71
3
 72
8
 73
4
 74
0
 40
0
 40
0
 40
0
 40
0
 40
1
 40
1
 40
1
 40
1
 10
103.556533
 20
268.344361
 30
0.0
 10
103.556204
 20
267.808243
 30
0.0
 10
103.842030
 20
267.312709
 30
0.0
 10
104.306267
 20
267.044556
 30
0.0
  0
SPLINE
  5
173
100
AcDbEntity
  8
Layer_1
 62
7
100
AcDbSpline
 70
8
 71
3
 72
8
 73
4
 74
0
 40
0
 40
0
 40
0
 40
0
 40
1
 40
1
 40
1
 40
1
 10
104.306267
 20
267.044556
 30
0.0
 10
104.770503
 20
266.776402
 30
0.0
 10
105.342562
 20
266.776402
 30
0.0
 10
105.806798
 20
267.044556
 30
0.0
  0
SPLINE
  5
174
100
AcDbEntity
  8
Layer_1
 62
7
100
AcDbSpline
 70
8
 71
3
 72
8
 73
4
 74
0
 40
0
 40
0
 40
0
 40
0
 40
1
 40
1
 40
1
 40
1
 10
105.806798
 20
267.044556
 30
0.0
 10
106.271035
 20
267.312709
 30
0.0
 10
106.556861
 20
267.808243
 30
0.0
 10
106.556532
 20
268.344361
 30
0.0
  0
SPLINE
  5
175
100
AcDbEntity
  8
Layer_1
 62
7
100
AcDbSpline
 70
8
 71
3
 72
8
 73
4
 74
0
 40
0
 40
0
 40
0
 40
0
 40
1
 40
1
 40
1
 40
1
 10
28.736532
 20
209.014363
 30
0.0
 10
28.736860
 20
209.550481
 30
0.0
 10
28.451034
 20
210.046015
 30
0.0
 10
27.986797
 20
210.314168
 30
0.0
  0
SPLINE
  5
176
100
AcDbEntity
  8
Layer_1
 62
7
100
AcDbSpline
 70
8
 71
3
 72
8
 73
4
 74
0
 40
0
 40
0
 40
0
 40
0
 40
1
 40
1
 40
1
 40
1
 10
27.986797
 20
210.314168
 30
0.0
 10
27.522561
 20
210.582322
 30
0.0
 10
26.950503
 20
210.582322
 30
0.0
 10
26.486266
 20
210.314168
 30
0.0
  0
SPLINE
  5
177
100
AcDbEntity
  8
Layer_1
 62
7
100
AcDbSpline
 70
8
 71
3
 72
8
 73
4
 74
0
 40
0
 40
0
 40
0
 40
0
 40
1
 40
1
 40
1
 40
1
 10
26.486266
 20
210.314168
 30
0.0
 10
26.022029
 20
210.046015
 30
0.0
 10
25.736203
 20
209.550481
 30
0.0
 10
25.736532
 20
209.014363
 30
0.0
  0
SPLINE
  5
178
100
AcDbEntity
  8
Layer_1
 62
7
100
AcDbSpline
 70
8
 71
3
 72
8
 73
4
 74
0
 40
0
 40
0
 40
0
 40
0
 40
1
 40
1
 40
1
 40
1
 10
25.736532
 20
209.014363
 30
0.0
 10
25.736203
 20
208.478246
 30
0.0
 10
26.022029
 20
207.982712
 30
0.0
 10
26.486266
 20
207.714558
 30
0.0
  0
SPLINE
  5
179
100
AcDbEntity
  8
Layer_1
 62
7
100
AcDbSpline
 70
8
 71
3
 72
8
 73
4
 74
0
 40
0
 40
0
 40
0
 40
0
 40
1
 40
1
 40
1
 40
1
 10
26.486266
 20
207.714558
 30
0.0
 10
26.950503
 20
207.446405
 30
0.0
 10
27.522561
 20
207.446405
 30
0.0
 10
27.986797
 20
207.714558
 30
0.0
  0
SPLINE
  5
17a
100
AcDbEntity
  8
Layer_1
 62
7
100
AcDbSpline
 70
8
 71
3
 72
8
 73
4
 74
0
 40
0
 40
0
 40
0
 40
0
 40
1
 40
1
 40
1
 40
1
 10
27.986797
 20
207.714558
 30
0.0
 10
28.451034
 20
207.982712
 30
0.0
 10
28.736860
 20
208.478246
 30
0.0
 10
28.736532
 20
209.014363
 30
0.0
  0
LWPOLYLINE
  5
17b
100
AcDbEntity
  8
Layer_1
 62
7
100
AcDbPolyline
 90
3
 70
1
 10
106.556532
 20
268.344361
 30
0.0
 10
106.556532
 20
268.344361
 30
0.0
 10
106.556532
 20
268.344361
 30
0.0
  0
SPLINE
  5
17c
100
AcDbEntity
  8
Layer_1
 62
7
100
AcDbSpline
 70
8
 71
3
 72
8
 73
4
 74
0
 40
0
 40
0
 40
0
 40
0
 40
1
 40
1
 40
1
 40
1
 10
28.736532
 20
209.014363
 30
0.0
 10
28.736860
 20
209.550481
 30
0.0
 10
28.451034
 20
210.046015
 30
0.0
 10
27.986797
 20
210.314168
 30
0.0
  0
SPLINE
  5
17d
100
AcDbEntity
  8
Layer_1
 62
7
100
AcDbSpline
 70
8
 71
3
 72
8
 73
4
 74
0
 40
0
 40
0
 40
0
 40
0
 40
1
 40
1
 40
1
 40
1
 10
27.986797
 20
210.314168
 30
0.0
 10
27.522561
 20
210.582322
 30
0.0
 10
26.950503
 20
210.582322
 30
0.0
 10
26.486266
 20
210.314168
 30
0.0
  0
SPLINE
  5
17e
100
AcDbEntity
  8
Layer_1
 62
7
100
AcDbSpline
 70
8
 71
3
 72
8
 73
4
 74
0
 40
0
 40
0
 40
0
 40
0
 40
1
 40
1
 40
1
 40
1
 10
26.486266
 20
210.314168
 30
0.0
 10
26.022029
 20
210.046015
 30
0.0
 10
25.736203
 20
209.550481
 30
0.0
 10
25.736532
 20
209.014363
 30
0.0
  0
SPLINE
  5
17f
100
AcDbEntity
  8
Layer_1
 62
7
100
AcDbSpline
 70
8
 71
3
 72
8
 73
4
 74
0
 40
0
 40
0
 40
0
 40
0
 40
1
 40
1
 40
1
 40
1
 10
25.736532
 20
209.014363
 30
0.0
 10
25.736203
 20
208.478246
 30
0.0
 10
26.022029
 20
207.982712
 30
0.0
 10
26.486266
 20
207.714558
 30
0.0
  0
SPLINE
  5
180
100
AcDbEntity
  8
Layer_1
 62
7
100
AcDbSpline
 70
8
 71
3
 72
8
 73
4
 74
0
 40
0
 40
0
 40
0
 40
0
 40
1
 40
1
 40
1
 40
1
 10
26.486266
 20
207.714558
 30
0.0
 10
26.950503
 20
207.446405
 30
0.0
 10
27.522561
 20
207.446405
 30
0.0
 10
27.986797
 20
207.714558
 30
0.0
  0
SPLINE
  5
181
100
AcDbEntity
  8
Layer_1
 62
7
100
AcDbSpline
 70
8
 71
3
 72
8
 73
4
 74
0
 40
0
 40
0
 40
0
 40
0
 40
1
 40
1
 40
1
 40
1
 10
27.986797
 20
207.714558
 30
0.0
 10
28.451034
 20
207.982712
 30
0.0
 10
28.736860
 20
208.478246
 30
0.0
 10
28.736532
 20
209.014363
 30
0.0
  0
LWPOLYLINE
  5
182
100
AcDbEntity
  8
Layer_1
 62
7
100
AcDbPolyline
 90
3
 70
1
 10
28.736532
 20
209.014363
 30
0.0
 10
28.736532
 20
209.014363
 30
0.0
 10
28.736532
 20
209.014363
 30
0.0
  0
LWPOLYLINE
  5
183
100
AcDbEntity
  8
Layer_1
 62
7
100
AcDbPolyline
 90
6
 70
1
 10
63.856532
 20
256.344362
 30
0.0
 10
33.236531
 20
256.344362
 30
0.0
 10
33.236531
 20
212.014357
 30
0.0
 10
63.856532
 20
212.014357
 30
0.0
 10
63.856532
 20
256.344362
 30
0.0
 10
63.856532
 20
256.344362
 30
0.0
  0
LWPOLYLINE
  5
184
100
AcDbEntity
  8
Layer_1
 62
7
100
AcDbPolyline
 90
6
 70
1
 10
99.056533
 20
263.344359
 30
0.0
 10
73.806532
 20
263.344359
 30
0.0
 10
73.806532
 20
226.014358
 30
0.0
 10
99.056533
 20
226.014358
 30
0.0
 10
99.056533
 20
263.344359
 30
0.0
 10
99.056533
 20
263.344359
 30
0.0
  0
LWPOLYLINE
  5
185
100
AcDbEntity
  8
Layer_1
 62
7
100
AcDbPolyline
 90
2
 70
0
 10
112.114097
 20
271.344372
 30
0.0
 10
112.114097
 20
206.014386
 30
0.0
  0
LWPOLYLINE
  5
186
100
AcDbEntity
  8
Layer_1
 62
7
100
AcDbPolyline
 90
4
 70
0
 10
195.934096
 20
206.014386
 30
0.0
 10
195.934096
 20
271.344372
 30
0.0
 10
112.114097
 20
271.344372
 30
0.0
 10
112.114097
 20
206.014386
 30
0.0
  0
LWPOLYLINE
  5
187
100
AcDbEntity
  8
Layer_1
 62
7
100
AcDbPolyline
 90
4
 70
0
 10
119.114097
 20
206.014386
 30
0.0
 10
119.114097
 20
258.344369
 30
0.0
 10
153.734098
 20
258.344369
 30
0.0
 10
153.734098
 20
206.014386
 30
0.0
  0
SPLINE
  5
188
100
AcDbEntity
  8
Layer_1
 62
7
100
AcDbSpline
 70
8
 71
3
 72
8
 73
4
 74
0
 40
0
 40
0
 40
0
 40
0
 40
1
 40
1
 40
1
 40
1
 10
113.614097
 20
209.014380
 30
0.0
 10
113.613864
 20
208.478327
 30
0.0
 10
113.899712
 20
207.982894
 30
0.0
 10
114.363909
 20
207.714800
 30
0.0
  0
SPLINE
  5
189
100
AcDbEntity
  8
Layer_1
 62
7
100
AcDbSpline
 70
8
 71
3
 72
8
 73
4
 74
0
 40
0
 40
0
 40
0
 40
0
 40
1
 40
1
 40
1
 40
1
 10
114.363909
 20
207.714800
 30
0.0
 10
114.828106
 20
207.446706
 30
0.0
 10
115.400088
 20
207.446706
 30
0.0
 10
115.864285
 20
207.714800
 30
0.0
  0
SPLINE
  5
18a
100
AcDbEntity
  8
Layer_1
 62
7
100
AcDbSpline
 70
8
 71
3
 72
8
 73
4
 74
0
 40
0
 40
0
 40
0
 40
0
 40
1
 40
1
 40
1
 40
1
 10
115.864285
 20
207.714800
 30
0.0
 10
116.328482
 20
207.982894
 30
0.0
 10
116.614329
 20
208.478327
 30
0.0
 10
116.614097
 20
209.014380
 30
0.0
  0
SPLINE
  5
18b
100
AcDbEntity
  8
Layer_1
 62
7
100
AcDbSpline
 70
8
 71
3
 72
8
 73
4
 74
0
 40
0
 40
0
 40
0
 40
0
 40
1
 40
1
 40
1
 40
1
 10
116.614097
 20
209.014380
 30
0.0
 10
116.614329
 20
209.550434
 30
0.0
 10
116.328482
 20
210.045867
 30
0.0
 10
115.864285
 20
210.313961
 30
0.0
  0
SPLINE
  5
18c
100
AcDbEntity
  8
Layer_1
 62
7
100
AcDbSpline
 70
8
 71
3
 72
8
 73
4
 74
0
 40
0
 40
0
 40
0
 40
0
 40
1
 40
1
 40
1
 40
1
 10
115.864285
 20
210.313961
 30
0.0
 10
115.400088
 20
210.582054
 30
0.0
 10
114.828106
 20
210.582054
 30
0.0
 10
114.363909
 20
210.313961
 30
0.0
  0
SPLINE
  5
18d
100
AcDbEntity
  8
Layer_1
 62
7
100
AcDbSpline
 70
8
 71
3
 72
8
 73
4
 74
0
 40
0
 40
0
 40
0
 40
0
 40
1
 40
1
 40
1
 40
1
 10
114.363909
 20
210.313961
 30
0.0
 10
113.899712
 20
210.045867
 30
0.0
 10
113.613864
 20
209.550434
 30
0.0
 10
113.614097
 20
209.014380
 30
0.0
  0
LWPOLYLINE
  5
18e
100
AcDbEntity
  8
Layer_1
 62
7
100
AcDbPolyline
 90
6
 70
1
 10
188.934096
 20
209.014380
 30
0.0
 10
188.934096
 20
265.344384
 30
0.0
 10
159.684096
 20
265.344384
 30
0.0
 10
159.684096
 20
209.014380
 30
0.0
 10
188.934096
 20
209.014380
 30
0.0
 10
188.934096
 20
209.014380
 30
0.0
  0
SPLINE
  5
18f
100
AcDbEntity
  8
Layer_1
 62
7
100
AcDbSpline
 70
8
 71
3
 72
8
 73
4
 74
0
 40
0
 40
0
 40
0
 40
0
 40
1
 40
1
 40
1
 40
1
 10
113.614097
 20
209.014380
 30
0.0
 10
113.613864
 20
208.478327
 30
0.0
 10
113.899712
 20
207.982894
 30
0.0
 10
114.363909
 20
207.714800
 30
0.0
  0
SPLINE
  5
190
100
AcDbEntity
  8
Layer_1
 62
7
100
AcDbSpline
 70
8
 71
3
 72
8
 73
4
 74
0
 40
0
 40
0
 40
0
 40
0
 40
1
 40
1
 40
1
 40
1
 10
114.363909
 20
207.714800
 30
0.0
 10
114.828106
 20
207.446706
 30
0.0
 10
115.400088
 20
207.446706
 30
0.0
 10
115.864285
 20
207.714800
 30
0.0
  0
SPLINE
  5
191
100
AcDbEntity
  8
Layer_1
 62
7
100
AcDbSpline
 70
8
 71
3
 72
8
 73
4
 74
0
 40
0
 40
0
 40
0
 40
0
 40
1
 40
1
 40
1
 40
1
 10
115.864285
 20
207.714800
 30
0.0
 10
116.328482
 20
207.982894
 30
0.0
 10
116.614329
 20
208.478327
 30
0.0
 10
116.614097
 20
209.014380
 30
0.0
  0
SPLINE
  5
192
100
AcDbEntity
  8
Layer_1
 62
7
100
AcDbSpline
 70
8
 71
3
 72
8
 73
4
 74
0
 40
0
 40
0
 40
0
 40
0
 40
1
 40
1
 40
1
 40
1
 10
116.614097
 20
209.014380
 30
0.0
 10
116.614329
 20
209.550434
 30
0.0
 10
116.328482
 20
210.045867
 30
0.0
 10
115.864285
 20
210.313961
 30
0.0
  0
SPLINE
  5
193
100
AcDbEntity
  8
Layer_1
 62
7
100
AcDbSpline
 70
8
 71
3
 72
8
 73
4
 74
0
 40
0
 40
0
 40
0
 40
0
 40
1
 40
1
 40
1
 40
1
 10
115.864285
 20
210.313961
 30
0.0
 10
115.400088
 20
210.582054
 30
0.0
 10
114.828106
 20
210.582054
 30
0.0
 10
114.363909
 20
210.313961
 30
0.0
  0
SPLINE
  5
194
100
AcDbEntity
  8
Layer_1
 62
7
100
AcDbSpline
 70
8
 71
3
 72
8
 73
4
 74
0
 40
0
 40
0
 40
0
 40
0
 40
1
 40
1
 40
1
 40
1
 10
114.363909
 20
210.313961
 30
0.0
 10
113.899712
 20
210.045867
 30
0.0
 10
113.613864
 20
209.550434
 30
0.0
 10
113.614097
 20
209.014380
 30
0.0
  0
SPLINE
  5
195
100
AcDbEntity
  8
Layer_1
 62
7
100
AcDbSpline
 70
8
 71
3
 72
8
 73
4
 74
0
 40
0
 40
0
 40
0
 40
0
 40
1
 40
1
 40
1
 40
1
 10
191.434096
 20
268.344378
 30
0.0
 10
191.433767
 20
267.808260
 30
0.0
 10
191.719594
 20
267.312726
 30
0.0
 10
192.183830
 20
267.044573
 30
0.0
  0
SPLINE
  5
196
100
AcDbEntity
  8
Layer_1
 62
7
100
AcDbSpline
 70
8
 71
3
 72
8
 73
4
 74
0
 40
0
 40
0
 40
0
 40
0
 40
1
 40
1
 40
1
 40
1
 10
192.183830
 20
267.044573
 30
0.0
 10
192.648067
 20
266.776419
 30
0.0
 10
193.220125
 20
266.776419
 30
0.0
 10
193.684362
 20
267.044573
 30
0.0
  0
SPLINE
  5
197
100
AcDbEntity
  8
Layer_1
 62
7
100
AcDbSpline
 70
8
 71
3
 72
8
 73
4
 74
0
 40
0
 40
0
 40
0
 40
0
 40
1
 40
1
 40
1
 40
1
 10
193.684362
 20
267.044573
 30
0.0
 10
194.148598
 20
267.312726
 30
0.0
 10
194.434425
 20
267.808260
 30
0.0
 10
194.434096
 20
268.344378
 30
0.0
  0
SPLINE
  5
198
100
AcDbEntity
  8
Layer_1
 62
7
100
AcDbSpline
 70
8
 71
3
 72
8
 73
4
 74
0
 40
0
 40
0
 40
0
 40
0
 40
1
 40
1
 40
1
 40
1
 10
194.434096
 20
268.344378
 30
0.0
 10
194.434425
 20
268.880495
 30
0.0
 10
194.148598
 20
269.376029
 30
0.0
 10
193.684362
 20
269.644183
 30
0.0
  0
SPLINE
  5
199
100
AcDbEntity
  8
Layer_1
 62
7
100
AcDbSpline
 70
8
 71
3
 72
8
 73
4
 74
0
 40
0
 40
0
 40
0
 40
0
 40
1
 40
1
 40
1
 40
1
 10
193.684362
 20
269.644183
 30
0.0
 10
193.220125
 20
269.912336
 30
0.0
 10
192.648067
 20
269.912336
 30
0.0
 10
192.183830
 20
269.644183
 30
0.0
  0
SPLINE
  5
19a
100
AcDbEntity
  8
Layer_1
 62
7
100
AcDbSpline
 70
8
 71
3
 72
8
 73
4
 74
0
 40
0
 40
0
 40
0
 40
0
 40
1
 40
1
 40
1
 40
1
 10
192.183830
 20
269.644183
 30
0.0
 10
191.719594
 20
269.376029
 30
0.0
 10
191.433767
 20
268.880495
 30
0.0
 10
191.434096
 20
268.344378
 30
0.0
  0
LWPOLYLINE
  5
19b
100
AcDbEntity
  8
Layer_1
 62
7
100
AcDbPolyline
 90
3
 70
1
 10
113.614097
 20
209.014380
 30
0.0
 10
113.614097
 20
209.014380
 30
0.0
 10
113.614097
 20
209.014380
 30
0.0
  0
SPLINE
  5
19c
100
AcDbEntity
  8
Layer_1
 62
7
100
AcDbSpline
 70
8
 71
3
 72
8
 73
4
 74
0
 40
0
 40
0
 40
0
 40
0
 40
1
 40
1
 40
1
 40
1
 10
191.434096
 20
268.344378
 30
0.0
 10
191.433767
 20
267.808260
 30
0.0
 10
191.719594
 20
267.312726
 30
0.0
 10
192.183830
 20
267.044573
 30
0.0
  0
SPLINE
  5
19d
100
AcDbEntity
  8
Layer_1
 62
7
100
AcDbSpline
 70
8
 71
3
 72
8
 73
4
 74
0
 40
0
 40
0
 40
0
 40
0
 40
1
 40
1
 40
1
 40
1
 10
192.183830
 20
267.044573
 30
0.0
 10
192.648067
 20
266.776419
 30
0.0
 10
193.220125
 20
266.776419
 30
0.0
 10
193.684362
 20
267.044573
 30
0.0
  0
SPLINE
  5
19e
100
AcDbEntity
  8
Layer_1
 62
7
100
AcDbSpline
 70
8
 71
3
 72
8
 73
4
 74
0
 40
0
 40
0
 40
0
 40
0
 40
1
 40
1
 40
1
 40
1
 10
193.684362
 20
267.044573
 30
0.0
 10
194.148598
 20
267.312726
 30
0.0
 10
194.434425
 20
267.808260
 30
0.0
 10
194.434096
 20
268.344378
 30
0.0
  0
SPLINE
  5
19f
100
AcDbEntity
  8
Layer_1
 62
7
100
AcDbSpline
 70
8
 71
3
 72
8
 73
4
 74
0
 40
0
 40
0
 40
0
 40
0
 40
1
 40
1
 40
1
 40
1
 10
194.434096
 20
268.344378
 30
0.0
 10
194.434425
 20
268.880495
 30
0.0
 10
194.148598
 20
269.376029
 30
0.0
 10
193.684362
 20
269.644183
 30
0.0
  0
SPLINE
  5
1a0
100
AcDbEntity
  8
Layer_1
 62
7
100
AcDbSpline
 70
8
 71
3
 72
8
 73
4
 74
0
 40
0
 40
0
 40
0
 40
0
 40
1
 40
1
 40
1
 40
1
 10
193.684362
 20
269.644183
 30
0.0
 10
193.220125
 20
269.912336
 30
0.0
 10
192.648067
 20
269.912336
 30
0.0
 10
192.183830
 20
269.644183
 30
0.0
  0
SPLINE
  5
1a1
100
AcDbEntity
  8
Layer_1
 62
7
100
AcDbSpline
 70
8
 71
3
 72
8
 73
4
 74
0
 40
0
 40
0
 40
0
 40
0
 40
1
 40
1
 40
1
 40
1
 10
192.183830
 20
269.644183
 30
0.0
 10
191.719594
 20
269.376029
 30
0.0
 10
191.433767
 20
268.880495
 30
0.0
 10
191.434096
 20
268.344378
 30
0.0
  0
SPLINE
  5
1a2
100
AcDbEntity
  8
Layer_1
 62
7
100
AcDbSpline
 70
8
 71
3
 72
8
 73
4
 74
0
 40
0
 40
0
 40
0
 40
0
 40
1
 40
1
 40
1
 40
1
 10
113.614097
 20
268.344378
 30
0.0
 10
113.613864
 20
267.808324
 30
0.0
 10
113.899712
 20
267.312891
 30
0.0
 10
114.363909
 20
267.044797
 30
0.0
  0
SPLINE
  5
1a3
100
AcDbEntity
  8
Layer_1
 62
7
100
AcDbSpline
 70
8
 71
3
 72
8
 73
4
 74
0
 40
0
 40
0
 40
0
 40
0
 40
1
 40
1
 40
1
 40
1
 10
114.363909
 20
267.044797
 30
0.0
 10
114.828106
 20
266.776703
 30
0.0
 10
115.400088
 20
266.776703
 30
0.0
 10
115.864285
 20
267.044797
 30
0.0
  0
SPLINE
  5
1a4
100
AcDbEntity
  8
Layer_1
 62
7
100
AcDbSpline
 70
8
 71
3
 72
8
 73
4
 74
0
 40
0
 40
0
 40
0
 40
0
 40
1
 40
1
 40
1
 40
1
 10
115.864285
 20
267.044797
 30
0.0
 10
116.328482
 20
267.312891
 30
0.0
 10
116.614329
 20
267.808324
 30
0.0
 10
116.614097
 20
268.344378
 30
0.0
  0
SPLINE
  5
1a5
100
AcDbEntity
  8
Layer_1
 62
7
100
AcDbSpline
 70
8
 71
3
 72
8
 73
4
 74
0
 40
0
 40
0
 40
0
 40
0
 40
1
 40
1
 40
1
 40
1
 10
116.614097
 20
268.344378
 30
0.0
 10
116.614329
 20
268.880431
 30
0.0
 10
116.328482
 20
269.375864
 30
0.0
 10
115.864285
 20
269.643958
 30
0.0
  0
SPLINE
  5
1a6
100
AcDbEntity
  8
Layer_1
 62
7
100
AcDbSpline
 70
8
 71
3
 72
8
 73
4
 74
0
 40
0
 40
0
 40
0
 40
0
 40
1
 40
1
 40
1
 40
1
 10
115.864285
 20
269.643958
 30
0.0
 10
115.400088
 20
269.912052
 30
0.0
 10
114.828106
 20
269.912052
 30
0.0
 10
114.363909
 20
269.643958
 30
0.0
  0
SPLINE
  5
1a7
100
AcDbEntity
  8
Layer_1
 62
7
100
AcDbSpline
 70
8
 71
3
 72
8
 73
4
 74
0
 40
0
 40
0
 40
0
 40
0
 40
1
 40
1
 40
1
 40
1
 10
114.363909
 20
269.643958
 30
0.0
 10
113.899712
 20
269.375864
 30
0.0
 10
113.613864
 20
268.880431
 30
0.0
 10
113.614097
 20
268.344378
 30
0.0
  0
LWPOLYLINE
  5
1a8
100
AcDbEntity
  8
Layer_1
 62
7
100
AcDbPolyline
 90
3
 70
1
 10
191.434096
 20
268.344378
 30
0.0
 10
191.434096
 20
268.344378
 30
0.0
 10
191.434096
 20
268.344378
 30
0.0
  0
SPLINE
  5
1a9
100
AcDbEntity
  8
Layer_1
 62
7
100
AcDbSpline
 70
8
 71
3
 72
8
 73
4
 74
0
 40
0
 40
0
 40
0
 40
0
 40
1
 40
1
 40
1
 40
1
 10
191.434096
 20
209.014380
 30
0.0
 10
191.433767
 20
208.478263
 30
0.0
 10
191.719594
 20
207.982729
 30
0.0
 10
192.183830
 20
207.714575
 30
0.0
  0
SPLINE
  5
1aa
100
AcDbEntity
  8
Layer_1
 62
7
100
AcDbSpline
 70
8
 71
3
 72
8
 73
4
 74
0
 40
0
 40
0
 40
0
 40
0
 40
1
 40
1
 40
1
 40
1
 10
192.183830
 20
207.714575
 30
0.0
 10
192.648067
 20
207.446422
 30
0.0
 10
193.220125
 20
207.446422
 30
0.0
 10
193.684362
 20
207.714575
 30
0.0
  0
SPLINE
  5
1ab
100
AcDbEntity
  8
Layer_1
 62
7
100
AcDbSpline
 70
8
 71
3
 72
8
 73
4
 74
0
 40
0
 40
0
 40
0
 40
0
 40
1
 40
1
 40
1
 40
1
 10
193.684362
 20
207.714575
 30
0.0
 10
194.148598
 20
207.982729
 30
0.0
 10
194.434425
 20
208.478263
 30
0.0
 10
194.434096
 20
209.014380
 30
0.0
  0
SPLINE
  5
1ac
100
AcDbEntity
  8
Layer_1
 62
7
100
AcDbSpline
 70
8
 71
3
 72
8
 73
4
 74
0
 40
0
 40
0
 40
0
 40
0
 40
1
 40
1
 40
1
 40
1
 10
194.434096
 20
209.014380
 30
0.0
 10
194.434425
 20
209.550498
 30
0.0
 10
194.148598
 20
210.046031
 30
0.0
 10
193.684362
 20
210.314185
 30
0.0
  0
SPLINE
  5
1ad
100
AcDbEntity
  8
Layer_1
 62
7
100
AcDbSpline
 70
8
 71
3
 72
8
 73
4
 74
0
 40
0
 40
0
 40
0
 40
0
 40
1
 40
1
 40
1
 40
1
 10
193.684362
 20
210.314185
 30
0.0
 10
193.220125
 20
210.582339
 30
0.0
 10
192.648067
 20
210.582339
 30
0.0
 10
192.183830
 20
210.314185
 30
0.0
  0
SPLINE
  5
1ae
100
AcDbEntity
  8
Layer_1
 62
7
100
AcDbSpline
 70
8
 71
3
 72
8
 73
4
 74
0
 40
0
 40
0
 40
0
 40
0
 40
1
 40
1
 40
1
 40
1
 10
192.183830
 20
210.314185
 30
0.0
 10
191.719594
 20
210.046031
 30
0.0
 10
191.433767
 20
209.550498
 30
0.0
 10
191.434096
 20
209.014380
 30
0.0
  0
LWPOLYLINE
  5
1af
100
AcDbEntity
  8
Layer_1
 62
7
100
AcDbPolyline
 90
2
 70
1
 10
113.614097
 20
268.344378
 30
0.0
 10
113.614097
 20
268.344378
 30
0.0
  0
LWPOLYLINE
  5
1b0
100
AcDbEntity
  8
Layer_1
 62
7
100
AcDbPolyline
 90
2
 70
1
 10
191.434096
 20
209.014380
 30
0.0
 10
191.434096
 20
209.014380
 30
0.0
  0
LWPOLYLINE
  5
1b1
100
AcDbEntity
  8
Layer_1
 62
7
100
AcDbPolyline
 90
2
 70
0
 10
112.114097
 20
206.014386
 30
0.0
 10
119.114097
 20
206.014386
 30
0.0
  0
SPLINE
  5
1b2
100
AcDbEntity
  8
Layer_1
 62
7
100
AcDbSpline
 70
8
 71
3
 72
8
 73
4
 74
0
 40
0
 40
0
 40
0
 40
0
 40
1
 40
1
 40
1
 40
1
 10
28.736533
 20
337.262294
 30
0.0
 10
28.736862
 20
337.798411
 30
0.0
 10
28.451035
 20
338.293945
 30
0.0
 10
27.986799
 20
338.562098
 30
0.0
  0
SPLINE
  5
1b3
100
AcDbEntity
  8
Layer_1
 62
7
100
AcDbSpline
 70
8
 71
3
 72
8
 73
4
 74
0
 40
0
 40
0
 40
0
 40
0
 40
1
 40
1
 40
1
 40
1
 10
27.986799
 20
338.562098
 30
0.0
 10
27.522562
 20
338.830252
 30
0.0
 10
26.950504
 20
338.830252
 30
0.0
 10
26.486267
 20
338.562098
 30
0.0
  0
SPLINE
  5
1b4
100
AcDbEntity
  8
Layer_1
 62
7
100
AcDbSpline
 70
8
 71
3
 72
8
 73
4
 74
0
 40
0
 40
0
 40
0
 40
0
 40
1
 40
1
 40
1
 40
1
 10
26.486267
 20
338.562098
 30
0.0
 10
26.022031
 20
338.293945
 30
0.0
 10
25.736204
 20
337.798411
 30
0.0
 10
25.736533
 20
337.262294
 30
0.0
  0
SPLINE
  5
1b5
100
AcDbEntity
  8
Layer_1
 62
7
100
AcDbSpline
 70
8
 71
3
 72
8
 73
4
 74
0
 40
0
 40
0
 40
0
 40
0
 40
1
 40
1
 40
1
 40
1
 10
25.736533
 20
337.262294
 30
0.0
 10
25.736204
 20
336.726176
 30
0.0
 10
26.022031
 20
336.230642
 30
0.0
 10
26.486267
 20
335.962489
 30
0.0
  0
SPLINE
  5
1b6
100
AcDbEntity
  8
Layer_1
 62
7
100
AcDbSpline
 70
8
 71
3
 72
8
 73
4
 74
0
 40
0
 40
0
 40
0
 40
0
 40
1
 40
1
 40
1
 40
1
 10
26.486267
 20
335.962489
 30
0.0
 10
26.950504
 20
335.694335
 30
0.0
 10
27.522562
 20
335.694335
 30
0.0
 10
27.986799
 20
335.962489
 30
0.0
  0
SPLINE
  5
1b7
100
AcDbEntity
  8
Layer_1
 62
7
100
AcDbSpline
 70
8
 71
3
 72
8
 73
4
 74
0
 40
0
 40
0
 40
0
 40
0
 40
1
 40
1
 40
1
 40
1
 10
27.986799
 20
335.962489
 30
0.0
 10
28.451035
 20
336.230642
 30
0.0
 10
28.736862
 20
336.726176
 30
0.0
 10
28.736533
 20
337.262294
 30
0.0
  0
LWPOLYLINE
  5
1b8
100
AcDbEntity
  8
Layer_1
 62
7
100
AcDbPolyline
 90
2
 70
0
 10
153.734098
 20
206.014386
 30
0.0
 10
195.934096
 20
206.014386
 30
0.0
  0
SPLINE
  5
1b9
100
AcDbEntity
  8
Layer_1
 62
7
100
AcDbSpline
 70
8
 71
3
 72
8
 73
4
 74
0
 40
0
 40
0
 40
0
 40
0
 40
1
 40
1
 40
1
 40
1
 10
106.556532
 20
337.262294
 30
0.0
 10
106.556765
 20
337.798347
 30
0.0
 10
106.270917
 20
338.293780
 30
0.0
 10
105.806720
 20
338.561874
 30
0.0
  0
SPLINE
  5
1ba
100
AcDbEntity
  8
Layer_1
 62
7
100
AcDbSpline
 70
8
 71
3
 72
8
 73
4
 74
0
 40
0
 40
0
 40
0
 40
0
 40
1
 40
1
 40
1
 40
1
 10
105.806720
 20
338.561874
 30
0.0
 10
105.342523
 20
338.829968
 30
0.0
 10
104.770541
 20
338.829968
 30
0.0
 10
104.306344
 20
338.561874
 30
0.0
  0
SPLINE
  5
1bb
100
AcDbEntity
  8
Layer_1
 62
7
100
AcDbSpline
 70
8
 71
3
 72
8
 73
4
 74
0
 40
0
 40
0
 40
0
 40
0
 40
1
 40
1
 40
1
 40
1
 10
104.306344
 20
338.561874
 30
0.0
 10
103.842147
 20
338.293780
 30
0.0
 10
103.556300
 20
337.798347
 30
0.0
 10
103.556532
 20
337.262294
 30
0.0
  0
SPLINE
  5
1bc
100
AcDbEntity
  8
Layer_1
 62
7
100
AcDbSpline
 70
8
 71
3
 72
8
 73
4
 74
0
 40
0
 40
0
 40
0
 40
0
 40
1
 40
1
 40
1
 40
1
 10
103.556532
 20
337.262294
 30
0.0
 10
103.556300
 20
336.726240
 30
0.0
 10
103.842147
 20
336.230807
 30
0.0
 10
104.306344
 20
335.962713
 30
0.0
  0
SPLINE
  5
1bd
100
AcDbEntity
  8
Layer_1
 62
7
100
AcDbSpline
 70
8
 71
3
 72
8
 73
4
 74
0
 40
0
 40
0
 40
0
 40
0
 40
1
 40
1
 40
1
 40
1
 10
104.306344
 20
335.962713
 30
0.0
 10
104.770541
 20
335.694619
 30
0.0
 10
105.342523
 20
335.694619
 30
0.0
 10
105.806720
 20
335.962713
 30
0.0
  0
SPLINE
  5
1be
100
AcDbEntity
  8
Layer_1
 62
7
100
AcDbSpline
 70
8
 71
3
 72
8
 73
4
 74
0
 40
0
 40
0
 40
0
 40
0
 40
1
 40
1
 40
1
 40
1
 10
105.806720
 20
335.962713
 30
0.0
 10
106.270917
 20
336.230807
 30
0.0
 10
106.556765
 20
336.726240
 30
0.0
 10
106.556532
 20
337.262294
 30
0.0
  0
LWPOLYLINE
  5
1bf
100
AcDbEntity
  8
Layer_1
 62
7
100
AcDbPolyline
 90
2
 70
1
 10
28.736533
 20
337.262294
 30
0.0
 10
28.736533
 20
337.262294
 30
0.0
  0
SPLINE
  5
1c0
100
AcDbEntity
  8
Layer_1
 62
7
100
AcDbSpline
 70
8
 71
3
 72
8
 73
4
 74
0
 40
0
 40
0
 40
0
 40
0
 40
1
 40
1
 40
1
 40
1
 10
28.736533
 20
277.932296
 30
0.0
 10
28.736862
 20
278.468414
 30
0.0
 10
28.451035
 20
278.963947
 30
0.0
 10
27.986799
 20
279.232101
 30
0.0
  0
SPLINE
  5
1c1
100
AcDbEntity
  8
Layer_1
 62
7
100
AcDbSpline
 70
8
 71
3
 72
8
 73
4
 74
0
 40
0
 40
0
 40
0
 40
0
 40
1
 40
1
 40
1
 40
1
 10
27.986799
 20
279.232101
 30
0.0
 10
27.522562
 20
279.500255
 30
0.0
 10
26.950504
 20
279.500255
 30
0.0
 10
26.486267
 20
279.232101
 30
0.0
  0
SPLINE
  5
1c2
100
AcDbEntity
  8
Layer_1
 62
7
100
AcDbSpline
 70
8
 71
3
 72
8
 73
4
 74
0
 40
0
 40
0
 40
0
 40
0
 40
1
 40
1
 40
1
 40
1
 10
26.486267
 20
279.232101
 30
0.0
 10
26.022031
 20
278.963947
 30
0.0
 10
25.736204
 20
278.468414
 30
0.0
 10
25.736533
 20
277.932296
 30
0.0
  0
SPLINE
  5
1c3
100
AcDbEntity
  8
Layer_1
 62
7
100
AcDbSpline
 70
8
 71
3
 72
8
 73
4
 74
0
 40
0
 40
0
 40
0
 40
0
 40
1
 40
1
 40
1
 40
1
 10
25.736533
 20
277.932296
 30
0.0
 10
25.736204
 20
277.396179
 30
0.0
 10
26.022031
 20
276.900645
 30
0.0
 10
26.486267
 20
276.632491
 30
0.0
  0
SPLINE
  5
1c4
100
AcDbEntity
  8
Layer_1
 62
7
100
AcDbSpline
 70
8
 71
3
 72
8
 73
4
 74
0
 40
0
 40
0
 40
0
 40
0
 40
1
 40
1
 40
1
 40
1
 10
26.486267
 20
276.632491
 30
0.0
 10
26.950504
 20
276.364338
 30
0.0
 10
27.522562
 20
276.364338
 30
0.0
 10
27.986799
 20
276.632491
 30
0.0
  0
SPLINE
  5
1c5
100
AcDbEntity
  8
Layer_1
 62
7
100
AcDbSpline
 70
8
 71
3
 72
8
 73
4
 74
0
 40
0
 40
0
 40
0
 40
0
 40
1
 40
1
 40
1
 40
1
 10
27.986799
 20
276.632491
 30
0.0
 10
28.451035
 20
276.900645
 30
0.0
 10
28.736862
 20
277.396179
 30
0.0
 10
28.736533
 20
277.932296
 30
0.0
  0
LWPOLYLINE
  5
1c6
100
AcDbEntity
  8
Layer_1
 62
7
100
AcDbPolyline
 90
2
 70
1
 10
106.556532
 20
337.262294
 30
0.0
 10
106.556532
 20
337.262294
 30
0.0
  0
SPLINE
  5
1c7
100
AcDbEntity
  8
Layer_1
 62
7
100
AcDbSpline
 70
8
 71
3
 72
8
 73
4
 74
0
 40
0
 40
0
 40
0
 40
0
 40
1
 40
1
 40
1
 40
1
 10
106.556532
 20
277.932296
 30
0.0
 10
106.556765
 20
278.468350
 30
0.0
 10
106.270917
 20
278.963783
 30
0.0
 10
105.806720
 20
279.231877
 30
0.0
  0
SPLINE
  5
1c8
100
AcDbEntity
  8
Layer_1
 62
7
100
AcDbSpline
 70
8
 71
3
 72
8
 73
4
 74
0
 40
0
 40
0
 40
0
 40
0
 40
1
 40
1
 40
1
 40
1
 10
105.806720
 20
279.231877
 30
0.0
 10
105.342523
 20
279.499970
 30
0.0
 10
104.770541
 20
279.499970
 30
0.0
 10
104.306344
 20
279.231877
 30
0.0
  0
SPLINE
  5
1c9
100
AcDbEntity
  8
Layer_1
 62
7
100
AcDbSpline
 70
8
 71
3
 72
8
 73
4
 74
0
 40
0
 40
0
 40
0
 40
0
 40
1
 40
1
 40
1
 40
1
 10
104.306344
 20
279.231877
 30
0.0
 10
103.842147
 20
278.963783
 30
0.0
 10
103.556300
 20
278.468350
 30
0.0
 10
103.556532
 20
277.932296
 30
0.0
  0
SPLINE
  5
1ca
100
AcDbEntity
  8
Layer_1
 62
7
100
AcDbSpline
 70
8
 71
3
 72
8
 73
4
 74
0
 40
0
 40
0
 40
0
 40
0
 40
1
 40
1
 40
1
 40
1
 10
103.556532
 20
277.932296
 30
0.0
 10
103.556300
 20
277.396243
 30
0.0
 10
103.842147
 20
276.900810
 30
0.0
 10
104.306344
 20
276.632716
 30
0.0
  0
SPLINE
  5
1cb
100
AcDbEntity
  8
Layer_1
 62
7
100
AcDbSpline
 70
8
 71
3
 72
8
 73
4
 74
0
 40
0
 40
0
 40
0
 40
0
 40
1
 40
1
 40
1
 40
1
 10
104.306344
 20
276.632716
 30
0.0
 10
104.770541
 20
276.364622
 30
0.0
 10
105.342523
 20
276.364622
 30
0.0
 10
105.806720
 20
276.632716
 30
0.0
  0
SPLINE
  5
1cc
100
AcDbEntity
  8
Layer_1
 62
7
100
AcDbSpline
 70
8
 71
3
 72
8
 73
4
 74
0
 40
0
 40
0
 40
0
 40
0
 40
1
 40
1
 40
1
 40
1
 10
105.806720
 20
276.632716
 30
0.0
 10
106.270917
 20
276.900810
 30
0.0
 10
106.556765
 20
277.396243
 30
0.0
 10
106.556532
 20
277.932296
 30
0.0
  0
LWPOLYLINE
  5
1cd
100
AcDbEntity
  8
Layer_1
 62
7
100
AcDbPolyline
 90
2
 70
1
 10
28.736533
 20
277.932296
 30
0.0
 10
28.736533
 20
277.932296
 30
0.0
  0
LWPOLYLINE
  5
1ce
100
AcDbEntity
  8
Layer_1
 62
7
100
AcDbPolyline
 90
2
 70
1
 10
106.556532
 20
277.932296
 30
0.0
 10
106.556532
 20
277.932296
 30
0.0
  0
LWPOLYLINE
  5
1cf
100
AcDbEntity
  8
Layer_1
 62
7
100
AcDbPolyline
 90
14
 70
1
 10
31.236533
 20
280.932290
 30
0.0
 10
60.486533
 20
280.932290
 30
0.0
 10
60.486533
 20
340.262288
 30
0.0
 10
66.436531
 20
340.262288
 30
0.0
 10
66.436531
 20
287.932304
 30
0.0
 10
101.056532
 20
287.932304
 30
0.0
 10
101.056532
 20
340.262288
 30
0.0
 10
108.056532
 20
340.262288
 30
0.0
 10
108.056532
 20
274.932302
 30
0.0
 10
24.236533
 20
274.932302
 30
0.0
 10
24.236533
 20
340.262288
 30
0.0
 10
31.236533
 20
340.262288
 30
0.0
 10
31.236533
 20
280.932290
 30
0.0
 10
31.236533
 20
280.932290
 30
0.0
  0
LWPOLYLINE
  5
1d0
100
AcDbEntity
  8
Layer_1
 62
7
100
AcDbPolyline
 90
2
 70
0
 10
108.056532
 20
340.262288
 30
0.0
 10
101.056532
 20
340.262288
 30
0.0
  0
LWPOLYLINE
  5
1d1
100
AcDbEntity
  8
Layer_1
 62
7
100
AcDbPolyline
 90
3
 70
0
 10
101.056532
 20
287.932304
 30
0.0
 10
66.436531
 20
287.932304
 30
0.0
 10
66.436531
 20
340.262288
 30
0.0
  0
LWPOLYLINE
  5
1d2
100
AcDbEntity
  8
Layer_1
 62
7
100
AcDbPolyline
 90
2
 70
0
 10
108.056532
 20
340.262288
 30
0.0
 10
108.056532
 20
274.932302
 30
0.0
  0
SPLINE
  5
1d3
100
AcDbEntity
  8
Layer_1
 62
7
100
AcDbSpline
 70
8
 71
3
 72
8
 73
4
 74
0
 40
0
 40
0
 40
0
 40
0
 40
1
 40
1
 40
1
 40
1
 10
106.556532
 20
337.262294
 30
0.0
 10
106.556765
 20
337.798347
 30
0.0
 10
106.270917
 20
338.293780
 30
0.0
 10
105.806720
 20
338.561874
 30
0.0
  0
SPLINE
  5
1d4
100
AcDbEntity
  8
Layer_1
 62
7
100
AcDbSpline
 70
8
 71
3
 72
8
 73
4
 74
0
 40
0
 40
0
 40
0
 40
0
 40
1
 40
1
 40
1
 40
1
 10
105.806720
 20
338.561874
 30
0.0
 10
105.342523
 20
338.829968
 30
0.0
 10
104.770541
 20
338.829968
 30
0.0
 10
104.306344
 20
338.561874
 30
0.0
  0
SPLINE
  5
1d5
100
AcDbEntity
  8
Layer_1
 62
7
100
AcDbSpline
 70
8
 71
3
 72
8
 73
4
 74
0
 40
0
 40
0
 40
0
 40
0
 40
1
 40
1
 40
1
 40
1
 10
104.306344
 20
338.561874
 30
0.0
 10
103.842147
 20
338.293780
 30
0.0
 10
103.556300
 20
337.798347
 30
0.0
 10
103.556532
 20
337.262294
 30
0.0
  0
SPLINE
  5
1d6
100
AcDbEntity
  8
Layer_1
 62
7
100
AcDbSpline
 70
8
 71
3
 72
8
 73
4
 74
0
 40
0
 40
0
 40
0
 40
0
 40
1
 40
1
 40
1
 40
1
 10
103.556532
 20
337.262294
 30
0.0
 10
103.556300
 20
336.726240
 30
0.0
 10
103.842147
 20
336.230807
 30
0.0
 10
104.306344
 20
335.962713
 30
0.0
  0
SPLINE
  5
1d7
100
AcDbEntity
  8
Layer_1
 62
7
100
AcDbSpline
 70
8
 71
3
 72
8
 73
4
 74
0
 40
0
 40
0
 40
0
 40
0
 40
1
 40
1
 40
1
 40
1
 10
104.306344
 20
335.962713
 30
0.0
 10
104.770541
 20
335.694619
 30
0.0
 10
105.342523
 20
335.694619
 30
0.0
 10
105.806720
 20
335.962713
 30
0.0
  0
SPLINE
  5
1d8
100
AcDbEntity
  8
Layer_1
 62
7
100
AcDbSpline
 70
8
 71
3
 72
8
 73
4
 74
0
 40
0
 40
0
 40
0
 40
0
 40
1
 40
1
 40
1
 40
1
 10
105.806720
 20
335.962713
 30
0.0
 10
106.270917
 20
336.230807
 30
0.0
 10
106.556765
 20
336.726240
 30
0.0
 10
106.556532
 20
337.262294
 30
0.0
  0
LWPOLYLINE
  5
1d9
100
AcDbEntity
  8
Layer_1
 62
7
100
AcDbPolyline
 90
2
 70
0
 10
60.486533
 20
280.932290
 30
0.0
 10
31.236533
 20
280.932290
 30
0.0
  0
SPLINE
  5
1da
100
AcDbEntity
  8
Layer_1
 62
7
100
AcDbSpline
 70
8
 71
3
 72
8
 73
4
 74
0
 40
0
 40
0
 40
0
 40
0
 40
1
 40
1
 40
1
 40
1
 10
28.736533
 20
337.262294
 30
0.0
 10
28.736862
 20
337.798411
 30
0.0
 10
28.451035
 20
338.293945
 30
0.0
 10
27.986799
 20
338.562098
 30
0.0
  0
SPLINE
  5
1db
100
AcDbEntity
  8
Layer_1
 62
7
100
AcDbSpline
 70
8
 71
3
 72
8
 73
4
 74
0
 40
0
 40
0
 40
0
 40
0
 40
1
 40
1
 40
1
 40
1
 10
27.986799
 20
338.562098
 30
0.0
 10
27.522562
 20
338.830252
 30
0.0
 10
26.950504
 20
338.830252
 30
0.0
 10
26.486267
 20
338.562098
 30
0.0
  0
SPLINE
  5
1dc
100
AcDbEntity
  8
Layer_1
 62
7
100
AcDbSpline
 70
8
 71
3
 72
8
 73
4
 74
0
 40
0
 40
0
 40
0
 40
0
 40
1
 40
1
 40
1
 40
1
 10
26.486267
 20
338.562098
 30
0.0
 10
26.022031
 20
338.293945
 30
0.0
 10
25.736204
 20
337.798411
 30
0.0
 10
25.736533
 20
337.262294
 30
0.0
  0
SPLINE
  5
1dd
100
AcDbEntity
  8
Layer_1
 62
7
100
AcDbSpline
 70
8
 71
3
 72
8
 73
4
 74
0
 40
0
 40
0
 40
0
 40
0
 40
1
 40
1
 40
1
 40
1
 10
25.736533
 20
337.262294
 30
0.0
 10
25.736204
 20
336.726176
 30
0.0
 10
26.022031
 20
336.230642
 30
0.0
 10
26.486267
 20
335.962489
 30
0.0
  0
SPLINE
  5
1de
100
AcDbEntity
  8
Layer_1
 62
7
100
AcDbSpline
 70
8
 71
3
 72
8
 73
4
 74
0
 40
0
 40
0
 40
0
 40
0
 40
1
 40
1
 40
1
 40
1
 10
26.486267
 20
335.962489
 30
0.0
 10
26.950504
 20
335.694335
 30
0.0
 10
27.522562
 20
335.694335
 30
0.0
 10
27.986799
 20
335.962489
 30
0.0
  0
SPLINE
  5
1df
100
AcDbEntity
  8
Layer_1
 62
7
100
AcDbSpline
 70
8
 71
3
 72
8
 73
4
 74
0
 40
0
 40
0
 40
0
 40
0
 40
1
 40
1
 40
1
 40
1
 10
27.986799
 20
335.962489
 30
0.0
 10
28.451035
 20
336.230642
 30
0.0
 10
28.736862
 20
336.726176
 30
0.0
 10
28.736533
 20
337.262294
 30
0.0
  0
LWPOLYLINE
  5
1e0
100
AcDbEntity
  8
Layer_1
 62
7
100
AcDbPolyline
 90
2
 70
1
 10
106.556532
 20
337.262294
 30
0.0
 10
106.556532
 20
337.262294
 30
0.0
  0
SPLINE
  5
1e1
100
AcDbEntity
  8
Layer_1
 62
7
100
AcDbSpline
 70
8
 71
3
 72
8
 73
4
 74
0
 40
0
 40
0
 40
0
 40
0
 40
1
 40
1
 40
1
 40
1
 10
28.736533
 20
277.932296
 30
0.0
 10
28.736862
 20
278.468414
 30
0.0
 10
28.451035
 20
278.963947
 30
0.0
 10
27.986799
 20
279.232101
 30
0.0
  0
SPLINE
  5
1e2
100
AcDbEntity
  8
Layer_1
 62
7
100
AcDbSpline
 70
8
 71
3
 72
8
 73
4
 74
0
 40
0
 40
0
 40
0
 40
0
 40
1
 40
1
 40
1
 40
1
 10
27.986799
 20
279.232101
 30
0.0
 10
27.522562
 20
279.500255
 30
0.0
 10
26.950504
 20
279.500255
 30
0.0
 10
26.486267
 20
279.232101
 30
0.0
  0
SPLINE
  5
1e3
100
AcDbEntity
  8
Layer_1
 62
7
100
AcDbSpline
 70
8
 71
3
 72
8
 73
4
 74
0
 40
0
 40
0
 40
0
 40
0
 40
1
 40
1
 40
1
 40
1
 10
26.486267
 20
279.232101
 30
0.0
 10
26.022031
 20
278.963947
 30
0.0
 10
25.736204
 20
278.468414
 30
0.0
 10
25.736533
 20
277.932296
 30
0.0
  0
SPLINE
  5
1e4
100
AcDbEntity
  8
Layer_1
 62
7
100
AcDbSpline
 70
8
 71
3
 72
8
 73
4
 74
0
 40
0
 40
0
 40
0
 40
0
 40
1
 40
1
 40
1
 40
1
 10
25.736533
 20
277.932296
 30
0.0
 10
25.736204
 20
277.396179
 30
0.0
 10
26.022031
 20
276.900645
 30
0.0
 10
26.486267
 20
276.632491
 30
0.0
  0
SPLINE
  5
1e5
100
AcDbEntity
  8
Layer_1
 62
7
100
AcDbSpline
 70
8
 71
3
 72
8
 73
4
 74
0
 40
0
 40
0
 40
0
 40
0
 40
1
 40
1
 40
1
 40
1
 10
26.486267
 20
276.632491
 30
0.0
 10
26.950504
 20
276.364338
 30
0.0
 10
27.522562
 20
276.364338
 30
0.0
 10
27.986799
 20
276.632491
 30
0.0
  0
SPLINE
  5
1e6
100
AcDbEntity
  8
Layer_1
 62
7
100
AcDbSpline
 70
8
 71
3
 72
8
 73
4
 74
0
 40
0
 40
0
 40
0
 40
0
 40
1
 40
1
 40
1
 40
1
 10
27.986799
 20
276.632491
 30
0.0
 10
28.451035
 20
276.900645
 30
0.0
 10
28.736862
 20
277.396179
 30
0.0
 10
28.736533
 20
277.932296
 30
0.0
  0
LWPOLYLINE
  5
1e7
100
AcDbEntity
  8
Layer_1
 62
7
100
AcDbPolyline
 90
2
 70
1
 10
28.736533
 20
337.262294
 30
0.0
 10
28.736533
 20
337.262294
 30
0.0
  0
SPLINE
  5
1e8
100
AcDbEntity
  8
Layer_1
 62
7
100
AcDbSpline
 70
8
 71
3
 72
8
 73
4
 74
0
 40
0
 40
0
 40
0
 40
0
 40
1
 40
1
 40
1
 40
1
 10
106.556532
 20
277.932296
 30
0.0
 10
106.556765
 20
278.468350
 30
0.0
 10
106.270917
 20
278.963783
 30
0.0
 10
105.806720
 20
279.231877
 30
0.0
  0
SPLINE
  5
1e9
100
AcDbEntity
  8
Layer_1
 62
7
100
AcDbSpline
 70
8
 71
3
 72
8
 73
4
 74
0
 40
0
 40
0
 40
0
 40
0
 40
1
 40
1
 40
1
 40
1
 10
105.806720
 20
279.231877
 30
0.0
 10
105.342523
 20
279.499970
 30
0.0
 10
104.770541
 20
279.499970
 30
0.0
 10
104.306344
 20
279.231877
 30
0.0
  0
SPLINE
  5
1ea
100
AcDbEntity
  8
Layer_1
 62
7
100
AcDbSpline
 70
8
 71
3
 72
8
 73
4
 74
0
 40
0
 40
0
 40
0
 40
0
 40
1
 40
1
 40
1
 40
1
 10
104.306344
 20
279.231877
 30
0.0
 10
103.842147
 20
278.963783
 30
0.0
 10
103.556300
 20
278.468350
 30
0.0
 10
103.556532
 20
277.932296
 30
0.0
  0
SPLINE
  5
1eb
100
AcDbEntity
  8
Layer_1
 62
7
100
AcDbSpline
 70
8
 71
3
 72
8
 73
4
 74
0
 40
0
 40
0
 40
0
 40
0
 40
1
 40
1
 40
1
 40
1
 10
103.556532
 20
277.932296
 30
0.0
 10
103.556300
 20
277.396243
 30
0.0
 10
103.842147
 20
276.900810
 30
0.0
 10
104.306344
 20
276.632716
 30
0.0
  0
SPLINE
  5
1ec
100
AcDbEntity
  8
Layer_1
 62
7
100
AcDbSpline
 70
8
 71
3
 72
8
 73
4
 74
0
 40
0
 40
0
 40
0
 40
0
 40
1
 40
1
 40
1
 40
1
 10
104.306344
 20
276.632716
 30
0.0
 10
104.770541
 20
276.364622
 30
0.0
 10
105.342523
 20
276.364622
 30
0.0
 10
105.806720
 20
276.632716
 30
0.0
  0
SPLINE
  5
1ed
100
AcDbEntity
  8
Layer_1
 62
7
100
AcDbSpline
 70
8
 71
3
 72
8
 73
4
 74
0
 40
0
 40
0
 40
0
 40
0
 40
1
 40
1
 40
1
 40
1
 10
105.806720
 20
276.632716
 30
0.0
 10
106.270917
 20
276.900810
 30
0.0
 10
106.556765
 20
277.396243
 30
0.0
 10
106.556532
 20
277.932296
 30
0.0
  0
LWPOLYLINE
  5
1ee
100
AcDbEntity
  8
Layer_1
 62
7
100
AcDbPolyline
 90
2
 70
1
 10
28.736533
 20
277.932296
 30
0.0
 10
28.736533
 20
277.932296
 30
0.0
  0
LWPOLYLINE
  5
1ef
100
AcDbEntity
  8
Layer_1
 62
7
100
AcDbPolyline
 90
2
 70
1
 10
106.556532
 20
277.932296
 30
0.0
 10
106.556532
 20
277.932296
 30
0.0
  0
LWPOLYLINE
  5
1f0
100
AcDbEntity
  8
Layer_1
 62
7
100
AcDbPolyline
 90
4
 70
0
 10
195.934095
 20
340.262288
 30
0.0
 10
195.934095
 20
274.932302
 30
0.0
 10
112.114096
 20
274.932302
 30
0.0
 10
112.114096
 20
340.262288
 30
0.0
  0
LWPOLYLINE
  5
1f1
100
AcDbEntity
  8
Layer_1
 62
7
100
AcDbPolyline
 90
3
 70
0
 10
142.614094
 20
312.682290
 30
0.0
 10
124.814096
 20
312.682290
 30
0.0
 10
124.814096
 20
340.262288
 30
0.0
  0
LWPOLYLINE
  5
1f2
100
AcDbEntity
  8
Layer_1
 62
7
100
AcDbPolyline
 90
2
 70
0
 10
142.614094
 20
340.262288
 30
0.0
 10
142.614094
 20
312.682290
 30
0.0
  0
SPLINE
  5
1f3
100
AcDbEntity
  8
Layer_1
 62
7
100
AcDbSpline
 70
8
 71
3
 72
8
 73
4
 74
0
 40
0
 40
0
 40
0
 40
0
 40
1
 40
1
 40
1
 40
1
 10
116.614095
 20
277.932296
 30
0.0
 10
116.614424
 20
278.468414
 30
0.0
 10
116.328598
 20
278.963947
 30
0.0
 10
115.864361
 20
279.232101
 30
0.0
  0
SPLINE
  5
1f4
100
AcDbEntity
  8
Layer_1
 62
7
100
AcDbSpline
 70
8
 71
3
 72
8
 73
4
 74
0
 40
0
 40
0
 40
0
 40
0
 40
1
 40
1
 40
1
 40
1
 10
115.864361
 20
279.232101
 30
0.0
 10
115.400124
 20
279.500255
 30
0.0
 10
114.828066
 20
279.500255
 30
0.0
 10
114.363830
 20
279.232101
 30
0.0
  0
SPLINE
  5
1f5
100
AcDbEntity
  8
Layer_1
 62
7
100
AcDbSpline
 70
8
 71
3
 72
8
 73
4
 74
0
 40
0
 40
0
 40
0
 40
0
 40
1
 40
1
 40
1
 40
1
 10
114.363830
 20
279.232101
 30
0.0
 10
113.899593
 20
278.963947
 30
0.0
 10
113.613767
 20
278.468414
 30
0.0
 10
113.614096
 20
277.932296
 30
0.0
  0
SPLINE
  5
1f6
100
AcDbEntity
  8
Layer_1
 62
7
100
AcDbSpline
 70
8
 71
3
 72
8
 73
4
 74
0
 40
0
 40
0
 40
0
 40
0
 40
1
 40
1
 40
1
 40
1
 10
113.614096
 20
277.932296
 30
0.0
 10
113.613767
 20
277.396179
 30
0.0
 10
113.899593
 20
276.900645
 30
0.0
 10
114.363830
 20
276.632491
 30
0.0
  0
SPLINE
  5
1f7
100
AcDbEntity
  8
Layer_1
 62
7
100
AcDbSpline
 70
8
 71
3
 72
8
 73
4
 74
0
 40
0
 40
0
 40
0
 40
0
 40
1
 40
1
 40
1
 40
1
 10
114.363830
 20
276.632491
 30
0.0
 10
114.828066
 20
276.364338
 30
0.0
 10
115.400124
 20
276.364338
 30
0.0
 10
115.864361
 20
276.632491
 30
0.0
  0
SPLINE
  5
1f8
100
AcDbEntity
  8
Layer_1
 62
7
100
AcDbSpline
 70
8
 71
3
 72
8
 73
4
 74
0
 40
0
 40
0
 40
0
 40
0
 40
1
 40
1
 40
1
 40
1
 10
115.864361
 20
276.632491
 30
0.0
 10
116.328598
 20
276.900645
 30
0.0
 10
116.614424
 20
277.396179
 30
0.0
 10
116.614095
 20
277.932296
 30
0.0
  0
LWPOLYLINE
  5
1f9
100
AcDbEntity
  8
Layer_1
 62
7
100
AcDbPolyline
 90
2
 70
0
 10
112.114096
 20
340.262288
 30
0.0
 10
124.814096
 20
340.262288
 30
0.0
  0
SPLINE
  5
1fa
100
AcDbEntity
  8
Layer_1
 62
7
100
AcDbSpline
 70
8
 71
3
 72
8
 73
4
 74
0
 40
0
 40
0
 40
0
 40
0
 40
1
 40
1
 40
1
 40
1
 10
116.614095
 20
277.932296
 30
0.0
 10
116.614424
 20
278.468414
 30
0.0
 10
116.328598
 20
278.963947
 30
0.0
 10
115.864361
 20
279.232101
 30
0.0
  0
SPLINE
  5
1fb
100
AcDbEntity
  8
Layer_1
 62
7
100
AcDbSpline
 70
8
 71
3
 72
8
 73
4
 74
0
 40
0
 40
0
 40
0
 40
0
 40
1
 40
1
 40
1
 40
1
 10
115.864361
 20
279.232101
 30
0.0
 10
115.400124
 20
279.500255
 30
0.0
 10
114.828066
 20
279.500255
 30
0.0
 10
114.363830
 20
279.232101
 30
0.0
  0
SPLINE
  5
1fc
100
AcDbEntity
  8
Layer_1
 62
7
100
AcDbSpline
 70
8
 71
3
 72
8
 73
4
 74
0
 40
0
 40
0
 40
0
 40
0
 40
1
 40
1
 40
1
 40
1
 10
114.363830
 20
279.232101
 30
0.0
 10
113.899593
 20
278.963947
 30
0.0
 10
113.613767
 20
278.468414
 30
0.0
 10
113.614096
 20
277.932296
 30
0.0
  0
SPLINE
  5
1fd
100
AcDbEntity
  8
Layer_1
 62
7
100
AcDbSpline
 70
8
 71
3
 72
8
 73
4
 74
0
 40
0
 40
0
 40
0
 40
0
 40
1
 40
1
 40
1
 40
1
 10
113.614096
 20
277.932296
 30
0.0
 10
113.613767
 20
277.396179
 30
0.0
 10
113.899593
 20
276.900645
 30
0.0
 10
114.363830
 20
276.632491
 30
0.0
  0
SPLINE
  5
1fe
100
AcDbEntity
  8
Layer_1
 62
7
100
AcDbSpline
 70
8
 71
3
 72
8
 73
4
 74
0
 40
0
 40
0
 40
0
 40
0
 40
1
 40
1
 40
1
 40
1
 10
114.363830
 20
276.632491
 30
0.0
 10
114.828066
 20
276.364338
 30
0.0
 10
115.400124
 20
276.364338
 30
0.0
 10
115.864361
 20
276.632491
 30
0.0
  0
SPLINE
  5
1ff
100
AcDbEntity
  8
Layer_1
 62
7
100
AcDbSpline
 70
8
 71
3
 72
8
 73
4
 74
0
 40
0
 40
0
 40
0
 40
0
 40
1
 40
1
 40
1
 40
1
 10
115.864361
 20
276.632491
 30
0.0
 10
116.328598
 20
276.900645
 30
0.0
 10
116.614424
 20
277.396179
 30
0.0
 10
116.614095
 20
277.932296
 30
0.0
  0
SPLINE
  5
200
100
AcDbEntity
  8
Layer_1
 62
7
100
AcDbSpline
 70
8
 71
3
 72
8
 73
4
 74
0
 40
0
 40
0
 40
0
 40
0
 40
1
 40
1
 40
1
 40
1
 10
116.614095
 20
277.932296
 30
0.0
 10
116.614424
 20
278.468414
 30
0.0
 10
116.328598
 20
278.963947
 30
0.0
 10
115.864361
 20
279.232101
 30
0.0
  0
SPLINE
  5
201
100
AcDbEntity
  8
Layer_1
 62
7
100
AcDbSpline
 70
8
 71
3
 72
8
 73
4
 74
0
 40
0
 40
0
 40
0
 40
0
 40
1
 40
1
 40
1
 40
1
 10
115.864361
 20
279.232101
 30
0.0
 10
115.400124
 20
279.500255
 30
0.0
 10
114.828066
 20
279.500255
 30
0.0
 10
114.363830
 20
279.232101
 30
0.0
  0
SPLINE
  5
202
100
AcDbEntity
  8
Layer_1
 62
7
100
AcDbSpline
 70
8
 71
3
 72
8
 73
4
 74
0
 40
0
 40
0
 40
0
 40
0
 40
1
 40
1
 40
1
 40
1
 10
114.363830
 20
279.232101
 30
0.0
 10
113.899593
 20
278.963947
 30
0.0
 10
113.613767
 20
278.468414
 30
0.0
 10
113.614096
 20
277.932296
 30
0.0
  0
SPLINE
  5
203
100
AcDbEntity
  8
Layer_1
 62
7
100
AcDbSpline
 70
8
 71
3
 72
8
 73
4
 74
0
 40
0
 40
0
 40
0
 40
0
 40
1
 40
1
 40
1
 40
1
 10
113.614096
 20
277.932296
 30
0.0
 10
113.613767
 20
277.396179
 30
0.0
 10
113.899593
 20
276.900645
 30
0.0
 10
114.363830
 20
276.632491
 30
0.0
  0
SPLINE
  5
204
100
AcDbEntity
  8
Layer_1
 62
7
100
AcDbSpline
 70
8
 71
3
 72
8
 73
4
 74
0
 40
0
 40
0
 40
0
 40
0
 40
1
 40
1
 40
1
 40
1
 10
114.363830
 20
276.632491
 30
0.0
 10
114.828066
 20
276.364338
 30
0.0
 10
115.400124
 20
276.364338
 30
0.0
 10
115.864361
 20
276.632491
 30
0.0
  0
SPLINE
  5
205
100
AcDbEntity
  8
Layer_1
 62
7
100
AcDbSpline
 70
8
 71
3
 72
8
 73
4
 74
0
 40
0
 40
0
 40
0
 40
0
 40
1
 40
1
 40
1
 40
1
 10
115.864361
 20
276.632491
 30
0.0
 10
116.328598
 20
276.900645
 30
0.0
 10
116.614424
 20
277.396179
 30
0.0
 10
116.614095
 20
277.932296
 30
0.0
  0
SPLINE
  5
206
100
AcDbEntity
  8
Layer_1
 62
7
100
AcDbSpline
 70
8
 71
3
 72
8
 73
4
 74
0
 40
0
 40
0
 40
0
 40
0
 40
1
 40
1
 40
1
 40
1
 10
116.614095
 20
337.262294
 30
0.0
 10
116.614424
 20
337.798411
 30
0.0
 10
116.328598
 20
338.293945
 30
0.0
 10
115.864361
 20
338.562098
 30
0.0
  0
SPLINE
  5
207
100
AcDbEntity
  8
Layer_1
 62
7
100
AcDbSpline
 70
8
 71
3
 72
8
 73
4
 74
0
 40
0
 40
0
 40
0
 40
0
 40
1
 40
1
 40
1
 40
1
 10
115.864361
 20
338.562098
 30
0.0
 10
115.400124
 20
338.830252
 30
0.0
 10
114.828066
 20
338.830252
 30
0.0
 10
114.363830
 20
338.562098
 30
0.0
  0
SPLINE
  5
208
100
AcDbEntity
  8
Layer_1
 62
7
100
AcDbSpline
 70
8
 71
3
 72
8
 73
4
 74
0
 40
0
 40
0
 40
0
 40
0
 40
1
 40
1
 40
1
 40
1
 10
114.363830
 20
338.562098
 30
0.0
 10
113.899593
 20
338.293945
 30
0.0
 10
113.613767
 20
337.798411
 30
0.0
 10
113.614096
 20
337.262294
 30
0.0
  0
SPLINE
  5
209
100
AcDbEntity
  8
Layer_1
 62
7
100
AcDbSpline
 70
8
 71
3
 72
8
 73
4
 74
0
 40
0
 40
0
 40
0
 40
0
 40
1
 40
1
 40
1
 40
1
 10
113.614096
 20
337.262294
 30
0.0
 10
113.613767
 20
336.726176
 30
0.0
 10
113.899593
 20
336.230642
 30
0.0
 10
114.363830
 20
335.962489
 30
0.0
  0
SPLINE
  5
20a
100
AcDbEntity
  8
Layer_1
 62
7
100
AcDbSpline
 70
8
 71
3
 72
8
 73
4
 74
0
 40
0
 40
0
 40
0
 40
0
 40
1
 40
1
 40
1
 40
1
 10
114.363830
 20
335.962489
 30
0.0
 10
114.828066
 20
335.694335
 30
0.0
 10
115.400124
 20
335.694335
 30
0.0
 10
115.864361
 20
335.962489
 30
0.0
  0
SPLINE
  5
20b
100
AcDbEntity
  8
Layer_1
 62
7
100
AcDbSpline
 70
8
 71
3
 72
8
 73
4
 74
0
 40
0
 40
0
 40
0
 40
0
 40
1
 40
1
 40
1
 40
1
 10
115.864361
 20
335.962489
 30
0.0
 10
116.328598
 20
336.230642
 30
0.0
 10
116.614424
 20
336.726176
 30
0.0
 10
116.614095
 20
337.262294
 30
0.0
  0
LWPOLYLINE
  5
20c
100
AcDbEntity
  8
Layer_1
 62
7
100
AcDbPolyline
 90
4
 70
1
 10
116.614095
 20
277.932296
 30
0.0
 10
116.614095
 20
277.932296
 30
0.0
 10
116.614095
 20
277.932296
 30
0.0
 10
116.614095
 20
277.932296
 30
0.0
  0
SPLINE
  5
20d
100
AcDbEntity
  8
Layer_1
 62
7
100
AcDbSpline
 70
8
 71
3
 72
8
 73
4
 74
0
 40
0
 40
0
 40
0
 40
0
 40
1
 40
1
 40
1
 40
1
 10
116.614095
 20
337.262294
 30
0.0
 10
116.614424
 20
337.798411
 30
0.0
 10
116.328598
 20
338.293945
 30
0.0
 10
115.864361
 20
338.562098
 30
0.0
  0
SPLINE
  5
20e
100
AcDbEntity
  8
Layer_1
 62
7
100
AcDbSpline
 70
8
 71
3
 72
8
 73
4
 74
0
 40
0
 40
0
 40
0
 40
0
 40
1
 40
1
 40
1
 40
1
 10
115.864361
 20
338.562098
 30
0.0
 10
115.400124
 20
338.830252
 30
0.0
 10
114.828066
 20
338.830252
 30
0.0
 10
114.363830
 20
338.562098
 30
0.0
  0
SPLINE
  5
20f
100
AcDbEntity
  8
Layer_1
 62
7
100
AcDbSpline
 70
8
 71
3
 72
8
 73
4
 74
0
 40
0
 40
0
 40
0
 40
0
 40
1
 40
1
 40
1
 40
1
 10
114.363830
 20
338.562098
 30
0.0
 10
113.899593
 20
338.293945
 30
0.0
 10
113.613767
 20
337.798411
 30
0.0
 10
113.614096
 20
337.262294
 30
0.0
  0
SPLINE
  5
210
100
AcDbEntity
  8
Layer_1
 62
7
100
AcDbSpline
 70
8
 71
3
 72
8
 73
4
 74
0
 40
0
 40
0
 40
0
 40
0
 40
1
 40
1
 40
1
 40
1
 10
113.614096
 20
337.262294
 30
0.0
 10
113.613767
 20
336.726176
 30
0.0
 10
113.899593
 20
336.230642
 30
0.0
 10
114.363830
 20
335.962489
 30
0.0
  0
SPLINE
  5
211
100
AcDbEntity
  8
Layer_1
 62
7
100
AcDbSpline
 70
8
 71
3
 72
8
 73
4
 74
0
 40
0
 40
0
 40
0
 40
0
 40
1
 40
1
 40
1
 40
1
 10
114.363830
 20
335.962489
 30
0.0
 10
114.828066
 20
335.694335
 30
0.0
 10
115.400124
 20
335.694335
 30
0.0
 10
115.864361
 20
335.962489
 30
0.0
  0
SPLINE
  5
212
100
AcDbEntity
  8
Layer_1
 62
7
100
AcDbSpline
 70
8
 71
3
 72
8
 73
4
 74
0
 40
0
 40
0
 40
0
 40
0
 40
1
 40
1
 40
1
 40
1
 10
115.864361
 20
335.962489
 30
0.0
 10
116.328598
 20
336.230642
 30
0.0
 10
116.614424
 20
336.726176
 30
0.0
 10
116.614095
 20
337.262294
 30
0.0
  0
SPLINE
  5
213
100
AcDbEntity
  8
Layer_1
 62
7
100
AcDbSpline
 70
8
 71
3
 72
8
 73
4
 74
0
 40
0
 40
0
 40
0
 40
0
 40
1
 40
1
 40
1
 40
1
 10
194.434095
 20
337.262294
 30
0.0
 10
194.434327
 20
337.798347
 30
0.0
 10
194.148480
 20
338.293780
 30
0.0
 10
193.684282
 20
338.561874
 30
0.0
  0
SPLINE
  5
214
100
AcDbEntity
  8
Layer_1
 62
7
100
AcDbSpline
 70
8
 71
3
 72
8
 73
4
 74
0
 40
0
 40
0
 40
0
 40
0
 40
1
 40
1
 40
1
 40
1
 10
193.684282
 20
338.561874
 30
0.0
 10
193.220085
 20
338.829968
 30
0.0
 10
192.648104
 20
338.829968
 30
0.0
 10
192.183907
 20
338.561874
 30
0.0
  0
SPLINE
  5
215
100
AcDbEntity
  8
Layer_1
 62
7
100
AcDbSpline
 70
8
 71
3
 72
8
 73
4
 74
0
 40
0
 40
0
 40
0
 40
0
 40
1
 40
1
 40
1
 40
1
 10
192.183907
 20
338.561874
 30
0.0
 10
191.719710
 20
338.293780
 30
0.0
 10
191.433862
 20
337.798347
 30
0.0
 10
191.434095
 20
337.262294
 30
0.0
  0
SPLINE
  5
216
100
AcDbEntity
  8
Layer_1
 62
7
100
AcDbSpline
 70
8
 71
3
 72
8
 73
4
 74
0
 40
0
 40
0
 40
0
 40
0
 40
1
 40
1
 40
1
 40
1
 10
191.434095
 20
337.262294
 30
0.0
 10
191.433862
 20
336.726240
 30
0.0
 10
191.719710
 20
336.230807
 30
0.0
 10
192.183907
 20
335.962713
 30
0.0
  0
SPLINE
  5
217
100
AcDbEntity
  8
Layer_1
 62
7
100
AcDbSpline
 70
8
 71
3
 72
8
 73
4
 74
0
 40
0
 40
0
 40
0
 40
0
 40
1
 40
1
 40
1
 40
1
 10
192.183907
 20
335.962713
 30
0.0
 10
192.648104
 20
335.694619
 30
0.0
 10
193.220085
 20
335.694619
 30
0.0
 10
193.684282
 20
335.962713
 30
0.0
  0
SPLINE
  5
218
100
AcDbEntity
  8
Layer_1
 62
7
100
AcDbSpline
 70
8
 71
3
 72
8
 73
4
 74
0
 40
0
 40
0
 40
0
 40
0
 40
1
 40
1
 40
1
 40
1
 10
193.684282
 20
335.962713
 30
0.0
 10
194.148480
 20
336.230807
 30
0.0
 10
194.434327
 20
336.726240
 30
0.0
 10
194.434095
 20
337.262294
 30
0.0
  0
LWPOLYLINE
  5
219
100
AcDbEntity
  8
Layer_1
 62
7
100
AcDbPolyline
 90
3
 70
1
 10
116.614095
 20
337.262294
 30
0.0
 10
116.614095
 20
337.262294
 30
0.0
 10
116.614095
 20
337.262294
 30
0.0
  0
SPLINE
  5
21a
100
AcDbEntity
  8
Layer_1
 62
7
100
AcDbSpline
 70
8
 71
3
 72
8
 73
4
 74
0
 40
0
 40
0
 40
0
 40
0
 40
1
 40
1
 40
1
 40
1
 10
194.434095
 20
337.262294
 30
0.0
 10
194.434327
 20
337.798347
 30
0.0
 10
194.148480
 20
338.293780
 30
0.0
 10
193.684282
 20
338.561874
 30
0.0
  0
SPLINE
  5
21b
100
AcDbEntity
  8
Layer_1
 62
7
100
AcDbSpline
 70
8
 71
3
 72
8
 73
4
 74
0
 40
0
 40
0
 40
0
 40
0
 40
1
 40
1
 40
1
 40
1
 10
193.684282
 20
338.561874
 30
0.0
 10
193.220085
 20
338.829968
 30
0.0
 10
192.648104
 20
338.829968
 30
0.0
 10
192.183907
 20
338.561874
 30
0.0
  0
SPLINE
  5
21c
100
AcDbEntity
  8
Layer_1
 62
7
100
AcDbSpline
 70
8
 71
3
 72
8
 73
4
 74
0
 40
0
 40
0
 40
0
 40
0
 40
1
 40
1
 40
1
 40
1
 10
192.183907
 20
338.561874
 30
0.0
 10
191.719710
 20
338.293780
 30
0.0
 10
191.433862
 20
337.798347
 30
0.0
 10
191.434095
 20
337.262294
 30
0.0
  0
SPLINE
  5
21d
100
AcDbEntity
  8
Layer_1
 62
7
100
AcDbSpline
 70
8
 71
3
 72
8
 73
4
 74
0
 40
0
 40
0
 40
0
 40
0
 40
1
 40
1
 40
1
 40
1
 10
191.434095
 20
337.262294
 30
0.0
 10
191.433862
 20
336.726240
 30
0.0
 10
191.719710
 20
336.230807
 30
0.0
 10
192.183907
 20
335.962713
 30
0.0
  0
SPLINE
  5
21e
100
AcDbEntity
  8
Layer_1
 62
7
100
AcDbSpline
 70
8
 71
3
 72
8
 73
4
 74
0
 40
0
 40
0
 40
0
 40
0
 40
1
 40
1
 40
1
 40
1
 10
192.183907
 20
335.962713
 30
0.0
 10
192.648104
 20
335.694619
 30
0.0
 10
193.220085
 20
335.694619
 30
0.0
 10
193.684282
 20
335.962713
 30
0.0
  0
SPLINE
  5
21f
100
AcDbEntity
  8
Layer_1
 62
7
100
AcDbSpline
 70
8
 71
3
 72
8
 73
4
 74
0
 40
0
 40
0
 40
0
 40
0
 40
1
 40
1
 40
1
 40
1
 10
193.684282
 20
335.962713
 30
0.0
 10
194.148480
 20
336.230807
 30
0.0
 10
194.434327
 20
336.726240
 30
0.0
 10
194.434095
 20
337.262294
 30
0.0
  0
SPLINE
  5
220
100
AcDbEntity
  8
Layer_1
 62
7
100
AcDbSpline
 70
8
 71
3
 72
8
 73
4
 74
0
 40
0
 40
0
 40
0
 40
0
 40
1
 40
1
 40
1
 40
1
 10
194.434095
 20
277.932296
 30
0.0
 10
194.434327
 20
278.468350
 30
0.0
 10
194.148480
 20
278.963783
 30
0.0
 10
193.684282
 20
279.231877
 30
0.0
  0
SPLINE
  5
221
100
AcDbEntity
  8
Layer_1
 62
7
100
AcDbSpline
 70
8
 71
3
 72
8
 73
4
 74
0
 40
0
 40
0
 40
0
 40
0
 40
1
 40
1
 40
1
 40
1
 10
193.684282
 20
279.231877
 30
0.0
 10
193.220085
 20
279.499970
 30
0.0
 10
192.648104
 20
279.499970
 30
0.0
 10
192.183907
 20
279.231877
 30
0.0
  0
SPLINE
  5
222
100
AcDbEntity
  8
Layer_1
 62
7
100
AcDbSpline
 70
8
 71
3
 72
8
 73
4
 74
0
 40
0
 40
0
 40
0
 40
0
 40
1
 40
1
 40
1
 40
1
 10
192.183907
 20
279.231877
 30
0.0
 10
191.719710
 20
278.963783
 30
0.0
 10
191.433862
 20
278.468350
 30
0.0
 10
191.434095
 20
277.932296
 30
0.0
  0
SPLINE
  5
223
100
AcDbEntity
  8
Layer_1
 62
7
100
AcDbSpline
 70
8
 71
3
 72
8
 73
4
 74
0
 40
0
 40
0
 40
0
 40
0
 40
1
 40
1
 40
1
 40
1
 10
191.434095
 20
277.932296
 30
0.0
 10
191.433862
 20
277.396243
 30
0.0
 10
191.719710
 20
276.900810
 30
0.0
 10
192.183907
 20
276.632716
 30
0.0
  0
SPLINE
  5
224
100
AcDbEntity
  8
Layer_1
 62
7
100
AcDbSpline
 70
8
 71
3
 72
8
 73
4
 74
0
 40
0
 40
0
 40
0
 40
0
 40
1
 40
1
 40
1
 40
1
 10
192.183907
 20
276.632716
 30
0.0
 10
192.648104
 20
276.364622
 30
0.0
 10
193.220085
 20
276.364622
 30
0.0
 10
193.684282
 20
276.632716
 30
0.0
  0
SPLINE
  5
225
100
AcDbEntity
  8
Layer_1
 62
7
100
AcDbSpline
 70
8
 71
3
 72
8
 73
4
 74
0
 40
0
 40
0
 40
0
 40
0
 40
1
 40
1
 40
1
 40
1
 10
193.684282
 20
276.632716
 30
0.0
 10
194.148480
 20
276.900810
 30
0.0
 10
194.434327
 20
277.396243
 30
0.0
 10
194.434095
 20
277.932296
 30
0.0
  0
LWPOLYLINE
  5
226
100
AcDbEntity
  8
Layer_1
 62
7
100
AcDbPolyline
 90
3
 70
1
 10
194.434095
 20
337.262294
 30
0.0
 10
194.434095
 20
337.262294
 30
0.0
 10
194.434095
 20
337.262294
 30
0.0
  0
SPLINE
  5
227
100
AcDbEntity
  8
Layer_1
 62
7
100
AcDbSpline
 70
8
 71
3
 72
8
 73
4
 74
0
 40
0
 40
0
 40
0
 40
0
 40
1
 40
1
 40
1
 40
1
 10
194.434095
 20
277.932296
 30
0.0
 10
194.434327
 20
278.468350
 30
0.0
 10
194.148480
 20
278.963783
 30
0.0
 10
193.684282
 20
279.231877
 30
0.0
  0
SPLINE
  5
228
100
AcDbEntity
  8
Layer_1
 62
7
100
AcDbSpline
 70
8
 71
3
 72
8
 73
4
 74
0
 40
0
 40
0
 40
0
 40
0
 40
1
 40
1
 40
1
 40
1
 10
193.684282
 20
279.231877
 30
0.0
 10
193.220085
 20
279.499970
 30
0.0
 10
192.648104
 20
279.499970
 30
0.0
 10
192.183907
 20
279.231877
 30
0.0
  0
SPLINE
  5
229
100
AcDbEntity
  8
Layer_1
 62
7
100
AcDbSpline
 70
8
 71
3
 72
8
 73
4
 74
0
 40
0
 40
0
 40
0
 40
0
 40
1
 40
1
 40
1
 40
1
 10
192.183907
 20
279.231877
 30
0.0
 10
191.719710
 20
278.963783
 30
0.0
 10
191.433862
 20
278.468350
 30
0.0
 10
191.434095
 20
277.932296
 30
0.0
  0
SPLINE
  5
22a
100
AcDbEntity
  8
Layer_1
 62
7
100
AcDbSpline
 70
8
 71
3
 72
8
 73
4
 74
0
 40
0
 40
0
 40
0
 40
0
 40
1
 40
1
 40
1
 40
1
 10
191.434095
 20
277.932296
 30
0.0
 10
191.433862
 20
277.396243
 30
0.0
 10
191.719710
 20
276.900810
 30
0.0
 10
192.183907
 20
276.632716
 30
0.0
  0
SPLINE
  5
22b
100
AcDbEntity
  8
Layer_1
 62
7
100
AcDbSpline
 70
8
 71
3
 72
8
 73
4
 74
0
 40
0
 40
0
 40
0
 40
0
 40
1
 40
1
 40
1
 40
1
 10
192.183907
 20
276.632716
 30
0.0
 10
192.648104
 20
276.364622
 30
0.0
 10
193.220085
 20
276.364622
 30
0.0
 10
193.684282
 20
276.632716
 30
0.0
  0
SPLINE
  5
22c
100
AcDbEntity
  8
Layer_1
 62
7
100
AcDbSpline
 70
8
 71
3
 72
8
 73
4
 74
0
 40
0
 40
0
 40
0
 40
0
 40
1
 40
1
 40
1
 40
1
 10
193.684282
 20
276.632716
 30
0.0
 10
194.148480
 20
276.900810
 30
0.0
 10
194.434327
 20
277.396243
 30
0.0
 10
194.434095
 20
277.932296
 30
0.0
  0
LWPOLYLINE
  5
22d
100
AcDbEntity
  8
Layer_1
 62
7
100
AcDbPolyline
 90
3
 70
1
 10
194.434095
 20
277.932296
 30
0.0
 10
194.434095
 20
277.932296
 30
0.0
 10
194.434095
 20
277.932296
 30
0.0
  0
LWPOLYLINE
  5
22e
100
AcDbEntity
  8
Layer_1
 62
7
100
AcDbPolyline
 90
4
 70
0
 10
165.934095
 20
340.262288
 30
0.0
 10
165.934095
 20
330.262308
 30
0.0
 10
180.934094
 20
330.262308
 30
0.0
 10
180.934094
 20
340.262288
 30
0.0
  0
LWPOLYLINE
  5
22f
100
AcDbEntity
  8
Layer_1
 62
7
100
AcDbPolyline
 90
2
 70
0
 10
165.934095
 20
340.262288
 30
0.0
 10
142.614094
 20
340.262288
 30
0.0
  0
LWPOLYLINE
  5
230
100
AcDbEntity
  8
Layer_1
 62
7
100
AcDbPolyline
 90
2
 70
0
 10
180.934094
 20
340.262288
 30
0.0
 10
195.934095
 20
340.262288
 30
0.0
  0
LWPOLYLINE
  5
231
100
AcDbEntity
  8
Layer_1
 62
7
100
AcDbPolyline
 90
4
 70
0
 10
24.236533
 20
412.858646
 30
0.0
 10
24.236533
 20
347.528660
 30
0.0
 10
108.056532
 20
347.528660
 30
0.0
 10
108.056532
 20
412.858646
 30
0.0
  0
SPLINE
  5
232
100
AcDbEntity
  8
Layer_1
 62
7
100
AcDbSpline
 70
8
 71
3
 72
8
 73
4
 74
0
 40
0
 40
0
 40
0
 40
0
 40
1
 40
1
 40
1
 40
1
 10
106.556532
 20
350.528654
 30
0.0
 10
106.556765
 20
351.064708
 30
0.0
 10
106.270917
 20
351.560141
 30
0.0
 10
105.806720
 20
351.828235
 30
0.0
  0
SPLINE
  5
233
100
AcDbEntity
  8
Layer_1
 62
7
100
AcDbSpline
 70
8
 71
3
 72
8
 73
4
 74
0
 40
0
 40
0
 40
0
 40
0
 40
1
 40
1
 40
1
 40
1
 10
105.806720
 20
351.828235
 30
0.0
 10
105.342523
 20
352.096328
 30
0.0
 10
104.770541
 20
352.096328
 30
0.0
 10
104.306344
 20
351.828235
 30
0.0
  0
SPLINE
  5
234
100
AcDbEntity
  8
Layer_1
 62
7
100
AcDbSpline
 70
8
 71
3
 72
8
 73
4
 74
0
 40
0
 40
0
 40
0
 40
0
 40
1
 40
1
 40
1
 40
1
 10
104.306344
 20
351.828235
 30
0.0
 10
103.842147
 20
351.560141
 30
0.0
 10
103.556300
 20
351.064708
 30
0.0
 10
103.556532
 20
350.528654
 30
0.0
  0
SPLINE
  5
235
100
AcDbEntity
  8
Layer_1
 62
7
100
AcDbSpline
 70
8
 71
3
 72
8
 73
4
 74
0
 40
0
 40
0
 40
0
 40
0
 40
1
 40
1
 40
1
 40
1
 10
103.556532
 20
350.528654
 30
0.0
 10
103.556300
 20
349.992601
 30
0.0
 10
103.842147
 20
349.497168
 30
0.0
 10
104.306344
 20
349.229074
 30
0.0
  0
SPLINE
  5
236
100
AcDbEntity
  8
Layer_1
 62
7
100
AcDbSpline
 70
8
 71
3
 72
8
 73
4
 74
0
 40
0
 40
0
 40
0
 40
0
 40
1
 40
1
 40
1
 40
1
 10
104.306344
 20
349.229074
 30
0.0
 10
104.770541
 20
348.960980
 30
0.0
 10
105.342523
 20
348.960980
 30
0.0
 10
105.806720
 20
349.229074
 30
0.0
  0
SPLINE
  5
237
100
AcDbEntity
  8
Layer_1
 62
7
100
AcDbSpline
 70
8
 71
3
 72
8
 73
4
 74
0
 40
0
 40
0
 40
0
 40
0
 40
1
 40
1
 40
1
 40
1
 10
105.806720
 20
349.229074
 30
0.0
 10
106.270917
 20
349.497168
 30
0.0
 10
106.556765
 20
349.992601
 30
0.0
 10
106.556532
 20
350.528654
 30
0.0
  0
LWPOLYLINE
  5
238
100
AcDbEntity
  8
Layer_1
 62
7
100
AcDbPolyline
 90
4
 70
0
 10
36.936533
 20
412.858646
 30
0.0
 10
36.936533
 20
385.278648
 30
0.0
 10
54.736532
 20
385.278648
 30
0.0
 10
54.736532
 20
412.858646
 30
0.0
  0
SPLINE
  5
239
100
AcDbEntity
  8
Layer_1
 62
7
100
AcDbSpline
 70
8
 71
3
 72
8
 73
4
 74
0
 40
0
 40
0
 40
0
 40
0
 40
1
 40
1
 40
1
 40
1
 10
106.556532
 20
350.528654
 30
0.0
 10
106.556765
 20
351.064708
 30
0.0
 10
106.270917
 20
351.560141
 30
0.0
 10
105.806720
 20
351.828235
 30
0.0
  0
SPLINE
  5
23a
100
AcDbEntity
  8
Layer_1
 62
7
100
AcDbSpline
 70
8
 71
3
 72
8
 73
4
 74
0
 40
0
 40
0
 40
0
 40
0
 40
1
 40
1
 40
1
 40
1
 10
105.806720
 20
351.828235
 30
0.0
 10
105.342523
 20
352.096328
 30
0.0
 10
104.770541
 20
352.096328
 30
0.0
 10
104.306344
 20
351.828235
 30
0.0
  0
SPLINE
  5
23b
100
AcDbEntity
  8
Layer_1
 62
7
100
AcDbSpline
 70
8
 71
3
 72
8
 73
4
 74
0
 40
0
 40
0
 40
0
 40
0
 40
1
 40
1
 40
1
 40
1
 10
104.306344
 20
351.828235
 30
0.0
 10
103.842147
 20
351.560141
 30
0.0
 10
103.556300
 20
351.064708
 30
0.0
 10
103.556532
 20
350.528654
 30
0.0
  0
SPLINE
  5
23c
100
AcDbEntity
  8
Layer_1
 62
7
100
AcDbSpline
 70
8
 71
3
 72
8
 73
4
 74
0
 40
0
 40
0
 40
0
 40
0
 40
1
 40
1
 40
1
 40
1
 10
103.556532
 20
350.528654
 30
0.0
 10
103.556300
 20
349.992601
 30
0.0
 10
103.842147
 20
349.497168
 30
0.0
 10
104.306344
 20
349.229074
 30
0.0
  0
SPLINE
  5
23d
100
AcDbEntity
  8
Layer_1
 62
7
100
AcDbSpline
 70
8
 71
3
 72
8
 73
4
 74
0
 40
0
 40
0
 40
0
 40
0
 40
1
 40
1
 40
1
 40
1
 10
104.306344
 20
349.229074
 30
0.0
 10
104.770541
 20
348.960980
 30
0.0
 10
105.342523
 20
348.960980
 30
0.0
 10
105.806720
 20
349.229074
 30
0.0
  0
SPLINE
  5
23e
100
AcDbEntity
  8
Layer_1
 62
7
100
AcDbSpline
 70
8
 71
3
 72
8
 73
4
 74
0
 40
0
 40
0
 40
0
 40
0
 40
1
 40
1
 40
1
 40
1
 10
105.806720
 20
349.229074
 30
0.0
 10
106.270917
 20
349.497168
 30
0.0
 10
106.556765
 20
349.992601
 30
0.0
 10
106.556532
 20
350.528654
 30
0.0
  0
SPLINE
  5
23f
100
AcDbEntity
  8
Layer_1
 62
7
100
AcDbSpline
 70
8
 71
3
 72
8
 73
4
 74
0
 40
0
 40
0
 40
0
 40
0
 40
1
 40
1
 40
1
 40
1
 10
106.556532
 20
350.528654
 30
0.0
 10
106.556765
 20
351.064708
 30
0.0
 10
106.270917
 20
351.560141
 30
0.0
 10
105.806720
 20
351.828235
 30
0.0
  0
SPLINE
  5
240
100
AcDbEntity
  8
Layer_1
 62
7
100
AcDbSpline
 70
8
 71
3
 72
8
 73
4
 74
0
 40
0
 40
0
 40
0
 40
0
 40
1
 40
1
 40
1
 40
1
 10
105.806720
 20
351.828235
 30
0.0
 10
105.342523
 20
352.096328
 30
0.0
 10
104.770541
 20
352.096328
 30
0.0
 10
104.306344
 20
351.828235
 30
0.0
  0
SPLINE
  5
241
100
AcDbEntity
  8
Layer_1
 62
7
100
AcDbSpline
 70
8
 71
3
 72
8
 73
4
 74
0
 40
0
 40
0
 40
0
 40
0
 40
1
 40
1
 40
1
 40
1
 10
104.306344
 20
351.828235
 30
0.0
 10
103.842147
 20
351.560141
 30
0.0
 10
103.556300
 20
351.064708
 30
0.0
 10
103.556532
 20
350.528654
 30
0.0
  0
SPLINE
  5
242
100
AcDbEntity
  8
Layer_1
 62
7
100
AcDbSpline
 70
8
 71
3
 72
8
 73
4
 74
0
 40
0
 40
0
 40
0
 40
0
 40
1
 40
1
 40
1
 40
1
 10
103.556532
 20
350.528654
 30
0.0
 10
103.556300
 20
349.992601
 30
0.0
 10
103.842147
 20
349.497168
 30
0.0
 10
104.306344
 20
349.229074
 30
0.0
  0
SPLINE
  5
243
100
AcDbEntity
  8
Layer_1
 62
7
100
AcDbSpline
 70
8
 71
3
 72
8
 73
4
 74
0
 40
0
 40
0
 40
0
 40
0
 40
1
 40
1
 40
1
 40
1
 10
104.306344
 20
349.229074
 30
0.0
 10
104.770541
 20
348.960980
 30
0.0
 10
105.342523
 20
348.960980
 30
0.0
 10
105.806720
 20
349.229074
 30
0.0
  0
SPLINE
  5
244
100
AcDbEntity
  8
Layer_1
 62
7
100
AcDbSpline
 70
8
 71
3
 72
8
 73
4
 74
0
 40
0
 40
0
 40
0
 40
0
 40
1
 40
1
 40
1
 40
1
 10
105.806720
 20
349.229074
 30
0.0
 10
106.270917
 20
349.497168
 30
0.0
 10
106.556765
 20
349.992601
 30
0.0
 10
106.556532
 20
350.528654
 30
0.0
  0
SPLINE
  5
245
100
AcDbEntity
  8
Layer_1
 62
7
100
AcDbSpline
 70
8
 71
3
 72
8
 73
4
 74
0
 40
0
 40
0
 40
0
 40
0
 40
1
 40
1
 40
1
 40
1
 10
106.556532
 20
409.858652
 30
0.0
 10
106.556765
 20
410.394705
 30
0.0
 10
106.270917
 20
410.890138
 30
0.0
 10
105.806720
 20
411.158232
 30
0.0
  0
SPLINE
  5
246
100
AcDbEntity
  8
Layer_1
 62
7
100
AcDbSpline
 70
8
 71
3
 72
8
 73
4
 74
0
 40
0
 40
0
 40
0
 40
0
 40
1
 40
1
 40
1
 40
1
 10
105.806720
 20
411.158232
 30
0.0
 10
105.342523
 20
411.426326
 30
0.0
 10
104.770541
 20
411.426326
 30
0.0
 10
104.306344
 20
411.158232
 30
0.0
  0
SPLINE
  5
247
100
AcDbEntity
  8
Layer_1
 62
7
100
AcDbSpline
 70
8
 71
3
 72
8
 73
4
 74
0
 40
0
 40
0
 40
0
 40
0
 40
1
 40
1
 40
1
 40
1
 10
104.306344
 20
411.158232
 30
0.0
 10
103.842147
 20
410.890138
 30
0.0
 10
103.556300
 20
410.394705
 30
0.0
 10
103.556532
 20
409.858652
 30
0.0
  0
SPLINE
  5
248
100
AcDbEntity
  8
Layer_1
 62
7
100
AcDbSpline
 70
8
 71
3
 72
8
 73
4
 74
0
 40
0
 40
0
 40
0
 40
0
 40
1
 40
1
 40
1
 40
1
 10
103.556532
 20
409.858652
 30
0.0
 10
103.556300
 20
409.322598
 30
0.0
 10
103.842147
 20
408.827165
 30
0.0
 10
104.306344
 20
408.559071
 30
0.0
  0
SPLINE
  5
249
100
AcDbEntity
  8
Layer_1
 62
7
100
AcDbSpline
 70
8
 71
3
 72
8
 73
4
 74
0
 40
0
 40
0
 40
0
 40
0
 40
1
 40
1
 40
1
 40
1
 10
104.306344
 20
408.559071
 30
0.0
 10
104.770541
 20
408.290977
 30
0.0
 10
105.342523
 20
408.290977
 30
0.0
 10
105.806720
 20
408.559071
 30
0.0
  0
SPLINE
  5
24a
100
AcDbEntity
  8
Layer_1
 62
7
100
AcDbSpline
 70
8
 71
3
 72
8
 73
4
 74
0
 40
0
 40
0
 40
0
 40
0
 40
1
 40
1
 40
1
 40
1
 10
105.806720
 20
408.559071
 30
0.0
 10
106.270917
 20
408.827165
 30
0.0
 10
106.556765
 20
409.322598
 30
0.0
 10
106.556532
 20
409.858652
 30
0.0
  0
LWPOLYLINE
  5
24b
100
AcDbEntity
  8
Layer_1
 62
7
100
AcDbPolyline
 90
4
 70
1
 10
106.556532
 20
350.528654
 30
0.0
 10
106.556532
 20
350.528654
 30
0.0
 10
106.556532
 20
350.528654
 30
0.0
 10
106.556532
 20
350.528654
 30
0.0
  0
SPLINE
  5
24c
100
AcDbEntity
  8
Layer_1
 62
7
100
AcDbSpline
 70
8
 71
3
 72
8
 73
4
 74
0
 40
0
 40
0
 40
0
 40
0
 40
1
 40
1
 40
1
 40
1
 10
106.556532
 20
409.858652
 30
0.0
 10
106.556765
 20
410.394705
 30
0.0
 10
106.270917
 20
410.890138
 30
0.0
 10
105.806720
 20
411.158232
 30
0.0
  0
SPLINE
  5
24d
100
AcDbEntity
  8
Layer_1
 62
7
100
AcDbSpline
 70
8
 71
3
 72
8
 73
4
 74
0
 40
0
 40
0
 40
0
 40
0
 40
1
 40
1
 40
1
 40
1
 10
105.806720
 20
411.158232
 30
0.0
 10
105.342523
 20
411.426326
 30
0.0
 10
104.770541
 20
411.426326
 30
0.0
 10
104.306344
 20
411.158232
 30
0.0
  0
SPLINE
  5
24e
100
AcDbEntity
  8
Layer_1
 62
7
100
AcDbSpline
 70
8
 71
3
 72
8
 73
4
 74
0
 40
0
 40
0
 40
0
 40
0
 40
1
 40
1
 40
1
 40
1
 10
104.306344
 20
411.158232
 30
0.0
 10
103.842147
 20
410.890138
 30
0.0
 10
103.556300
 20
410.394705
 30
0.0
 10
103.556532
 20
409.858652
 30
0.0
  0
SPLINE
  5
24f
100
AcDbEntity
  8
Layer_1
 62
7
100
AcDbSpline
 70
8
 71
3
 72
8
 73
4
 74
0
 40
0
 40
0
 40
0
 40
0
 40
1
 40
1
 40
1
 40
1
 10
103.556532
 20
409.858652
 30
0.0
 10
103.556300
 20
409.322598
 30
0.0
 10
103.842147
 20
408.827165
 30
0.0
 10
104.306344
 20
408.559071
 30
0.0
  0
SPLINE
  5
250
100
AcDbEntity
  8
Layer_1
 62
7
100
AcDbSpline
 70
8
 71
3
 72
8
 73
4
 74
0
 40
0
 40
0
 40
0
 40
0
 40
1
 40
1
 40
1
 40
1
 10
104.306344
 20
408.559071
 30
0.0
 10
104.770541
 20
408.290977
 30
0.0
 10
105.342523
 20
408.290977
 30
0.0
 10
105.806720
 20
408.559071
 30
0.0
  0
SPLINE
  5
251
100
AcDbEntity
  8
Layer_1
 62
7
100
AcDbSpline
 70
8
 71
3
 72
8
 73
4
 74
0
 40
0
 40
0
 40
0
 40
0
 40
1
 40
1
 40
1
 40
1
 10
105.806720
 20
408.559071
 30
0.0
 10
106.270917
 20
408.827165
 30
0.0
 10
106.556765
 20
409.322598
 30
0.0
 10
106.556532
 20
409.858652
 30
0.0
  0
SPLINE
  5
252
100
AcDbEntity
  8
Layer_1
 62
7
100
AcDbSpline
 70
8
 71
3
 72
8
 73
4
 74
0
 40
0
 40
0
 40
0
 40
0
 40
1
 40
1
 40
1
 40
1
 10
28.736533
 20
409.858652
 30
0.0
 10
28.736862
 20
410.394769
 30
0.0
 10
28.451035
 20
410.890303
 30
0.0
 10
27.986799
 20
411.158457
 30
0.0
  0
SPLINE
  5
253
100
AcDbEntity
  8
Layer_1
 62
7
100
AcDbSpline
 70
8
 71
3
 72
8
 73
4
 74
0
 40
0
 40
0
 40
0
 40
0
 40
1
 40
1
 40
1
 40
1
 10
27.986799
 20
411.158457
 30
0.0
 10
27.522562
 20
411.426610
 30
0.0
 10
26.950504
 20
411.426610
 30
0.0
 10
26.486267
 20
411.158457
 30
0.0
  0
SPLINE
  5
254
100
AcDbEntity
  8
Layer_1
 62
7
100
AcDbSpline
 70
8
 71
3
 72
8
 73
4
 74
0
 40
0
 40
0
 40
0
 40
0
 40
1
 40
1
 40
1
 40
1
 10
26.486267
 20
411.158457
 30
0.0
 10
26.022031
 20
410.890303
 30
0.0
 10
25.736204
 20
410.394769
 30
0.0
 10
25.736533
 20
409.858652
 30
0.0
  0
SPLINE
  5
255
100
AcDbEntity
  8
Layer_1
 62
7
100
AcDbSpline
 70
8
 71
3
 72
8
 73
4
 74
0
 40
0
 40
0
 40
0
 40
0
 40
1
 40
1
 40
1
 40
1
 10
25.736533
 20
409.858652
 30
0.0
 10
25.736204
 20
409.322534
 30
0.0
 10
26.022031
 20
408.827000
 30
0.0
 10
26.486267
 20
408.558847
 30
0.0
  0
SPLINE
  5
256
100
AcDbEntity
  8
Layer_1
 62
7
100
AcDbSpline
 70
8
 71
3
 72
8
 73
4
 74
0
 40
0
 40
0
 40
0
 40
0
 40
1
 40
1
 40
1
 40
1
 10
26.486267
 20
408.558847
 30
0.0
 10
26.950504
 20
408.290693
 30
0.0
 10
27.522562
 20
408.290693
 30
0.0
 10
27.986799
 20
408.558847
 30
0.0
  0
SPLINE
  5
257
100
AcDbEntity
  8
Layer_1
 62
7
100
AcDbSpline
 70
8
 71
3
 72
8
 73
4
 74
0
 40
0
 40
0
 40
0
 40
0
 40
1
 40
1
 40
1
 40
1
 10
27.986799
 20
408.558847
 30
0.0
 10
28.451035
 20
408.827000
 30
0.0
 10
28.736862
 20
409.322534
 30
0.0
 10
28.736533
 20
409.858652
 30
0.0
  0
LWPOLYLINE
  5
258
100
AcDbEntity
  8
Layer_1
 62
7
100
AcDbPolyline
 90
3
 70
1
 10
106.556532
 20
409.858652
 30
0.0
 10
106.556532
 20
409.858652
 30
0.0
 10
106.556532
 20
409.858652
 30
0.0
  0
SPLINE
  5
259
100
AcDbEntity
  8
Layer_1
 62
7
100
AcDbSpline
 70
8
 71
3
 72
8
 73
4
 74
0
 40
0
 40
0
 40
0
 40
0
 40
1
 40
1
 40
1
 40
1
 10
28.736533
 20
409.858652
 30
0.0
 10
28.736862
 20
410.394769
 30
0.0
 10
28.451035
 20
410.890303
 30
0.0
 10
27.986799
 20
411.158457
 30
0.0
  0
SPLINE
  5
25a
100
AcDbEntity
  8
Layer_1
 62
7
100
AcDbSpline
 70
8
 71
3
 72
8
 73
4
 74
0
 40
0
 40
0
 40
0
 40
0
 40
1
 40
1
 40
1
 40
1
 10
27.986799
 20
411.158457
 30
0.0
 10
27.522562
 20
411.426610
 30
0.0
 10
26.950504
 20
411.426610
 30
0.0
 10
26.486267
 20
411.158457
 30
0.0
  0
SPLINE
  5
25b
100
AcDbEntity
  8
Layer_1
 62
7
100
AcDbSpline
 70
8
 71
3
 72
8
 73
4
 74
0
 40
0
 40
0
 40
0
 40
0
 40
1
 40
1
 40
1
 40
1
 10
26.486267
 20
411.158457
 30
0.0
 10
26.022031
 20
410.890303
 30
0.0
 10
25.736204
 20
410.394769
 30
0.0
 10
25.736533
 20
409.858652
 30
0.0
  0
SPLINE
  5
25c
100
AcDbEntity
  8
Layer_1
 62
7
100
AcDbSpline
 70
8
 71
3
 72
8
 73
4
 74
0
 40
0
 40
0
 40
0
 40
0
 40
1
 40
1
 40
1
 40
1
 10
25.736533
 20
409.858652
 30
0.0
 10
25.736204
 20
409.322534
 30
0.0
 10
26.022031
 20
408.827000
 30
0.0
 10
26.486267
 20
408.558847
 30
0.0
  0
SPLINE
  5
25d
100
AcDbEntity
  8
Layer_1
 62
7
100
AcDbSpline
 70
8
 71
3
 72
8
 73
4
 74
0
 40
0
 40
0
 40
0
 40
0
 40
1
 40
1
 40
1
 40
1
 10
26.486267
 20
408.558847
 30
0.0
 10
26.950504
 20
408.290693
 30
0.0
 10
27.522562
 20
408.290693
 30
0.0
 10
27.986799
 20
408.558847
 30
0.0
  0
SPLINE
  5
25e
100
AcDbEntity
  8
Layer_1
 62
7
100
AcDbSpline
 70
8
 71
3
 72
8
 73
4
 74
0
 40
0
 40
0
 40
0
 40
0
 40
1
 40
1
 40
1
 40
1
 10
27.986799
 20
408.558847
 30
0.0
 10
28.451035
 20
408.827000
 30
0.0
 10
28.736862
 20
409.322534
 30
0.0
 10
28.736533
 20
409.858652
 30
0.0
  0
SPLINE
  5
25f
100
AcDbEntity
  8
Layer_1
 62
7
100
AcDbSpline
 70
8
 71
3
 72
8
 73
4
 74
0
 40
0
 40
0
 40
0
 40
0
 40
1
 40
1
 40
1
 40
1
 10
28.736533
 20
350.528654
 30
0.0
 10
28.736862
 20
351.064772
 30
0.0
 10
28.451035
 20
351.560305
 30
0.0
 10
27.986799
 20
351.828459
 30
0.0
  0
SPLINE
  5
260
100
AcDbEntity
  8
Layer_1
 62
7
100
AcDbSpline
 70
8
 71
3
 72
8
 73
4
 74
0
 40
0
 40
0
 40
0
 40
0
 40
1
 40
1
 40
1
 40
1
 10
27.986799
 20
351.828459
 30
0.0
 10
27.522562
 20
352.096613
 30
0.0
 10
26.950504
 20
352.096613
 30
0.0
 10
26.486267
 20
351.828459
 30
0.0
  0
SPLINE
  5
261
100
AcDbEntity
  8
Layer_1
 62
7
100
AcDbSpline
 70
8
 71
3
 72
8
 73
4
 74
0
 40
0
 40
0
 40
0
 40
0
 40
1
 40
1
 40
1
 40
1
 10
26.486267
 20
351.828459
 30
0.0
 10
26.022031
 20
351.560305
 30
0.0
 10
25.736204
 20
351.064772
 30
0.0
 10
25.736533
 20
350.528654
 30
0.0
  0
SPLINE
  5
262
100
AcDbEntity
  8
Layer_1
 62
7
100
AcDbSpline
 70
8
 71
3
 72
8
 73
4
 74
0
 40
0
 40
0
 40
0
 40
0
 40
1
 40
1
 40
1
 40
1
 10
25.736533
 20
350.528654
 30
0.0
 10
25.736204
 20
349.992537
 30
0.0
 10
26.022031
 20
349.497003
 30
0.0
 10
26.486267
 20
349.228849
 30
0.0
  0
SPLINE
  5
263
100
AcDbEntity
  8
Layer_1
 62
7
100
AcDbSpline
 70
8
 71
3
 72
8
 73
4
 74
0
 40
0
 40
0
 40
0
 40
0
 40
1
 40
1
 40
1
 40
1
 10
26.486267
 20
349.228849
 30
0.0
 10
26.950504
 20
348.960696
 30
0.0
 10
27.522562
 20
348.960696
 30
0.0
 10
27.986799
 20
349.228849
 30
0.0
  0
SPLINE
  5
264
100
AcDbEntity
  8
Layer_1
 62
7
100
AcDbSpline
 70
8
 71
3
 72
8
 73
4
 74
0
 40
0
 40
0
 40
0
 40
0
 40
1
 40
1
 40
1
 40
1
 10
27.986799
 20
349.228849
 30
0.0
 10
28.451035
 20
349.497003
 30
0.0
 10
28.736862
 20
349.992537
 30
0.0
 10
28.736533
 20
350.528654
 30
0.0
  0
LWPOLYLINE
  5
265
100
AcDbEntity
  8
Layer_1
 62
7
100
AcDbPolyline
 90
3
 70
1
 10
28.736533
 20
409.858652
 30
0.0
 10
28.736533
 20
409.858652
 30
0.0
 10
28.736533
 20
409.858652
 30
0.0
  0
SPLINE
  5
266
100
AcDbEntity
  8
Layer_1
 62
7
100
AcDbSpline
 70
8
 71
3
 72
8
 73
4
 74
0
 40
0
 40
0
 40
0
 40
0
 40
1
 40
1
 40
1
 40
1
 10
28.736533
 20
350.528654
 30
0.0
 10
28.736862
 20
351.064772
 30
0.0
 10
28.451035
 20
351.560305
 30
0.0
 10
27.986799
 20
351.828459
 30
0.0
  0
SPLINE
  5
267
100
AcDbEntity
  8
Layer_1
 62
7
100
AcDbSpline
 70
8
 71
3
 72
8
 73
4
 74
0
 40
0
 40
0
 40
0
 40
0
 40
1
 40
1
 40
1
 40
1
 10
27.986799
 20
351.828459
 30
0.0
 10
27.522562
 20
352.096613
 30
0.0
 10
26.950504
 20
352.096613
 30
0.0
 10
26.486267
 20
351.828459
 30
0.0
  0
SPLINE
  5
268
100
AcDbEntity
  8
Layer_1
 62
7
100
AcDbSpline
 70
8
 71
3
 72
8
 73
4
 74
0
 40
0
 40
0
 40
0
 40
0
 40
1
 40
1
 40
1
 40
1
 10
26.486267
 20
351.828459
 30
0.0
 10
26.022031
 20
351.560305
 30
0.0
 10
25.736204
 20
351.064772
 30
0.0
 10
25.736533
 20
350.528654
 30
0.0
  0
SPLINE
  5
269
100
AcDbEntity
  8
Layer_1
 62
7
100
AcDbSpline
 70
8
 71
3
 72
8
 73
4
 74
0
 40
0
 40
0
 40
0
 40
0
 40
1
 40
1
 40
1
 40
1
 10
25.736533
 20
350.528654
 30
0.0
 10
25.736204
 20
349.992537
 30
0.0
 10
26.022031
 20
349.497003
 30
0.0
 10
26.486267
 20
349.228849
 30
0.0
  0
SPLINE
  5
26a
100
AcDbEntity
  8
Layer_1
 62
7
100
AcDbSpline
 70
8
 71
3
 72
8
 73
4
 74
0
 40
0
 40
0
 40
0
 40
0
 40
1
 40
1
 40
1
 40
1
 10
26.486267
 20
349.228849
 30
0.0
 10
26.950504
 20
348.960696
 30
0.0
 10
27.522562
 20
348.960696
 30
0.0
 10
27.986799
 20
349.228849
 30
0.0
  0
SPLINE
  5
26b
100
AcDbEntity
  8
Layer_1
 62
7
100
AcDbSpline
 70
8
 71
3
 72
8
 73
4
 74
0
 40
0
 40
0
 40
0
 40
0
 40
1
 40
1
 40
1
 40
1
 10
27.986799
 20
349.228849
 30
0.0
 10
28.451035
 20
349.497003
 30
0.0
 10
28.736862
 20
349.992537
 30
0.0
 10
28.736533
 20
350.528654
 30
0.0
  0
LWPOLYLINE
  5
26c
100
AcDbEntity
  8
Layer_1
 62
7
100
AcDbPolyline
 90
3
 70
1
 10
28.736533
 20
350.528654
 30
0.0
 10
28.736533
 20
350.528654
 30
0.0
 10
28.736533
 20
350.528654
 30
0.0
  0
LWPOLYLINE
  5
26d
100
AcDbEntity
  8
Layer_1
 62
7
100
AcDbPolyline
 90
4
 70
0
 10
78.056532
 20
412.858646
 30
0.0
 10
78.056532
 20
402.858666
 30
0.0
 10
93.056532
 20
402.858666
 30
0.0
 10
93.056532
 20
412.858646
 30
0.0
  0
LWPOLYLINE
  5
26e
100
AcDbEntity
  8
Layer_1
 62
7
100
AcDbPolyline
 90
2
 70
0
 10
78.056532
 20
412.858646
 30
0.0
 10
54.736532
 20
412.858646
 30
0.0
  0
LWPOLYLINE
  5
26f
100
AcDbEntity
  8
Layer_1
 62
7
100
AcDbPolyline
 90
2
 70
0
 10
36.936533
 20
412.858646
 30
0.0
 10
24.236533
 20
412.858646
 30
0.0
  0
LWPOLYLINE
  5
270
100
AcDbEntity
  8
Layer_1
 62
7
100
AcDbPolyline
 90
2
 70
0
 10
93.056532
 20
412.858646
 30
0.0
 10
108.056532
 20
412.858646
 30
0.0
  0
LWPOLYLINE
  5
271
100
AcDbEntity
  8
Layer_1
 62
7
100
AcDbPolyline
 90
14
 70
1
 10
47.926202
 20
371.726983
 30
0.0
 10
42.518779
 20
371.726983
 30
0.0
 10
42.518779
 20
379.934581
 30
0.0
 10
47.926202
 20
379.934581
 30
0.0
 10
47.926202
 20
378.964443
 30
0.0
 10
43.610186
 20
378.964443
 30
0.0
 10
43.610186
 20
376.715484
 30
0.0
 10
47.926202
 20
376.715484
 30
0.0
 10
47.926202
 20
375.745345
 30
0.0
 10
43.610186
 20
375.745345
 30
0.0
 10
43.610186
 20
372.697122
 30
0.0
 10
47.926202
 20
372.697122
 30
0.0
 10
47.926202
 20
371.726983
 30
0.0
 10
47.926202
 20
371.726983
 30
0.0
  0
SPLINE
  5
272
100
AcDbEntity
  8
Layer_1
 62
7
100
AcDbSpline
 70
8
 71
3
 72
8
 73
4
 74
0
 40
0
 40
0
 40
0
 40
0
 40
1
 40
1
 40
1
 40
1
 10
57.528370
 20
375.232714
 30
0.0
 10
57.528370
 20
375.497297
 30
0.0
 10
57.515508
 20
375.752693
 30
0.0
 10
57.489784
 20
375.998902
 30
0.0
  0
SPLINE
  5
273
100
AcDbEntity
  8
Layer_1
 62
7
100
AcDbSpline
 70
8
 71
3
 72
8
 73
4
 74
0
 40
0
 40
0
 40
0
 40
0
 40
1
 40
1
 40
1
 40
1
 10
57.489784
 20
375.998902
 30
0.0
 10
57.467737
 20
376.245113
 30
0.0
 10
57.418128
 20
376.441714
 30
0.0
 10
57.340957
 20
376.588704
 30
0.0
  0
SPLINE
  5
274
100
AcDbEntity
  8
Layer_1
 62
7
100
AcDbSpline
 70
8
 71
3
 72
8
 73
4
 74
0
 40
0
 40
0
 40
0
 40
0
 40
1
 40
1
 40
1
 40
1
 10
57.340957
 20
376.588704
 30
0.0
 10
57.256437
 20
376.746719
 30
0.0
 10
57.135170
 20
376.866149
 30
0.0
 10
56.977156
 20
376.946994
 30
0.0
  0
SPLINE
  5
275
100
AcDbEntity
  8
Layer_1
 62
7
100
AcDbSpline
 70
8
 71
3
 72
8
 73
4
 74
0
 40
0
 40
0
 40
0
 40
0
 40
1
 40
1
 40
1
 40
1
 10
56.977156
 20
376.946994
 30
0.0
 10
56.819140
 20
377.027839
 30
0.0
 10
56.591303
 20
377.068262
 30
0.0
 10
56.293647
 20
377.068262
 30
0.0
  0
SPLINE
  5
276
100
AcDbEntity
  8
Layer_1
 62
7
100
AcDbSpline
 70
8
 71
3
 72
8
 73
4
 74
0
 40
0
 40
0
 40
0
 40
0
 40
1
 40
1
 40
1
 40
1
 10
56.293647
 20
377.068262
 30
0.0
 10
56.003341
 20
377.068262
 30
0.0
 10
55.713035
 20
376.994767
 30
0.0
 10
55.422729
 20
376.847776
 30
0.0
  0
SPLINE
  5
277
100
AcDbEntity
  8
Layer_1
 62
7
100
AcDbSpline
 70
8
 71
3
 72
8
 73
4
 74
0
 40
0
 40
0
 40
0
 40
0
 40
1
 40
1
 40
1
 40
1
 10
55.422729
 20
376.847776
 30
0.0
 10
55.132422
 20
376.704460
 30
0.0
 10
54.842116
 20
376.520721
 30
0.0
 10
54.551809
 20
376.296559
 30
0.0
  0
SPLINE
  5
278
100
AcDbEntity
  8
Layer_1
 62
7
100
AcDbSpline
 70
8
 71
3
 72
8
 73
4
 74
0
 40
0
 40
0
 40
0
 40
0
 40
1
 40
1
 40
1
 40
1
 10
54.551809
 20
376.296559
 30
0.0
 10
54.562834
 20
376.212039
 30
0.0
 10
54.572025
 20
376.112820
 30
0.0
 10
54.579382
 20
375.998902
 30
0.0
  0
SPLINE
  5
279
100
AcDbEntity
  8
Layer_1
 62
7
100
AcDbSpline
 70
8
 71
3
 72
8
 73
4
 74
0
 40
0
 40
0
 40
0
 40
0
 40
1
 40
1
 40
1
 40
1
 10
54.579382
 20
375.998902
 30
0.0
 10
54.586738
 20
375.888661
 30
0.0
 10
54.590417
 20
375.778418
 30
0.0
 10
54.590417
 20
375.668174
 30
0.0
  0
LWPOLYLINE
  5
27a
100
AcDbEntity
  8
Layer_1
 62
7
100
AcDbPolyline
 90
3
 70
1
 10
58.564656
 20
371.726983
 30
0.0
 10
57.528370
 20
371.726983
 30
0.0
 10
57.528370
 20
375.232714
 30
0.0
  0
SPLINE
  5
27b
100
AcDbEntity
  8
Layer_1
 62
7
100
AcDbSpline
 70
8
 71
3
 72
8
 73
4
 74
0
 40
0
 40
0
 40
0
 40
0
 40
1
 40
1
 40
1
 40
1
 10
53.554130
 20
375.232714
 30
0.0
 10
53.554130
 20
375.504646
 30
0.0
 10
53.541269
 20
375.761880
 30
0.0
 10
53.515545
 20
376.004414
 30
0.0
  0
SPLINE
  5
27c
100
AcDbEntity
  8
Layer_1
 62
7
100
AcDbSpline
 70
8
 71
3
 72
8
 73
4
 74
0
 40
0
 40
0
 40
0
 40
0
 40
1
 40
1
 40
1
 40
1
 10
53.515545
 20
376.004414
 30
0.0
 10
53.493498
 20
376.250625
 30
0.0
 10
53.443889
 20
376.447225
 30
0.0
 10
53.366718
 20
376.594216
 30
0.0
  0
SPLINE
  5
27d
100
AcDbEntity
  8
Layer_1
 62
7
100
AcDbSpline
 70
8
 71
3
 72
8
 73
4
 74
0
 40
0
 40
0
 40
0
 40
0
 40
1
 40
1
 40
1
 40
1
 10
53.366718
 20
376.594216
 30
0.0
 10
53.282198
 20
376.752230
 30
0.0
 10
53.160931
 20
376.869823
 30
0.0
 10
53.002917
 20
376.946994
 30
0.0
  0
SPLINE
  5
27e
100
AcDbEntity
  8
Layer_1
 62
7
100
AcDbSpline
 70
8
 71
3
 72
8
 73
4
 74
0
 40
0
 40
0
 40
0
 40
0
 40
1
 40
1
 40
1
 40
1
 10
53.002917
 20
376.946994
 30
0.0
 10
52.844900
 20
377.027839
 30
0.0
 10
52.617064
 20
377.068262
 30
0.0
 10
52.319408
 20
377.068262
 30
0.0
  0
SPLINE
  5
27f
100
AcDbEntity
  8
Layer_1
 62
7
100
AcDbSpline
 70
8
 71
3
 72
8
 73
4
 74
0
 40
0
 40
0
 40
0
 40
0
 40
1
 40
1
 40
1
 40
1
 10
52.319408
 20
377.068262
 30
0.0
 10
52.036452
 20
377.068262
 30
0.0
 10
51.751658
 20
376.998441
 30
0.0
 10
51.465026
 20
376.858799
 30
0.0
  0
SPLINE
  5
280
100
AcDbEntity
  8
Layer_1
 62
7
100
AcDbSpline
 70
8
 71
3
 72
8
 73
4
 74
0
 40
0
 40
0
 40
0
 40
0
 40
1
 40
1
 40
1
 40
1
 10
51.465026
 20
376.858799
 30
0.0
 10
51.182068
 20
376.719158
 30
0.0
 10
50.899111
 20
376.540932
 30
0.0
 10
50.616155
 20
376.324121
 30
0.0
  0
LWPOLYLINE
  5
281
100
AcDbEntity
  8
Layer_1
 62
7
100
AcDbPolyline
 90
4
 70
1
 10
54.590417
 20
375.668174
 30
0.0
 10
54.590417
 20
371.726983
 30
0.0
 10
53.554130
 20
371.726983
 30
0.0
 10
53.554130
 20
375.232714
 30
0.0
  0
SPLINE
  5
282
100
AcDbEntity
  8
Layer_1
 62
7
100
AcDbSpline
 70
8
 71
3
 72
8
 73
4
 74
0
 40
0
 40
0
 40
0
 40
0
 40
1
 40
1
 40
1
 40
1
 10
50.616155
 20
377.200554
 30
0.0
 10
50.939534
 20
377.468811
 30
0.0
 10
51.261076
 20
377.678273
 30
0.0
 10
51.580779
 20
377.828938
 30
0.0
  0
SPLINE
  5
283
100
AcDbEntity
  8
Layer_1
 62
7
100
AcDbSpline
 70
8
 71
3
 72
8
 73
4
 74
0
 40
0
 40
0
 40
0
 40
0
 40
1
 40
1
 40
1
 40
1
 10
51.580779
 20
377.828938
 30
0.0
 10
51.904159
 20
377.979604
 30
0.0
 10
52.247750
 20
378.054936
 30
0.0
 10
52.611553
 20
378.054936
 30
0.0
  0
SPLINE
  5
284
100
AcDbEntity
  8
Layer_1
 62
7
100
AcDbSpline
 70
8
 71
3
 72
8
 73
4
 74
0
 40
0
 40
0
 40
0
 40
0
 40
1
 40
1
 40
1
 40
1
 10
52.611553
 20
378.054936
 30
0.0
 10
53.030477
 20
378.054936
 30
0.0
 10
53.385092
 20
377.966742
 30
0.0
 10
53.675399
 20
377.790353
 30
0.0
  0
SPLINE
  5
285
100
AcDbEntity
  8
Layer_1
 62
7
100
AcDbSpline
 70
8
 71
3
 72
8
 73
4
 74
0
 40
0
 40
0
 40
0
 40
0
 40
1
 40
1
 40
1
 40
1
 10
53.675399
 20
377.790353
 30
0.0
 10
53.969380
 20
377.613964
 30
0.0
 10
54.188029
 20
377.369592
 30
0.0
 10
54.331345
 20
377.057236
 30
0.0
  0
SPLINE
  5
286
100
AcDbEntity
  8
Layer_1
 62
7
100
AcDbSpline
 70
8
 71
3
 72
8
 73
4
 74
0
 40
0
 40
0
 40
0
 40
0
 40
1
 40
1
 40
1
 40
1
 10
54.331345
 20
377.057236
 30
0.0
 10
54.750268
 20
377.410013
 30
0.0
 10
55.132444
 20
377.663573
 30
0.0
 10
55.477873
 20
377.817915
 30
0.0
  0
SPLINE
  5
287
100
AcDbEntity
  8
Layer_1
 62
7
100
AcDbSpline
 70
8
 71
3
 72
8
 73
4
 74
0
 40
0
 40
0
 40
0
 40
0
 40
1
 40
1
 40
1
 40
1
 10
55.477873
 20
377.817915
 30
0.0
 10
55.823302
 20
377.975929
 30
0.0
 10
56.192616
 20
378.054936
 30
0.0
 10
56.585815
 20
378.054936
 30
0.0
  0
SPLINE
  5
288
100
AcDbEntity
  8
Layer_1
 62
7
100
AcDbSpline
 70
8
 71
3
 72
8
 73
4
 74
0
 40
0
 40
0
 40
0
 40
0
 40
1
 40
1
 40
1
 40
1
 10
56.585815
 20
378.054936
 30
0.0
 10
57.261973
 20
378.054936
 30
0.0
 10
57.759904
 20
377.849149
 30
0.0
 10
58.079609
 20
377.437575
 30
0.0
  0
SPLINE
  5
289
100
AcDbEntity
  8
Layer_1
 62
7
100
AcDbSpline
 70
8
 71
3
 72
8
 73
4
 74
0
 40
0
 40
0
 40
0
 40
0
 40
1
 40
1
 40
1
 40
1
 10
58.079609
 20
377.437575
 30
0.0
 10
58.402989
 20
377.029676
 30
0.0
 10
58.564678
 20
376.458249
 30
0.0
 10
58.564678
 20
375.723295
 30
0.0
  0
LWPOLYLINE
  5
28a
100
AcDbEntity
  8
Layer_1
 62
7
100
AcDbPolyline
 90
6
 70
1
 10
50.616155
 20
376.324121
 30
0.0
 10
50.616155
 20
371.726983
 30
0.0
 10
49.579869
 20
371.726983
 30
0.0
 10
49.579869
 20
377.884059
 30
0.0
 10
50.616155
 20
377.884059
 30
0.0
 10
50.616155
 20
377.200554
 30
0.0
  0
LWPOLYLINE
  5
28b
100
AcDbEntity
  8
Layer_1
 62
7
100
AcDbPolyline
 90
3
 70
1
 10
58.564678
 20
375.723295
 30
0.0
 10
58.564678
 20
371.726983
 30
0.0
 10
58.564656
 20
371.726983
 30
0.0
  0
SPLINE
  5
28c
100
AcDbEntity
  8
Layer_1
 62
7
100
AcDbSpline
 70
8
 71
3
 72
8
 73
4
 74
0
 40
0
 40
0
 40
0
 40
0
 40
1
 40
1
 40
1
 40
1
 10
61.177416
 20
374.698036
 30
0.0
 10
61.177416
 20
374.319534
 30
0.0
 10
61.234375
 20
373.988805
 30
0.0
 10
61.348293
 20
373.705847
 30
0.0
  0
SPLINE
  5
28d
100
AcDbEntity
  8
Layer_1
 62
7
100
AcDbSpline
 70
8
 71
3
 72
8
 73
4
 74
0
 40
0
 40
0
 40
0
 40
0
 40
1
 40
1
 40
1
 40
1
 10
61.348293
 20
373.705847
 30
0.0
 10
61.462211
 20
373.426565
 30
0.0
 10
61.618389
 20
373.196893
 30
0.0
 10
61.816827
 20
373.016829
 30
0.0
  0
SPLINE
  5
28e
100
AcDbEntity
  8
Layer_1
 62
7
100
AcDbSpline
 70
8
 71
3
 72
8
 73
4
 74
0
 40
0
 40
0
 40
0
 40
0
 40
1
 40
1
 40
1
 40
1
 10
61.816827
 20
373.016829
 30
0.0
 10
62.007914
 20
372.840440
 30
0.0
 10
62.233912
 20
372.708149
 30
0.0
 10
62.494820
 20
372.619954
 30
0.0
  0
SPLINE
  5
28f
100
AcDbEntity
  8
Layer_1
 62
7
100
AcDbSpline
 70
8
 71
3
 72
8
 73
4
 74
0
 40
0
 40
0
 40
0
 40
0
 40
1
 40
1
 40
1
 40
1
 10
62.494820
 20
372.619954
 30
0.0
 10
62.759404
 20
372.531760
 30
0.0
 10
63.049711
 20
372.487663
 30
0.0
 10
63.365741
 20
372.487663
 30
0.0
  0
SPLINE
  5
290
100
AcDbEntity
  8
Layer_1
 62
7
100
AcDbSpline
 70
8
 71
3
 72
8
 73
4
 74
0
 40
0
 40
0
 40
0
 40
0
 40
1
 40
1
 40
1
 40
1
 10
63.365741
 20
372.487663
 30
0.0
 10
63.784664
 20
372.487663
 30
0.0
 10
64.205425
 20
372.570344
 30
0.0
 10
64.628022
 20
372.735708
 30
0.0
  0
SPLINE
  5
291
100
AcDbEntity
  8
Layer_1
 62
7
100
AcDbSpline
 70
8
 71
3
 72
8
 73
4
 74
0
 40
0
 40
0
 40
0
 40
0
 40
1
 40
1
 40
1
 40
1
 10
64.628022
 20
372.735708
 30
0.0
 10
65.054297
 20
372.904748
 30
0.0
 10
65.357465
 20
373.070113
 30
0.0
 10
65.537529
 20
373.231804
 30
0.0
  0
LWPOLYLINE
  5
292
100
AcDbEntity
  8
Layer_1
 62
7
100
AcDbPolyline
 90
2
 70
1
 10
65.713918
 20
374.698036
 30
0.0
 10
61.177416
 20
374.698036
 30
0.0
  0
SPLINE
  5
293
100
AcDbEntity
  8
Layer_1
 62
7
100
AcDbSpline
 70
8
 71
3
 72
8
 73
4
 74
0
 40
0
 40
0
 40
0
 40
0
 40
1
 40
1
 40
1
 40
1
 10
65.592650
 20
372.101811
 30
0.0
 10
65.243546
 20
371.954821
 30
0.0
 10
64.887094
 20
371.831716
 30
0.0
 10
64.523293
 20
371.732498
 30
0.0
  0
SPLINE
  5
294
100
AcDbEntity
  8
Layer_1
 62
7
100
AcDbSpline
 70
8
 71
3
 72
8
 73
4
 74
0
 40
0
 40
0
 40
0
 40
0
 40
1
 40
1
 40
1
 40
1
 10
64.523293
 20
371.732498
 30
0.0
 10
64.159491
 20
371.633278
 30
0.0
 10
63.777315
 20
371.583668
 30
0.0
 10
63.376765
 20
371.583668
 30
0.0
  0
SPLINE
  5
295
100
AcDbEntity
  8
Layer_1
 62
7
100
AcDbSpline
 70
8
 71
3
 72
8
 73
4
 74
0
 40
0
 40
0
 40
0
 40
0
 40
1
 40
1
 40
1
 40
1
 10
63.376765
 20
371.583668
 30
0.0
 10
62.355179
 20
371.583668
 30
0.0
 10
61.557754
 20
371.859276
 30
0.0
 10
60.984491
 20
372.410492
 30
0.0
  0
SPLINE
  5
296
100
AcDbEntity
  8
Layer_1
 62
7
100
AcDbSpline
 70
8
 71
3
 72
8
 73
4
 74
0
 40
0
 40
0
 40
0
 40
0
 40
1
 40
1
 40
1
 40
1
 10
60.984491
 20
372.410492
 30
0.0
 10
60.411226
 20
372.965382
 30
0.0
 10
60.124594
 20
373.751782
 30
0.0
 10
60.124594
 20
374.769692
 30
0.0
  0
SPLINE
  5
297
100
AcDbEntity
  8
Layer_1
 62
7
100
AcDbSpline
 70
8
 71
3
 72
8
 73
4
 74
0
 40
0
 40
0
 40
0
 40
0
 40
1
 40
1
 40
1
 40
1
 10
60.124594
 20
374.769692
 30
0.0
 10
60.124594
 20
375.776580
 30
0.0
 10
60.398365
 20
376.575843
 30
0.0
 10
60.945906
 20
377.167480
 30
0.0
  0
SPLINE
  5
298
100
AcDbEntity
  8
Layer_1
 62
7
100
AcDbSpline
 70
8
 71
3
 72
8
 73
4
 74
0
 40
0
 40
0
 40
0
 40
0
 40
1
 40
1
 40
1
 40
1
 10
60.945906
 20
377.167480
 30
0.0
 10
61.497122
 20
377.759117
 30
0.0
 10
62.221051
 20
378.054936
 30
0.0
 10
63.117693
 20
378.054936
 30
0.0
  0
SPLINE
  5
299
100
AcDbEntity
  8
Layer_1
 62
7
100
AcDbSpline
 70
8
 71
3
 72
8
 73
4
 74
0
 40
0
 40
0
 40
0
 40
0
 40
1
 40
1
 40
1
 40
1
 10
63.117693
 20
378.054936
 30
0.0
 10
63.948191
 20
378.054936
 30
0.0
 10
64.587601
 20
377.812401
 30
0.0
 10
65.035924
 20
377.327331
 30
0.0
  0
SPLINE
  5
29a
100
AcDbEntity
  8
Layer_1
 62
7
100
AcDbSpline
 70
8
 71
3
 72
8
 73
4
 74
0
 40
0
 40
0
 40
0
 40
0
 40
1
 40
1
 40
1
 40
1
 10
65.035924
 20
377.327331
 30
0.0
 10
65.487920
 20
376.842262
 30
0.0
 10
65.713918
 20
376.153244
 30
0.0
 10
65.713918
 20
375.260276
 30
0.0
  0
LWPOLYLINE
  5
29b
100
AcDbEntity
  8
Layer_1
 62
7
100
AcDbPolyline
 90
3
 70
1
 10
65.537529
 20
373.231804
 30
0.0
 10
65.592650
 20
373.231804
 30
0.0
 10
65.592650
 20
372.101811
 30
0.0
  0
SPLINE
  5
29c
100
AcDbEntity
  8
Layer_1
 62
7
100
AcDbSpline
 70
8
 71
3
 72
8
 73
4
 74
0
 40
0
 40
0
 40
0
 40
0
 40
1
 40
1
 40
1
 40
1
 10
64.705193
 20
375.491786
 30
0.0
 10
64.701524
 20
376.035650
 30
0.0
 10
64.563721
 20
376.456411
 30
0.0
 10
64.291783
 20
376.754067
 30
0.0
  0
SPLINE
  5
29d
100
AcDbEntity
  8
Layer_1
 62
7
100
AcDbSpline
 70
8
 71
3
 72
8
 73
4
 74
0
 40
0
 40
0
 40
0
 40
0
 40
1
 40
1
 40
1
 40
1
 10
64.291783
 20
376.754067
 30
0.0
 10
64.023525
 20
377.051725
 30
0.0
 10
63.613788
 20
377.200554
 30
0.0
 10
63.062572
 20
377.200554
 30
0.0
  0
SPLINE
  5
29e
100
AcDbEntity
  8
Layer_1
 62
7
100
AcDbSpline
 70
8
 71
3
 72
8
 73
4
 74
0
 40
0
 40
0
 40
0
 40
0
 40
1
 40
1
 40
1
 40
1
 10
63.062572
 20
377.200554
 30
0.0
 10
62.507682
 20
377.200554
 30
0.0
 10
62.064873
 20
377.037026
 30
0.0
 10
61.734144
 20
376.709970
 30
0.0
  0
SPLINE
  5
29f
100
AcDbEntity
  8
Layer_1
 62
7
100
AcDbSpline
 70
8
 71
3
 72
8
 73
4
 74
0
 40
0
 40
0
 40
0
 40
0
 40
1
 40
1
 40
1
 40
1
 10
61.734144
 20
376.709970
 30
0.0
 10
61.407090
 20
376.382915
 30
0.0
 10
61.221514
 20
375.976854
 30
0.0
 10
61.177416
 20
375.491786
 30
0.0
  0
LWPOLYLINE
  5
2a0
100
AcDbEntity
  8
Layer_1
 62
7
100
AcDbPolyline
 90
3
 70
1
 10
65.713918
 20
375.260276
 30
0.0
 10
65.713918
 20
374.698036
 30
0.0
 10
65.713918
 20
374.698036
 30
0.0
  0
LWPOLYLINE
  5
2a1
100
AcDbEntity
  8
Layer_1
 62
7
100
AcDbPolyline
 90
3
 70
1
 10
61.177416
 20
375.491786
 30
0.0
 10
64.705193
 20
375.491786
 30
0.0
 10
64.705193
 20
375.491786
 30
0.0
  0
SPLINE
  5
2a2
100
AcDbEntity
  8
Layer_1
 62
7
100
AcDbSpline
 70
8
 71
3
 72
8
 73
4
 74
0
 40
0
 40
0
 40
0
 40
0
 40
1
 40
1
 40
1
 40
1
 10
71.071729
 20
376.754067
 30
0.0
 10
70.917389
 20
376.790816
 30
0.0
 10
70.766724
 20
376.816539
 30
0.0
 10
70.619733
 20
376.831238
 30
0.0
  0
SPLINE
  5
2a3
100
AcDbEntity
  8
Layer_1
 62
7
100
AcDbSpline
 70
8
 71
3
 72
8
 73
4
 74
0
 40
0
 40
0
 40
0
 40
0
 40
1
 40
1
 40
1
 40
1
 10
70.619733
 20
376.831238
 30
0.0
 10
70.476417
 20
376.849620
 30
0.0
 10
70.305541
 20
376.858811
 30
0.0
 10
70.107104
 20
376.858811
 30
0.0
  0
SPLINE
  5
2a4
100
AcDbEntity
  8
Layer_1
 62
7
100
AcDbSpline
 70
8
 71
3
 72
8
 73
4
 74
0
 40
0
 40
0
 40
0
 40
0
 40
1
 40
1
 40
1
 40
1
 10
70.107104
 20
376.858811
 30
0.0
 10
69.787399
 20
376.858811
 30
0.0
 10
69.478719
 20
376.787153
 30
0.0
 10
69.181063
 20
376.643836
 30
0.0
  0
SPLINE
  5
2a5
100
AcDbEntity
  8
Layer_1
 62
7
100
AcDbSpline
 70
8
 71
3
 72
8
 73
4
 74
0
 40
0
 40
0
 40
0
 40
0
 40
1
 40
1
 40
1
 40
1
 10
69.181063
 20
376.643836
 30
0.0
 10
68.883405
 20
376.504195
 30
0.0
 10
68.596772
 20
376.322294
 30
0.0
 10
68.321166
 20
376.098134
 30
0.0
  0
LWPOLYLINE
  5
2a6
100
AcDbEntity
  8
Layer_1
 62
7
100
AcDbPolyline
 90
2
 70
1
 10
71.126852
 20
376.754067
 30
0.0
 10
71.071729
 20
376.754067
 30
0.0
  0
SPLINE
  5
2a7
100
AcDbEntity
  8
Layer_1
 62
7
100
AcDbSpline
 70
8
 71
3
 72
8
 73
4
 74
0
 40
0
 40
0
 40
0
 40
0
 40
1
 40
1
 40
1
 40
1
 10
68.321166
 20
376.974564
 30
0.0
 10
68.732740
 20
377.305295
 30
0.0
 10
69.094705
 20
377.538643
 30
0.0
 10
69.407061
 20
377.674608
 30
0.0
  0
SPLINE
  5
2a8
100
AcDbEntity
  8
Layer_1
 62
7
100
AcDbSpline
 70
8
 71
3
 72
8
 73
4
 74
0
 40
0
 40
0
 40
0
 40
0
 40
1
 40
1
 40
1
 40
1
 10
69.407061
 20
377.674608
 30
0.0
 10
69.723089
 20
377.814250
 30
0.0
 10
70.044632
 20
377.884070
 30
0.0
 10
70.371688
 20
377.884070
 30
0.0
  0
SPLINE
  5
2a9
100
AcDbEntity
  8
Layer_1
 62
7
100
AcDbSpline
 70
8
 71
3
 72
8
 73
4
 74
0
 40
0
 40
0
 40
0
 40
0
 40
1
 40
1
 40
1
 40
1
 10
70.371688
 20
377.884070
 30
0.0
 10
70.551751
 20
377.884070
 30
0.0
 10
70.682205
 20
377.878558
 30
0.0
 10
70.763048
 20
377.867532
 30
0.0
  0
SPLINE
  5
2aa
100
AcDbEntity
  8
Layer_1
 62
7
100
AcDbSpline
 70
8
 71
3
 72
8
 73
4
 74
0
 40
0
 40
0
 40
0
 40
0
 40
1
 40
1
 40
1
 40
1
 10
70.763048
 20
377.867532
 30
0.0
 10
70.843894
 20
377.860176
 30
0.0
 10
70.965162
 20
377.843639
 30
0.0
 10
71.126852
 20
377.817923
 30
0.0
  0
LWPOLYLINE
  5
2ab
100
AcDbEntity
  8
Layer_1
 62
7
100
AcDbPolyline
 90
6
 70
1
 10
68.321166
 20
376.098134
 30
0.0
 10
68.321166
 20
371.726995
 30
0.0
 10
67.284882
 20
371.726995
 30
0.0
 10
67.284882
 20
377.884070
 30
0.0
 10
68.321166
 20
377.884070
 30
0.0
 10
68.321166
 20
376.974564
 30
0.0
  0
SPLINE
  5
2ac
100
AcDbEntity
  8
Layer_1
 62
7
100
AcDbSpline
 70
8
 71
3
 72
8
 73
4
 74
0
 40
0
 40
0
 40
0
 40
0
 40
1
 40
1
 40
1
 40
1
 10
76.512225
 20
373.501899
 30
0.0
 10
76.512225
 20
372.939659
 30
0.0
 10
76.278877
 20
372.478475
 30
0.0
 10
75.812182
 20
372.118347
 30
0.0
  0
SPLINE
  5
2ad
100
AcDbEntity
  8
Layer_1
 62
7
100
AcDbSpline
 70
8
 71
3
 72
8
 73
4
 74
0
 40
0
 40
0
 40
0
 40
0
 40
1
 40
1
 40
1
 40
1
 10
75.812182
 20
372.118347
 30
0.0
 10
75.349160
 20
371.758220
 30
0.0
 10
74.715263
 20
371.578156
 30
0.0
 10
73.910489
 20
371.578156
 30
0.0
  0
SPLINE
  5
2ae
100
AcDbEntity
  8
Layer_1
 62
7
100
AcDbSpline
 70
8
 71
3
 72
8
 73
4
 74
0
 40
0
 40
0
 40
0
 40
0
 40
1
 40
1
 40
1
 40
1
 10
73.910489
 20
371.578156
 30
0.0
 10
73.454817
 20
371.578156
 30
0.0
 10
73.035893
 20
371.631441
 30
0.0
 10
72.653717
 20
371.738010
 30
0.0
  0
SPLINE
  5
2af
100
AcDbEntity
  8
Layer_1
 62
7
100
AcDbSpline
 70
8
 71
3
 72
8
 73
4
 74
0
 40
0
 40
0
 40
0
 40
0
 40
1
 40
1
 40
1
 40
1
 10
72.653717
 20
371.738010
 30
0.0
 10
72.275216
 20
371.848252
 30
0.0
 10
71.957349
 20
371.967681
 30
0.0
 10
71.700116
 20
372.096299
 30
0.0
  0
LWPOLYLINE
  5
2b0
100
AcDbEntity
  8
Layer_1
 62
7
100
AcDbPolyline
 90
3
 70
1
 10
71.126852
 20
377.817923
 30
0.0
 10
71.126852
 20
376.754075
 30
0.0
 10
71.126852
 20
376.754067
 30
0.0
  0
SPLINE
  5
2b1
100
AcDbEntity
  8
Layer_1
 62
7
100
AcDbSpline
 70
8
 71
3
 72
8
 73
4
 74
0
 40
0
 40
0
 40
0
 40
0
 40
1
 40
1
 40
1
 40
1
 10
71.755237
 20
373.259363
 30
0.0
 10
72.082291
 20
373.013154
 30
0.0
 10
72.446094
 20
372.816554
 30
0.0
 10
72.846644
 20
372.669563
 30
0.0
  0
SPLINE
  5
2b2
100
AcDbEntity
  8
Layer_1
 62
7
100
AcDbSpline
 70
8
 71
3
 72
8
 73
4
 74
0
 40
0
 40
0
 40
0
 40
0
 40
1
 40
1
 40
1
 40
1
 10
72.846644
 20
372.669563
 30
0.0
 10
73.247193
 20
372.526247
 30
0.0
 10
73.631206
 20
372.454589
 30
0.0
 10
73.998684
 20
372.454589
 30
0.0
  0
SPLINE
  5
2b3
100
AcDbEntity
  8
Layer_1
 62
7
100
AcDbSpline
 70
8
 71
3
 72
8
 73
4
 74
0
 40
0
 40
0
 40
0
 40
0
 40
1
 40
1
 40
1
 40
1
 10
73.998684
 20
372.454589
 30
0.0
 10
74.454354
 20
372.454589
 30
0.0
 10
74.810806
 20
372.528084
 30
0.0
 10
75.068041
 20
372.675075
 30
0.0
  0
SPLINE
  5
2b4
100
AcDbEntity
  8
Layer_1
 62
7
100
AcDbSpline
 70
8
 71
3
 72
8
 73
4
 74
0
 40
0
 40
0
 40
0
 40
0
 40
1
 40
1
 40
1
 40
1
 10
75.068041
 20
372.675075
 30
0.0
 10
75.325275
 20
372.822066
 30
0.0
 10
75.453892
 20
373.053577
 30
0.0
 10
75.453892
 20
373.369607
 30
0.0
  0
SPLINE
  5
2b5
100
AcDbEntity
  8
Layer_1
 62
7
100
AcDbSpline
 70
8
 71
3
 72
8
 73
4
 74
0
 40
0
 40
0
 40
0
 40
0
 40
1
 40
1
 40
1
 40
1
 10
75.453892
 20
373.369607
 30
0.0
 10
75.453892
 20
373.612141
 30
0.0
 10
75.384071
 20
373.795879
 30
0.0
 10
75.244429
 20
373.920821
 30
0.0
  0
SPLINE
  5
2b6
100
AcDbEntity
  8
Layer_1
 62
7
100
AcDbSpline
 70
8
 71
3
 72
8
 73
4
 74
0
 40
0
 40
0
 40
0
 40
0
 40
1
 40
1
 40
1
 40
1
 10
75.244429
 20
373.920821
 30
0.0
 10
75.104788
 20
374.045763
 30
0.0
 10
74.836530
 20
374.152331
 30
0.0
 10
74.439656
 20
374.240525
 30
0.0
  0
SPLINE
  5
2b7
100
AcDbEntity
  8
Layer_1
 62
7
100
AcDbSpline
 70
8
 71
3
 72
8
 73
4
 74
0
 40
0
 40
0
 40
0
 40
0
 40
1
 40
1
 40
1
 40
1
 10
74.439656
 20
374.240525
 30
0.0
 10
74.292665
 20
374.273600
 30
0.0
 10
74.099740
 20
374.312185
 30
0.0
 10
73.860880
 20
374.356281
 30
0.0
  0
SPLINE
  5
2b8
100
AcDbEntity
  8
Layer_1
 62
7
100
AcDbSpline
 70
8
 71
3
 72
8
 73
4
 74
0
 40
0
 40
0
 40
0
 40
0
 40
1
 40
1
 40
1
 40
1
 10
73.860880
 20
374.356281
 30
0.0
 10
73.625695
 20
374.400380
 30
0.0
 10
73.410721
 20
374.448151
 30
0.0
 10
73.215957
 20
374.499597
 30
0.0
  0
SPLINE
  5
2b9
100
AcDbEntity
  8
Layer_1
 62
7
100
AcDbSpline
 70
8
 71
3
 72
8
 73
4
 74
0
 40
0
 40
0
 40
0
 40
0
 40
1
 40
1
 40
1
 40
1
 10
73.215957
 20
374.499597
 30
0.0
 10
72.675767
 20
374.642913
 30
0.0
 10
72.291754
 20
374.852375
 30
0.0
 10
72.063918
 20
375.127984
 30
0.0
  0
SPLINE
  5
2ba
100
AcDbEntity
  8
Layer_1
 62
7
100
AcDbSpline
 70
8
 71
3
 72
8
 73
4
 74
0
 40
0
 40
0
 40
0
 40
0
 40
1
 40
1
 40
1
 40
1
 10
72.063918
 20
375.127984
 30
0.0
 10
71.839756
 20
375.407266
 30
0.0
 10
71.727675
 20
375.749019
 30
0.0
 10
71.727675
 20
376.153244
 30
0.0
  0
SPLINE
  5
2bb
100
AcDbEntity
  8
Layer_1
 62
7
100
AcDbSpline
 70
8
 71
3
 72
8
 73
4
 74
0
 40
0
 40
0
 40
0
 40
0
 40
1
 40
1
 40
1
 40
1
 10
71.727675
 20
376.153244
 30
0.0
 10
71.727675
 20
376.406802
 30
0.0
 10
71.779122
 20
376.645661
 30
0.0
 10
71.882017
 20
376.869823
 30
0.0
  0
SPLINE
  5
2bc
100
AcDbEntity
  8
Layer_1
 62
7
100
AcDbSpline
 70
8
 71
3
 72
8
 73
4
 74
0
 40
0
 40
0
 40
0
 40
0
 40
1
 40
1
 40
1
 40
1
 10
71.882017
 20
376.869823
 30
0.0
 10
71.988584
 20
377.093985
 30
0.0
 10
72.148437
 20
377.294260
 30
0.0
 10
72.361575
 20
377.470649
 30
0.0
  0
SPLINE
  5
2bd
100
AcDbEntity
  8
Layer_1
 62
7
100
AcDbSpline
 70
8
 71
3
 72
8
 73
4
 74
0
 40
0
 40
0
 40
0
 40
0
 40
1
 40
1
 40
1
 40
1
 10
72.361575
 20
377.470649
 30
0.0
 10
72.567362
 20
377.643363
 30
0.0
 10
72.828269
 20
377.779329
 30
0.0
 10
73.144298
 20
377.878547
 30
0.0
  0
SPLINE
  5
2be
100
AcDbEntity
  8
Layer_1
 62
7
100
AcDbSpline
 70
8
 71
3
 72
8
 73
4
 74
0
 40
0
 40
0
 40
0
 40
0
 40
1
 40
1
 40
1
 40
1
 10
73.144298
 20
377.878547
 30
0.0
 10
73.464003
 20
377.981440
 30
0.0
 10
73.820457
 20
378.032886
 30
0.0
 10
74.213658
 20
378.032886
 30
0.0
  0
SPLINE
  5
2bf
100
AcDbEntity
  8
Layer_1
 62
7
100
AcDbSpline
 70
8
 71
3
 72
8
 73
4
 74
0
 40
0
 40
0
 40
0
 40
0
 40
1
 40
1
 40
1
 40
1
 10
74.213658
 20
378.032886
 30
0.0
 10
74.581134
 20
378.032886
 30
0.0
 10
74.952285
 20
377.986952
 30
0.0
 10
75.327112
 20
377.895083
 30
0.0
  0
SPLINE
  5
2c0
100
AcDbEntity
  8
Layer_1
 62
7
100
AcDbSpline
 70
8
 71
3
 72
8
 73
4
 74
0
 40
0
 40
0
 40
0
 40
0
 40
1
 40
1
 40
1
 40
1
 10
75.327112
 20
377.895083
 30
0.0
 10
75.705613
 20
377.806888
 30
0.0
 10
76.019806
 20
377.698483
 30
0.0
 10
76.269689
 20
377.569867
 30
0.0
  0
LWPOLYLINE
  5
2c1
100
AcDbEntity
  8
Layer_1
 62
7
100
AcDbPolyline
 90
3
 70
1
 10
71.700116
 20
372.096299
 30
0.0
 10
71.700116
 20
373.259363
 30
0.0
 10
71.755237
 20
373.259363
 30
0.0
  0
SPLINE
  5
2c2
100
AcDbEntity
  8
Layer_1
 62
7
100
AcDbSpline
 70
8
 71
3
 72
8
 73
4
 74
0
 40
0
 40
0
 40
0
 40
0
 40
1
 40
1
 40
1
 40
1
 10
76.214568
 20
376.461924
 30
0.0
 10
75.949985
 20
376.656686
 30
0.0
 10
75.628443
 20
376.820213
 30
0.0
 10
75.249941
 20
376.952506
 30
0.0
  0
SPLINE
  5
2c3
100
AcDbEntity
  8
Layer_1
 62
7
100
AcDbSpline
 70
8
 71
3
 72
8
 73
4
 74
0
 40
0
 40
0
 40
0
 40
0
 40
1
 40
1
 40
1
 40
1
 10
75.249941
 20
376.952506
 30
0.0
 10
74.871440
 20
377.088473
 30
0.0
 10
74.500288
 20
377.156456
 30
0.0
 10
74.136487
 20
377.156456
 30
0.0
  0
SPLINE
  5
2c4
100
AcDbEntity
  8
Layer_1
 62
7
100
AcDbSpline
 70
8
 71
3
 72
8
 73
4
 74
0
 40
0
 40
0
 40
0
 40
0
 40
1
 40
1
 40
1
 40
1
 10
74.136487
 20
377.156456
 30
0.0
 10
73.757986
 20
377.156456
 30
0.0
 10
73.438281
 20
377.082961
 30
0.0
 10
73.177372
 20
376.935970
 30
0.0
  0
SPLINE
  5
2c5
100
AcDbEntity
  8
Layer_1
 62
7
100
AcDbSpline
 70
8
 71
3
 72
8
 73
4
 74
0
 40
0
 40
0
 40
0
 40
0
 40
1
 40
1
 40
1
 40
1
 10
73.177372
 20
376.935970
 30
0.0
 10
72.916463
 20
376.792654
 30
0.0
 10
72.786009
 20
376.577680
 30
0.0
 10
72.786009
 20
376.291047
 30
0.0
  0
SPLINE
  5
2c6
100
AcDbEntity
  8
Layer_1
 62
7
100
AcDbSpline
 70
8
 71
3
 72
8
 73
4
 74
0
 40
0
 40
0
 40
0
 40
0
 40
1
 40
1
 40
1
 40
1
 10
72.786009
 20
376.291047
 30
0.0
 10
72.786009
 20
376.037488
 30
0.0
 10
72.865017
 20
375.846400
 30
0.0
 10
73.023033
 20
375.717783
 30
0.0
  0
SPLINE
  5
2c7
100
AcDbEntity
  8
Layer_1
 62
7
100
AcDbSpline
 70
8
 71
3
 72
8
 73
4
 74
0
 40
0
 40
0
 40
0
 40
0
 40
1
 40
1
 40
1
 40
1
 10
73.023033
 20
375.717783
 30
0.0
 10
73.177373
 20
375.589167
 30
0.0
 10
73.427257
 20
375.484436
 30
0.0
 10
73.772686
 20
375.403591
 30
0.0
  0
SPLINE
  5
2c8
100
AcDbEntity
  8
Layer_1
 62
7
100
AcDbSpline
 70
8
 71
3
 72
8
 73
4
 74
0
 40
0
 40
0
 40
0
 40
0
 40
1
 40
1
 40
1
 40
1
 10
73.772686
 20
375.403591
 30
0.0
 10
73.963773
 20
375.359493
 30
0.0
 10
74.176909
 20
375.315396
 30
0.0
 10
74.412094
 20
375.271299
 30
0.0
  0
SPLINE
  5
2c9
100
AcDbEntity
  8
Layer_1
 62
7
100
AcDbSpline
 70
8
 71
3
 72
8
 73
4
 74
0
 40
0
 40
0
 40
0
 40
0
 40
1
 40
1
 40
1
 40
1
 10
74.412094
 20
375.271299
 30
0.0
 10
74.650954
 20
375.227201
 30
0.0
 10
74.849392
 20
375.186779
 30
0.0
 10
75.007408
 20
375.150031
 30
0.0
  0
SPLINE
  5
2ca
100
AcDbEntity
  8
Layer_1
 62
7
100
AcDbSpline
 70
8
 71
3
 72
8
 73
4
 74
0
 40
0
 40
0
 40
0
 40
0
 40
1
 40
1
 40
1
 40
1
 10
75.007408
 20
375.150031
 30
0.0
 10
75.488802
 20
375.039788
 30
0.0
 10
75.859953
 20
374.850537
 30
0.0
 10
76.120862
 20
374.582279
 30
0.0
  0
SPLINE
  5
2cb
100
AcDbEntity
  8
Layer_1
 62
7
100
AcDbSpline
 70
8
 71
3
 72
8
 73
4
 74
0
 40
0
 40
0
 40
0
 40
0
 40
1
 40
1
 40
1
 40
1
 10
76.120862
 20
374.582279
 30
0.0
 10
76.381771
 20
374.310347
 30
0.0
 10
76.512225
 20
373.950220
 30
0.0
 10
76.512225
 20
373.501899
 30
0.0
  0
LWPOLYLINE
  5
2cc
100
AcDbEntity
  8
Layer_1
 62
7
100
AcDbPolyline
 90
3
 70
1
 10
76.269689
 20
377.569867
 30
0.0
 10
76.269689
 20
376.461924
 30
0.0
 10
76.214568
 20
376.461924
 30
0.0
  0
SPLINE
  5
2cd
100
AcDbEntity
  8
Layer_1
 62
7
100
AcDbSpline
 70
8
 71
3
 72
8
 73
4
 74
0
 40
0
 40
0
 40
0
 40
0
 40
1
 40
1
 40
1
 40
1
 10
83.248077
 20
374.802765
 30
0.0
 10
83.248077
 20
373.799554
 30
0.0
 10
82.990842
 20
373.007641
 30
0.0
 10
82.476374
 20
372.427027
 30
0.0
  0
SPLINE
  5
2ce
100
AcDbEntity
  8
Layer_1
 62
7
100
AcDbSpline
 70
8
 71
3
 72
8
 73
4
 74
0
 40
0
 40
0
 40
0
 40
0
 40
1
 40
1
 40
1
 40
1
 10
82.476374
 20
372.427027
 30
0.0
 10
81.961907
 20
371.846415
 30
0.0
 10
81.272888
 20
371.556109
 30
0.0
 10
80.409316
 20
371.556109
 30
0.0
  0
SPLINE
  5
2cf
100
AcDbEntity
  8
Layer_1
 62
7
100
AcDbSpline
 70
8
 71
3
 72
8
 73
4
 74
0
 40
0
 40
0
 40
0
 40
0
 40
1
 40
1
 40
1
 40
1
 10
80.409316
 20
371.556109
 30
0.0
 10
79.538397
 20
371.556109
 30
0.0
 10
78.845704
 20
371.846415
 30
0.0
 10
78.331235
 20
372.427027
 30
0.0
  0
SPLINE
  5
2d0
100
AcDbEntity
  8
Layer_1
 62
7
100
AcDbSpline
 70
8
 71
3
 72
8
 73
4
 74
0
 40
0
 40
0
 40
0
 40
0
 40
1
 40
1
 40
1
 40
1
 10
78.331235
 20
372.427027
 30
0.0
 10
77.820443
 20
373.007641
 30
0.0
 10
77.565047
 20
373.799554
 30
0.0
 10
77.565047
 20
374.802765
 30
0.0
  0
SPLINE
  5
2d1
100
AcDbEntity
  8
Layer_1
 62
7
100
AcDbSpline
 70
8
 71
3
 72
8
 73
4
 74
0
 40
0
 40
0
 40
0
 40
0
 40
1
 40
1
 40
1
 40
1
 10
77.565047
 20
374.802765
 30
0.0
 10
77.565047
 20
375.805977
 30
0.0
 10
77.820443
 20
376.597890
 30
0.0
 10
78.331235
 20
377.178504
 30
0.0
  0
SPLINE
  5
2d2
100
AcDbEntity
  8
Layer_1
 62
7
100
AcDbSpline
 70
8
 71
3
 72
8
 73
4
 74
0
 40
0
 40
0
 40
0
 40
0
 40
1
 40
1
 40
1
 40
1
 10
78.331235
 20
377.178504
 30
0.0
 10
78.845704
 20
377.762792
 30
0.0
 10
79.538397
 20
378.054936
 30
0.0
 10
80.409316
 20
378.054936
 30
0.0
  0
SPLINE
  5
2d3
100
AcDbEntity
  8
Layer_1
 62
7
100
AcDbSpline
 70
8
 71
3
 72
8
 73
4
 74
0
 40
0
 40
0
 40
0
 40
0
 40
1
 40
1
 40
1
 40
1
 10
80.409316
 20
378.054936
 30
0.0
 10
81.272888
 20
378.054936
 30
0.0
 10
81.961907
 20
377.762792
 30
0.0
 10
82.476374
 20
377.178504
 30
0.0
  0
SPLINE
  5
2d4
100
AcDbEntity
  8
Layer_1
 62
7
100
AcDbSpline
 70
8
 71
3
 72
8
 73
4
 74
0
 40
0
 40
0
 40
0
 40
0
 40
1
 40
1
 40
1
 40
1
 10
82.476374
 20
377.178504
 30
0.0
 10
82.990842
 20
376.597890
 30
0.0
 10
83.248077
 20
375.805977
 30
0.0
 10
83.248077
 20
374.802765
 30
0.0
  0
LWPOLYLINE
  5
2d5
100
AcDbEntity
  8
Layer_1
 62
7
100
AcDbPolyline
 90
2
 70
1
 10
76.512225
 20
373.501899
 30
0.0
 10
76.512225
 20
373.501899
 30
0.0
  0
SPLINE
  5
2d6
100
AcDbEntity
  8
Layer_1
 62
7
100
AcDbSpline
 70
8
 71
3
 72
8
 73
4
 74
0
 40
0
 40
0
 40
0
 40
0
 40
1
 40
1
 40
1
 40
1
 10
82.178717
 20
374.802765
 30
0.0
 10
82.178717
 20
375.600190
 30
0.0
 10
82.022540
 20
376.191827
 30
0.0
 10
81.710186
 20
376.577678
 30
0.0
  0
SPLINE
  5
2d7
100
AcDbEntity
  8
Layer_1
 62
7
100
AcDbSpline
 70
8
 71
3
 72
8
 73
4
 74
0
 40
0
 40
0
 40
0
 40
0
 40
1
 40
1
 40
1
 40
1
 10
81.710186
 20
376.577678
 30
0.0
 10
81.397830
 20
376.967205
 30
0.0
 10
80.964207
 20
377.161968
 30
0.0
 10
80.409316
 20
377.161968
 30
0.0
  0
SPLINE
  5
2d8
100
AcDbEntity
  8
Layer_1
 62
7
100
AcDbSpline
 70
8
 71
3
 72
8
 73
4
 74
0
 40
0
 40
0
 40
0
 40
0
 40
1
 40
1
 40
1
 40
1
 10
80.409316
 20
377.161968
 30
0.0
 10
79.847077
 20
377.161968
 30
0.0
 10
79.409779
 20
376.967205
 30
0.0
 10
79.097423
 20
376.577678
 30
0.0
  0
SPLINE
  5
2d9
100
AcDbEntity
  8
Layer_1
 62
7
100
AcDbSpline
 70
8
 71
3
 72
8
 73
4
 74
0
 40
0
 40
0
 40
0
 40
0
 40
1
 40
1
 40
1
 40
1
 10
79.097423
 20
376.577678
 30
0.0
 10
78.788744
 20
376.191827
 30
0.0
 10
78.634404
 20
375.600190
 30
0.0
 10
78.634404
 20
374.802765
 30
0.0
  0
SPLINE
  5
2da
100
AcDbEntity
  8
Layer_1
 62
7
100
AcDbSpline
 70
8
 71
3
 72
8
 73
4
 74
0
 40
0
 40
0
 40
0
 40
0
 40
1
 40
1
 40
1
 40
1
 10
78.634404
 20
374.802765
 30
0.0
 10
78.634404
 20
374.031064
 30
0.0
 10
78.790582
 20
373.444939
 30
0.0
 10
79.102938
 20
373.044388
 30
0.0
  0
SPLINE
  5
2db
100
AcDbEntity
  8
Layer_1
 62
7
100
AcDbSpline
 70
8
 71
3
 72
8
 73
4
 74
0
 40
0
 40
0
 40
0
 40
0
 40
1
 40
1
 40
1
 40
1
 10
79.102938
 20
373.044388
 30
0.0
 10
79.415292
 20
372.647514
 30
0.0
 10
79.850751
 20
372.449077
 30
0.0
 10
80.409316
 20
372.449077
 30
0.0
  0
SPLINE
  5
2dc
100
AcDbEntity
  8
Layer_1
 62
7
100
AcDbSpline
 70
8
 71
3
 72
8
 73
4
 74
0
 40
0
 40
0
 40
0
 40
0
 40
1
 40
1
 40
1
 40
1
 10
80.409316
 20
372.449077
 30
0.0
 10
80.960532
 20
372.449077
 30
0.0
 10
81.392318
 20
372.645677
 30
0.0
 10
81.704674
 20
373.038877
 30
0.0
  0
SPLINE
  5
2dd
100
AcDbEntity
  8
Layer_1
 62
7
100
AcDbSpline
 70
8
 71
3
 72
8
 73
4
 74
0
 40
0
 40
0
 40
0
 40
0
 40
1
 40
1
 40
1
 40
1
 10
81.704674
 20
373.038877
 30
0.0
 10
82.020703
 20
373.435752
 30
0.0
 10
82.178717
 20
374.023715
 30
0.0
 10
82.178717
 20
374.802765
 30
0.0
  0
LWPOLYLINE
  5
2de
100
AcDbEntity
  8
Layer_1
 62
7
100
AcDbPolyline
 90
2
 70
1
 10
83.248077
 20
374.802765
 30
0.0
 10
83.248077
 20
374.802765
 30
0.0
  0
LWPOLYLINE
  5
2df
100
AcDbEntity
  8
Layer_1
 62
7
100
AcDbPolyline
 90
2
 70
1
 10
82.178717
 20
374.802765
 30
0.0
 10
82.178717
 20
374.802765
 30
0.0
  0
SPLINE
  5
2e0
100
AcDbEntity
  8
Layer_1
 62
7
100
AcDbSpline
 70
8
 71
3
 72
8
 73
4
 74
0
 40
0
 40
0
 40
0
 40
0
 40
1
 40
1
 40
1
 40
1
 10
88.969689
 20
375.232714
 30
0.0
 10
88.969689
 20
375.515672
 30
0.0
 10
88.953153
 20
375.780255
 30
0.0
 10
88.920080
 20
376.026464
 30
0.0
  0
SPLINE
  5
2e1
100
AcDbEntity
  8
Layer_1
 62
7
100
AcDbSpline
 70
8
 71
3
 72
8
 73
4
 74
0
 40
0
 40
0
 40
0
 40
0
 40
1
 40
1
 40
1
 40
1
 10
88.920080
 20
376.026464
 30
0.0
 10
88.887007
 20
376.276347
 30
0.0
 10
88.826374
 20
376.471110
 30
0.0
 10
88.738179
 20
376.610752
 30
0.0
  0
SPLINE
  5
2e2
100
AcDbEntity
  8
Layer_1
 62
7
100
AcDbSpline
 70
8
 71
3
 72
8
 73
4
 74
0
 40
0
 40
0
 40
0
 40
0
 40
1
 40
1
 40
1
 40
1
 10
88.738179
 20
376.610752
 30
0.0
 10
88.646310
 20
376.765091
 30
0.0
 10
88.514019
 20
376.879009
 30
0.0
 10
88.341304
 20
376.952506
 30
0.0
  0
SPLINE
  5
2e3
100
AcDbEntity
  8
Layer_1
 62
7
100
AcDbSpline
 70
8
 71
3
 72
8
 73
4
 74
0
 40
0
 40
0
 40
0
 40
0
 40
1
 40
1
 40
1
 40
1
 10
88.341304
 20
376.952506
 30
0.0
 10
88.168590
 20
377.029677
 30
0.0
 10
87.944429
 20
377.068262
 30
0.0
 10
87.668822
 20
377.068262
 30
0.0
  0
SPLINE
  5
2e4
100
AcDbEntity
  8
Layer_1
 62
7
100
AcDbSpline
 70
8
 71
3
 72
8
 73
4
 74
0
 40
0
 40
0
 40
0
 40
0
 40
1
 40
1
 40
1
 40
1
 10
87.668822
 20
377.068262
 30
0.0
 10
87.385865
 20
377.068262
 30
0.0
 10
87.090046
 20
376.998441
 30
0.0
 10
86.781366
 20
376.858799
 30
0.0
  0
SPLINE
  5
2e5
100
AcDbEntity
  8
Layer_1
 62
7
100
AcDbSpline
 70
8
 71
3
 72
8
 73
4
 74
0
 40
0
 40
0
 40
0
 40
0
 40
1
 40
1
 40
1
 40
1
 10
86.781366
 20
376.858799
 30
0.0
 10
86.472685
 20
376.719158
 30
0.0
 10
86.176866
 20
376.540932
 30
0.0
 10
85.893910
 20
376.324121
 30
0.0
  0
LWPOLYLINE
  5
2e6
100
AcDbEntity
  8
Layer_1
 62
7
100
AcDbPolyline
 90
3
 70
1
 10
90.005975
 20
371.726983
 30
0.0
 10
88.969689
 20
371.726983
 30
0.0
 10
88.969689
 20
375.232714
 30
0.0
  0
SPLINE
  5
2e7
100
AcDbEntity
  8
Layer_1
 62
7
100
AcDbSpline
 70
8
 71
3
 72
8
 73
4
 74
0
 40
0
 40
0
 40
0
 40
0
 40
1
 40
1
 40
1
 40
1
 10
85.893910
 20
377.200554
 30
0.0
 10
86.217290
 20
377.468811
 30
0.0
 10
86.551693
 20
377.678273
 30
0.0
 10
86.897120
 20
377.828938
 30
0.0
  0
SPLINE
  5
2e8
100
AcDbEntity
  8
Layer_1
 62
7
100
AcDbSpline
 70
8
 71
3
 72
8
 73
4
 74
0
 40
0
 40
0
 40
0
 40
0
 40
1
 40
1
 40
1
 40
1
 10
86.897120
 20
377.828938
 30
0.0
 10
87.242548
 20
377.979604
 30
0.0
 10
87.597163
 20
378.054936
 30
0.0
 10
87.960965
 20
378.054936
 30
0.0
  0
SPLINE
  5
2e9
100
AcDbEntity
  8
Layer_1
 62
7
100
AcDbSpline
 70
8
 71
3
 72
8
 73
4
 74
0
 40
0
 40
0
 40
0
 40
0
 40
1
 40
1
 40
1
 40
1
 10
87.960965
 20
378.054936
 30
0.0
 10
88.626099
 20
378.054936
 30
0.0
 10
89.133217
 20
377.854661
 30
0.0
 10
89.482320
 20
377.454111
 30
0.0
  0
SPLINE
  5
2ea
100
AcDbEntity
  8
Layer_1
 62
7
100
AcDbSpline
 70
8
 71
3
 72
8
 73
4
 74
0
 40
0
 40
0
 40
0
 40
0
 40
1
 40
1
 40
1
 40
1
 10
89.482320
 20
377.454111
 30
0.0
 10
89.831424
 20
377.053562
 30
0.0
 10
90.005975
 20
376.476624
 30
0.0
 10
90.005975
 20
375.723295
 30
0.0
  0
LWPOLYLINE
  5
2eb
100
AcDbEntity
  8
Layer_1
 62
7
100
AcDbPolyline
 90
6
 70
1
 10
85.893910
 20
376.324121
 30
0.0
 10
85.893910
 20
371.726983
 30
0.0
 10
84.857624
 20
371.726983
 30
0.0
 10
84.857624
 20
377.884059
 30
0.0
 10
85.893910
 20
377.884059
 30
0.0
 10
85.893910
 20
377.200554
 30
0.0
  0
LWPOLYLINE
  5
2ec
100
AcDbEntity
  8
Layer_1
 62
7
100
AcDbPolyline
 90
3
 70
1
 10
90.005975
 20
375.723295
 30
0.0
 10
90.005975
 20
371.726983
 30
0.0
 10
90.005975
 20
371.726983
 30
0.0
  0
SPLINE
  5
2ed
100
AcDbEntity
  8
Layer_1
 62
7
100
AcDbSpline
 70
8
 71
3
 72
8
 73
4
 74
0
 40
0
 40
0
 40
0
 40
0
 40
1
 40
1
 40
1
 40
1
 10
42.380975
 20
360.691654
 30
0.0
 10
42.380975
 20
359.688443
 30
0.0
 10
42.123741
 20
358.896530
 30
0.0
 10
41.609272
 20
358.315916
 30
0.0
  0
SPLINE
  5
2ee
100
AcDbEntity
  8
Layer_1
 62
7
100
AcDbSpline
 70
8
 71
3
 72
8
 73
4
 74
0
 40
0
 40
0
 40
0
 40
0
 40
1
 40
1
 40
1
 40
1
 10
41.609272
 20
358.315916
 30
0.0
 10
41.094806
 20
357.735304
 30
0.0
 10
40.405787
 20
357.444998
 30
0.0
 10
39.542215
 20
357.444998
 30
0.0
  0
SPLINE
  5
2ef
100
AcDbEntity
  8
Layer_1
 62
7
100
AcDbSpline
 70
8
 71
3
 72
8
 73
4
 74
0
 40
0
 40
0
 40
0
 40
0
 40
1
 40
1
 40
1
 40
1
 10
39.542215
 20
357.444998
 30
0.0
 10
38.671296
 20
357.444998
 30
0.0
 10
37.978602
 20
357.735304
 30
0.0
 10
37.464134
 20
358.315916
 30
0.0
  0
SPLINE
  5
2f0
100
AcDbEntity
  8
Layer_1
 62
7
100
AcDbSpline
 70
8
 71
3
 72
8
 73
4
 74
0
 40
0
 40
0
 40
0
 40
0
 40
1
 40
1
 40
1
 40
1
 10
37.464134
 20
358.315916
 30
0.0
 10
36.953341
 20
358.896530
 30
0.0
 10
36.697945
 20
359.688443
 30
0.0
 10
36.697945
 20
360.691654
 30
0.0
  0
SPLINE
  5
2f1
100
AcDbEntity
  8
Layer_1
 62
7
100
AcDbSpline
 70
8
 71
3
 72
8
 73
4
 74
0
 40
0
 40
0
 40
0
 40
0
 40
1
 40
1
 40
1
 40
1
 10
36.697945
 20
360.691654
 30
0.0
 10
36.697945
 20
361.694866
 30
0.0
 10
36.953341
 20
362.486779
 30
0.0
 10
37.464134
 20
363.067392
 30
0.0
  0
SPLINE
  5
2f2
100
AcDbEntity
  8
Layer_1
 62
7
100
AcDbSpline
 70
8
 71
3
 72
8
 73
4
 74
0
 40
0
 40
0
 40
0
 40
0
 40
1
 40
1
 40
1
 40
1
 10
37.464134
 20
363.067392
 30
0.0
 10
37.978602
 20
363.651681
 30
0.0
 10
38.671296
 20
363.943825
 30
0.0
 10
39.542215
 20
363.943825
 30
0.0
  0
SPLINE
  5
2f3
100
AcDbEntity
  8
Layer_1
 62
7
100
AcDbSpline
 70
8
 71
3
 72
8
 73
4
 74
0
 40
0
 40
0
 40
0
 40
0
 40
1
 40
1
 40
1
 40
1
 10
39.542215
 20
363.943825
 30
0.0
 10
40.405787
 20
363.943825
 30
0.0
 10
41.094806
 20
363.651681
 30
0.0
 10
41.609272
 20
363.067392
 30
0.0
  0
SPLINE
  5
2f4
100
AcDbEntity
  8
Layer_1
 62
7
100
AcDbSpline
 70
8
 71
3
 72
8
 73
4
 74
0
 40
0
 40
0
 40
0
 40
0
 40
1
 40
1
 40
1
 40
1
 10
41.609272
 20
363.067392
 30
0.0
 10
42.123741
 20
362.486779
 30
0.0
 10
42.380975
 20
361.694866
 30
0.0
 10
42.380975
 20
360.691654
 30
0.0
  0
LWPOLYLINE
  5
2f5
100
AcDbEntity
  8
Layer_1
 62
7
100
AcDbPolyline
 90
12
 70
1
 10
35.033275
 20
357.615872
 30
0.0
 10
33.682799
 20
357.615872
 30
0.0
 10
29.791217
 20
364.958061
 30
0.0
 10
29.791217
 20
357.615872
 30
0.0
 10
28.771469
 20
357.615872
 30
0.0
 10
28.771469
 20
365.823470
 30
0.0
 10
30.463702
 20
365.823470
 30
0.0
 10
34.013527
 20
359.120693
 30
0.0
 10
34.013527
 20
365.823470
 30
0.0
 10
35.033275
 20
365.823470
 30
0.0
 10
35.033275
 20
357.615872
 30
0.0
 10
35.033275
 20
357.615872
 30
0.0
  0
SPLINE
  5
2f6
100
AcDbEntity
  8
Layer_1
 62
7
100
AcDbSpline
 70
8
 71
3
 72
8
 73
4
 74
0
 40
0
 40
0
 40
0
 40
0
 40
1
 40
1
 40
1
 40
1
 10
41.311618
 20
360.691654
 30
0.0
 10
41.311618
 20
361.489079
 30
0.0
 10
41.155440
 20
362.080716
 30
0.0
 10
40.843084
 20
362.466567
 30
0.0
  0
SPLINE
  5
2f7
100
AcDbEntity
  8
Layer_1
 62
7
100
AcDbSpline
 70
8
 71
3
 72
8
 73
4
 74
0
 40
0
 40
0
 40
0
 40
0
 40
1
 40
1
 40
1
 40
1
 10
40.843084
 20
362.466567
 30
0.0
 10
40.530728
 20
362.856094
 30
0.0
 10
40.097105
 20
363.050857
 30
0.0
 10
39.542215
 20
363.050857
 30
0.0
  0
SPLINE
  5
2f8
100
AcDbEntity
  8
Layer_1
 62
7
100
AcDbSpline
 70
8
 71
3
 72
8
 73
4
 74
0
 40
0
 40
0
 40
0
 40
0
 40
1
 40
1
 40
1
 40
1
 10
39.542215
 20
363.050857
 30
0.0
 10
38.979975
 20
363.050857
 30
0.0
 10
38.542679
 20
362.856094
 30
0.0
 10
38.230325
 20
362.466567
 30
0.0
  0
SPLINE
  5
2f9
100
AcDbEntity
  8
Layer_1
 62
7
100
AcDbSpline
 70
8
 71
3
 72
8
 73
4
 74
0
 40
0
 40
0
 40
0
 40
0
 40
1
 40
1
 40
1
 40
1
 10
38.230325
 20
362.466567
 30
0.0
 10
37.921643
 20
362.080716
 30
0.0
 10
37.767302
 20
361.489079
 30
0.0
 10
37.767302
 20
360.691654
 30
0.0
  0
SPLINE
  5
2fa
100
AcDbEntity
  8
Layer_1
 62
7
100
AcDbSpline
 70
8
 71
3
 72
8
 73
4
 74
0
 40
0
 40
0
 40
0
 40
0
 40
1
 40
1
 40
1
 40
1
 10
37.767302
 20
360.691654
 30
0.0
 10
37.767302
 20
359.919953
 30
0.0
 10
37.923480
 20
359.333828
 30
0.0
 10
38.235836
 20
358.933277
 30
0.0
  0
SPLINE
  5
2fb
100
AcDbEntity
  8
Layer_1
 62
7
100
AcDbSpline
 70
8
 71
3
 72
8
 73
4
 74
0
 40
0
 40
0
 40
0
 40
0
 40
1
 40
1
 40
1
 40
1
 10
38.235836
 20
358.933277
 30
0.0
 10
38.548191
 20
358.536403
 30
0.0
 10
38.983650
 20
358.337966
 30
0.0
 10
39.542215
 20
358.337966
 30
0.0
  0
SPLINE
  5
2fc
100
AcDbEntity
  8
Layer_1
 62
7
100
AcDbSpline
 70
8
 71
3
 72
8
 73
4
 74
0
 40
0
 40
0
 40
0
 40
0
 40
1
 40
1
 40
1
 40
1
 10
39.542215
 20
358.337966
 30
0.0
 10
40.093431
 20
358.337966
 30
0.0
 10
40.525216
 20
358.534566
 30
0.0
 10
40.837572
 20
358.927765
 30
0.0
  0
SPLINE
  5
2fd
100
AcDbEntity
  8
Layer_1
 62
7
100
AcDbSpline
 70
8
 71
3
 72
8
 73
4
 74
0
 40
0
 40
0
 40
0
 40
0
 40
1
 40
1
 40
1
 40
1
 10
40.837572
 20
358.927765
 30
0.0
 10
41.153603
 20
359.324641
 30
0.0
 10
41.311618
 20
359.912604
 30
0.0
 10
41.311618
 20
360.691654
 30
0.0
  0
LWPOLYLINE
  5
2fe
100
AcDbEntity
  8
Layer_1
 62
7
100
AcDbPolyline
 90
2
 70
1
 10
42.380975
 20
360.691654
 30
0.0
 10
42.380975
 20
360.691654
 30
0.0
  0
LWPOLYLINE
  5
2ff
100
AcDbEntity
  8
Layer_1
 62
7
100
AcDbPolyline
 90
2
 70
1
 10
41.311618
 20
360.691654
 30
0.0
 10
41.311618
 20
360.691654
 30
0.0
  0
LWPOLYLINE
  5
300
100
AcDbEntity
  8
Layer_1
 62
7
100
AcDbPolyline
 90
9
 70
1
 10
49.227068
 20
363.772948
 30
0.0
 10
46.735577
 20
357.615872
 30
0.0
 10
45.693779
 20
357.615872
 30
0.0
 10
43.218822
 20
363.772948
 30
0.0
 10
44.343300
 20
363.772948
 30
0.0
 10
46.250507
 20
358.872645
 30
0.0
 10
48.141173
 20
363.772948
 30
0.0
 10
49.227068
 20
363.772948
 30
0.0
 10
49.227068
 20
363.772948
 30
0.0
  0
SPLINE
  5
301
100
AcDbEntity
  8
Layer_1
 62
7
100
AcDbSpline
 70
8
 71
3
 72
8
 73
4
 74
0
 40
0
 40
0
 40
0
 40
0
 40
1
 40
1
 40
1
 40
1
 10
54.419517
 20
358.767915
 30
0.0
 10
54.805367
 20
359.098643
 30
0.0
 10
55.191218
 20
359.429372
 30
0.0
 10
55.577068
 20
359.760101
 30
0.0
  0
SPLINE
  5
302
100
AcDbEntity
  8
Layer_1
 62
7
100
AcDbSpline
 70
8
 71
3
 72
8
 73
4
 74
0
 40
0
 40
0
 40
0
 40
0
 40
1
 40
1
 40
1
 40
1
 10
55.577068
 20
359.760101
 30
0.0
 10
55.966593
 20
360.090830
 30
0.0
 10
56.328558
 20
360.419721
 30
0.0
 10
56.662963
 20
360.746775
 30
0.0
  0
SPLINE
  5
303
100
AcDbEntity
  8
Layer_1
 62
7
100
AcDbSpline
 70
8
 71
3
 72
8
 73
4
 74
0
 40
0
 40
0
 40
0
 40
0
 40
1
 40
1
 40
1
 40
1
 10
56.662963
 20
360.746775
 30
0.0
 10
57.368519
 20
361.430283
 30
0.0
 10
57.851751
 20
361.972312
 30
0.0
 10
58.112660
 20
362.372861
 30
0.0
  0
SPLINE
  5
304
100
AcDbEntity
  8
Layer_1
 62
7
100
AcDbSpline
 70
8
 71
3
 72
8
 73
4
 74
0
 40
0
 40
0
 40
0
 40
0
 40
1
 40
1
 40
1
 40
1
 10
58.112660
 20
362.372861
 30
0.0
 10
58.373567
 20
362.777086
 30
0.0
 10
58.504020
 20
363.212546
 30
0.0
 10
58.504020
 20
363.679242
 30
0.0
  0
SPLINE
  5
305
100
AcDbEntity
  8
Layer_1
 62
7
100
AcDbSpline
 70
8
 71
3
 72
8
 73
4
 74
0
 40
0
 40
0
 40
0
 40
0
 40
1
 40
1
 40
1
 40
1
 10
58.504020
 20
363.679242
 30
0.0
 10
58.504020
 20
364.105514
 30
0.0
 10
58.362542
 20
364.438081
 30
0.0
 10
58.079586
 20
364.676943
 30
0.0
  0
SPLINE
  5
306
100
AcDbEntity
  8
Layer_1
 62
7
100
AcDbSpline
 70
8
 71
3
 72
8
 73
4
 74
0
 40
0
 40
0
 40
0
 40
0
 40
1
 40
1
 40
1
 40
1
 10
58.079586
 20
364.676943
 30
0.0
 10
57.800303
 20
364.919477
 30
0.0
 10
57.408940
 20
365.040744
 30
0.0
 10
56.905497
 20
365.040744
 30
0.0
  0
SPLINE
  5
307
100
AcDbEntity
  8
Layer_1
 62
7
100
AcDbSpline
 70
8
 71
3
 72
8
 73
4
 74
0
 40
0
 40
0
 40
0
 40
0
 40
1
 40
1
 40
1
 40
1
 10
56.905497
 20
365.040744
 30
0.0
 10
56.571094
 20
365.040744
 30
0.0
 10
56.209129
 20
364.981948
 30
0.0
 10
55.819604
 20
364.864355
 30
0.0
  0
SPLINE
  5
308
100
AcDbEntity
  8
Layer_1
 62
7
100
AcDbSpline
 70
8
 71
3
 72
8
 73
4
 74
0
 40
0
 40
0
 40
0
 40
0
 40
1
 40
1
 40
1
 40
1
 10
55.819604
 20
364.864355
 30
0.0
 10
55.430078
 20
364.746762
 30
0.0
 10
55.049739
 20
364.566699
 30
0.0
 10
54.678588
 20
364.324165
 30
0.0
  0
LWPOLYLINE
  5
309
100
AcDbEntity
  8
Layer_1
 62
7
100
AcDbPolyline
 90
3
 70
1
 10
59.975767
 20
357.615872
 30
0.0
 10
54.419517
 20
357.615872
 30
0.0
 10
54.419517
 20
358.767915
 30
0.0
  0
SPLINE
  5
30a
100
AcDbEntity
  8
Layer_1
 62
7
100
AcDbSpline
 70
8
 71
3
 72
8
 73
4
 74
0
 40
0
 40
0
 40
0
 40
0
 40
1
 40
1
 40
1
 40
1
 10
54.623465
 20
365.481716
 30
0.0
 10
54.884374
 20
365.610332
 30
0.0
 10
55.231640
 20
365.727925
 30
0.0
 10
55.665263
 20
365.834494
 30
0.0
  0
SPLINE
  5
30b
100
AcDbEntity
  8
Layer_1
 62
7
100
AcDbSpline
 70
8
 71
3
 72
8
 73
4
 74
0
 40
0
 40
0
 40
0
 40
0
 40
1
 40
1
 40
1
 40
1
 10
55.665263
 20
365.834494
 30
0.0
 10
56.102560
 20
365.941061
 30
0.0
 10
56.525159
 20
365.994345
 30
0.0
 10
56.933059
 20
365.994345
 30
0.0
  0
SPLINE
  5
30c
100
AcDbEntity
  8
Layer_1
 62
7
100
AcDbSpline
 70
8
 71
3
 72
8
 73
4
 74
0
 40
0
 40
0
 40
0
 40
0
 40
1
 40
1
 40
1
 40
1
 10
56.933059
 20
365.994345
 30
0.0
 10
57.774579
 20
365.994345
 30
0.0
 10
58.434200
 20
365.790396
 30
0.0
 10
58.911922
 20
365.382498
 30
0.0
  0
SPLINE
  5
30d
100
AcDbEntity
  8
Layer_1
 62
7
100
AcDbSpline
 70
8
 71
3
 72
8
 73
4
 74
0
 40
0
 40
0
 40
0
 40
0
 40
1
 40
1
 40
1
 40
1
 10
58.911922
 20
365.382498
 30
0.0
 10
59.389641
 20
364.978273
 30
0.0
 10
59.628501
 20
364.428895
 30
0.0
 10
59.628501
 20
363.734363
 30
0.0
  0
SPLINE
  5
30e
100
AcDbEntity
  8
Layer_1
 62
7
100
AcDbSpline
 70
8
 71
3
 72
8
 73
4
 74
0
 40
0
 40
0
 40
0
 40
0
 40
1
 40
1
 40
1
 40
1
 10
59.628501
 20
363.734363
 30
0.0
 10
59.628501
 20
363.422008
 30
0.0
 10
59.588078
 20
363.129864
 30
0.0
 10
59.507233
 20
362.857930
 30
0.0
  0
SPLINE
  5
30f
100
AcDbEntity
  8
Layer_1
 62
7
100
AcDbSpline
 70
8
 71
3
 72
8
 73
4
 74
0
 40
0
 40
0
 40
0
 40
0
 40
1
 40
1
 40
1
 40
1
 10
59.507233
 20
362.857930
 30
0.0
 10
59.430064
 20
362.589672
 30
0.0
 10
59.314309
 20
362.334276
 30
0.0
 10
59.159967
 20
362.091742
 30
0.0
  0
SPLINE
  5
310
100
AcDbEntity
  8
Layer_1
 62
7
100
AcDbSpline
 70
8
 71
3
 72
8
 73
4
 74
0
 40
0
 40
0
 40
0
 40
0
 40
1
 40
1
 40
1
 40
1
 10
59.159967
 20
362.091742
 30
0.0
 10
59.016651
 20
361.863906
 30
0.0
 10
58.847612
 20
361.639745
 30
0.0
 10
58.652850
 20
361.419260
 30
0.0
  0
SPLINE
  5
311
100
AcDbEntity
  8
Layer_1
 62
7
100
AcDbSpline
 70
8
 71
3
 72
8
 73
4
 74
0
 40
0
 40
0
 40
0
 40
0
 40
1
 40
1
 40
1
 40
1
 10
58.652850
 20
361.419260
 30
0.0
 10
58.461761
 20
361.198773
 30
0.0
 10
58.228413
 20
360.954400
 30
0.0
 10
57.952807
 20
360.686142
 30
0.0
  0
SPLINE
  5
312
100
AcDbEntity
  8
Layer_1
 62
7
100
AcDbSpline
 70
8
 71
3
 72
8
 73
4
 74
0
 40
0
 40
0
 40
0
 40
0
 40
1
 40
1
 40
1
 40
1
 10
57.952807
 20
360.686142
 30
0.0
 10
57.559607
 20
360.300292
 30
0.0
 10
57.153545
 20
359.925466
 30
0.0
 10
56.734620
 20
359.561665
 30
0.0
  0
SPLINE
  5
313
100
AcDbEntity
  8
Layer_1
 62
7
100
AcDbSpline
 70
8
 71
3
 72
8
 73
4
 74
0
 40
0
 40
0
 40
0
 40
0
 40
1
 40
1
 40
1
 40
1
 10
56.734620
 20
359.561665
 30
0.0
 10
56.315697
 20
359.201536
 30
0.0
 10
55.924334
 20
358.867132
 30
0.0
 10
55.560533
 20
358.558452
 30
0.0
  0
LWPOLYLINE
  5
314
100
AcDbEntity
  8
Layer_1
 62
7
100
AcDbPolyline
 90
3
 70
1
 10
54.678588
 20
364.324165
 30
0.0
 10
54.623465
 20
364.324165
 30
0.0
 10
54.623465
 20
365.481716
 30
0.0
  0
LWPOLYLINE
  5
315
100
AcDbEntity
  8
Layer_1
 62
7
100
AcDbPolyline
 90
4
 70
1
 10
55.560533
 20
358.558452
 30
0.0
 10
59.975767
 20
358.558452
 30
0.0
 10
59.975767
 20
357.615872
 30
0.0
 10
59.975767
 20
357.615872
 30
0.0
  0
SPLINE
  5
316
100
AcDbEntity
  8
Layer_1
 62
7
100
AcDbSpline
 70
8
 71
3
 72
8
 73
4
 74
0
 40
0
 40
0
 40
0
 40
0
 40
1
 40
1
 40
1
 40
1
 10
62.252284
 20
364.704502
 30
0.0
 10
62.483795
 20
364.704502
 30
0.0
 10
62.731842
 20
364.722875
 30
0.0
 10
62.996425
 20
364.759622
 30
0.0
  0
SPLINE
  5
317
100
AcDbEntity
  8
Layer_1
 62
7
100
AcDbSpline
 70
8
 71
3
 72
8
 73
4
 74
0
 40
0
 40
0
 40
0
 40
0
 40
1
 40
1
 40
1
 40
1
 10
62.996425
 20
364.759622
 30
0.0
 10
63.261009
 20
364.800046
 30
0.0
 10
63.461284
 20
364.857005
 30
0.0
 10
63.597251
 20
364.930499
 30
0.0
  0
SPLINE
  5
318
100
AcDbEntity
  8
Layer_1
 62
7
100
AcDbSpline
 70
8
 71
3
 72
8
 73
4
 74
0
 40
0
 40
0
 40
0
 40
0
 40
1
 40
1
 40
1
 40
1
 10
63.597251
 20
364.930499
 30
0.0
 10
63.766291
 20
365.022368
 30
0.0
 10
63.898582
 20
365.138124
 30
0.0
 10
63.994126
 20
365.277765
 30
0.0
  0
SPLINE
  5
319
100
AcDbEntity
  8
Layer_1
 62
7
100
AcDbSpline
 70
8
 71
3
 72
8
 73
4
 74
0
 40
0
 40
0
 40
0
 40
0
 40
1
 40
1
 40
1
 40
1
 10
63.994126
 20
365.277765
 30
0.0
 10
64.093344
 20
365.421082
 30
0.0
 10
64.150303
 20
365.612170
 30
0.0
 10
64.165003
 20
365.851029
 30
0.0
  0
LWPOLYLINE
  5
31a
100
AcDbEntity
  8
Layer_1
 62
7
100
AcDbPolyline
 90
7
 70
1
 10
66.695080
 20
357.615872
 30
0.0
 10
62.252284
 20
357.615872
 30
0.0
 10
62.252284
 20
358.453720
 30
0.0
 10
63.961052
 20
358.453720
 30
0.0
 10
63.961052
 20
363.954849
 30
0.0
 10
62.252284
 20
363.954849
 30
0.0
 10
62.252284
 20
364.704502
 30
0.0
  0
LWPOLYLINE
  5
31b
100
AcDbEntity
  8
Layer_1
 62
7
100
AcDbPolyline
 90
6
 70
1
 10
64.165003
 20
365.851029
 30
0.0
 10
65.019386
 20
365.851029
 30
0.0
 10
65.019386
 20
358.453720
 30
0.0
 10
66.695080
 20
358.453720
 30
0.0
 10
66.695080
 20
357.615872
 30
0.0
 10
66.695080
 20
357.615872
 30
0.0
  0
LWPOLYLINE
  5
31c
100
AcDbEntity
  8
Layer_1
 62
7
100
AcDbPolyline
 90
6
 70
1
 10
71.077243
 20
359.186837
 30
0.0
 10
69.522814
 20
355.576377
 30
0.0
 10
68.718041
 20
355.576377
 30
0.0
 10
69.677156
 20
359.186837
 30
0.0
 10
71.077243
 20
359.186837
 30
0.0
 10
71.077243
 20
359.186837
 30
0.0
  0
SPLINE
  5
31d
100
AcDbEntity
  8
Layer_1
 62
7
100
AcDbSpline
 70
8
 71
3
 72
8
 73
4
 74
0
 40
0
 40
0
 40
0
 40
0
 40
1
 40
1
 40
1
 40
1
 10
76.865003
 20
358.767915
 30
0.0
 10
77.250854
 20
359.098643
 30
0.0
 10
77.636704
 20
359.429372
 30
0.0
 10
78.022554
 20
359.760101
 30
0.0
  0
SPLINE
  5
31e
100
AcDbEntity
  8
Layer_1
 62
7
100
AcDbSpline
 70
8
 71
3
 72
8
 73
4
 74
0
 40
0
 40
0
 40
0
 40
0
 40
1
 40
1
 40
1
 40
1
 10
78.022554
 20
359.760101
 30
0.0
 10
78.412079
 20
360.090830
 30
0.0
 10
78.774044
 20
360.419721
 30
0.0
 10
79.108450
 20
360.746775
 30
0.0
  0
SPLINE
  5
31f
100
AcDbEntity
  8
Layer_1
 62
7
100
AcDbSpline
 70
8
 71
3
 72
8
 73
4
 74
0
 40
0
 40
0
 40
0
 40
0
 40
1
 40
1
 40
1
 40
1
 10
79.108450
 20
360.746775
 30
0.0
 10
79.814005
 20
361.430283
 30
0.0
 10
80.297237
 20
361.972312
 30
0.0
 10
80.558146
 20
362.372861
 30
0.0
  0
SPLINE
  5
320
100
AcDbEntity
  8
Layer_1
 62
7
100
AcDbSpline
 70
8
 71
3
 72
8
 73
4
 74
0
 40
0
 40
0
 40
0
 40
0
 40
1
 40
1
 40
1
 40
1
 10
80.558146
 20
362.372861
 30
0.0
 10
80.819053
 20
362.777086
 30
0.0
 10
80.949506
 20
363.212546
 30
0.0
 10
80.949506
 20
363.679242
 30
0.0
  0
SPLINE
  5
321
100
AcDbEntity
  8
Layer_1
 62
7
100
AcDbSpline
 70
8
 71
3
 72
8
 73
4
 74
0
 40
0
 40
0
 40
0
 40
0
 40
1
 40
1
 40
1
 40
1
 10
80.949506
 20
363.679242
 30
0.0
 10
80.949506
 20
364.105514
 30
0.0
 10
80.808028
 20
364.438081
 30
0.0
 10
80.525072
 20
364.676943
 30
0.0
  0
SPLINE
  5
322
100
AcDbEntity
  8
Layer_1
 62
7
100
AcDbSpline
 70
8
 71
3
 72
8
 73
4
 74
0
 40
0
 40
0
 40
0
 40
0
 40
1
 40
1
 40
1
 40
1
 10
80.525072
 20
364.676943
 30
0.0
 10
80.245789
 20
364.919477
 30
0.0
 10
79.854426
 20
365.040744
 30
0.0
 10
79.350983
 20
365.040744
 30
0.0
  0
SPLINE
  5
323
100
AcDbEntity
  8
Layer_1
 62
7
100
AcDbSpline
 70
8
 71
3
 72
8
 73
4
 74
0
 40
0
 40
0
 40
0
 40
0
 40
1
 40
1
 40
1
 40
1
 10
79.350983
 20
365.040744
 30
0.0
 10
79.016580
 20
365.040744
 30
0.0
 10
78.654616
 20
364.981948
 30
0.0
 10
78.265091
 20
364.864355
 30
0.0
  0
SPLINE
  5
324
100
AcDbEntity
  8
Layer_1
 62
7
100
AcDbSpline
 70
8
 71
3
 72
8
 73
4
 74
0
 40
0
 40
0
 40
0
 40
0
 40
1
 40
1
 40
1
 40
1
 10
78.265091
 20
364.864355
 30
0.0
 10
77.875564
 20
364.746762
 30
0.0
 10
77.495225
 20
364.566699
 30
0.0
 10
77.124075
 20
364.324165
 30
0.0
  0
LWPOLYLINE
  5
325
100
AcDbEntity
  8
Layer_1
 62
7
100
AcDbPolyline
 90
3
 70
1
 10
82.421253
 20
357.615872
 30
0.0
 10
76.865003
 20
357.615872
 30
0.0
 10
76.865003
 20
358.767915
 30
0.0
  0
SPLINE
  5
326
100
AcDbEntity
  8
Layer_1
 62
7
100
AcDbSpline
 70
8
 71
3
 72
8
 73
4
 74
0
 40
0
 40
0
 40
0
 40
0
 40
1
 40
1
 40
1
 40
1
 10
77.068951
 20
365.481716
 30
0.0
 10
77.329860
 20
365.610332
 30
0.0
 10
77.677126
 20
365.727925
 30
0.0
 10
78.110749
 20
365.834494
 30
0.0
  0
SPLINE
  5
327
100
AcDbEntity
  8
Layer_1
 62
7
100
AcDbSpline
 70
8
 71
3
 72
8
 73
4
 74
0
 40
0
 40
0
 40
0
 40
0
 40
1
 40
1
 40
1
 40
1
 10
78.110749
 20
365.834494
 30
0.0
 10
78.548047
 20
365.941061
 30
0.0
 10
78.970645
 20
365.994345
 30
0.0
 10
79.378545
 20
365.994345
 30
0.0
  0
SPLINE
  5
328
100
AcDbEntity
  8
Layer_1
 62
7
100
AcDbSpline
 70
8
 71
3
 72
8
 73
4
 74
0
 40
0
 40
0
 40
0
 40
0
 40
1
 40
1
 40
1
 40
1
 10
79.378545
 20
365.994345
 30
0.0
 10
80.220066
 20
365.994345
 30
0.0
 10
80.879687
 20
365.790396
 30
0.0
 10
81.357408
 20
365.382498
 30
0.0
  0
SPLINE
  5
329
100
AcDbEntity
  8
Layer_1
 62
7
100
AcDbSpline
 70
8
 71
3
 72
8
 73
4
 74
0
 40
0
 40
0
 40
0
 40
0
 40
1
 40
1
 40
1
 40
1
 10
81.357408
 20
365.382498
 30
0.0
 10
81.835127
 20
364.978273
 30
0.0
 10
82.073987
 20
364.428895
 30
0.0
 10
82.073987
 20
363.734363
 30
0.0
  0
SPLINE
  5
32a
100
AcDbEntity
  8
Layer_1
 62
7
100
AcDbSpline
 70
8
 71
3
 72
8
 73
4
 74
0
 40
0
 40
0
 40
0
 40
0
 40
1
 40
1
 40
1
 40
1
 10
82.073987
 20
363.734363
 30
0.0
 10
82.073987
 20
363.422008
 30
0.0
 10
82.033564
 20
363.129864
 30
0.0
 10
81.952719
 20
362.857930
 30
0.0
  0
SPLINE
  5
32b
100
AcDbEntity
  8
Layer_1
 62
7
100
AcDbSpline
 70
8
 71
3
 72
8
 73
4
 74
0
 40
0
 40
0
 40
0
 40
0
 40
1
 40
1
 40
1
 40
1
 10
81.952719
 20
362.857930
 30
0.0
 10
81.875550
 20
362.589672
 30
0.0
 10
81.759795
 20
362.334276
 30
0.0
 10
81.605453
 20
362.091742
 30
0.0
  0
SPLINE
  5
32c
100
AcDbEntity
  8
Layer_1
 62
7
100
AcDbSpline
 70
8
 71
3
 72
8
 73
4
 74
0
 40
0
 40
0
 40
0
 40
0
 40
1
 40
1
 40
1
 40
1
 10
81.605453
 20
362.091742
 30
0.0
 10
81.462137
 20
361.863906
 30
0.0
 10
81.293098
 20
361.639745
 30
0.0
 10
81.098336
 20
361.419260
 30
0.0
  0
SPLINE
  5
32d
100
AcDbEntity
  8
Layer_1
 62
7
100
AcDbSpline
 70
8
 71
3
 72
8
 73
4
 74
0
 40
0
 40
0
 40
0
 40
0
 40
1
 40
1
 40
1
 40
1
 10
81.098336
 20
361.419260
 30
0.0
 10
80.907247
 20
361.198773
 30
0.0
 10
80.673900
 20
360.954400
 30
0.0
 10
80.398293
 20
360.686142
 30
0.0
  0
SPLINE
  5
32e
100
AcDbEntity
  8
Layer_1
 62
7
100
AcDbSpline
 70
8
 71
3
 72
8
 73
4
 74
0
 40
0
 40
0
 40
0
 40
0
 40
1
 40
1
 40
1
 40
1
 10
80.398293
 20
360.686142
 30
0.0
 10
80.005093
 20
360.300292
 30
0.0
 10
79.599031
 20
359.925466
 30
0.0
 10
79.180106
 20
359.561665
 30
0.0
  0
SPLINE
  5
32f
100
AcDbEntity
  8
Layer_1
 62
7
100
AcDbSpline
 70
8
 71
3
 72
8
 73
4
 74
0
 40
0
 40
0
 40
0
 40
0
 40
1
 40
1
 40
1
 40
1
 10
79.180106
 20
359.561665
 30
0.0
 10
78.761183
 20
359.201536
 30
0.0
 10
78.369820
 20
358.867132
 30
0.0
 10
78.006019
 20
358.558452
 30
0.0
  0
LWPOLYLINE
  5
330
100
AcDbEntity
  8
Layer_1
 62
7
100
AcDbPolyline
 90
3
 70
1
 10
77.124075
 20
364.324165
 30
0.0
 10
77.068951
 20
364.324165
 30
0.0
 10
77.068951
 20
365.481716
 30
0.0
  0
SPLINE
  5
331
100
AcDbEntity
  8
Layer_1
 62
7
100
AcDbSpline
 70
8
 71
3
 72
8
 73
4
 74
0
 40
0
 40
0
 40
0
 40
0
 40
1
 40
1
 40
1
 40
1
 10
89.598077
 20
361.722429
 30
0.0
 10
89.598077
 20
360.248845
 30
0.0
 10
89.366566
 20
359.166625
 30
0.0
 10
88.903545
 20
358.475770
 30
0.0
  0
SPLINE
  5
332
100
AcDbEntity
  8
Layer_1
 62
7
100
AcDbSpline
 70
8
 71
3
 72
8
 73
4
 74
0
 40
0
 40
0
 40
0
 40
0
 40
1
 40
1
 40
1
 40
1
 10
88.903545
 20
358.475770
 30
0.0
 10
88.444198
 20
357.788589
 30
0.0
 10
87.729455
 20
357.444998
 30
0.0
 10
86.759316
 20
357.444998
 30
0.0
  0
SPLINE
  5
333
100
AcDbEntity
  8
Layer_1
 62
7
100
AcDbSpline
 70
8
 71
3
 72
8
 73
4
 74
0
 40
0
 40
0
 40
0
 40
0
 40
1
 40
1
 40
1
 40
1
 10
86.759316
 20
357.444998
 30
0.0
 10
85.774479
 20
357.444998
 30
0.0
 10
85.054225
 20
357.794100
 30
0.0
 10
84.598552
 20
358.492305
 30
0.0
  0
SPLINE
  5
334
100
AcDbEntity
  8
Layer_1
 62
7
100
AcDbSpline
 70
8
 71
3
 72
8
 73
4
 74
0
 40
0
 40
0
 40
0
 40
0
 40
1
 40
1
 40
1
 40
1
 10
84.598552
 20
358.492305
 30
0.0
 10
84.146557
 20
359.190511
 30
0.0
 10
83.920559
 20
360.263544
 30
0.0
 10
83.920559
 20
361.711402
 30
0.0
  0
SPLINE
  5
335
100
AcDbEntity
  8
Layer_1
 62
7
100
AcDbSpline
 70
8
 71
3
 72
8
 73
4
 74
0
 40
0
 40
0
 40
0
 40
0
 40
1
 40
1
 40
1
 40
1
 10
83.920559
 20
361.711402
 30
0.0
 10
83.920559
 20
363.170286
 30
0.0
 10
84.150231
 20
364.246994
 30
0.0
 10
84.609576
 20
364.941526
 30
0.0
  0
SPLINE
  5
336
100
AcDbEntity
  8
Layer_1
 62
7
100
AcDbSpline
 70
8
 71
3
 72
8
 73
4
 74
0
 40
0
 40
0
 40
0
 40
0
 40
1
 40
1
 40
1
 40
1
 10
84.609576
 20
364.941526
 30
0.0
 10
85.068923
 20
365.639730
 30
0.0
 10
85.785503
 20
365.988833
 30
0.0
 10
86.759316
 20
365.988833
 30
0.0
  0
SPLINE
  5
337
100
AcDbEntity
  8
Layer_1
 62
7
100
AcDbSpline
 70
8
 71
3
 72
8
 73
4
 74
0
 40
0
 40
0
 40
0
 40
0
 40
1
 40
1
 40
1
 40
1
 10
86.759316
 20
365.988833
 30
0.0
 10
87.744155
 20
365.988833
 30
0.0
 10
88.462572
 20
365.634218
 30
0.0
 10
88.914568
 20
364.924988
 30
0.0
  0
SPLINE
  5
338
100
AcDbEntity
  8
Layer_1
 62
7
100
AcDbSpline
 70
8
 71
3
 72
8
 73
4
 74
0
 40
0
 40
0
 40
0
 40
0
 40
1
 40
1
 40
1
 40
1
 10
88.914568
 20
364.924988
 30
0.0
 10
89.370241
 20
364.219432
 30
0.0
 10
89.598077
 20
363.151912
 30
0.0
 10
89.598077
 20
361.722429
 30
0.0
  0
LWPOLYLINE
  5
339
100
AcDbEntity
  8
Layer_1
 62
7
100
AcDbPolyline
 90
4
 70
1
 10
78.006019
 20
358.558452
 30
0.0
 10
82.421253
 20
358.558452
 30
0.0
 10
82.421253
 20
357.615872
 30
0.0
 10
82.421253
 20
357.615872
 30
0.0
  0
SPLINE
  5
33a
100
AcDbEntity
  8
Layer_1
 62
7
100
AcDbSpline
 70
8
 71
3
 72
8
 73
4
 74
0
 40
0
 40
0
 40
0
 40
0
 40
1
 40
1
 40
1
 40
1
 10
88.148380
 20
359.219911
 30
0.0
 10
88.276996
 20
359.517567
 30
0.0
 10
88.363354
 20
359.866670
 30
0.0
 10
88.407452
 20
360.267220
 30
0.0
  0
SPLINE
  5
33b
100
AcDbEntity
  8
Layer_1
 62
7
100
AcDbSpline
 70
8
 71
3
 72
8
 73
4
 74
0
 40
0
 40
0
 40
0
 40
0
 40
1
 40
1
 40
1
 40
1
 10
88.407452
 20
360.267220
 30
0.0
 10
88.455222
 20
360.671443
 30
0.0
 10
88.479108
 20
361.156513
 30
0.0
 10
88.479108
 20
361.722429
 30
0.0
  0
SPLINE
  5
33c
100
AcDbEntity
  8
Layer_1
 62
7
100
AcDbSpline
 70
8
 71
3
 72
8
 73
4
 74
0
 40
0
 40
0
 40
0
 40
0
 40
1
 40
1
 40
1
 40
1
 10
88.479108
 20
361.722429
 30
0.0
 10
88.479108
 20
362.280993
 30
0.0
 10
88.455222
 20
362.766063
 30
0.0
 10
88.407452
 20
363.177637
 30
0.0
  0
SPLINE
  5
33d
100
AcDbEntity
  8
Layer_1
 62
7
100
AcDbSpline
 70
8
 71
3
 72
8
 73
4
 74
0
 40
0
 40
0
 40
0
 40
0
 40
1
 40
1
 40
1
 40
1
 10
88.407452
 20
363.177637
 30
0.0
 10
88.363354
 20
363.589211
 30
0.0
 10
88.275159
 20
363.938313
 30
0.0
 10
88.142868
 20
364.224944
 30
0.0
  0
SPLINE
  5
33e
100
AcDbEntity
  8
Layer_1
 62
7
100
AcDbSpline
 70
8
 71
3
 72
8
 73
4
 74
0
 40
0
 40
0
 40
0
 40
0
 40
1
 40
1
 40
1
 40
1
 10
88.142868
 20
364.224944
 30
0.0
 10
88.014250
 20
364.507902
 30
0.0
 10
87.837861
 20
364.721039
 30
0.0
 10
87.613702
 20
364.864355
 30
0.0
  0
SPLINE
  5
33f
100
AcDbEntity
  8
Layer_1
 62
7
100
AcDbSpline
 70
8
 71
3
 72
8
 73
4
 74
0
 40
0
 40
0
 40
0
 40
0
 40
1
 40
1
 40
1
 40
1
 10
87.613702
 20
364.864355
 30
0.0
 10
87.393215
 20
365.007671
 30
0.0
 10
87.108419
 20
365.079329
 30
0.0
 10
86.759316
 20
365.079329
 30
0.0
  0
SPLINE
  5
340
100
AcDbEntity
  8
Layer_1
 62
7
100
AcDbSpline
 70
8
 71
3
 72
8
 73
4
 74
0
 40
0
 40
0
 40
0
 40
0
 40
1
 40
1
 40
1
 40
1
 10
86.759316
 20
365.079329
 30
0.0
 10
86.413888
 20
365.079329
 30
0.0
 10
86.127256
 20
365.007671
 30
0.0
 10
85.899422
 20
364.864355
 30
0.0
  0
SPLINE
  5
341
100
AcDbEntity
  8
Layer_1
 62
7
100
AcDbSpline
 70
8
 71
3
 72
8
 73
4
 74
0
 40
0
 40
0
 40
0
 40
0
 40
1
 40
1
 40
1
 40
1
 10
85.899422
 20
364.864355
 30
0.0
 10
85.675260
 20
364.721039
 30
0.0
 10
85.497034
 20
364.504227
 30
0.0
 10
85.364743
 20
364.213920
 30
0.0
  0
SPLINE
  5
342
100
AcDbEntity
  8
Layer_1
 62
7
100
AcDbSpline
 70
8
 71
3
 72
8
 73
4
 74
0
 40
0
 40
0
 40
0
 40
0
 40
1
 40
1
 40
1
 40
1
 10
85.364743
 20
364.213920
 30
0.0
 10
85.239800
 20
363.941988
 30
0.0
 10
85.153443
 20
363.587373
 30
0.0
 10
85.105672
 20
363.150075
 30
0.0
  0
SPLINE
  5
343
100
AcDbEntity
  8
Layer_1
 62
7
100
AcDbSpline
 70
8
 71
3
 72
8
 73
4
 74
0
 40
0
 40
0
 40
0
 40
0
 40
1
 40
1
 40
1
 40
1
 10
85.105672
 20
363.150075
 30
0.0
 10
85.061574
 20
362.712777
 30
0.0
 10
85.039525
 20
362.233220
 30
0.0
 10
85.039525
 20
361.711402
 30
0.0
  0
SPLINE
  5
344
100
AcDbEntity
  8
Layer_1
 62
7
100
AcDbSpline
 70
8
 71
3
 72
8
 73
4
 74
0
 40
0
 40
0
 40
0
 40
0
 40
1
 40
1
 40
1
 40
1
 10
85.039525
 20
361.711402
 30
0.0
 10
85.039525
 20
361.138139
 30
0.0
 10
85.059736
 20
360.658583
 30
0.0
 10
85.100160
 20
360.272732
 30
0.0
  0
SPLINE
  5
345
100
AcDbEntity
  8
Layer_1
 62
7
100
AcDbSpline
 70
8
 71
3
 72
8
 73
4
 74
0
 40
0
 40
0
 40
0
 40
0
 40
1
 40
1
 40
1
 40
1
 10
85.100160
 20
360.272732
 30
0.0
 10
85.140582
 20
359.886882
 30
0.0
 10
85.226938
 20
359.541453
 30
0.0
 10
85.359229
 20
359.236446
 30
0.0
  0
SPLINE
  5
346
100
AcDbEntity
  8
Layer_1
 62
7
100
AcDbSpline
 70
8
 71
3
 72
8
 73
4
 74
0
 40
0
 40
0
 40
0
 40
0
 40
1
 40
1
 40
1
 40
1
 10
85.359229
 20
359.236446
 30
0.0
 10
85.480498
 20
358.949814
 30
0.0
 10
85.651375
 20
358.731165
 30
0.0
 10
85.871860
 20
358.580499
 30
0.0
  0
SPLINE
  5
347
100
AcDbEntity
  8
Layer_1
 62
7
100
AcDbSpline
 70
8
 71
3
 72
8
 73
4
 74
0
 40
0
 40
0
 40
0
 40
0
 40
1
 40
1
 40
1
 40
1
 10
85.871860
 20
358.580499
 30
0.0
 10
86.096022
 20
358.429834
 30
0.0
 10
86.391840
 20
358.354502
 30
0.0
 10
86.759316
 20
358.354502
 30
0.0
  0
SPLINE
  5
348
100
AcDbEntity
  8
Layer_1
 62
7
100
AcDbSpline
 70
8
 71
3
 72
8
 73
4
 74
0
 40
0
 40
0
 40
0
 40
0
 40
1
 40
1
 40
1
 40
1
 10
86.759316
 20
358.354502
 30
0.0
 10
87.104745
 20
358.354502
 30
0.0
 10
87.391377
 20
358.426160
 30
0.0
 10
87.619213
 20
358.569476
 30
0.0
  0
SPLINE
  5
349
100
AcDbEntity
  8
Layer_1
 62
7
100
AcDbSpline
 70
8
 71
3
 72
8
 73
4
 74
0
 40
0
 40
0
 40
0
 40
0
 40
1
 40
1
 40
1
 40
1
 10
87.619213
 20
358.569476
 30
0.0
 10
87.847048
 20
358.712792
 30
0.0
 10
88.023437
 20
358.929604
 30
0.0
 10
88.148380
 20
359.219911
 30
0.0
  0
LWPOLYLINE
  5
34a
100
AcDbEntity
  8
Layer_1
 62
7
100
AcDbPolyline
 90
2
 70
1
 10
89.598077
 20
361.722429
 30
0.0
 10
89.598077
 20
361.722429
 30
0.0
  0
LWPOLYLINE
  5
34b
100
AcDbEntity
  8
Layer_1
 62
7
100
AcDbPolyline
 90
2
 70
1
 10
88.148380
 20
359.219911
 30
0.0
 10
88.148380
 20
359.219911
 30
0.0
  0
SPLINE
  5
34c
100
AcDbEntity
  8
Layer_1
 62
7
100
AcDbSpline
 70
8
 71
3
 72
8
 73
4
 74
0
 40
0
 40
0
 40
0
 40
0
 40
1
 40
1
 40
1
 40
1
 10
91.885618
 20
364.704502
 30
0.0
 10
92.117128
 20
364.704502
 30
0.0
 10
92.365175
 20
364.722875
 30
0.0
 10
92.629759
 20
364.759622
 30
0.0
  0
SPLINE
  5
34d
100
AcDbEntity
  8
Layer_1
 62
7
100
AcDbSpline
 70
8
 71
3
 72
8
 73
4
 74
0
 40
0
 40
0
 40
0
 40
0
 40
1
 40
1
 40
1
 40
1
 10
92.629759
 20
364.759622
 30
0.0
 10
92.894342
 20
364.800046
 30
0.0
 10
93.094617
 20
364.857005
 30
0.0
 10
93.230584
 20
364.930499
 30
0.0
  0
SPLINE
  5
34e
100
AcDbEntity
  8
Layer_1
 62
7
100
AcDbSpline
 70
8
 71
3
 72
8
 73
4
 74
0
 40
0
 40
0
 40
0
 40
0
 40
1
 40
1
 40
1
 40
1
 10
93.230584
 20
364.930499
 30
0.0
 10
93.399624
 20
365.022368
 30
0.0
 10
93.531916
 20
365.138124
 30
0.0
 10
93.627459
 20
365.277765
 30
0.0
  0
SPLINE
  5
34f
100
AcDbEntity
  8
Layer_1
 62
7
100
AcDbSpline
 70
8
 71
3
 72
8
 73
4
 74
0
 40
0
 40
0
 40
0
 40
0
 40
1
 40
1
 40
1
 40
1
 10
93.627459
 20
365.277765
 30
0.0
 10
93.726677
 20
365.421082
 30
0.0
 10
93.783636
 20
365.612170
 30
0.0
 10
93.798336
 20
365.851029
 30
0.0
  0
LWPOLYLINE
  5
350
100
AcDbEntity
  8
Layer_1
 62
7
100
AcDbPolyline
 90
7
 70
1
 10
96.328413
 20
357.615872
 30
0.0
 10
91.885618
 20
357.615872
 30
0.0
 10
91.885618
 20
358.453720
 30
0.0
 10
93.594386
 20
358.453720
 30
0.0
 10
93.594386
 20
363.954849
 30
0.0
 10
91.885618
 20
363.954849
 30
0.0
 10
91.885618
 20
364.704502
 30
0.0
  0
SPLINE
  5
351
100
AcDbEntity
  8
Layer_1
 62
7
100
AcDbSpline
 70
8
 71
3
 72
8
 73
4
 74
0
 40
0
 40
0
 40
0
 40
0
 40
1
 40
1
 40
1
 40
1
 10
103.918647
 20
360.223123
 30
0.0
 10
103.918647
 20
359.840947
 30
0.0
 10
103.848828
 20
359.475308
 30
0.0
 10
103.709188
 20
359.126204
 30
0.0
  0
SPLINE
  5
352
100
AcDbEntity
  8
Layer_1
 62
7
100
AcDbSpline
 70
8
 71
3
 72
8
 73
4
 74
0
 40
0
 40
0
 40
0
 40
0
 40
1
 40
1
 40
1
 40
1
 10
103.709188
 20
359.126204
 30
0.0
 10
103.569546
 20
358.777101
 30
0.0
 10
103.378458
 20
358.483120
 30
0.0
 10
103.135924
 20
358.244260
 30
0.0
  0
SPLINE
  5
353
100
AcDbEntity
  8
Layer_1
 62
7
100
AcDbSpline
 70
8
 71
3
 72
8
 73
4
 74
0
 40
0
 40
0
 40
0
 40
0
 40
1
 40
1
 40
1
 40
1
 10
103.135924
 20
358.244260
 30
0.0
 10
102.871341
 20
357.987026
 30
0.0
 10
102.555310
 20
357.788588
 30
0.0
 10
102.187832
 20
357.648946
 30
0.0
  0
SPLINE
  5
354
100
AcDbEntity
  8
Layer_1
 62
7
100
AcDbSpline
 70
8
 71
3
 72
8
 73
4
 74
0
 40
0
 40
0
 40
0
 40
0
 40
1
 40
1
 40
1
 40
1
 10
102.187832
 20
357.648946
 30
0.0
 10
101.824031
 20
357.512981
 30
0.0
 10
101.401432
 20
357.444998
 30
0.0
 10
100.920036
 20
357.444998
 30
0.0
  0
SPLINE
  5
355
100
AcDbEntity
  8
Layer_1
 62
7
100
AcDbSpline
 70
8
 71
3
 72
8
 73
4
 74
0
 40
0
 40
0
 40
0
 40
0
 40
1
 40
1
 40
1
 40
1
 10
100.920036
 20
357.444998
 30
0.0
 10
100.471715
 20
357.444998
 30
0.0
 10
100.039930
 20
357.492770
 30
0.0
 10
99.624682
 20
357.588313
 30
0.0
  0
SPLINE
  5
356
100
AcDbEntity
  8
Layer_1
 62
7
100
AcDbSpline
 70
8
 71
3
 72
8
 73
4
 74
0
 40
0
 40
0
 40
0
 40
0
 40
1
 40
1
 40
1
 40
1
 10
99.624682
 20
357.588313
 30
0.0
 10
99.209433
 20
357.680182
 30
0.0
 10
98.858492
 20
357.792262
 30
0.0
 10
98.571860
 20
357.924553
 30
0.0
  0
LWPOLYLINE
  5
357
100
AcDbEntity
  8
Layer_1
 62
7
100
AcDbPolyline
 90
6
 70
1
 10
93.798336
 20
365.851029
 30
0.0
 10
94.652719
 20
365.851029
 30
0.0
 10
94.652719
 20
358.453720
 30
0.0
 10
96.328413
 20
358.453720
 30
0.0
 10
96.328413
 20
357.615872
 30
0.0
 10
96.328413
 20
357.615872
 30
0.0
  0
SPLINE
  5
358
100
AcDbEntity
  8
Layer_1
 62
7
100
AcDbSpline
 70
8
 71
3
 72
8
 73
4
 74
0
 40
0
 40
0
 40
0
 40
0
 40
1
 40
1
 40
1
 40
1
 10
98.649031
 20
359.087619
 30
0.0
 10
98.950361
 20
358.896530
 30
0.0
 10
99.303139
 20
358.733003
 30
0.0
 10
99.707364
 20
358.597038
 30
0.0
  0
SPLINE
  5
359
100
AcDbEntity
  8
Layer_1
 62
7
100
AcDbSpline
 70
8
 71
3
 72
8
 73
4
 74
0
 40
0
 40
0
 40
0
 40
0
 40
1
 40
1
 40
1
 40
1
 10
99.707364
 20
358.597038
 30
0.0
 10
100.111589
 20
358.464745
 30
0.0
 10
100.508464
 20
358.398599
 30
0.0
 10
100.897989
 20
358.398599
 30
0.0
  0
SPLINE
  5
35a
100
AcDbEntity
  8
Layer_1
 62
7
100
AcDbSpline
 70
8
 71
3
 72
8
 73
4
 74
0
 40
0
 40
0
 40
0
 40
0
 40
1
 40
1
 40
1
 40
1
 10
100.897989
 20
358.398599
 30
0.0
 10
101.158898
 20
358.398599
 30
0.0
 10
101.410619
 20
358.435347
 30
0.0
 10
101.653154
 20
358.508843
 30
0.0
  0
SPLINE
  5
35b
100
AcDbEntity
  8
Layer_1
 62
7
100
AcDbSpline
 70
8
 71
3
 72
8
 73
4
 74
0
 40
0
 40
0
 40
0
 40
0
 40
1
 40
1
 40
1
 40
1
 10
101.653154
 20
358.508843
 30
0.0
 10
101.899363
 20
358.582338
 30
0.0
 10
102.118011
 20
358.710954
 30
0.0
 10
102.309100
 20
358.894692
 30
0.0
  0
SPLINE
  5
35c
100
AcDbEntity
  8
Layer_1
 62
7
100
AcDbSpline
 70
8
 71
3
 72
8
 73
4
 74
0
 40
0
 40
0
 40
0
 40
0
 40
1
 40
1
 40
1
 40
1
 10
102.309100
 20
358.894692
 30
0.0
 10
102.470789
 20
359.052708
 30
0.0
 10
102.592056
 20
359.241959
 30
0.0
 10
102.672902
 20
359.462444
 30
0.0
  0
SPLINE
  5
35d
100
AcDbEntity
  8
Layer_1
 62
7
100
AcDbSpline
 70
8
 71
3
 72
8
 73
4
 74
0
 40
0
 40
0
 40
0
 40
0
 40
1
 40
1
 40
1
 40
1
 10
102.672902
 20
359.462444
 30
0.0
 10
102.757422
 20
359.682931
 30
0.0
 10
102.799682
 20
359.938328
 30
0.0
 10
102.799682
 20
360.228635
 30
0.0
  0
SPLINE
  5
35e
100
AcDbEntity
  8
Layer_1
 62
7
100
AcDbSpline
 70
8
 71
3
 72
8
 73
4
 74
0
 40
0
 40
0
 40
0
 40
0
 40
1
 40
1
 40
1
 40
1
 10
102.799682
 20
360.228635
 30
0.0
 10
102.799682
 20
360.511591
 30
0.0
 10
102.750072
 20
360.750451
 30
0.0
 10
102.650854
 20
360.945214
 30
0.0
  0
SPLINE
  5
35f
100
AcDbEntity
  8
Layer_1
 62
7
100
AcDbSpline
 70
8
 71
3
 72
8
 73
4
 74
0
 40
0
 40
0
 40
0
 40
0
 40
1
 40
1
 40
1
 40
1
 10
102.650854
 20
360.945214
 30
0.0
 10
102.555309
 20
361.139977
 30
0.0
 10
102.421179
 20
361.296155
 30
0.0
 10
102.248465
 20
361.413748
 30
0.0
  0
SPLINE
  5
360
100
AcDbEntity
  8
Layer_1
 62
7
100
AcDbSpline
 70
8
 71
3
 72
8
 73
4
 74
0
 40
0
 40
0
 40
0
 40
0
 40
1
 40
1
 40
1
 40
1
 10
102.248465
 20
361.413748
 30
0.0
 10
102.057378
 20
361.553388
 30
0.0
 10
101.824031
 20
361.650769
 30
0.0
 10
101.548424
 20
361.705890
 30
0.0
  0
SPLINE
  5
361
100
AcDbEntity
  8
Layer_1
 62
7
100
AcDbSpline
 70
8
 71
3
 72
8
 73
4
 74
0
 40
0
 40
0
 40
0
 40
0
 40
1
 40
1
 40
1
 40
1
 10
101.548424
 20
361.705890
 30
0.0
 10
101.276490
 20
361.764687
 30
0.0
 10
100.971484
 20
361.794085
 30
0.0
 10
100.633406
 20
361.794085
 30
0.0
  0
SPLINE
  5
362
100
AcDbEntity
  8
Layer_1
 62
7
100
AcDbSpline
 70
8
 71
3
 72
8
 73
4
 74
0
 40
0
 40
0
 40
0
 40
0
 40
1
 40
1
 40
1
 40
1
 10
100.633406
 20
361.794085
 30
0.0
 10
100.310026
 20
361.794085
 30
0.0
 10
99.997671
 20
361.772037
 30
0.0
 10
99.696341
 20
361.727940
 30
0.0
  0
SPLINE
  5
363
100
AcDbEntity
  8
Layer_1
 62
7
100
AcDbSpline
 70
8
 71
3
 72
8
 73
4
 74
0
 40
0
 40
0
 40
0
 40
0
 40
1
 40
1
 40
1
 40
1
 10
99.696341
 20
361.727940
 30
0.0
 10
99.398683
 20
361.683842
 30
0.0
 10
99.141448
 20
361.639745
 30
0.0
 10
98.924638
 20
361.595649
 30
0.0
  0
LWPOLYLINE
  5
364
100
AcDbEntity
  8
Layer_1
 62
7
100
AcDbPolyline
 90
3
 70
1
 10
98.571860
 20
357.924553
 30
0.0
 10
98.571860
 20
359.087619
 30
0.0
 10
98.649031
 20
359.087619
 30
0.0
  0
SPLINE
  5
365
100
AcDbEntity
  8
Layer_1
 62
7
100
AcDbSpline
 70
8
 71
3
 72
8
 73
4
 74
0
 40
0
 40
0
 40
0
 40
0
 40
1
 40
1
 40
1
 40
1
 10
99.988483
 20
362.676029
 30
0.0
 10
100.146499
 20
362.690724
 30
0.0
 10
100.308189
 20
362.701748
 30
0.0
 10
100.473552
 20
362.709103
 30
0.0
  0
SPLINE
  5
366
100
AcDbEntity
  8
Layer_1
 62
7
100
AcDbSpline
 70
8
 71
3
 72
8
 73
4
 74
0
 40
0
 40
0
 40
0
 40
0
 40
1
 40
1
 40
1
 40
1
 10
100.473552
 20
362.709103
 30
0.0
 10
100.638918
 20
362.716460
 30
0.0
 10
100.782234
 20
362.720138
 30
0.0
 10
100.903501
 20
362.720138
 30
0.0
  0
SPLINE
  5
367
100
AcDbEntity
  8
Layer_1
 62
7
100
AcDbSpline
 70
8
 71
3
 72
8
 73
4
 74
0
 40
0
 40
0
 40
0
 40
0
 40
1
 40
1
 40
1
 40
1
 10
100.903501
 20
362.720138
 30
0.0
 10
101.348148
 20
362.720138
 30
0.0
 10
101.737673
 20
362.681553
 30
0.0
 10
102.072076
 20
362.604384
 30
0.0
  0
SPLINE
  5
368
100
AcDbEntity
  8
Layer_1
 62
7
100
AcDbSpline
 70
8
 71
3
 72
8
 73
4
 74
0
 40
0
 40
0
 40
0
 40
0
 40
1
 40
1
 40
1
 40
1
 10
102.072076
 20
362.604384
 30
0.0
 10
102.406481
 20
362.530888
 30
0.0
 10
102.713324
 20
362.398596
 30
0.0
 10
102.992606
 20
362.207509
 30
0.0
  0
SPLINE
  5
369
100
AcDbEntity
  8
Layer_1
 62
7
100
AcDbSpline
 70
8
 71
3
 72
8
 73
4
 74
0
 40
0
 40
0
 40
0
 40
0
 40
1
 40
1
 40
1
 40
1
 10
102.992606
 20
362.207509
 30
0.0
 10
103.286587
 20
362.005397
 30
0.0
 10
103.514423
 20
361.744488
 30
0.0
 10
103.676114
 20
361.424783
 30
0.0
  0
SPLINE
  5
36a
100
AcDbEntity
  8
Layer_1
 62
7
100
AcDbSpline
 70
8
 71
3
 72
8
 73
4
 74
0
 40
0
 40
0
 40
0
 40
0
 40
1
 40
1
 40
1
 40
1
 10
103.676114
 20
361.424783
 30
0.0
 10
103.837803
 20
361.105078
 30
0.0
 10
103.918647
 20
360.704528
 30
0.0
 10
103.918647
 20
360.223134
 30
0.0
  0
LWPOLYLINE
  5
36b
100
AcDbEntity
  8
Layer_1
 62
7
100
AcDbPolyline
 90
6
 70
1
 10
98.924638
 20
361.595649
 30
0.0
 10
98.924638
 20
365.823470
 30
0.0
 10
103.863527
 20
365.823470
 30
0.0
 10
103.863527
 20
364.858843
 30
0.0
 10
99.988483
 20
364.858843
 30
0.0
 10
99.988483
 20
362.676029
 30
0.0
  0
LWPOLYLINE
  5
36c
100
AcDbEntity
  8
Layer_1
 62
7
100
AcDbPolyline
 90
2
 70
1
 10
103.918647
 20
360.223134
 30
0.0
 10
103.918647
 20
360.223123
 30
0.0
  0
ENDSEC
  0
SECTION
  2
OBJECTS
  0
DICTIONARY
  5
C
330
0
100
AcDbDictionary
  3
ACAD_GROUP
350
D
  3
ACAD_MLINESTYLE
350
17
  0
DICTIONARY
  5
D
330
C
100
AcDbDictionary
  0
DICTIONARY
  5
1A
330
C
100
AcDbDictionary
  0
DICTIONARY
  5
17
330
C
100
AcDbDictionary
  3
STANDARD
350
18
  0
DICTIONARY
  5
19
330
C
100
AcDbDictionary
  0
ENDSEC
  0
EOF
